<?xml version="1.0" standalone="no"?>
<!DOCTYPE svg PUBLIC "-//W3C//DTD SVG 1.1//EN" "http://www.w3.org/Graphics/SVG/1.1/DTD/svg11.dtd" >
<svg xmlns="http://www.w3.org/2000/svg">
<metadata></metadata>
<defs>
<font id="enyo_serif_mediummedium" horiz-adv-x="423" >
<font-face units-per-em="2048" ascent="1536" descent="-512" />
<missing-glyph horiz-adv-x="260" />
<glyph unicode="&#xfb01;" horiz-adv-x="731" d="M0 688l4 84l41 -2q10 -2 21.5 -2h23.5q0 14 -1 25.5t-1 21.5v14l-4 72q0 16 -1 32.5t-1 33.5q0 20 1 38.5t3 34.5v11q4 27 9 55.5t30 56.5q37 41 81 45t83 2v-2h125v-84h-43h-16.5h-27t-26.5 1t-18 1q-35 2 -57.5 0t-39.5 -18q-10 -10 -12 -25.5t-4 -38.5v-10 q-2 -16 -3 -32.5t-1 -32.5t1 -31.5t1 -32.5q2 -18 2 -36.5v-37.5l2 -14v-47h21q25 2 50 3t52 1h41v-84h-41q-25 0 -50.5 -1t-47.5 -1q-6 0 -12.5 -1t-12.5 -1l8 -289v-46t2 -46q2 -27 2 -51.5v-48.5q0 -41 -1 -74t-3 -57h58h41v-84h-136q-18 -2 -39.5 -2h-56.5h-43v84h92 q2 25 3 58.5t1 74.5v47t-2 51q0 23 -1 46.5t-1 45.5l-6 289q-12 0 -24.5 1t-22.5 1zM408 776v84h67q10 0 22.5 1t26.5 -1l37 -4l2 -35q4 -80 6 -140t2 -110.5t-1 -93.5t-1 -88q-2 -61 -4 -135t0 -182h19h41v-84h-41q-12 0 -22.5 1t-20.5 1h-36t-42 -2l-41 -4l-6 84l41 4 q6 0 12 1t12 1q-2 109 0 182.5t4 134.5q0 41 1 81t1 84t-2 98.5t-4 121.5h-73zM477 1067v43q0 18 2 29v63h84v-72q-2 -6 -2 -20v-43h-84z" />
<glyph unicode="&#xfb02;" horiz-adv-x="720" d="M0 688l2 84l43 -2q10 -2 21.5 -2h21.5q-2 18 -2 33.5v25.5v2q0 18 -1 37t-1 35q-2 16 -2 32.5v33.5q-2 20 -1 38.5t3 34.5q2 4 2 11q2 27 8 55.5t29 56.5q37 41 81 45t83 2l2 -2h112h69t44 -2l35 -2l2 -37q10 -164 10 -327.5t-4 -325.5q-2 -111 -3 -221.5t1 -220.5 q12 -2 22.5 -1t20.5 1h43v-84h-43h-21.5t-25.5 2h-66.5t-58.5 -2l-41 -4l-8 84l43 4q10 0 23.5 1t27.5 1q-2 111 -1 220t3 220q4 152 4 304.5t-6 305.5h-100h-16.5h-27t-26.5 1t-18 1h-2q-35 2 -56.5 0t-38.5 -18q-10 -10 -12 -25.5t-4 -38.5q-2 -4 -2 -10q-2 -16 -3 -32.5 t1 -32.5v-31.5t2 -32.5q0 -18 1 -36.5t1 -37.5v-2v-25.5t2 -33.5h21q25 2 50 3t52 1h41v-84h-41q-25 0 -50.5 -1t-49.5 -1q-6 0 -11.5 -1t-9.5 -1l4 -289q0 -23 1 -46t1 -46q2 -27 3 -51.5t1 -48.5q0 -41 -1 -74t-3 -57h56h43v-84h-138q-18 -2 -39.5 -2h-56.5h-41v84h92 q2 23 3 57.5t1 75.5q0 23 -1 47t-1 51l-4 92l-4 289q-12 0 -24.5 1t-24.5 1z" />
<glyph unicode="&#xfb03;" horiz-adv-x="1067" d="M0 688l4 84l43 -2q10 -2 21.5 -2h21.5q-2 16 -2 31.5v25.5v4l-4 72v32.5t-2 33.5q0 20 1 38.5t3 34.5v11q4 27 9 55.5t30 56.5q37 41 81 45t83 2l43 -4l-6 -84l-43 4q-35 2 -57.5 0t-39.5 -18q-10 -10 -12 -25.5t-4 -38.5v-10q-2 -16 -3 -32.5t-1 -32.5q2 -16 2 -31.5 v-32.5l4 -74v-4v-59h27h12q10 0 21.5 1t23.5 1q20 2 39.5 4t42.5 -2t43 -4h43q-2 18 -2 33.5v25.5v2q0 18 -1 37t-1 35t-1 32.5t-1 33.5q-2 20 0 38.5t4 34.5v11q2 27 8 55.5t29 56.5q37 41 82 45t84 2v-2h125v-84h-41h-17.5h-28t-26.5 1t-19 1q-35 2 -57 0t-39 -18 q-10 -10 -12 -25.5t-4 -38.5q0 -4 -1 -6t-1 -4q-2 -16 -3 -32.5t1 -32.5v-31.5t2 -32.5q0 -18 1 -36.5t1 -37.5v-2v-25.5t2 -35.5q4 0 9 1t11 1q25 2 50.5 3t52.5 1h43v-84h-43q-25 0 -50.5 -1t-50.5 -3q-6 0 -11 -1t-9 -1l4 -287l4 -92q0 -27 1 -51.5t1 -48.5q0 -41 -1 -74 t-3 -57h55h43v-84h-129q-16 -2 -35.5 -2h-54.5h-43v84h80q2 25 3 58.5t1 74.5q0 23 -1 47t-1 51l-4 92l-4 289h-49.5t-46.5 4q-31 2 -68 0q-12 -2 -24.5 -3t-24.5 -1h-39l6 -287q0 -23 1 -46t1 -46q2 -27 2 -51.5v-48.5q0 -39 -1 -73t-3 -58h45h41v-84h-129q-16 -2 -35.5 -2 h-54.5h-43v84h92q2 23 4 57.5t0 75.5v47t-2 51q0 23 -1 46.5t-1 45.5l-4 289h-24.5t-24.5 2zM743 776v84h66q12 0 24.5 1t26.5 -1l35 -4l2 -35q4 -80 6 -140t3 -110.5t0 -93.5t-3 -88q-2 -61 -3 -135t1 -182h17h43v-84h-43q-10 0 -20.5 1t-20.5 1h-38t-40 -2l-43 -4l-6 84 l43 4q6 0 12 1t12 1q-2 109 -1 182.5t3 134.5q2 41 3 81t1 84t-2 98.5t-4 121.5h-74zM813 1067v72q2 6 2 20v43h84v-43q0 -18 -2 -29v-63h-84z" />
<glyph unicode="&#xfb04;" horiz-adv-x="1056" d="M0 688l4 84l41 -2q10 -2 21.5 -2h21.5v49l-2 12v37t-2 37q0 16 -1 31.5t-1 32.5q0 20 1 38.5t3 34.5v11q4 27 9 55.5t30 56.5q37 41 81 45t83 2l43 -4l-6 -84l-43 4q-35 2 -57.5 0t-39.5 -18q-10 -10 -12 -25.5t-4 -38.5v-10q-2 -16 -3 -32.5t-1 -32.5t1 -31.5t1 -32.5 q2 -18 2 -36.5v-37.5l2 -12v-51h27h12q10 0 21.5 1t23.5 1q20 2 39.5 4t42.5 -2t43 -4h43q-2 18 -2 32.5v24.5v4q0 18 -1 37t-1 35q-2 16 -2 32.5v33.5q-2 20 -1 38.5t3 34.5q0 6 2 9q2 27 8 54t29 54q35 41 78 48t88 3h114h67t44 -2l37 -2l2 -37q10 -164 9 -327.5 t-3 -325.5q-2 -111 -3 -221.5t-1 -220.5q12 -2 23.5 -1t21.5 1h41v-84h-41h-22.5t-26.5 2h-65t-60 -2l-41 -4l-6 84l41 4q12 0 24.5 1t26.5 1q0 111 1 220t3 220q2 152 3 304.5t-7 305.5h-98h-17.5h-28t-26.5 1t-19 1q-35 2 -57 -2t-39 -22q-10 -10 -12 -23.5t-6 -36.5v-8 q-2 -16 -3 -32.5t-1 -32.5l4 -64q0 -18 1 -36.5t1 -37.5v-4v-25.5t2 -33.5q4 0 9 1t11 1q25 2 50.5 3t52.5 1h41v-84h-41q-25 0 -50.5 -1t-50.5 -3q-6 0 -11 -1t-9 -1l4 -287q0 -23 1 -46t1 -46q2 -27 2 -51.5v-48.5q2 -41 0 -75t-2 -56h55h43v-84h-131q-16 -2 -34.5 -2 h-53.5h-43v84h80q0 23 2 57.5t2 75.5l-4 98q0 23 -1 46.5t-1 45.5l-4 289h-49.5t-46.5 4q-31 2 -68 0q-12 -2 -24.5 -3t-26.5 -1h-39l8 -287v-46t2 -46q0 -27 1 -51.5t1 -48.5q0 -41 -1 -74t-3 -57h43h43v-84h-129q-16 -2 -35.5 -2h-54.5h-43v84h92q2 23 3 57.5t1 75.5 q0 23 -1 47t-1 51q-2 23 -2 46.5v45.5l-8 289h-23.5t-23.5 2z" />
<glyph horiz-adv-x="2048" />
<glyph horiz-adv-x="2048" />
<glyph unicode="&#xd;" horiz-adv-x="2048" />
<glyph unicode=" "  horiz-adv-x="260" />
<glyph unicode="&#x09;" horiz-adv-x="260" />
<glyph unicode="&#xa0;" horiz-adv-x="260" />
<glyph unicode="!" horiz-adv-x="276" d="M61 1130l2 44l84 -7l-2 -43q-4 -47 0.5 -96t8.5 -102l8 -78t4 -80q0 -31 1 -62.5t1 -60.5q2 -41 3 -80t1 -80v-45t2 -49q0 -29 1 -63.5t1 -69.5v-41h-84v41v67.5t-2 63.5q-2 27 -2 50.5v45.5q0 41 -1 80t-3 76q0 31 -1 62.5t-1 62.5q0 37 -3 75t-7 77q-6 53 -10.5 106 t-0.5 106zM94 -12v112h84v-112h-84z" />
<glyph unicode="&#x22;" horiz-adv-x="344" d="M0 1065v36.5v51.5v41h84v-41v-50.5v-35.5t1 -34.5t3 -45.5v-41l-82 -4l-2 43q-2 27 -3 45.5t-1 34.5zM164 1153v41h84v-41q0 -16 1 -39.5t1 -50.5q2 -29 3 -45.5t1 -32.5v-41h-84v41q0 16 -1 31.5t-3 42.5q0 29 -1 53.5t-1 40.5z" />
<glyph unicode="#" horiz-adv-x="1024" d="M0 358v84h145h101v166v45t2 64q-49 2 -100.5 3t-104.5 1h-43v84h43q53 0 105.5 -2t103.5 -4q0 27 2 35q0 51 -1 87.5t-3 71.5q-2 31 -3 65t-1 81v41h84v-41q0 -45 1 -78t3 -64q2 -37 3 -74.5t-1 -91.5v-34q47 -4 96 -4h100h3h34.5t38.5 2q0 86 -1 171t-1 173v41h84v-41 q0 -86 1 -171t1 -169q4 0 9.5 1t11.5 1q47 4 94 6t90 2h43v-84h-43q-41 0 -87 -2t-91 -6q-10 -2 -27 -2q0 -70 1 -139.5t1 -139.5q16 0 33.5 2t34.5 4l135 7h41l2 -84h-43q-33 0 -64.5 -2.5t-64.5 -4.5l-74 -6v-39q0 -23 -1 -42t-3 -40q-2 -18 -3 -35.5t-1 -33.5t1 -30.5 t3 -31.5q2 -16 3 -34.5t1 -36.5v-41h-84v41q0 16 -1 30.5t-3 30.5t-3 34.5t-1 37.5q0 20 1 39.5t3 38.5q2 18 3 36.5t1 36.5v39h-51q-115 6 -229 6v-39v-83.5t2 -83.5q0 -29 1 -60t1 -61v-43h-82l-2 41v61.5t-2 59.5q-2 41 -2 83.5v85.5v39h-101h-145zM330 442q117 0 233 -6 q12 -2 23.5 -2h23.5q0 70 -1 138.5t-1 136.5h-73h-3q-53 0 -102 1t-98 3q-2 -31 -2 -59.5v-45.5v-166z" />
<glyph unicode="$" horiz-adv-x="518" d="M0 -23l2 43q2 12 2 25.5v28.5v22.5t2 24.5v10q2 27 2 52.5t-4 47.5l84 15q6 -51 25 -84q18 -41 55 -74q0 76 1 151.5t3 151.5v72q0 29 1 58.5t1 58.5q-12 16 -23.5 33.5t-21.5 33.5l-10 12q-23 35 -44.5 70t-33.5 76q-4 10 -5 18t-3 19q-4 10 -8 30q-33 96 6 189 q41 96 127 119l16 4q0 35 -1 70.5t-1 72.5l-2 43l84 2l2 -41q0 -39 1 -78t1 -77q37 -12 70 -39q4 -4 6 -4v51h84v-41q0 -10 -1 -20.5t-1 -22.5q-2 -27 -2 -53.5t8 -47.5l-82 -24q-10 29 -30.5 58.5t-49.5 47.5q2 -117 1 -234.5t-3 -240.5l12 -16q41 -55 74 -106.5t57 -108.5 q23 -53 25 -100.5t0 -96.5q-4 -55 -22.5 -83.5t-51.5 -63.5q-18 -16 -44.5 -32.5t-55.5 -23.5q0 -31 2 -61.5t6 -60.5l6 -60l-84 -8l-4 59q-4 35 -7 71t-3 71q-23 10 -43.5 27.5t-36.5 37.5v-19t-2 -20l-2 -41zM93.5 964.5q-1.5 -30.5 10.5 -65.5l11 -41l6 -29 q8 -29 22.5 -53t32.5 -51v373q-23 -6 -40 -24.5t-27 -43.5q-14 -35 -15.5 -65.5zM252 63q21 9 41 29q29 29 38 43.5t11 46.5q2 45 0 82t-18 78q-29 61 -68 123v-2v-72q-2 -82 -3 -164t-1 -164z" />
<glyph unicode="%" horiz-adv-x="1050" d="M0 979v8q0 31 9 64.5t27.5 63.5t48.5 50.5t71 22.5h2q119 0 186.5 -69.5t67.5 -192.5q0 -147 -95 -205q-39 -23 -86 -23q-35 0 -69.5 11.5t-63.5 29.5q-37 25 -57.5 52.5t-29.5 58.5t-10 63.5t-1 65.5zM82 -70l18 37q76 160 141.5 288t133.5 257q41 82 85 166t93 182 q10 18 29.5 59.5t43 95.5t49 118.5t46.5 130.5l12 41l80 -25l-12 -41q-23 -68 -48.5 -134.5t-50 -122.5t-45 -98t-28.5 -63q-49 -98 -94.5 -182t-85.5 -166q-66 -129 -131.5 -256t-141.5 -285l-18 -38zM84 979q0 -70 8 -105.5t53 -64.5q39 -27 86 -27q27 0 43 13 q53 29 54 129q0 180 -170 180q-20 0 -33.5 -13.5t-23 -32t-13.5 -38t-4 -33.5v-8zM520 276q0 147 94 203q39 23 88 23q72 0 132 -39q37 -25 56 -53.5t28.5 -59.5t11.5 -63.5t2 -65.5v-6q0 -31 -8.5 -65.5t-27.5 -64.5t-49 -49.5t-71 -21.5h-2q-119 0 -185.5 70t-68.5 192z M604 276q2 -178 170 -178q20 0 34.5 13.5t24 31t12.5 37t3 33.5v8q0 70 -8.5 105.5t-53.5 66.5q-16 10 -38.5 17.5t-45.5 7.5q-25 0 -45 -10q-53 -33 -53 -132z" />
<glyph unicode="&#x26;" horiz-adv-x="653" d="M0 291v53q-6 154 66 227q14 14 32 27q-41 31 -68.5 90.5t-29.5 157.5v2q0 47 2 91t18 91q12 31 37 69t60 62q35 25 75.5 26t71.5 -7h6q18 -4 38 -10.5t36 -22.5v33h84v-43v-28.5t2 -25.5v-32q0 -8 -1 -15.5t-1 -13.5v-23l-82 -14q-10 27 -19.5 48.5t-25.5 39.5 q-8 10 -18.5 14.5t-32.5 10.5h-6q-49 12 -80 -4q-18 -14 -35.5 -39t-28.5 -54q-14 -37 -15 -72.5t-1 -78.5v-2q2 -70 17.5 -112t39 -63.5t51 -28.5t56.5 -7l98 4l4 -84l-102 -4l-39 -2q-57 -10 -82 -37q-49 -49 -43 -168v-57q-2 -49 1 -93t32 -77q25 -33 51 -45 q16 -8 31.5 -12.5t25.5 -2.5l37 4q12 0 28.5 1.5t22.5 5.5q6 2 15.5 10t17.5 14q4 4 6 5t4 5q43 39 48.5 98.5t1.5 125.5q-2 10 -2.5 21t-0.5 22h-38h-41v82h41q20 0 35.5 2t31.5 6q20 4 41 5t47 -3l41 -4l-12 -84l-41 6h-21v-24.5t2 -24.5q2 -35 2.5 -74t-6 -78t-24 -74.5 t-49.5 -64.5l-9 -8q-12 -10 -26.5 -22.5t-32.5 -18.5q-16 -8 -36.5 -10t-41.5 -2q-10 -2 -17 -2.5t-11 -0.5q-6 -2 -19 -2q-35 0 -86 23q-45 20 -82 68q-41 51 -47 110.5t-4 114.5z" />
<glyph unicode="'" horiz-adv-x="180" d="M0 1065v36.5v51.5v41h84v-41v-50.5v-35.5t1 -34.5t3 -45.5v-41l-82 -4l-2 43q-2 27 -3 45.5t-1 34.5z" />
<glyph unicode="(" horiz-adv-x="350" d="M1 544.5q1 102.5 5 205.5q2 16 2 32.5t2 32.5v25q4 63 9.5 119.5t31.5 119.5q4 16 8 23q16 43 38 86t67 67l37 21l41 -74l-37 -20q-25 -14 -39 -44t-29 -65l-4 -12l-4 -12q-23 -53 -27 -103.5t-8 -109.5v-25q-2 -16 -2 -32.5t-2 -33.5q-4 -98 -6 -197t14 -198 q4 -12 4 -24.5t2 -24.5q2 -16 4.5 -30.5t4.5 -28.5q2 -8 3 -14.5t3 -14.5q6 -35 13 -68.5t18.5 -64.5t28 -56.5t38.5 -39.5l35 -23l-45 -72l-35 23q-35 23 -57.5 55.5t-38 71.5t-24.5 80t-15 78q-4 20 -6 28q-4 16 -5 32.5t-3 33.5q-2 12 -3.5 24.5t-3.5 22.5 q-16 104 -15 206.5z" />
<glyph unicode=")" horiz-adv-x="366" d="M0 -33l39 19q35 14 74 65q23 27 26.5 61.5t7.5 75.5q0 14 1.5 28.5t3.5 31.5q10 88 12 172t2 166v14v49v119q2 51 -6 102.5t-19 102.5q-4 14 -6 26.5t-4 26.5q-25 123 -82 156l-37 18l39 76l37 -21q92 -49 125 -215l4 -24t6 -25q10 -55 20.5 -111.5t6.5 -115.5v-113v-51 v-14q0 -86 -2 -171t-12 -177q-2 -12 -3.5 -25.5t-1.5 -30.5q-4 -45 -11 -94t-42 -90q-51 -66 -104 -88l-37 -19z" />
<glyph unicode="*" d="M0 1004l37 20l8 6l39 19l-25 12l-10 6l-37 20l39 74l37 -18l10 -6l33 -19v37v41h82v-41v-49q14 4 26.5 9t22.5 13l35 23l47 -70l-35 -22q-20 -14 -41 -21l23 -14l49 -29l-43 -71l-51 30l-33 19q2 -10 3 -21.5t-1 -25.5v-41l-84 2v41q2 10 1 19t-3 20q0 2 -1 3t-1 3h-6 q-16 -6 -33 -17l-10 -6l-37 -20z" />
<glyph unicode="+" horiz-adv-x="534" d="M0 553v86h61h56.5t56.5 -2q0 6 1 12t1 13v151h86v-180q16 0 31.5 1t34.5 1q16 0 32.5 1t34.5 1h43v-86h-43q-16 0 -31.5 -1t-31.5 -1t-30.5 -1t-31.5 -1h-8v-60q2 -16 2 -34.5v-34.5v-43h-86v43q0 16 -1 33.5t-1 33.5t-1 33t-1 33q-29 2 -56.5 2h-56.5h-61z" />
<glyph unicode="," horiz-adv-x="219" d="M0 25v30v39l41 2q6 0 19.5 1t23.5 -1l37 -2l2 -37v-37q0 -8 -2 -39.5t-10 -64.5l-9 -41l-82 19l9 40q4 12 5 25.5t3 26.5h-35z" />
<glyph unicode="-" horiz-adv-x="471" d="M0 553v84h41q23 0 45.5 -1t44.5 -1h88h27.5t27.5 2h60h41v-84h-41h-55q-14 -2 -29 -2h-31h-88q-23 0 -45.5 1t-44.5 1h-41z" />
<glyph unicode="." horiz-adv-x="215" d="M-1 43q1 10 1 14v39l39 2h43l37 -2l2 -37v-30v-43h-41h-8h-15h-18l-37 2l-2 39q-2 6 -1 16z" />
<glyph unicode="/" horiz-adv-x="598" d="M0 -90l12 41q51 160 94.5 287t88.5 256q29 82 57.5 165.5t60.5 182.5q6 18 19.5 59t30 95.5t33 119t30.5 131.5l8 41l82 -16l-8 -41q-14 -68 -31.5 -134.5t-34 -122.5t-30 -98t-19.5 -61q-33 -98 -61.5 -182t-57.5 -166q-45 -129 -88 -256t-94 -287l-12 -39z" />
<glyph unicode="0" horiz-adv-x="585" d="M0 569v11q0 68 1 129t7 122q6 51 17.5 107.5t42.5 108.5q4 6 8 22l9 22.5t13 24.5q27 37 74 55q20 6 39.5 10.5t40.5 4.5q51 0 94 -25q37 -20 61.5 -52t39 -68.5t21.5 -75.5t9 -74q4 -104 7 -217t3 -242v-53q2 -47 1 -100.5t-11 -104.5q-27 -127 -125 -178 q-51 -21 -100 -21t-86 15q-33 10 -53.5 26.5t-32.5 36t-18.5 41t-10.5 41.5l-6 27q-23 88 -34 186t-11 221zM84 569q0 -117 10 -210t33 -175l6 -28q10 -41 19.5 -58.5t37.5 -27.5q31 -10 62 -11q35 0 63 13q37 18 55.5 52t27 76t8.5 88t-3 89v55q0 127 -3 238.5t-7 216.5 q-2 23 -6 51.5t-13 57t-25.5 54t-43.5 40.5q-24 12 -53 12q-23 0 -49 -10q-20 -8 -37 -25q-4 -4 -5 -10t-5 -15q-4 -10 -7.5 -19t-9.5 -19q-25 -41 -34 -88.5t-13 -94.5q-6 -61 -7 -124.5t-1 -116.5v-11z" />
<glyph unicode="1" horiz-adv-x="491" d="M-18 838l28 30q18 20 32.5 46t31.5 53q12 27 30 55l21 35q18 27 40.5 63.5t22.5 57.5v2h82q4 -76 6.5 -150t4.5 -145v-41t2 -43q2 -90 1 -177t-3 -171q-2 -16 -1 -33t1 -35v-61q0 -16 -1 -34t-4 -34q-2 -16 -4 -29.5t-2 -29.5v-127q16 0 27 2q25 2 48.5 2h47.5l41 -2 l-4 -84l-41 2h-44t-44 -2q-14 0 -27.5 -1t-27.5 -1h-17q-25 0 -48 1t-48 3q-16 0 -30.5 1t-30.5 1l-41 2l2 84l43 -2l61 -4q12 -2 24.5 -2h24.5v127q0 18 2 35.5t5 33.5q2 16 3 29.5t1 30.5v57q0 18 -1 36.5t1 35.5q2 84 3 170t-1 174q-2 23 -2 43v43l-4 121l-19 -27 q-6 -12 -13 -24.5t-14 -26.5q-16 -31 -33.5 -60.5t-41.5 -56.5l-29 -31z" />
<glyph unicode="2" horiz-adv-x="528" d="M0 -14v39q0 47 3 83.5t9 71.5q2 12 4 23.5t7 21.5l6 25q6 27 14 53.5t18 52.5q14 35 33 66q4 12 10.5 23.5t10.5 23.5l30 61q29 51 43 97q12 37 27.5 70.5t32.5 66.5q6 10 11 22.5l9 22.5q23 43 43 100q6 23 9.5 41.5t1.5 42.5v15q-2 18 -3.5 27t-7.5 20l-2 4 q-12 16 -18 20q-27 20 -58 21q-16 2 -38.5 3t-44.5 -3q-29 -6 -39 -29q-12 -16 -19 -35q-6 -25 -6 -55v-43l-84 2v41q0 23 2 41t6 35q4 18 12.5 32.5t18.5 30.5q37 51 96 62q39 8 103 2q53 -4 100 -35q14 -10 22.5 -21.5t16.5 -21.5l2 -4q16 -25 19 -47.5t6 -44.5v-13 q2 -61 -15 -112q-10 -29 -22.5 -57.5t-24.5 -55.5q-4 -10 -10 -22.5t-10 -22.5q-35 -68 -56 -125q-10 -31 -22.5 -57.5t-24.5 -52.5q-16 -29 -28 -58l-25 -49q-8 -16 -15.5 -29.5t-11.5 -29.5q-10 -23 -17 -47.5t-13 -47.5q-2 -10 -7 -26q-4 -10 -6 -20.5t-4 -20.5 q-4 -23 -6 -46.5t-4 -51.5q14 2 25.5 2t23.5 2q16 0 32.5 1t37.5 1h47q27 -2 52.5 -2h51.5q2 10 1 17t-1 26l-2 41l84 4l2 -43q2 -29 2 -39t-4 -33q0 -10 -2 -18l-2 -37h-39q-74 -2 -145 0h-45q-18 0 -32.5 -1t-31.5 -1q-16 -2 -30.5 -3t-32.5 -1q-8 0 -17.5 1t-19.5 1z" />
<glyph unicode="3" horiz-adv-x="536" d="M0 137l78 31l16 -39q16 -41 44 -53.5t69 -16.5h2q35 -4 57.5 3.5t35.5 21.5t23.5 35.5t20.5 50.5l12 31q27 70 21 127t-23 129l-12 57q-8 39 -26.5 67.5t-40 49t-44 34t-40.5 23.5q-12 6 -21.5 11.5t-15.5 13.5v57l59 72q10 12 16.5 24.5t14.5 28.5q4 8 8 16.5t10 18.5 l31 61q12 25 24.5 51.5t26.5 49.5q-10 0 -21.5 -1t-21.5 -4q-10 0 -21.5 -1t-21.5 -1q-47 -4 -80 -4t-88 2v-71h-84v157l43 -2q41 -2 68.5 -2h49t41 1t46.5 1l39 4q37 4 75 5.5t72 -11.5l11 -4v-69q-23 -20 -44.5 -60.5t-37.5 -77.5q-10 -18 -17.5 -34.5t-17.5 -32.5 l-14 -29q-10 -16 -18.5 -34.5t-24.5 -35.5l-29 -36q20 -12 47 -29.5t51.5 -44.5t46 -62.5t31.5 -83.5l12 -57q8 -37 15.5 -73.5t9.5 -73.5t-4 -76t-23 -82q-4 -8 -6 -14t-4 -15q-12 -31 -26.5 -61.5t-37.5 -54.5q-49 -49 -131 -50h-30l-2 2q-18 2 -43 5.5t-51.5 15.5 t-50 35.5t-38.5 64.5z" />
<glyph unicode="4" horiz-adv-x="530" d="M0 469v74l70 143q12 29 23 50.5t20 37.5l71 150l19 43q4 4 5 9t5 13q12 27 31.5 71t52.5 103l8 15h70l2 -33q2 -98 3 -192.5t-1 -178.5q0 -59 -2 -115.5t-6 -113.5h82v-84h-86l-5 -60q-2 -51 0.5 -103t6.5 -103q4 -41 6 -83t2 -83v-41h-84v41q0 41 -2 81l-4 80 q-4 53 -7.5 106.5t1.5 106.5v27.5t2 28.5h-2q-59 -2 -113.5 -2t-142.5 10zM94 545q57 -4 97 -4t88 2h8q4 57 6 115.5t2 117.5q4 88 0 191q0 -2 -4 -11q-4 -8 -6 -14l-4 -12q-6 -10 -11.5 -20.5t-9.5 -20.5q-16 -39 -34.5 -77t-37.5 -77q-10 -14 -20 -35.5t-23 -50.5z" />
<glyph unicode="5" horiz-adv-x="487" d="M0 668l2 45l8 73v15q4 23 5 36t5 27l7 41q2 10 2 31q0 10 1 19.5t3 19.5l6 37q0 10 4 30l12 93l4 32l33 4q63 6 117 7h2q6 0 17.5 -1t25.5 -1q8 -2 13 -2h9h11q23 -2 36 -2.5t39 2.5h44l4 -82l-43 -2q-29 -2 -45.5 -2.5t-38.5 2.5h-11q-14 0 -24 2q-10 0 -21.5 1t-15.5 1 h-37.5t-38.5 -2l-10 -62q0 -12 -4 -33l-6 -34q0 -6 -1 -13.5t-1 -15.5v-20.5t-2 -20.5l-9 -43q-2 -14 -4 -26.5t-4 -30.5q0 -10 -2 -15v-12t-2 -16q8 0 14.5 -1t16.5 -1q88 0 166 -62q14 -12 24.5 -25.5t20.5 -25.5l10 -12q10 -16 23.5 -35t23.5 -41q16 -35 24.5 -70 t10.5 -69v-58q2 -59 -3 -124.5t-40 -123.5q-14 -25 -45 -59.5t-78 -52.5q-28 -13 -53 -13q-20 0 -36.5 4.5t-33.5 8.5l-20 6q-70 18 -101 106l-12 39l78 27l14 -39q4 -12 14.5 -29.5t26.5 -21.5l25 -6q23 -8 37 -10.5t30 4.5q47 20 82 79q27 41 30 95.5t1 107.5v60 q0 45 -27 104q-14 31 -39 59l-10 15q-8 10 -14 18t-17 17q-18 16 -47.5 29.5t-64.5 13.5q-10 0 -18.5 1t-16.5 1t-17.5 1t-25.5 1h-43z" />
<glyph unicode="6" horiz-adv-x="528" d="M0 399q0 14 1 26.5t1 25.5h-2l2 10q2 25 3 47t1 45q2 6 2 13v14q2 16 2 33.5t4 35.5v2q4 25 8.5 50.5t10.5 48.5l4 20q16 53 30.5 107.5t36.5 107.5q23 57 56 113.5t92 85.5l37 18l39 -74l-37 -18q-39 -20 -64.5 -65.5t-44.5 -92.5q-20 -49 -34.5 -100t-28.5 -104l-6 -19 q-4 -20 -7.5 -41.5t-7.5 -42.5q10 6 19.5 12.5t19.5 10.5q47 23 93 17.5t77 -21.5q47 -23 70 -56q4 -6 6 -11t6 -11t7 -12.5t7 -10.5q16 -23 23.5 -41t13.5 -41q12 -47 13 -102q4 -78 -4.5 -164t-67.5 -162q-29 -37 -72 -57.5t-88 -20.5q-39 0 -78 17q-23 10 -35 24.5 t-22 28.5q-4 4 -6 8q-18 23 -29.5 43.5t-19.5 42.5q-6 20 -9.5 40t-5.5 38q-2 6 -2 12.5t-2 10.5q-4 16 -5 31.5t-3 31.5q-2 23 -3 46.5t-1 49.5zM84 399q0 -25 1 -46t3 -44q2 -14 3 -26.5t3 -28.5q4 -16 4 -27q4 -16 6 -31.5t7 -29.5q8 -25 34 -62q6 -6 9 -10 q14 -23 24 -26q35 -16 74 -5t63 41q45 57 51.5 129t4.5 144q-2 47 -13 82q-4 18 -8 30.5t-14 24.5q-6 8 -10 15.5t-9 15.5l-12 18q-2 2 -9 8.5t-26 16.5q-14 8 -41.5 12t-56.5 -8q-57 -25 -80 -121l-6 -22q0 -12 -1 -24.5t-1 -25.5z" />
<glyph unicode="7" horiz-adv-x="477" d="M0 1024v156h43q23 0 48.5 -1t51.5 -1q27 -2 53.5 -3t51.5 -1h86q41 2 48 2h15h33v-89l-12 -49l-41 -155q-4 -27 -10.5 -51.5t-12.5 -49.5q-10 -31 -16 -60.5t-10 -57.5q-6 -51 -11.5 -105.5t-11.5 -112.5q-10 -115 -23.5 -227.5t-29.5 -204.5l-6 -41l-84 17l8 41 q16 88 28.5 198.5t22.5 225.5q6 55 11.5 110.5t11.5 108.5q4 35 12 66.5t16 62.5q6 25 12.5 48t10.5 46q2 12 13 55t28 109l8 29h-96q-27 0 -53.5 1t-53.5 3h-29.5t-27.5 2v-72h-84z" />
<glyph unicode="8" horiz-adv-x="522" d="M-1 252.5q1 60.5 17 114.5q8 23 21.5 44t25.5 40q6 8 11.5 15t9.5 13q39 61 90 129q2 2 2 4q-61 82 -102 148q-16 23 -23.5 49.5t-13.5 48.5q-2 10 -4 18.5t-4 18.5q-29 84 12 170q20 45 54 75.5t77 41.5q18 6 45 6h23l6 -2q23 0 41 -4t37 -13q39 -20 65 -55 q18 -25 31 -49q20 -49 15 -103.5t-15 -95.5q-10 -53 -39 -104t-53 -86l-9 -10q-10 -14 -18 -26.5t-18 -27.5q2 -2 2 -4q35 -43 75.5 -104.5t69.5 -126.5q39 -92 29 -178q-12 -100 -82 -166q-23 -23 -80 -45q-31 -13 -68 -13q-31 0 -55 9q-14 4 -42 15t-50 34 q-20 18 -39.5 42.5t-30.5 61.5q-14 55 -13 115.5zM84 252q0 -49 10 -94q4 -16 15.5 -31.5t29.5 -32.5q23 -18 60 -31q20 -4 30 -4q23 0 39 9q27 10 37 16t14 10q27 27 40.5 58.5t16.5 64.5t-4 64.5t-20 60.5q-23 55 -57.5 107.5t-65.5 93.5q-23 -29 -40 -54.5t-33 -52.5 q-10 -20 -25 -35q-10 -16 -19.5 -30.5t-13.5 -26.5q-14 -43 -14 -92zM109 918q8 -23 10 -39q4 -23 9 -41.5t15 -32.5q18 -29 39 -58.5t47 -64.5q4 8 10.5 15.5t10.5 15.5l8 12q68 96 80 158q8 35 13 76.5t-9 70.5q-4 10 -9 17.5t-11 17.5q-12 18 -35 29q-14 6 -45 10h-4h-21 q-18 0 -27 -2q-47 -12 -73 -72q-23 -55 -8 -112z" />
<glyph unicode="9" horiz-adv-x="520" d="M0 926q4 61 33 149q6 23 22.5 50.5t50.5 43.5q39 18 92.5 18.5t94.5 -20.5q45 -23 79 -63.5t44 -87.5q6 -37 6 -72q0 -6 1 -11t1 -11q2 -27 4 -52.5t6 -52.5q0 -6 1 -11t1 -9q4 -37 1 -74t-7 -72q0 -8 -1 -14t-1 -14q-2 -14 -4 -28.5t-4 -31.5l-2 -8q-20 -133 -66 -266 q-4 -8 -8 -25q-12 -35 -27.5 -78t-38 -83t-53 -73.5t-73.5 -52.5l-39 -18l-35 78l39 16q29 12 52.5 40t40.5 61.5t30.5 69.5t23.5 67q2 8 4 14t4 10q33 90 52 193q-59 -14 -110.5 5t-84.5 36l-4 2q-55 29 -75.5 73t-26.5 89l-3 12q-8 49 -14 99t-6 102zM84 926 q0 -47 5 -93.5t13 -95.5l2 -12q6 -37 18.5 -60.5t41.5 -39.5h2q47 -25 90 -37.5t84 16.5q2 8 2 14.5t2 14.5q0 8 4 29q4 33 7 64.5t-1 59.5q-2 4 -2 10.5t-2 10.5q-4 27 -6 53.5t-4 54.5q0 16 -2 25q0 16 -1 30.5t-3 28.5q-6 27 -27.5 53.5t-50.5 39.5q-24 12 -59 12 q-33 0 -54 -10q-18 -8 -30 -45q-29 -82 -29 -123z" />
<glyph unicode=":" horiz-adv-x="217" d="M-1 43q1 10 1 14v39l39 2h43l37 -2l2 -37v-30v-43h-41h-8h-15h-18l-37 2l-2 39q-2 6 -1 16zM-1 637q1 10 1 14v39l39 2h43l37 -2l2 -37v-30v-43h-41h-8h-15h-18l-37 2l-2 39q-2 6 -1 16z" />
<glyph unicode=";" horiz-adv-x="219" d="M-1 637q1 10 1 14v39l39 2h43l37 -2l2 -37v-30v-43h-41h-8h-15h-18l-37 2l-2 39q-2 6 -1 16zM0 25v30v39l41 2q6 0 19.5 1t23.5 -1l37 -2l2 -37v-37q0 -8 -2 -39.5t-10 -64.5l-9 -41l-82 19l9 40q4 12 5 25.5t3 26.5h-35z" />
<glyph unicode="&#x3c;" horiz-adv-x="350" d="M-4 631q2 0 14.5 9t28.5 21.5t31.5 23.5t25.5 17t26.5 15.5t33 18.5t29 16.5t14.5 7.5l37 20l40 -71l-36 -21l-12 -7q-13 -7 -28.5 -16.5t-31.5 -18.5t-25 -15q-8 -4 -20 -12.5t-25 -18.5q29 -18 67 -43t79 -55l32 -25l-49 -67l-32 24q-37 27 -71 49.5t-61.5 39 t-44.5 26.5l-18 10z" />
<glyph unicode="=" horiz-adv-x="532" d="M0 457v84h43h107h108h66q16 0 34.5 1t34.5 1h43v-84h-43h-32.5t-32.5 -2h-70h-108h-107h-43zM0 645v84h43h31.5t31.5 2q29 0 58 1t57 -3q39 -4 77 -4h79h59v-84h-59h-19q-35 0 -70.5 1t-72.5 3q-27 4 -52.5 3t-53.5 -1q-16 -2 -33 -2h-33h-43z" />
<glyph unicode="&#x3e;" horiz-adv-x="356" d="M-18 707l41 73l36 -22q20 -10 53 -31.5t65 -42t56.5 -37t26.5 -18.5v-70q-2 0 -18.5 -12t-40 -28.5l-47 -33t-37.5 -24.5q-10 -6 -29.5 -17.5t-30.5 -15.5l-37 -18l-36 75l36 19l32 16l20 10q16 10 41.5 29t48.5 35q-35 23 -78 50.5t-66 41.5z" />
<glyph unicode="?" horiz-adv-x="493" d="M0 965q0 53 33 106q27 37 65 66q4 2 8.5 4t8.5 6q16 12 37.5 24.5t54.5 12.5q55 0 99 -30t71 -83q45 -94 33 -215q-6 -66 -33 -127l-12 -33q-10 -29 -22.5 -56.5t-41.5 -51.5l-16 -21l-15 -22q-23 -29 -30 -52.5t-9 -64.5t0 -86q0 -23 1 -44.5t-1 -43.5v-43l-84 2l3 43 q0 20 -1.5 39.5t-1.5 42.5t-1 47.5t1 46.5q2 51 12.5 89t45.5 79l12 14q4 8 10 16.5t17 18.5q16 16 24 33.5t17 40.5l14 39q23 55 29 104q10 90 -27 168q-10 23 -32.5 45.5t-61.5 22.5q-16 -2 -43 -23l-19 -12q-27 -18 -41 -41q-20 -33 -20 -59l2 -41l-84 -4zM147 -12v112 h84v-112h-84z" />
<glyph unicode="@" horiz-adv-x="894" d="M66 160v321l2 29v39q0 90 8 185t55 179q27 45 66 70t84 36t92 13t88 2h10q27 0 61.5 -1t71.5 -10t71 -30.5t56 -60.5q35 -55 40 -117.5t5 -122.5v-24q2 -78 0 -154t-4 -147v-9q-2 -31 -4 -66.5t-9 -70.5t-21.5 -68.5t-39.5 -60.5q-25 -29 -61.5 -41t-71.5 -4 q-12 4 -29.5 11.5t-33.5 23.5q-31 -29 -92 -37h-17q-18 0 -34.5 5t-24.5 9q-25 12 -39 29.5t-22.5 36t-10.5 36t-4 29.5q-2 16 -2 35v35q2 20 0 41q0 16 -1 33.5t-3 36.5q0 10 -1 18t-1 19q-2 47 0 92q2 12 2 24.5v24.5q2 35 5 65.5t15 63.5q8 23 23.5 46.5t38.5 39.5 q39 27 100 14l2 -2q16 -4 35 -12l2 20l84 -4l-2 -43q0 -8 -1 -25.5t-1 -36v-35.5v-24v-10q0 -35 1 -63.5t1 -56t-1 -56.5t-3 -65q-4 -39 -4 -67v-54v-64l2 -6q8 -39 35 -45q16 -4 30.5 2t22.5 16q35 37 41 98.5t10 116.5v9q2 72 4 145.5t0 149.5v26q0 53 -4 104.5t-29 92.5 q-23 41 -69.5 52t-118.5 9h-10q-35 0 -73 -1t-73.5 -9t-64.5 -23.5t-47 -46.5q-39 -68 -45 -151.5t-6 -169.5v-19.5t-2 -19.5v-350q2 -74 12 -133.5t61 -100.5q29 -23 61.5 -26.5t73.5 -1.5q47 4 82 3t82 -5q31 -4 69 3t60 27q18 14 19 39v41h84v-41q0 -61 -45 -100 q-35 -33 -83 -44t-85 -11q-20 0 -29 2q-41 4 -72.5 5t-77.5 -1q-51 -4 -99 3t-93 44q-35 29 -55.5 63.5t-31.5 72.5t-14 78t-3 83zM332 414l4 -37q2 -16 3 -35.5t1 -38.5q2 -10 1 -22.5t-1 -22.5v-30.5t2 -30.5q4 -33 11 -45.5t18 -16.5q8 -4 14 -5t8 -1h6q31 4 44.5 15.5 t17.5 33.5l2 21v45v56.5t4 68.5q2 37 3 64.5t1 54t-1 54t-1 62.5v12v9l-2 14q-2 10 -9.5 21.5t-15.5 19.5l-6 8q-2 2 -4 2t-14 4l-4 2q-23 6 -31 -2q-10 -6 -18.5 -18t-12.5 -25q-16 -47 -16 -102v-27.5t-2 -27.5q-2 -20 -2 -40v-40z" />
<glyph unicode="A" horiz-adv-x="626" d="M0 -14v84h43h29l4 49l12 119q4 16 5 30.5t3 28.5q4 53 13 109l14 86q8 37 14 75.5t10 77.5t11.5 77t13.5 77l18 102l13 84q4 27 7 53.5t7 55.5h-41v84h64h8h59l12 -45q10 -47 20.5 -92.5t16.5 -86.5l2 -18q10 -72 20.5 -144.5t24.5 -144.5q8 -37 12.5 -74.5t8.5 -74.5 l12 -103q6 -41 11.5 -83t9.5 -83q6 -82 18 -157h27h43v-84h-43h-36.5t-27.5 -2h-108v84h61q-6 39 -10 75.5t-8 75.5q-6 84 -19 162q-4 23 -7 47.5t-7 46.5q-4 0 -6 -1t-6 -1q-10 0 -22.5 -1t-24.5 -1h-11h-31.5t-31.5 4q-4 -23 -7 -43t-7 -41q-4 -27 -7.5 -52.5t-7.5 -51.5 l-6 -62l-12 -116l-4 -37h18h41v-84h-41h-37t-26 -2q-14 0 -29.5 -1t-38.5 -1h-43zM221 559q10 -2 23.5 -2h25.5h9h21t22 2q4 0 5 1t5 1q-2 16 -4 34.5t-6 37.5q-16 70 -26.5 140.5t-21.5 141.5q0 -8 -1 -14t-1 -12q-4 -27 -9 -53.5t-9 -53.5q-6 -35 -12 -72.5t-11 -74.5z " />
<glyph unicode="B" horiz-adv-x="569" d="M0 1102l2 84l41 -2q16 0 25 2h24t29 -2q20 -4 41.5 -6t44.5 -9q94 -29 158 -86q62 -58 63 -164q0 -37 -8 -79q-10 -59 -38 -90t-63 -60l-20 -16q-20 -18 -55 -39q33 -10 58.5 -22.5t49.5 -28.5q78 -49 99.5 -108.5t27.5 -131.5q1 -17 1 -33q0 -128 -83 -215 q-51 -53 -123.5 -81.5t-156.5 -28.5q-12 0 -19 2h-94v82h43v49q2 180 4 352t12 350q1 29 1 58v29q-1 44 -5 87q-6 49 -6 105h-10zM131 70q131 6 205 84q60 62 60 154q0 14 -1 30q-4 66 -20.5 103.5t-67.5 70.5q-23 14 -47 26.5t-57 22.5q-47 16 -66 19q-6 -231 -6 -463v-47z M137 1096q0 -47 6 -97q3 -45 5 -90q0 -15 1 -30q0 -30 -2 -62l-6 -137q66 24 105 57l20 19q33 27 48.5 44t21.5 54q6 30 6 64q0 13 -1 26q-3 49 -34 78q-25 23 -56.5 39t-68.5 26q-10 4 -22.5 5.5t-22.5 3.5z" />
<glyph unicode="C" horiz-adv-x="536" d="M0 846q0 47 7 91t24 91q12 33 36.5 71t59.5 62q35 25 76 25t71 -6l7 -2q18 -4 37.5 -10.5t37.5 -20.5v39h84v-43v-64v-28q0 -20 -2 -31v-23l-82 -14q-10 27 -19 48.5t-26 41.5q-12 14 -51 23l-6 2q-21 5 -38 5q-25 0 -40 -11q-20 -14 -37.5 -38t-27.5 -53 q-27 -78 -27 -153q0 -16 1 -34.5t1 -35.5q2 -34 3 -68v-23q0 -23 -1 -46q-3 -41 -4 -83q0 -12 1 -22q1 -54 5 -104q2 -23 2 -43t2 -43v-59q-1 -19 -1 -37q0 -27 2 -54q3 -44 32 -79q25 -31 51 -43q16 -8 31.5 -12.5t26.5 -2.5h6q16 4 39.5 7.5t33.5 11.5q10 6 19.5 24.5 t13.5 34.5l6 41l82 -12l-6 -41q-4 -31 -22.5 -65.5t-47.5 -53.5q-23 -14 -52 -19t-54 -10l-6 -2h-19q-41 0 -86 23q-47 23 -82 68q-41 51 -47 109q-4 44 -4 86v28v55q-2 20 -2 41t-2 43q-2 52 -4 108q-1 18 -1 37q0 37 3 74q2 31 2 62.5t-4 64.5q0 16 -1 34.5t-1 37.5z" />
<glyph unicode="D" horiz-adv-x="561" d="M0 1182l41 2q20 2 40 2q31 0 61 -4q52 -6 104 -37q72 -41 121 -122t69 -185q12 -68 22 -159q8 -66 8 -131q0 -25 -1 -50v-27.5t-2 -30.5q0 -45 -2 -94t-19 -92q-20 -63 -77 -129q-16 -18 -42 -42t-61 -42l-22 -10q-14 -10 -29.5 -18.5t-32.5 -12.5q-29 -10 -63.5 -11 t-63.5 -1h-49v84h45h8l-6 164q-5 80 -5 159q0 27 1 53q2 106 6 209v41l6 109q0 25 1 50.5t3 49.5q0 29 -1 58.5t-3 60.5q0 18 -1 36.5t-1 37.5h-8l-43 -2zM129 448q-1 -26 -1 -52q0 -78 5 -156l6 -164l13 4q10 4 22 10t25 12q8 6 24 15q27 12 46.5 29.5t31.5 33.5 q47 53 61 101q12 35 14.5 76.5t4.5 82.5v64q1 25 1 51q0 58 -6 117q-9 86 -22 151q-16 86 -56 151.5t-95 98.5q-31 18 -64 25q0 -16 1 -33.5t1 -34.5q2 -31 3 -62.5t1 -62.5l-6 -102q0 -27 -1 -53.5t-3 -53.5v-41q-4 -103 -6 -207z" />
<glyph unicode="E" horiz-adv-x="546" d="M0 1090v84h41q14 0 27.5 -1.5t25.5 -1.5q25 -2 48.5 -2t47.5 5q30 3 59 3h15q37 -1 74 -3q10 -2 22.5 -2t22.5 -1l41 -2v-79q0 -12 1 -22.5t1 -16.5v-43h-84v43v14t-2 20v5h-8q-33 2 -67 3h-13q-27 0 -51 -3q-23 -4 -41.5 -4.5t-36.5 -0.5q0 -12 1 -25t3 -28 q2 -18 3 -37.5t1 -38.5q0 -53 1 -104t3 -102v-93l64 7q18 0 36.5 -1t36.5 -1q10 0 22.5 -1.5t22.5 -1.5v15v41h84v-41v-31t2 -16q0 -8 1.5 -18.5t1.5 -35.5v-43h-84v43v2q-14 0 -26.5 1.5t-27.5 1.5q-16 2 -33.5 2h-33.5l-62 -7h-2q2 -147 4 -270t6 -235h51.5t53.5 2t55.5 3 t54.5 -1v80h84v-166l-43 2q-25 1 -49 1h-24q-36 -1 -74 -3q-27 0 -52.5 -1t-51.5 -1q-25 0 -49.5 1t-49.5 3l-41 4l8 84l43 -4q-4 111 -6 232.5t-4 264.5h-39v84h39q-2 23 -2 47.5v47.5q-2 53 -3 104t-1 104q0 16 -1 34t-3 36q-2 16 -3 31.5t-1 32.5h-39z" />
<glyph unicode="F" horiz-adv-x="503" d="M-4 1171l43 3q27 2 51.5 1t46.5 -1q33 -2 62.5 -2.5t60.5 4.5q16 3 30 3h8q18 -1 34 -1q8 0 15 -1t15 -1h41v-41q0 -6 1.5 -18.5t1.5 -22.5v-39l2 -43h-84l-2 41v41q-14 0 -25.5 1t-24.5 -3q-35 -4 -67.5 -5.5t-63.5 0.5q0 -10 -1 -21t-1 -22q0 -16 -1 -30.5t1 -28.5 q1 -25 1 -49v-24q-1 -36 -3 -70v-33q-1 -23 -1 -46v-23q1 -34 3 -68v-6q14 0 27.5 -1t30.5 -1q18 -4 38.5 -3t43.5 1h14v14v41h84v-41q0 -39 2 -47q0 -8 1 -19.5t1 -34.5v-43h-84v43v3h-16h-45h-22.5t-25.5 2q-12 0 -23 1t-24 1v-49.5t-2 -47.5v-79q0 -45 1 -90.5t3 -90.5 l7 -153h65v-82h-41q-23 0 -37 -1t-26 -1q-14 -2 -29.5 -2h-40.5h-41v84h41h25l-7 151q-2 47 -3 92t-1 93v42t2 39v93h-43v84h41v4q-2 36 -3 72v24q0 24 1 49v33q2 36 3 68v21q0 22 -1 46q-2 16 -1 33.5t1 34.5q0 10 1 20t1 21h-14l-41 -3z" />
<glyph unicode="G" horiz-adv-x="542" d="M0 764q0 35 2 67.5t10 67.5q2 12 2 24.5v26.5q0 25 2 50.5t13 54.5q6 14 23.5 44.5t47.5 53.5q18 14 39 20.5t37 10.5q22 5 43 5q44 0 86 -22q10 -6 20.5 -12t20.5 -14v47l84 -2l-2 -41q0 -8 4 -29q2 -10 4 -22.5t0 -26.5q0 -6 -1 -12t-1 -13q-2 -12 -3 -24t1 -25 l-82 -14q-27 84 -82 113q-27 12 -52 12q-11 0 -21 -2q-12 -4 -23.5 -7t-19.5 -10q-12 -10 -24.5 -26.5t-21.5 -36.5q-6 -16 -7 -32.5t-1 -37.5v-33.5t-4 -33.5q-6 -33 -8 -61.5t-2 -61.5v-57.5t2 -57.5q0 -25 1 -50.5t1 -49.5v-172q0 -68 10.5 -130.5t32.5 -115.5 q10 -27 19.5 -38t29.5 -19q28 -12 56 -12l18 1q29 6 51 19q10 4 16.5 12t16.5 23l4 8q8 10 14 20.5t6 18.5l5 41q0 16 -1 33.5t-4 35.5q-6 43 -6 88l4 78q2 23 2 48.5v50.5q-29 -4 -55 0q-16 2 -37 0h-69v84h65q25 2 53 0q16 -4 35 -2t37 4l49 4l4 -41q3 -31 3 -62v-15 q-1 -38 -3 -75q-2 -20 -3 -38.5t-1 -35.5q0 -20 1 -39.5t3 -39.5q6 -43 7 -91q-2 -18 -2 -36.5v-36.5q-2 -23 -2.5 -47.5t-0.5 -46.5v-43h-84v36q-4 -4 -8 -6l-8 -4q-31 -16 -78 -26q-10 -2 -19.5 -3.5t-19.5 -1.5q-45 0 -84 19q-41 18 -59 46t-33 56q-25 59 -37 130 t-12 149v172q0 25 -1 49.5t-1 48.5q0 29 -1 58.5t-1 60.5z" />
<glyph unicode="H" horiz-adv-x="634" d="M0 -14v84h72v129.5t2 138.5q2 197 2 391.5t-8 360.5h-64v81h41q23 0 37 1.5t29 1.5q14 2 29.5 2h37.5h43v-84h-43h-26q4 -96 6 -202t2 -216h101.5t119.5 4q-1 33 -1 65v33q1 49 1 98v108.5t-2 104.5h-25h-43v84h107q14 2 29.5 2.5t39.5 0.5h41v-84h-65q2 -51 2 -104.5 v-111.5v-158.5t4 -158.5q4 -57 4 -112.5t2 -114.5v-125t4 -135h70v-82h-43q-23 0 -37 -1t-27 -1q-14 -2 -29.5 -2h-39.5h-41v84h41h22q-2 72 -3 136t-1 126q-2 57 -2 112.5t-4 110.5q-2 10 -2 20.5v20.5q-59 -4 -120.5 -4h-102.5q0 -63 -1 -127t-1 -127q-2 -72 -2 -136.5 v-127.5h18h43v-84h-108q-14 -2 -30 -2h-38h-41z" />
<glyph unicode="I" horiz-adv-x="346" d="M0 -10v84h94q0 135 1 250.5t5 224.5q3 57 3 114q0 28 -1 57q-2 85 -4 171q-2 51 -3 102t-1 105h-94v84h270v-84h-92q0 -51 1 -102.5t3 -100.5q2 -86 4 -174q1 -29 1 -59q0 -59 -3 -117q-4 -104 -6 -219t-2 -250q10 0 23.5 -1t29.5 -1l43 -2l-4 -84l-41 2q-41 2 -64.5 2 t-49.5 -2h-113z" />
<glyph unicode="J" horiz-adv-x="614" d="M0 307v41l84 2v-41q2 -84 21.5 -135t60.5 -86q29 -23 72 -28q6 -1 12 -1q35 0 59 25q41 41 53.5 94t16.5 107q6 76 10 154.5t6 158.5q0 29 -2 56.5t-4 58.5q-2 16 -3 33.5t-1 33.5l-6 78q-2 37 -4 76t-2 78v27.5t-2 23.5v29h-49h-41l-2 84h43h53h42.5t42 -1t50.5 -1h43 l-2 -84h-41q-16 0 -29.5 1t-25.5 1v-25q2 -12 2 -25.5v-29.5q0 -78 6 -148q2 -20 3 -39.5t1 -40.5l6 -65q2 -31 4 -60.5t2 -62.5q-2 -80 -7 -160t-9 -157q-4 -59 -22.5 -130t-73.5 -124q-27 -27 -57.5 -38.5t-63.5 -11.5q-74 0 -133 50q-37 29 -58.5 64.5t-34 72.5 t-16.5 73.5t-4 71.5z" />
<glyph unicode="K" horiz-adv-x="616" d="M0 -14v84h72q0 8 -1 14t-1 16q-2 14 -3 28.5t-1 29.5q2 111 3 210t5 201q2 41 3 80v26q0 26 -1 50q0 23 -1 44.5t-1 43.5q-2 33 -3 65.5t-1 67.5q2 35 2 71v73h-23h-41v84h41q23 0 37 1t29 1q12 2 27.5 2h39.5h43v-84h-43h-26v-75t-2 -75q0 -31 1 -63.5t3 -63.5 q0 -23 1 -45t1 -45v-22q6 14 11 27t9 28q37 129 111 266q8 16 14 25l19 39h-7h-41v84h41q25 0 38.5 1t27.5 1q12 2 27.5 2h42.5h41v-84h-41h-33q-10 -23 -21.5 -43.5t-21.5 -40.5l-12 -23q-35 -66 -60.5 -127t-44.5 -123q-14 -47 -37 -96q29 -23 42.5 -49.5t23.5 -52.5 q0 -8 4 -17l14 -37q6 -18 13.5 -36.5t11.5 -38.5q8 -29 17 -53.5t20 -49.5l18 -47q16 -45 33.5 -93t36.5 -95h35h40v-84h-40h-37.5t-28.5 -2h-111v84h54q-16 41 -31.5 80.5t-30.5 80.5q-4 12 -8 23.5t-8 21.5q-10 25 -20.5 51.5t-18.5 61.5l-23 66l-14 39l-6 18 q-12 35 -23 51q-8 -16 -15 -32.5t-11 -32.5l-6 -17l-4 -325q0 -10 1 -22.5t3 -24.5q0 -10 1 -18.5t1 -18.5h18h43v-84h-43h-37t-26 -2h-111z" />
<glyph unicode="L" horiz-adv-x="561" d="M0 1092v84h43q23 0 37 1t26 1q14 2 30 2h40h41v-84h-41h-24q-2 -16 -2 -31.5v-32.5q-2 -42 -4 -78q-1 -16 0 -31q0 -21 1 -44q5 -53 7 -115q1 -24 1 -48q0 -38 -3 -75q-2 -31 -1 -59.5t3 -59.5q0 -23 1 -45t1 -45q0 -41 2 -80t6 -80q2 -49 5 -99q2 -30 2 -60 q0 -20 -1 -39h4q29 0 57.5 -1t57.5 -1q27 0 53.5 -1t52.5 1v104l84 2v-190h-192q-29 0 -56.5 1t-56.5 1h-21.5t-21.5 -2h-108l2 84h59q1 31 1 64v33q-1 50 -5 97q-4 41 -6 83t-2 83v42t-2 42q-2 34 -3 64v20q0 21 1 45q3 39 3 78q0 19 -1 39q-2 58 -7 112q-1 27 -1 54v27 q1 40 4 79v27.5t2 30.5h-25h-43z" />
<glyph unicode="M" horiz-adv-x="673" d="M0 1092l4 84h41q8 -2 22.5 -1t26.5 1h53l9 -29q0 -2 6 -20.5t13 -41t13.5 -42t6.5 -23.5l24 -80l14 -41l13 -33q10 -29 18 -59.5t17 -58.5q4 -10 6 -18.5t4 -18.5l18 55q4 10 7 22.5t8 22.5q4 16 7 29.5t7 29.5l12 54l8 24l13 43q2 16 6 28.5t8 24.5l6 23l23 78l10 31 h143v-84h-63q2 -72 4 -163t3 -190.5t2 -200t2 -190.5t2 -162.5t1 -115.5h27h41v-84h-41h-37t-29 -2h-110v84h65q0 51 -1 142t-2 202.5t-2 232.5t-3 232l-6 -25q-4 -16 -8 -31.5t-9 -32.5l-14 -47l-22 -71l-19 -64q0 -2 -4 -14q-8 -12 -8 -21h-88q-20 55 -37 115l-10 39 q-8 29 -16.5 57.5t-18.5 57.5q-2 10 -10 30l-6 15v-228q0 -23 -1.5 -43t-3.5 -41v-22t-2 -25q0 -16 1 -30.5t3 -30.5q0 -14 1.5 -27.5t1.5 -29.5v-177.5t2 -160.5h26h41v-84h-41h-39t-26 -2h-111v84h66q-2 78 -2 161.5v178.5q0 12 -1.5 24t-1.5 27q-2 16 -3 34.5t1 36.5v48 q2 23 3.5 41t1.5 38v433q-18 0 -23 2h-43z" />
<glyph unicode="N" horiz-adv-x="632" d="M0 1090v84h143l9 -29l79 -254l37 -115q16 -47 31.5 -94t28.5 -96l12 -49q14 -55 28.5 -112.5t30.5 -113.5v80t-2 78q0 63 -1 128t-1 128q0 25 1 49.5t3 46.5q2 29 3 55.5t1 53.5q-2 23 -2 44v42q-2 18 -3 35.5t-1 35.5h-65v82h41q23 0 37 1t26 1q14 2 29.5 2.5t40.5 0.5 h41v-84h-41h-25q0 -18 1 -36t1 -34l4 -88q0 -29 -1 -57.5t-3 -57.5q-2 -23 -3 -46t-1 -46v-126.5t2 -127.5q2 -71 3 -143v-48q0 -48 -1 -96v-59v-50.5t-2 -62.5v-24h-78l-4 14l-20 76q-10 43 -21.5 87t-25.5 85q-23 66 -40.5 133.5t-33.5 132.5l-10 49q-12 47 -26.5 93.5 t-31.5 91.5q-10 29 -19 57.5t-19 58.5q-2 2 -2 4q-1 -23 -1 -46v-22q1 -32 3 -65q6 -118 6 -235.5t-6 -233.5q-1 -23 -1 -45v-21q1 -32 3 -67q0 -16 1 -30.5t1 -28.5h24h43v-84h-43q-23 0 -37 -1t-26 -1t-27.5 -1t-40.5 -1h-43v84h43h23q0 16 -1 29.5t-1 29.5q-2 35 -3 70 v23q0 24 1 48q6 114 6 229.5t-6 231.5q-3 47 -3 95v24q1 60 3 121q2 29 2 58.5v58.5h-70z" />
<glyph unicode="O" horiz-adv-x="608" d="M0 547q2 90 6 178q0 14 1 28.5t1 28.5q2 6 2 21q4 55 9.5 105t29.5 108q8 16 10 22q16 35 37 71t66 58q47 20 100 21q23 0 44.5 -3t41.5 -11q33 -10 52.5 -27t31.5 -36t18.5 -40.5t10.5 -42.5q4 -16 8 -27q23 -88 34 -186t11 -221v-12q0 -72 -2 -148t-14 -155 q-2 -10 -2 -21.5t-2 -26.5q-4 -41 -12.5 -84t-43.5 -79q-86 -93 -178 -93q-47 0 -92 25q-35 18 -57.5 46t-36 60.5t-22.5 66.5t-15 65l-6 30q-4 14 -6 28.5t-5 29.5q-2 10 -3 20t-3 21q-14 80 -14 160v20zM84 550v-19q0 -75 14 -150q2 -10 3 -22.5t3 -22.5q4 -33 9 -49 q2 -8 3 -16.5t3 -16.5q12 -53 28.5 -104.5t61.5 -75.5q29 -14 51 -15q55 0 117 66q20 20 25.5 49t7.5 64q2 14 2 26t4 27q10 76 12 148.5t2 142.5v12q0 117 -10 210t-33 175q-4 20 -6 29q-10 41 -20.5 58t-38.5 28q-31 10 -60 10q-39 0 -63 -12q-23 -10 -35 -31t-27 -55 q-4 -6 -5 -12.5t-5 -12.5q-23 -45 -27 -88t-6 -94q0 -4 -1 -10.5t-1 -10.5q0 -14 -1 -28.5t-1 -28.5q-4 -86 -6 -171z" />
<glyph unicode="P" horiz-adv-x="577" d="M0 -12v84h43h23v116q2 29 2 55.5v55.5v154h-11h-43v84h43h11v96q-1 18 -1 34.5t1 32.5q2 32 4 66q2 37 3 74t1 71q0 25 -2 50.5t-4 50.5q-2 20 -3 40.5t-1 43.5h-54v84h94q18 0 44 -1t47 -5q37 -4 65.5 -15.5t63.5 -34.5q121 -78 149 -227q8 -44 8 -84q0 -29 -4 -55 q-10 -62 -20 -96q-16 -53 -54 -106.5t-79 -80.5q-29 -18 -59.5 -24.5t-65.5 -6.5h-49v-145v-56.5t-2 -56.5q0 -27 -1.5 -54.5t-1.5 -55.5q8 0 14.5 -1t12.5 -1h43v-84h-43q-10 0 -18.5 1t-18.5 3q-10 0 -18 1t-17 1l-18 -4q-10 -2 -19.5 -3t-21.5 -1h-43zM150 633 q0 -27 1 -51.5t1 -53.5q25 -3 48 -3q12 0 24 1q34 2 57 19q29 18 57.5 59t40.5 82q4 14 13 60q6 32 6 67q0 16 -1 32q-4 54 -29.5 110.5t-86.5 97.5q-27 16 -47.5 25t-49.5 14q-8 0 -16 1t-18 1q0 -18 1 -38t3 -38l6 -105q0 -39 -1 -76.5t-3 -74.5q-2 -33 -4 -64.5t-2 -64.5 z" />
<glyph unicode="Q" horiz-adv-x="612" d="M2 618v21q0 80 14 162q4 10 4 19t3 20q2 14 4 28.5t6 28.5l6 33q6 31 15 64.5t22.5 65.5t36 59.5t57.5 45.5q45 25 92 25q92 0 178 -90q35 -39 43.5 -82t12.5 -84l4 -47q12 -80 14 -156t2 -147v-13q0 -123 -11 -221t-34 -186q-4 -10 -8 -27q-4 -20 -10.5 -41.5t-18.5 -41 t-31.5 -36t-52.5 -26.5q-20 -8 -47 -12v-7q-2 -12 -3 -28.5t1 -22.5q0 -6 2 -6q0 -4 21 -4q8 0 24 4q10 2 37 2h41v-82h-41q-4 0 -25 -4q-20 -4 -36 -4q-12 0 -31 3t-35 13q-10 6 -23.5 21.5t-17.5 44.5q-2 10 -1 26.5t3 40.5v5q-31 6 -55 18q-45 23 -65.5 57.5t-37.5 69.5 l-8 23q-27 57 -32 107t-9 105q0 14 -2 21q0 14 -1 28.5t-1 28.5q-4 88 -6 178zM86 615q2 -85 6 -171q0 -14 1 -28.5t1 -28.5q0 -4 1 -10t1 -10q2 -51 7.5 -94.5t25.5 -88.5l10 -24q14 -35 26.5 -54.5t35.5 -29.5q23 -14 63 -15q29 0 60 11q29 10 39 27.5t20 58.5l6 28 q23 82 33 175.5t10 209.5v13q0 72 -2 143.5t-12 146.5q-4 14 -4 26.5t-2 27.5q-2 35 -7.5 63.5t-25.5 48.5q-62 66 -117 66q-29 0 -51 -14q-45 -25 -61.5 -76t-28.5 -105l-6 -32q-4 -16 -9 -50l-6 -45q-14 -75 -14 -150v-19z" />
<glyph unicode="R" horiz-adv-x="638" d="M-2 541h65q-2 102 -2 208.5t5 178.5q2 43 3 83t1 83h-64v84h94q20 0 45 -1t43 -3q41 -6 72 -17.5t62 -34.5q123 -78 147 -225q7 -38 7 -80q0 -17 -1 -35q-4 -62 -20 -120q-25 -78 -90 -144q-29 -25 -52 -35q-12 -8 -20 -10q10 -12 21.5 -28.5t23.5 -34.5 q12 -25 25.5 -52.5t25.5 -56.5q4 -10 11.5 -23.5t15.5 -27.5q10 -16 18 -31.5t12 -28.5q16 -37 25.5 -64.5t17.5 -47.5q0 -4 1.5 -6t1.5 -4q10 -2 22 -2h23h41v-84h-41h-52q-12 0 -24 2l-27 2l-10 22l-14 41q-6 20 -15.5 47t-25.5 62q-4 10 -11.5 23.5t-15.5 27.5 q-10 16 -18.5 31.5t-12.5 29.5q-29 72 -62.5 122t-55.5 61l-17 6h-18h-8q2 -86 3 -146.5t1 -66.5q2 -23 2 -57.5t-2 -69.5v-49h26h43v-84h-43q-23 0 -37 -1t-26 -1q-14 -2 -29.5 -2h-40.5h-41v84h41h23v24t2 29v68.5t-2 56.5q0 16 -1 74.5t-3 138.5h-25h-41zM146 750 q0 -21 -1 -41q0 -83 2 -166h11q15 -1 29 -1h14q20 1 41 5q10 4 18 6t19 6q14 6 26 19q51 49 68 108q6 23 14 68q5 30 5 64q0 17 -1 34q-4 53 -29.5 107.5t-87.5 93.5q-23 16 -45 24t-53 13q-4 0 -10 1t-12 1q0 -45 -1 -85t-3 -81q-4 -72 -4 -176z" />
<glyph unicode="S" horiz-adv-x="516" d="M-4 -18l4 41v55v22.5t2 24.5v10q2 27 2 52.5t-4 48.5l84 14q4 -23 10 -45.5t15 -38.5q18 -35 49.5 -67.5t56.5 -37.5q16 -2 36.5 7.5t37.5 25.5q29 29 38 44.5t11 47.5q1 22 1 43t-1 39q-2 37 -19 78q-23 51 -52 98.5t-68 100.5q-18 27 -38 52.5t-36 53.5l-10 13 q-23 35 -44.5 69.5t-33.5 75.5q-4 10 -5 18.5t-3 18.5q-4 10 -9 31q-15 41 -15 83q0 53 24 105q18 47 51 78t74 41q22 5 43.5 5t43.5 -5q44 -10 83 -43q4 -4 6 -4v51h84v-41v-20.5t-2 -22.5q-2 -27 -1 -53.5t7 -46.5l-80 -25q-8 25 -24.5 49.5t-38 43t-47 28.5t-52.5 4 q-45 -12 -72 -70q-15 -38 -15 -70q0 -28 11 -61l11 -41l6 -28q10 -33 27.5 -63t39.5 -60l11 -13q16 -27 34.5 -53.5t36.5 -50.5q41 -55 74 -106.5t57 -108.5q23 -53 25 -101q1 -24 1 -48t-1 -48q-4 -55 -21.5 -83.5t-52.5 -63.5q-22 -23 -60 -43q-31 -16 -65 -16q-7 0 -14 1 q-37 4 -68.5 27t-56.5 51v-19t-2 -20l-2 -41z" />
<glyph unicode="T" horiz-adv-x="626" d="M0 997v43q2 55 3 76t1 23l2 39h39h19h41.5t46 1t30.5 1h201h20.5t39 -1t37 -1h18.5h41v-191l-84 2v105q-25 2 -46.5 2h-25.5h-61q0 -66 -1.5 -131.5t-3.5 -130.5q-2 -102 -3 -205v-69q0 -69 1 -138v-348h25h43v-84h-43h-37t-27 -2q-14 0 -29.5 -1t-39.5 -1h-41v84h41h24 v350q-1 69 -1 139v69q1 104 3 208q2 66 3.5 130t1.5 130h-54q-10 -2 -40.5 -2h-57.5v-24.5t-2 -31.5v-43z" />
<glyph unicode="U" horiz-adv-x="624" d="M-2 1092l2 84l43 -2q25 0 39 -1.5t26.5 -1.5h27h38.5h43v-84h-43h-24q0 -53 -1.5 -105t-1.5 -103q-2 -93 -3 -187v-62q0 -63 1 -126v-19q2 -41 5.5 -116.5t19.5 -149.5q6 -29 14.5 -56.5t21.5 -51t29.5 -38t38.5 -14.5q8 0 25.5 2t38.5 23q23 23 42 77t19 169v561 q-2 47 -2 95v99h-24h-43v84h43q23 0 37 1t26 1q14 2 29.5 2.5t40.5 0.5h43v-84h-43h-25v-101.5t2 -97.5v-561q0 -219 -86 -305q-53 -49 -121 -50h-2q-29 0 -63.5 14.5t-65.5 61.5q-41 59 -57 150q-16 80 -20.5 160.5t-4.5 123.5q0 4 -1 9.5t-1 9.5q-1 63 -1 126v63 q1 95 3 188q0 51 1.5 102t1.5 104q-6 0 -11.5 1.5t-13.5 1.5z" />
<glyph unicode="V" horiz-adv-x="671" d="M0 1087v84h221v-84h-61q18 -94 35 -196l10 -68q4 -29 7 -57.5t9 -56.5q16 -84 30.5 -162t27.5 -156q6 -41 12 -84t14 -88l19 105q10 59 19 116.5t17 108.5q4 23 7.5 45t7.5 45q14 88 27.5 177t29.5 179q4 23 7 45.5t7 44.5h-61v82h43q23 0 38 1t28 1q14 2 29.5 2h41.5h41 v-84h-41h-33l-18 -106q-16 -90 -29.5 -178t-27.5 -176l-15 -92q-8 -49 -17 -107.5t-19 -118.5q-8 -45 -16.5 -93t-18.5 -105q-4 -29 -11.5 -62t-15.5 -72l-82 3q-18 100 -34.5 200.5t-32.5 198.5q-25 150 -56 313q-12 59 -18 121l-8 66q-10 53 -19.5 106t-19.5 102h-74z" />
<glyph unicode="W" horiz-adv-x="1085" d="M0 1083v84h41q25 0 39 1t29 1q12 0 28.5 1t40.5 1h43v-84h-43h-18l12 -75l2 -17q6 -31 11 -61.5t10 -59.5q4 -27 7 -51t7 -51q4 -31 8 -62.5t8 -64.5l21 -104q6 -29 12 -56.5t10 -56.5l13 -66l12 -75l12 -66l14 80l17 82l24 133l11 62q10 59 21 119.5t18 119.5 q4 29 11 68t14 73.5t12.5 60t5.5 28.5h82q12 -55 21 -111.5t17 -110.5q4 -23 7.5 -43t7.5 -43v-2q4 -20 4 -35q4 -33 8 -62.5t8 -57.5q0 -4 1 -7.5t1 -7.5l6 -39l7 -43q0 -6 1 -12t1 -12l6 -31l8 -31q6 -47 16 -92q4 -18 11.5 -51t17.5 -72q6 41 12 80t11 80q6 35 11 68.5 t9 68.5l27 133q10 53 19 103.5t11 68.5l4 33l37 236l4 12q0 12 2 20h-22h-41v84h41h41t29 -2h110v-84h-74v-2l-4 -30l-2 -13q-8 -47 -13 -73.5t-8 -48t-6 -46t-10 -65.5l-4 -31q-4 -23 -13 -73t-19 -105q-10 -41 -16.5 -78t-8.5 -53q-6 -35 -11 -67.5t-9 -67.5l-25 -162 q-4 -33 -11 -63.5t-14 -61.5q-4 -16 -7 -31.5t-7 -31.5l-82 2q-2 4 -7 27.5t-11 49.5q-8 31 -16.5 65t-15.5 65.5t-13.5 57t-8.5 42.5l-18 94q0 8 -4 25q-8 23 -10 41q0 6 -1 12t-1 14l-4 37q-4 10 -5.5 21.5t-3.5 21.5q0 8 -2 14q-4 29 -7 58.5t-7 64.5l-6 31 q-4 18 -6 37.5t-4 38.5q-8 -59 -18.5 -118.5t-20.5 -119.5l-13 -61l-24 -135q-4 -20 -7 -40t-8 -40l-59 -305l-84 2q0 2 -4 26.5t-8 38.5l-12 74l-25 149q-4 20 -7 39t-7 37q-2 16 -4.5 32.5t-6.5 33.5q-4 29 -10 55.5t-12 52.5l-21 111q-6 33 -10 65.5t-8 63.5l-12 100 q-4 29 -9.5 58.5t-11.5 60.5l-2 16q-4 23 -8 43.5t-8 42.5h-33h-41z" />
<glyph unicode="X" horiz-adv-x="696" d="M0 68l43 2h29q4 10 8 18t8 18q10 23 18.5 44.5t14.5 44.5l41 135q6 18 11 36.5t11 34.5q6 23 14.5 42.5t16.5 39.5l18 52l17 45q2 8 5 14t5 14q0 4 -1 5t-1 5l-14 48q-6 16 -12.5 33.5t-10.5 33.5l-24 80l-19 66q-4 10 -8 21l-8 22l-17 47l-39 123h-67v84h111 q12 -2 26 -2h37h43v-84h-43h-16l28 -97l17 -43q4 -10 8 -22.5t8 -24.5l21 -67q4 -18 10 -38t12 -38q0 -8 4 -17l12 35q6 25 14.5 48.5t14.5 43.5l10 29q10 18 13 33q4 10 5 18t5 17q8 39 24 80l11 38h-19h-41v84h41h37t29 2q12 0 27.5 1.5t39.5 1.5h43v-84h-43h-24 q-2 -4 -2 -13q-4 -16 -9.5 -30.5t-11.5 -30.5l-22 -70q-2 -16 -10 -39l-13 -39q-8 -16 -10 -24q-6 -20 -14.5 -43t-14.5 -47q-4 -16 -10 -31.5t-10 -32.5q-12 -37 -29 -82l29 -78l55 -170l25 -71l16 -51q4 -16 10 -29.5t13 -28.5q6 -16 13 -32.5t11 -32.5l15 -33q4 -8 4 -10 h32h43v-84h-43q-23 0 -37 -1t-26 -1q-14 -2 -28.5 -2h-41.5h-41v84h41h11l-7 20q-6 16 -11 29.5t-13 29.5l-25 64l-16 51l-25 74l-49 145q-8 -14 -10 -28q-8 -18 -15.5 -37t-13.5 -37l-20 -74q-23 -68 -41 -135q-8 -25 -17.5 -48.5t-19.5 -45.5l-4 -6h12l43 2l4 -84l-43 -2 h-133l-43 -2z" />
<glyph unicode="Y" horiz-adv-x="659" d="M0 1174l43 2h44.5t41.5 -2q12 0 24.5 -1.5t24.5 -1.5h41v-84h-41h-16l8 -26q4 -10 8 -26.5t10 -33.5q8 -23 14.5 -43t10.5 -34l31 -107q8 -25 15 -50.5t17 -51.5l21 -70l4 12l35 115l20 53l17 41q8 25 14 49.5t12 51.5q6 23 12.5 47t14.5 49l8 27h-22l-41 2l2 84l43 -2 q29 -2 45 -1t33 1h96v-84h-70l-14 -52l-25 -92q-6 -27 -13 -52.5t-15 -51.5l-19 -49l-18 -45l-76 -252v-99.5t2 -97.5q2 -51 2 -102.5v-102.5v-24h21h41v-84h-41h-37.5t-28.5 -2h-111v84h72v14v12v101.5t-2 101.5q-2 47 -2 96v96l-61 201l-31 103q-8 29 -16.5 55t-14.5 53 l-24 74l-19 61l-14 43l-4 13h-25l-43 -2z" />
<glyph unicode="Z" horiz-adv-x="595" d="M0 -10v78q10 29 21.5 55.5t21.5 46.5l7 17.5t3 11.5q10 25 17.5 49t15.5 49q2 10 4 18.5t6 18.5q23 72 44.5 125t43.5 106q16 33 29.5 67t30.5 75q23 53 46 105t46 103l31 64l24 55l25 51h-13q-18 -2 -42.5 -4t-61.5 -2q-16 0 -30.5 1t-28.5 1q-10 2 -17.5 2h-13.5h-88 v-25.5t2 -29.5v-43h-84v41q-2 27 -2 46.5v39.5v53l41 2h131h18.5t18.5 -2q12 0 25.5 -1t27.5 -1q35 0 56.5 1t39.5 5q23 1 43 3q4 0 9 1q17 0 38 -4l23 -4v-80q-10 -23 -20.5 -44t-20.5 -44l-25 -53l-30 -63q-23 -49 -46.5 -100.5t-41.5 -102.5q-16 -43 -32 -78t-30 -70 q-23 -51 -44 -102t-42 -119q-4 -10 -5 -18t-5 -17q-8 -27 -15.5 -52t-17.5 -52l-14 -33l-29 -69h45q10 0 28.5 1t37.5 3q23 2 41 3t30 1h105q10 -2 31 -2q10 -2 30 -2v106h84v-151l-2 -39h-39q-20 -2 -39.5 -1t-40.5 3q-8 0 -15 1t-13 1h-101q-10 0 -27.5 -1t-37.5 -3 q-23 -2 -41.5 -3t-28.5 -1h-4q-14 0 -32.5 1t-34 1t-26.5 1t-13 1z" />
<glyph unicode="[" horiz-adv-x="417" d="M0 1154.5v53.5v43l43 -2h20.5t20.5 2h39q23 0 43 -1t41 -3q12 -2 23.5 -2t21.5 -2l43 -2l-4 -84l-43 2q-12 2 -24.5 2t-22.5 2q-18 2 -38 3t-42 1h-31h-6q0 -16 1 -33.5t1 -33.5q2 -23 3 -46.5t1 -45.5v-232q2 -45 2 -89v-89q2 -129 3 -285.5t5 -314.5q14 0 28.5 1 t31.5 1q27 2 54.5 4t55.5 -2l41 -2l-6 -84l-41 2q-25 4 -49.5 3t-50.5 -3q-18 -2 -37 -3t-37 -1h-16t-17 2l-39 2v37q-4 166 -6 335t-4 308v178q-2 57 -2 114.5v117.5q0 20 -1 41.5t-3 46.5q-2 29 -2 58.5z" />
<glyph unicode="\" horiz-adv-x="600" d="M0 1272l80 24l14 -41q25 -80 51.5 -164.5t55.5 -170.5q8 -23 14 -42.5t12 -39.5q14 -47 27.5 -89t30.5 -85q29 -72 52 -143.5t46 -143.5q12 -39 24.5 -78t24.5 -78q4 -10 8 -22.5t9 -24.5q18 -53 37.5 -108.5t41.5 -106.5l19 -39l-78 -35l-16 39q-25 53 -45.5 110.5 t-38.5 112.5q-4 12 -7.5 24.5t-7.5 23.5q-14 41 -26.5 79.5t-24.5 77.5q-23 72 -45 141.5t-51 139.5q-16 45 -30.5 90t-29.5 90q-6 20 -12 39.5t-14 40.5q-29 88 -55.5 172t-53.5 166z" />
<glyph unicode="]" horiz-adv-x="409" d="M0 -78l2 84l43 -2q16 0 34.5 -1t35.5 -3q10 -2 21 -3t20 -1q14 0 26.5 1t26.5 3q4 0 9 1t9 1v36.5t-2 39.5v80q0 72 -1 142.5t-1 139.5v82t-2 82q0 51 1 102.5t1 102.5q4 160 0 321q0 4 -1 14.5t-1 20.5h-35q-10 0 -16 -2q-31 0 -55.5 -1t-59.5 1l-41 4l6 84l41 -4 q31 -2 53.5 -2t51.5 2q4 0 8 1t8 1h80l43 2v-43v-32v-24.5t2 -18.5q4 -164 0 -326q0 -49 -1 -100.5t-1 -100.5q0 -41 1 -82t1 -82q0 -72 1 -142.5t1 -141.5v-78q2 -31 2 -60.5v-58.5l-2 -39l-39 -2q-14 0 -26.5 -1t-22.5 -3q-14 -2 -28.5 -3t-30.5 -1h-8q-10 0 -22.5 1 t-27.5 3q-14 2 -29.5 3t-31.5 1z" />
<glyph unicode="^" horiz-adv-x="428" d="M-16 987l24 33q27 37 49.5 70.5t39 61.5t26.5 45l10 17l72 5q0 -2 9 -14.5t21.5 -29t23.5 -33t17 -24.5q6 -10 15.5 -26.5t18.5 -33t16.5 -28.5t7.5 -14l20 -37l-71 -41l-21 37l-7 12t-16.5 27.5t-18.5 32t-15 24.5q-4 8 -12.5 20.5t-18.5 24.5q-18 -29 -43 -66.5 t-55 -78.5l-25 -33z" />
<glyph unicode="_" horiz-adv-x="702" d="M0 29h43q68 0 144.5 -2t154.5 -9q33 -2 63.5 -1t63.5 6q23 2 46.5 3t47.5 1h43v-84h-43q-23 0 -44 -1t-44 -3t-47 -3.5t-49 -1.5h-21.5t-21.5 3q-76 4 -151.5 6t-141.5 2h-43v84z" />
<glyph unicode="`" horiz-adv-x="258" d="M0 1143l68 47l24 -35q14 -23 26.5 -45.5t22 -41.5t15.5 -32l6 -14l14 -41l-78 -29l-14 39q-10 18 -18 39q-8 16 -19.5 38t-23.5 40z" />
<glyph unicode="a" horiz-adv-x="512" d="M1 476q1 28 3 56q0 16 1 31t1 31q0 41 4 79t21 79q8 23 26.5 52.5t44.5 47.5q29 20 61 20t54 -6h6q12 -4 25.5 -8t27.5 -14l3 18l81 -4v-43q0 -10 -1 -29.5t-1 -41v-40v-26.5v-14q0 -43 1 -78t1 -69t-2 -70.5t-4 -81.5q-2 -47 -2 -95.5v-95.5v-52.5t-2 -51.5h4 q10 -2 19.5 -2h17.5h43v-84h-43h-20.5t-20.5 2q-10 0 -21.5 1t-21.5 1h-43v12q-23 -10 -44 -14t-32 -6h-4q-4 -2 -14 -3q-23 0 -41 7.5t-27 11.5q-29 12 -46 32.5t-26.5 43t-12.5 43t-3 35.5q-4 23 -3 43t1 43v51l-6 86q-2 12 -3 23.5t-1 23.5q-1 19 -1 38v18zM85 475v-16 q0 -16 1 -33q0 -12 1 -23.5t1 -21.5q6 -47 6 -92q2 -14 2 -27.5v-28.5q-2 -17 -2 -33q0 -24 4 -44q6 -70 39 -84q10 -6 20.5 -8.5t14.5 -2.5q2 0 3 1t3 1q78 8 86 68l4 27v16v96t2 99q2 45 4 80.5t2 68.5t-1 68t-1 78v12v16l-2 15q-4 16 -13 30.5t-19 24.5q-4 8 -9 10 q-4 4 -8 6t-20 6l-4 2q-12 2 -22 2q-16 0 -25 -6q-29 -18 -43 -59q-10 -33 -14.5 -63.5t-4.5 -65.5q0 -16 -1 -33.5t-1 -34.5q-2 -27 -3 -51z" />
<glyph unicode="b" horiz-adv-x="497" d="M0 -12v84h43h20.5t20.5 -2q-1 73 -1 145v72q1 108 3 215q2 154 3 308v34q0 136 -7 272h-74v84h68q12 0 24 1h9q8 0 16 -1l37 -4l2 -35q4 -78 6 -154.5t2 -154.5q10 4 18.5 6t18.5 6h4q25 6 55.5 6t59.5 -20q27 -20 44 -49t27 -53q17 -50 19 -98q1 -27 1 -53q0 -21 -1 -42 q0 -16 -1 -30.5t1 -30.5v-74q2 -68 2 -136.5t-6 -136.5q0 -14 -3 -34.5t-12.5 -43t-26 -43t-44.5 -32.5q-8 -4 -26.5 -11.5t-41.5 -7.5q-10 0 -14 2h-4q-12 2 -32 5.5t-42 15.5l-2 -12l-86 2h-37h-43zM166 160l4 -31q4 -39 28.5 -51t53.5 -17q2 -2 4 -2h2q4 0 14.5 2t20.5 9 q31 14 39 84q4 66 4 132t-2 132v139q1 29 1 56v27q-1 40 -16 81q-6 18 -15 33.5t-25 25.5q-8 4 -22.5 4t-27.5 -2q-20 -4 -28 -12q-12 -12 -21 -39q-4 -12 -6 -20l-2 -17q0 -49 -1 -98t-1 -96q-2 -86 -3 -170t-1 -170z" />
<glyph unicode="c" horiz-adv-x="419" d="M-2 282.5q0 69.5 2 135.5q0 18 1 36.5t1 37.5v30.5t-2 30.5q0 47 2 95t18 97q8 25 25.5 53.5t46.5 49.5q29 20 59.5 20t53.5 -6h4q10 -4 23.5 -7t23.5 -11v24h84v-43q0 -8 2 -12q0 -18 -1 -45t-15 -61h-78q-6 18 -13.5 33.5t-17.5 27.5q-4 8 -27 12h-6q-29 10 -43 -2 q-12 -8 -23.5 -24.5t-17.5 -34.5q-14 -41 -15 -81t-1 -83q2 -16 2 -32.5v-33.5q0 -18 -1 -36.5t-1 -36.5q-2 -66 -2 -132.5t6 -131.5q4 -23 15.5 -49.5t37.5 -39.5q27 -12 31 -8h6q10 2 24.5 4t20.5 7q10 8 19 36l6 41l82 -14l-6 -41q-4 -23 -16.5 -49.5t-37.5 -42.5 q-18 -10 -40.5 -15.5t-39.5 -9.5h-6h-12q-29 0 -68 17q-41 20 -68.5 62t-31.5 95q-6 68 -6 137.5z" />
<glyph unicode="d" horiz-adv-x="495" d="M-2 363.5q0 21.5 4 44.5q4 41 4 76.5t-2 70.5q-3 33 -3 64q0 16 1 31q2 46 21 100q8 25 25.5 53t43.5 49q29 20 59.5 20t55.5 -6h4q10 -4 20.5 -7t20.5 -7q0 45 1 99.5t1 100.5t1 76.5t1 32.5v39l41 2h30.5t45.5 -2l43 -4l-8 -84l-43 4q-6 2 -25 2q0 -37 -1 -96 t-2 -117.5t-1 -104.5v-55q-2 -18 -2 -36.5v-38.5l-6 -293q0 -20 1 -39t3 -39t4 -39.5t2 -42.5q0 -41 -1 -76t-1 -69h20q4 0 9.5 -1t11.5 -1h43v-82h-68q-10 0 -21.5 1t-33.5 -1l-45 -4l-2 16q-23 -12 -40 -15t-28 -5q-10 -2 -14 -2.5t-8 -0.5q-23 0 -41.5 7.5t-26.5 11.5 q-29 12 -45 32.5t-25.5 43t-12.5 43t-3 35.5q-6 70 -6 143v26q-2 23 -2 44.5zM84 295q0 -70 6 -139q6 -70 37 -84q12 -6 21.5 -8.5t13.5 -2.5q33 0 58.5 18.5t29.5 51.5l4 41v45q0 18 -1 36.5t-3 37.5q-2 23 -4 43t0 43q0 74 1 148.5t3 146.5q0 12 1 24.5t1 26.5 q0 27 -22 41t-40 20q-8 3 -20 3h-6q-16 -1 -23 -5q-12 -8 -23.5 -24.5t-17.5 -34.5q-14 -41 -15 -80v-16q0 -32 3 -68q2 -35 2 -75t-6 -87q-2 -18 -2 -37t2 -38v-27z" />
<glyph unicode="e" horiz-adv-x="417" d="M-2 280.5q0 69.5 2 135.5q0 18 1 36.5t1 36.5v31t-2 31q-1 19 -1 38q0 28 2 57q3 48 19 97q8 25 25.5 53.5t46.5 49.5q29 20 59.5 20t53.5 -6h4q16 -4 37.5 -12t38.5 -31q18 -29 30 -57q8 -25 11.5 -49.5t5.5 -46.5q0 -6 1 -12.5t3 -14.5q2 -10 3 -18.5t1 -18.5 q2 -14 2 -28.5v-30.5q0 -4 -1 -32t-3 -54l-2 -37l-37 -2q-36 -3 -60 -3h-11q-26 1 -48 3q-20 4 -40.5 5t-55.5 -3v-4q-2 -66 -2 -132.5t6 -131.5q2 -23 14.5 -49.5t38.5 -39.5q27 -12 31 -8h6q10 2 24.5 4t20.5 6q10 8 19 37l6 41l82 -14l-6 -41q-4 -23 -17.5 -49.5 t-36.5 -42.5q-18 -10 -40.5 -15.5t-39.5 -9.5h-6h-12q-29 0 -68 17q-41 20 -68.5 62t-31.5 95q-6 68 -6 137.5zM84 553q2 -12 2 -25.5v-25.5q12 2 23.5 2h21.5q16 0 29.5 -1t27.5 -3t29.5 -2h38.5q2 16 2 26.5v14.5v29.5t-2 25.5q0 8 -1 14t-3 15q-2 10 -3 17t-1 17 q-2 23 -4 41.5t-8 34.5t-19 33q-4 8 -27 12h-6q-13 5 -23 5q-12 0 -20 -7q-12 -8 -23.5 -24.5t-17.5 -34.5q-14 -41 -16 -81q-1 -20 -1 -40.5t1 -42.5z" />
<glyph unicode="f" horiz-adv-x="462" d="M0 686l4 84h41q12 -2 25.5 -2h27.5v55v6l-4 74q0 16 -1 32.5t-1 33.5q0 20 1 38.5t3 34.5q0 8 2 11q2 27 8.5 56.5t32.5 57.5q20 20 44 30.5t46.5 13.5t46 3t43.5 -2q10 -2 21.5 -2h21.5h44v-84h-44h-24t-25 2q-23 2 -42 2q-14 0 -25 -1q-27 -3 -47 -21 q-10 -10 -12.5 -24.5t-6.5 -36.5v-13q-2 -16 -3 -31.5t-1 -31.5t1 -31.5t1 -32.5l4 -76v-6q0 -16 1 -28.5t1 -28.5q6 0 13.5 1t15.5 1q29 2 57.5 2h57.5h43v-84h-43h-56.5t-56.5 -2h-29q2 -143 4.5 -247.5t3.5 -178.5v-66.5v-52.5q-1 -45 -1 -71q14 2 30.5 2h38.5h41v-84 h-41q-39 0 -62.5 -1t-43.5 -1q-23 0 -46.5 -1t-62.5 -1h-43v84h43h62q2 25 2 68.5v116.5t-2.5 178.5t-6.5 252.5h-2h-29.5t-29.5 2h-41z" />
<glyph unicode="g" horiz-adv-x="456" d="M-2 279.5q0 68.5 2 136.5q0 18 1 36.5t1 34.5v32t-2 30q-1 23 -1 47t1 48q2 48 20 99q8 25 25.5 53.5t46.5 47.5q29 20 59.5 21t53.5 -5l4 -2q10 -4 22.5 -7t24.5 -11l2 26h113l43 -2l-2 -84l-43 2h-29q0 -16 -1 -33.5t-1 -29.5q-2 -23 -3 -43.5t-1 -42.5q-4 -45 -6 -89 t-2 -87v-439q0 -18 -1 -36.5t1 -34.5q0 -8 1 -15.5t1 -17.5q2 -16 3 -31.5t1 -32.5q0 -29 -6 -49q0 -12 -2 -16q-2 -16 -4.5 -34.5t-10.5 -35.5q-10 -29 -30.5 -43t-30.5 -18q-29 -12 -66 -12q-39 0 -80 15t-71 50l-29 31l61 55l29 -31q29 -31 67 -36t54 4q8 4 12 8l6 6 q4 10 6.5 23.5t4.5 25.5q0 4 1 9t1 10q2 10 3 20t1 21q0 12 -1 25t-3 30q0 8 -1 16t-1 17q-2 10 -2 19v20q-12 -4 -25.5 -6.5t-24.5 -4.5h-6q-4 -2 -14 -2q-29 0 -66 19q-43 20 -69.5 61t-30.5 94q-6 70 -6 138.5zM82 281.5q0 -66.5 6 -131.5q2 -25 14.5 -50.5t38.5 -38.5 q23 -10 31 -10l6 2q10 2 24.5 4t20.5 6q2 2 4 4.5t6 8.5l9 16v365q0 45 2 90t6 90v30.5t2 30.5l-2 17q-2 6 -11.5 20.5t-21.5 28.5v2q-4 4 -8 6t-21 6h-4q-13 3 -23 3q-14 0 -22 -5q-10 -8 -21.5 -24.5t-19.5 -34.5q-12 -41 -14 -81q-1 -20 -1 -41t1 -42q0 -16 1 -32.5 t1 -33.5q-2 -18 -2 -36.5v-36.5q-2 -66 -2 -132.5z" />
<glyph unicode="h" horiz-adv-x="548" d="M0 1116v84h43q16 0 25 2h49l37 -4l2 -37q4 -78 6 -154.5t2 -154.5q16 8 39 12l4 2q23 5 44 5q40 0 68 -21q27 -18 44.5 -47t27.5 -53q17 -50 19 -98q1 -26 1 -53q0 -21 -1 -42v-63v-137.5t-2 -133.5q0 -37 -1 -74.5t-1 -76.5h67v-84h-102q-14 -2 -28.5 -2h-35.5h-41v84 h41h17v155q2 67 3 133v44q0 45 -1 92v65q1 29 1 56v27q-1 40 -16 81q-6 18 -17 34.5t-24 24.5q-12 8 -45 2h-4q-16 -4 -19 -6t-7 -6q-8 -10 -11.5 -20.5l-7.5 -22.5l-6 -18l-6 -19q0 -47 -1 -92t-1 -90q-2 -112 -3 -220v-72q0 -73 1 -146h59v-84h-86q-16 1 -35.5 1t-42.5 -1 l-41 -4l-6 84l41 2q8 0 14.5 1t12.5 1q-1 74 -1 148v73q1 110 3 219q2 150 3 302v33q0 135 -7 271h-2q-8 0 -14.5 -1t-14.5 -1h-43z" />
<glyph unicode="i" horiz-adv-x="294" d="M0 776v84h41q6 0 12 1t13 1h49l37 -4l2 -37q4 -80 6 -140q2 -61 3 -111q0 -25 0.5 -48.5t-0.5 -44.5q-1 -43 -3 -86q-2 -61 -3 -135v-53q0 -57 1 -129h59v-84h-86q-16 1 -35.5 1t-40.5 -1l-43 -4l-6 84l41 2q8 0 14.5 1t12.5 1q-1 73 -1 130v54q1 74 3 135q2 41 3 81 t1 84t-2 98.5t-6 121.5h-2q-8 0 -14.5 -1t-14.5 -1h-41zM68 1069v41q0 8 1 15.5t1 13.5t1 12t1 10v41h84v-41q0 -8 -1 -14t-1 -14q0 -6 -1 -11.5t-1 -11.5v-41h-84z" />
<glyph unicode="j" horiz-adv-x="454" d="M0 -262l61 57l29 -31q16 -18 29 -22q18 -8 35.5 -13t29.5 -5q10 0 27 8q8 4 12 7t6 5q4 12 6.5 24.5t4.5 26.5q8 66 9 130.5t1 129.5v105q0 37 -1 60.5t-5 43.5q-2 16 -3 32.5t1 39.5v108v72q0 23 1 43.5t1 40.5q2 23 3 46.5t1 45.5q0 4 -2 31t-4 59h-74l-2 84h153l3 -39 q2 -16 3 -38.5t3 -42t3 -35t1 -19.5q0 -25 -1 -49.5t-3 -46.5q0 -20 -1 -39.5t-1 -40.5v-72v-55.5t-2 -54.5q0 -16 1 -30.5t3 -31.5q4 -20 5 -46.5t1 -67.5v-103q0 -66 -1 -134t-11 -136q-2 -16 -4.5 -34.5t-10.5 -35.5q-10 -29 -30.5 -43t-30.5 -18q-16 -6 -31 -10t-31 -4 h-2q-29 2 -54.5 10t-41.5 14q-18 8 -32.5 20.5t-24.5 22.5zM229 1161v41h84v-41q0 -4 1 -10t1 -12t1 -13.5t1 -15.5v-41h-84v41q0 6 -1 11t-1 12q0 8 -1 14t-1 14z" />
<glyph unicode="k" horiz-adv-x="624" d="M0 1116v84h43h43q12 0 27 2h41l2 -41q0 -10 1 -35.5t2 -54.5t2 -52.5t1 -27.5v-80t2 -80v-172q0 -23 1 -48t-1 -50q-2 -10 -2 -19.5v-19.5l22 33q16 23 29.5 43t28.5 43q10 18 18 34.5t16 33.5q8 16 16.5 31.5t18.5 33.5l-41 -2l-8 82l43 4q27 4 46.5 3t41.5 -1h80v-84 h-57l-10 -14q-20 -27 -32 -47.5t-22 -42.5q-8 -16 -17 -33.5t-22 -40.5q-14 -25 -28.5 -46.5t-30.5 -43.5l-4 -6q33 -47 55.5 -91t50.5 -100q10 -23 22.5 -42t24.5 -42q20 -37 42 -75.5t38 -79.5h66v-84h-100q-14 -2 -28.5 -2h-35.5h-43v84h43h8q-14 29 -30.5 58.5 t-32.5 57.5q-10 23 -23.5 44.5t-23.5 43.5q-23 43 -42.5 79t-41.5 73q-8 -16 -15.5 -29.5t-13.5 -29.5l-8 -19q0 -43 1 -85t3 -83l4 -108h57v-84h-84q-16 1 -35.5 1t-41.5 -1l-41 -4l-7 84l41 2q6 0 13.5 1t13.5 1l-4 106q-2 55 -3 111.5t-1 113.5v88t2 74q2 23 1 46.5 t-1 47.5v172q-2 41 -2 80v80q0 6 -1 45t-3 80h-74z" />
<glyph unicode="l" horiz-adv-x="346" d="M0 1116v84h43q4 0 12 1t17 1h71l37 -4l2 -37q9 -149 9 -297v-30q-1 -162 -3 -324q-2 -112 -4 -220q-1 -54 -1 -108.5t1 -109.5h86v-84h-90q-35 2 -66.5 2t-58.5 -2l-41 -4l-6 84l41 4q10 0 23.5 1t27.5 1q-1 56 -1 111t1 109l4 218q2 150 2 302.5t-6 303.5h-26 q-10 0 -17.5 -1t-13.5 -1h-43z" />
<glyph unicode="m" horiz-adv-x="847" d="M0 774v84h43q4 0 10 1t15 1h49l37 -4v-20q16 10 32.5 18t34.5 12q23 4 51 5h2q26 0 56 -19q37 -27 57 -59l16 20q10 12 38 32.5t69 22.5q23 0 52.5 -4t53.5 -22q43 -31 66 -90q16 -37 19.5 -75t7.5 -77q0 -12 1 -24.5t3 -22.5q1 -18 1 -34.5t-1 -33.5v-14v-108.5 t-2 -108.5q0 -47 -1 -92t-1 -92h22l43 -2l-6 -84l-41 2q-20 1 -37.5 1t-32.5 -1h-94v84h62q0 47 1 93t1 93q2 53 3 107.5t1 107.5v14v30.5t-2 29.5q-2 12 -3 24.5t-1 24.5q-2 35 -6.5 66.5t-14.5 60.5q-12 37 -37 53q-16 10 -55 10q-23 0 -45 -26l-17.5 -24.5t-11.5 -31.5 l-6 -49q2 -25 1 -49t-1 -49v-61q1 -47 1 -92v-46q-1 -68 -3 -133q0 -37 -1 -74.5t-1 -76.5h64v-84h-103q-14 -2 -28.5 -2h-34.5h-43v84h43h18q0 39 1 77.5t1 77.5q2 67 3 133v44q0 45 -1 92v65q1 27 1 55v27q-1 41 -17 80q-8 18 -20.5 34.5t-26.5 24.5q-10 6 -18.5 7 t-28.5 -3q-27 -6 -43 -26q-12 -16 -19.5 -26.5t-11.5 -31.5l-4 -16v-192v-99q0 -16 -1 -31.5t-1 -31.5q-2 -27 -3 -51.5t3 -49.5q4 -31 4 -61.5t-2 -61.5v-34h57v-84h-84q-20 2 -36.5 2t-41.5 -2l-41 -4l-8 84l43 2q6 0 13.5 1t13.5 1v18t2 19v56.5t-4 53.5q-4 31 -3 58.5 t3 56.5q0 16 1 29.5t1 29.5v101q0 70 1 140v29q0 56 -3 113h-4q-6 0 -13.5 -1t-13.5 -1h-43z" />
<glyph unicode="n" horiz-adv-x="567" d="M0 774v84h43q6 0 12 1t13 1h49l37 -4v-20q16 10 32.5 18t34.5 12q23 4 51 5h2q26 0 56 -19q29 -18 49 -47t31 -53q22 -50 24 -100q0 -14 1 -27q0 -36 -3 -70v-61q1 -47 1 -92v-46q-1 -68 -3 -133q0 -37 -1 -74.5t-1 -76.5h64v-84h-103q-14 -2 -28.5 -2h-34.5h-43v84h43 h20v155q2 67 3 133v44q0 45 -1 92v32.5t2 32.5q0 43 -1 83t-17 79q-6 18 -19.5 34.5t-27.5 24.5q-10 6 -18.5 7t-28.5 -3q-27 -8 -43 -26q-12 -16 -19.5 -26.5t-11.5 -31.5l-4 -20v-188v-99q0 -16 -1 -31.5t-1 -31.5q-2 -27 -3 -51.5t3 -49.5q4 -31 4 -61.5v-61.5 q-2 -10 -2 -18v-16h57v-84h-84q-16 1 -35.5 1t-42.5 -1l-41 -4l-6 84l41 2q8 0 14.5 1t12.5 1v18t2 19q0 29 1 56.5t-3 53.5q-4 31 -4 59.5t2 57.5q0 14 1 27.5t1 29.5v101q0 70 1 140v29q0 56 -3 113h-4q-6 0 -13.5 -1t-13.5 -1h-43z" />
<glyph unicode="o" d="M0 314.5v66.5v174q0 41 3 76t13 71q4 16 4 31q4 25 13.5 56.5t44.5 54.5q16 12 38.5 16t45.5 8q7 1 15 1q29 0 67 -17q41 -20 67.5 -61t30.5 -95q14 -147 15 -272v-19q0 -115 -11 -225q-4 -49 -20.5 -98t-69.5 -88q-29 -21 -70 -21q-10 0 -21 1t-24 3l-6 3 q-16 4 -35.5 12t-36.5 31q-35 47 -46 106t-15 117q-2 35 -2 68.5zM84 315.5q0 -30.5 2 -63.5q2 -49 10 -97.5t33 -82.5q4 -4 9 -6.5t24 -6.5q8 -2 24 -2q14 0 21 4q31 23 42 51.5t15 75.5q9 105 9 215v22q-1 122 -13 263q-4 25 -15.5 50.5t-37.5 37.5q-14 8 -21.5 9t-9.5 1 h-6q-10 0 -25.5 -4t-21.5 -8q-10 -6 -12 -17.5t-7 -33.5q-2 -10 -2 -20.5t-4 -22.5q-14 -55 -14 -125v-174v-65.5z" />
<glyph unicode="p" horiz-adv-x="552" d="M0 768v84h41h25q10 0 22 -1t35 1l41 2l2 -16q25 12 43 15t35 7q10 1 20 1q34 0 54 -17q26 -23 42 -43l11 -15q33 -41 40 -76.5t9 -76.5q1 -34 1 -68v-33q-1 -51 -3 -98q0 -35 -1 -68.5t-1 -68.5q0 -133 -25 -213q-16 -55 -53 -86t-86 -31h-19.5t-19.5 4l-6 2 q-27 4 -47 17q0 -29 1 -55.5t3 -55.5v-8v-21.5t-1 -39t-1 -45v-41.5h53v-84h-78q-18 0 -35.5 1t-35.5 -3l-43 -5l-9 84l43 4q4 0 10.5 1.5t10.5 1.5q0 45 1 91t1 52v8q-6 147 -6 289q0 47 2 92t6 90l4 62q2 31 1 61.5t-3 62.5q-2 23 -2 45.5v45.5v143h-21q-6 0 -19 1t-19 1 h-23zM158 131l2 -16q0 -10 2 -13.5t12 -11.5q16 -12 22.5 -20.5t34.5 -16.5q12 -3 22 -3q21 0 33 14q17 20 25 45q10 35 15.5 82t5.5 106q0 35 1 69.5t1 69.5q2 47 3 96v33q0 33 -1 64q0 39 -6 60.5t-25 45.5l-12 15l-19 19q-6 7 -14 7h-4h-4q-31 -4 -55.5 -17.5 t-28.5 -51.5l-2 -13v-71v-43.5t2 -42.5q2 -33 3 -67v-23q0 -23 -1 -46l-4 -61q-4 -43 -6 -87t-2 -89v-33z" />
<glyph unicode="q" horiz-adv-x="499" d="M-2 216q0 34 2 69q2 16 2 30.5v28.5v76t2 74v137q0 25 1 54.5t9.5 59t25.5 56t50 43.5q10 4 34 12q15 5 32 5q9 0 18 -1h2q10 -2 30.5 -6t43.5 -14v12h90q10 -2 18.5 -2h18.5h41v-84h-41h-20.5t-20.5 2l-4 -125q-2 -35 -3 -73v-25q0 -24 1 -47v-84q2 -66 2 -130.5v-129.5 q-1 -67 -1 -136v-71q1 -107 7 -221h14h41v-84h-41q-16 0 -29.5 -1t-23.5 -1q-14 -2 -27.5 -2h-31.5h-43v83h43h14q-4 68 -6 133.5t-2 129.5q-10 -4 -18.5 -6.5t-18.5 -4.5h-4q-18 -6 -37 -6q-33 0 -58.5 12.5t-48.5 28.5q-31 23 -39 54.5t-12 58.5q-2 8 -2 15t-2 11 q-8 35 -8 69zM82 221.5q0 -28.5 6 -55.5q4 -20 4 -33q4 -16 7 -33.5t12 -23.5q25 -16 40 -22q9 -3 19 -3q8 0 16 2l4 2q16 4 19.5 6t7.5 7q12 12 19 43l6 18l6 16v11v127.5t-2 128.5v84q-1 26 -1 51v25q1 38 3 73q0 10 1 18.5t1 18.5l-4 27q-4 39 -27.5 51t-52.5 16 q-2 0 -3 1t-3 1q-4 0 -12.5 -2t-20.5 -8q-29 -12 -34 -50t-5 -87v-70t-2 -69v-146v-32.5t-2 -32.5q-2 -31 -2 -59.5z" />
<glyph unicode="r" horiz-adv-x="440" d="M-2 774l2 84l43 -2q18 0 29 2h43l37 -4l2 -37v-14q8 10 17 18t19 17q43 30 85 30q7 0 15 -2q50 -6 85 -28l33 -23l-48 -70l-34 25q-8 4 -32 12.5t-56 -14.5q-23 -16 -42.5 -53t-27.5 -76l-6 -31v-77t-1 -115.5t-2 -116.5t-3 -80q-1 -21 -1 -42v-23q1 -34 3 -66v-18h16h41 v-84h-88q-10 -2 -20.5 -2h-20.5h-17.5t-19.5 2l-43 2l4 84l43 -2q6 -2 21 -2v16q-2 34 -3 70v24q0 24 1 47q2 25 3 80t2 116.5t1 116v74.5v49.5v28.5t-1 16.5t-1 14.5t-1 19.5t-3 33.5q-10 -2 -33 -2z" />
<glyph unicode="s" horiz-adv-x="440" d="M0 -27l4 41v39v35l2 8q0 18 1 36t-3 34l84 12q2 -14 7 -28.5t11 -24.5q16 -29 37 -46.5t43 -21.5q29 -6 54 19q37 33 39 80v10q0 41 -15 74q-10 20 -19 36.5t-20 30.5q-12 16 -20 29q-10 10 -17.5 22.5t-17.5 24.5q-10 16 -23.5 31.5t-29.5 31.5q-6 8 -12.5 14.5 l-14.5 14.5q-31 39 -51 90q-4 8 -4 10l-6 21q-6 22 -10.5 51t-4.5 61.5t11 55.5q39 82 110 98q20 4 39 4q50 0 94 -30v30h84v-41v-32q-2 -16 -2 -36t4 -32l-78 -27q-12 33 -46 63q-25 22 -54 22q-11 0 -22 -3q-31 -6 -54 -51q-4 -8 -4 -24.5t3 -36t6.5 -38t7.5 -26.5 q2 -2 2 -4t2 -4q16 -39 37 -66q6 -6 12 -13t14 -15q16 -16 30.5 -33.5t29.5 -38.5q16 -25 32 -45q8 -12 21 -29q12 -16 23.5 -36.5t23.5 -43.5q23 -55 23 -110q0 -13 -1 -27q-12 -78 -67 -127q-35 -31 -67.5 -37t-55.5 -2t-44.5 15.5t-39.5 27.5q0 -4 -1 -5t-1 -3l-4 -43z " />
<glyph unicode="t" horiz-adv-x="391" d="M0 778v84h43h57v58q-2 18 -2 42.5v65.5v43h84v-43v-64.5t2 -41.5v-58h129v-82h-41q-16 0 -39.5 -1t-48.5 -1q0 -16 -1 -30.5t-1 -28.5q-2 -23 -3 -47.5t-1 -48.5v-93q-2 -43 -3 -87v-18q0 -35 3 -69q2 -31 3 -56.5t1 -49.5q0 -33 1 -69t5 -89q2 -14 11 -16q20 -6 59 -2 h64v-82l-41 -2h-48q-16 0 -30.5 1t-28.5 5q-63 23 -70 88q-4 55 -5 93t-1 71v49.5t-4 54.5q-3 36 -3 72v18q1 45 3 91q0 23 1 45t-1 45q0 27 1 51t3 49q0 14 1 26.5t1 26.5h-57h-43z" />
<glyph unicode="u" horiz-adv-x="559" d="M0 770v84h61q11 0 23 1h8q8 0 17 -1l36 -6v-37q0 -47 -1 -92t-1 -90q0 -69 -1 -139v-47q0 -46 1 -93v-34.5t-2 -32.5q-1 -20 -1 -40.5t1 -40.5q2 -40 19 -81q6 -18 19.5 -34.5t27.5 -25.5q8 -6 17 -7t30 3q23 6 43 27q12 16 19.5 26.5t11.5 30.5l2 15v97t2 97v99v31.5 t2 31.5q2 27 3 51.5t-3 48.5q-4 31 -5 66v23q0 23 1 47v22h-56l-2 84h105l37 -4v-105q-2 -33 -2 -63.5t4 -58.5q4 -31 4 -58.5t-2 -56.5q-2 -16 -2 -29.5v-29.5v-99q-2 -72 -2 -142.5t4 -141.5h2q10 2 29 2h43v-84h-43q-16 0 -25 -2h-27q-16 0 -22 2l-37 2l-2 20 q-31 -20 -66 -31q-10 -2 -20.5 -3t-22.5 -1q-14 0 -30.5 4.5t-34.5 14.5q-31 18 -51.5 47t-30.5 53q-20 50 -22 100q-1 28 -2 55q0 21 1 42q2 16 2 30.5v30.5q-1 48 -1 95v47q1 70 1 141q0 35 1 69.5t1 69.5h-61z" />
<glyph unicode="v" horiz-adv-x="575" d="M0 766v84h195v-84h-48q8 -31 13.5 -61.5t11.5 -63.5q4 -12 5 -24.5t3 -22.5q4 -23 7 -42.5t8 -39.5q12 -59 23 -114.5t22 -110.5q4 -20 8 -41t8 -43l6 37q8 43 16.5 84t12.5 73l12 66q10 63 22.5 125.5t24.5 128.5l8 47h-4h-41v84h41h31.5t22.5 2h100v-84h-64l-12 -66 q-12 -63 -23.5 -126.5t-23.5 -124.5l-10 -66q-6 -33 -13.5 -75t-17.5 -85q-6 -33 -12 -66.5t-17 -74.5l-20 -96l-82 2q-16 72 -29.5 143.5t-25.5 140.5l-45 222q-6 23 -9.5 44t-7.5 44l-6 45q-6 35 -13.5 69.5t-15.5 69.5h-61z" />
<glyph unicode="w" horiz-adv-x="874" d="M0 766v84h43h30.5t22.5 2h99v-84h-48q4 -10 5.5 -19.5t3.5 -19.5l2 -10l16 -88q4 -18 6 -37t4 -35q4 -23 7.5 -45t7.5 -45q4 -18 8 -36.5t8 -37.5q12 -41 18 -82l11 -45l10 -55q0 -4 1 -6t1 -4l4 20l12 58l21 96l8 43q10 43 18.5 86t14.5 84q2 20 7 48t11 53.5t11.5 44 t5.5 20.5h82q18 -80 30 -160q4 -16 6 -30.5t5 -30.5l6 -25l12 -86q0 -8 2 -12q0 -10 4 -27q4 -20 4 -33q2 -6 2 -16l6 -21q4 -12 4 -22l15 -66q2 -10 6 -23.5t8 -29.5l12 78l19 98q2 12 7 38t13 58q8 37 15.5 73t9.5 50l4 23q4 31 7 48t6 32.5t7.5 35t10.5 52.5v8h-49v84 h194v-84h-61v-14l-2 -11q-6 -33 -10.5 -51t-7.5 -33.5t-6 -33t-7 -45.5l-4 -23q-2 -16 -9.5 -52t-15.5 -77q-8 -29 -13 -55.5t-7 -36.5q-4 -25 -8 -49.5t-9 -48.5l-20 -115q-4 -23 -9 -45.5t-12 -44.5q-4 -10 -6 -21.5t-4 -23.5l-82 2l-16 55q-6 20 -12.5 45t-12.5 47.5 t-11 42t-7 29.5l-14 67q0 4 -5 17l-6 31q-2 6 -2 18l-4 27l-6 30q0 6 -2 11l-12 88q0 8 -4 20v2q0 4 -2 6q-10 -61 -25 -123l-8 -43l-21 -96l-12 -57q-12 -59 -23.5 -112.5t-23.5 -106.5l-82 2q-2 10 -4 18t-4 16.5t-2 12.5l-10 53l-21 107q-4 14 -6 27.5t-4 27.5l-10 45 q-4 20 -8.5 38.5t-8.5 39.5q-4 18 -9 37.5t-9 40.5q-4 25 -7.5 48t-7.5 46l-10 69l-16 86l-2 11q-4 12 -6 25.5t-5 27.5h-20h-43z" />
<glyph unicode="x" horiz-adv-x="579" d="M0 72l43 2h20l13 26q8 14 14 26.5t10 29.5q10 25 17.5 49t17.5 47q6 23 17 51l24 59l17 35l12 33l8 16l-12 33l-19 49q-6 14 -11 27.5t-9 28.5l-15 47l-12 31q-8 12 -14 32l-19 51q-4 6 -5 14.5t-5 16.5h-18h-41v84h41h32.5t22.5 -2h96v-84h-45l2 -2l17 -49l12 -29 l14 -35q4 -12 8.5 -24t8.5 -25q4 -12 8 -24.5t8 -24.5q0 6 2 8l25 68l8 20q4 6 6 11.5t4 11.5q4 16 8 25l21 57q0 2 1 4t1 4h-2h-43v84h43q18 0 30.5 1t22.5 1t22.5 1t32.5 1h43v-84h-43h-16l-4 -14l-12 -33q-4 -10 -8.5 -22.5t-8.5 -26.5q-4 -10 -8 -27l-12 -28l-9 -17 q-4 -14 -11 -30.5t-11 -32.5l-16 -45q-6 -14 -11.5 -27.5t-11.5 -26.5l21 -49q12 -31 23 -61.5t24 -59.5l18 -51q4 -10 7 -18t7 -19q4 -10 9.5 -19t9.5 -20q4 -12 10 -23t10 -26l11 -18q0 -2 1 -3t1 -3h65v-82h-43q-18 0 -29.5 -1t-21.5 -1t-22.5 -1t-34.5 -1h-41v84h34 l-16 39q-4 10 -10 21t-10 24l-15 37q-4 12 -9 25t-11 26l-33 90q-2 -2 -2 -6q-8 -14 -13 -26.5t-10 -27.5l-18 -49l-33 -98q-6 -16 -12 -28.5t-12 -24.5l37 2l2 -84l-41 -2h-109l-43 -2z" />
<glyph unicode="y" horiz-adv-x="571" d="M0 768v84h197v-84h-47l24 -125l8 -49l13 -80q14 -59 25 -114.5t22 -110.5l14 -86l8 37l29 159l12 66l47 252l8 49h-47v84h97q10 2 23 2h34h43v-84h-43h-21l-12 -68q-12 -63 -24.5 -125.5t-22.5 -125.5l-12 -64l-29 -160q-4 -18 -7 -35.5t-7 -33.5l-4 -23 q-4 -16 -7.5 -29.5t-7.5 -29.5l-14 -62l-6 -43q-4 -23 -7 -42t-10 -42q0 -4 -1 -6t-1 -6l-4 -16q-6 -25 -10 -48.5t-8 -50.5l-6 -37h4h43v-83h-43h-28.5t-24.5 -3q-12 0 -26.5 -1t-33.5 -1h-41v84h41h21q4 12 5 26.5t5 29.5q4 27 9 52t13 52q0 8 3 12q0 4 4 17q4 18 6 36.5 t6 39.5v4l-2 14q-8 41 -15.5 87t-17.5 93l-14 92q-10 55 -21.5 109.5t-25.5 114.5q-4 23 -7.5 44t-7.5 42l-6 47q-13 69 -29 139h-63z" />
<glyph unicode="z" horiz-adv-x="518" d="M0 -14v88q8 18 15.5 34.5t15.5 28.5q8 20 8 21q2 4 7 13t22 38q12 20 29.5 51t35 62.5t33.5 62.5t27 55q33 70 65.5 148t58.5 141l21 49h-26.5t-28.5 -2q-29 -2 -56.5 -3t-54.5 -1q-14 0 -26.5 1t-24.5 1q-4 0 -6 1t-6 1v-69l-82 -2l-2 43v110l41 2h30q20 0 31 -2 q10 0 21.5 -1t23.5 -1q27 0 52.5 1t54.5 3q39 2 71 3h21q20 0 35 -1l24 -2v-80q-8 -16 -16 -36.5t-19 -47.5q-29 -63 -61.5 -142t-65.5 -148q-12 -25 -28.5 -57t-34 -64.5t-34.5 -63.5t-32 -55q-8 -14 -14 -26.5t-8 -16.5l-13 -23q-4 -14 -12 -24h27h36.5h61.5t61.5 -1 t36.5 -1h25q8 -2 20 -2q0 6 -1 12t-1 10v10v43l84 3v-41q0 -2 1 -31t1 -51l-2 -39h-39q-16 -2 -33.5 -1t-33.5 3h-25q-8 0 -35.5 1t-59.5 1h-60.5h-36.5q-10 0 -25.5 -1t-30.5 -1q-16 -2 -34 -2z" />
<glyph unicode="{" horiz-adv-x="483" d="M0 539v84q33 0 49 16q20 20 22.5 61t0.5 70q-2 10 -2 17.5v15.5q2 8 2 22q2 61 8 117.5t31 118.5q4 6 5 12t5 12q10 27 21.5 54.5t31.5 52.5q35 41 76 48t76 7h43v-84h-43q-37 0 -54.5 -5t-31.5 -21t-22.5 -37t-18.5 -43q-4 -6 -5 -13.5t-6 -13.5q-20 -53 -25 -101 t-7 -106q0 -6 -1 -12t-1 -12v-10.5t2 -14.5q2 -41 -2 -96t-43 -96l-2 -2q6 -10 13 -18.5t11 -18.5q25 -49 29 -133q0 -10 1 -20.5t1 -20.5q0 -49 3 -96.5t13 -94.5t34 -94t52 -74q10 -10 17.5 -11t29.5 -1h19h41v-84h-41h-17h-16q-20 0 -43 6t-47 29q-47 43 -73.5 103.5 t-37.5 107.5q-12 53 -14 105t-4 102q0 10 -1 20t-1 21q-2 49 -11.5 75.5t-21.5 39t-24.5 14.5t-20.5 2z" />
<glyph unicode="|" horiz-adv-x="190" d="M0 270v342q0 25 1 67t3 89q2 35 3 64.5t1 48.5q0 61 -1 105t-3 85q-2 37 -3 78t-1 96v41h84v-41q0 -53 1 -93t3 -77q2 -43 3 -87t1 -107q0 -20 -1 -51t-3 -66q-2 -45 -3 -87t-1 -65v-342q0 -51 1 -101t1 -99q2 -35 2 -72v-74l2 -41l-84 -2v43q-2 35 -2 72t-2 72 q0 49 -1 100t-1 102z" />
<glyph unicode="}" horiz-adv-x="489" d="M0 1245h43q35 0 76 -6t76 -47q6 -10 12 -17.5t12 -15.5q4 -6 8 -11t9 -9q12 -16 17 -32.5t9 -33.5q2 -4 2 -7t2 -7q10 -35 17.5 -68t11.5 -67q6 -49 6 -97q2 -8 2 -22v-35q-2 -29 0 -70t23 -61q16 -16 49 -16l2 -84q-8 0 -20.5 -2t-25 -14.5t-21.5 -39t-11 -75.5v-39 q0 -51 -3 -102.5t-13 -104.5q-4 -29 -14.5 -58.5t-24.5 -58.5q-6 -10 -17.5 -29.5t-29 -40t-39 -38t-45.5 -23.5q-8 -2 -16.5 -2h-16.5h-14h-13h-43v84h41h17q20 0 28 2q12 2 34 25.5t38 60.5q23 43 33 94q10 47 12 94t2 97v41q4 86 29 131q8 20 24 37l-2 2q-39 41 -44 97 t-3 97v25v24q-2 23 -3 45.5t-5 44.5q-6 57 -25 121q-2 4 -3 10.5t-3 10.5q-2 10 -4 18t-6 12q-12 16 -16 23q-6 8 -12.5 15t-10.5 14q-14 16 -32.5 20t-55.5 4h-41z" />
<glyph unicode="~" horiz-adv-x="530" d="M0 561l6 43q10 49 45 84q16 16 44 27.5t69 -2.5q23 -8 43 -21.5t39 -27.5q10 -8 18 -15.5t17 -11.5q29 -14 47 -8q20 8 24 43l4 43l84 -10l-4 -41q-4 -39 -24.5 -69t-51.5 -42q-20 -10 -45 -10q-16 0 -34.5 5t-38.5 17q-12 6 -23.5 13.5t-23.5 17.5q-43 33 -58.5 38 t-25.5 -5q-6 -6 -12.5 -16.5t-8.5 -22.5l-8 -41z" />
<glyph unicode="&#xa1;" horiz-adv-x="212" d="M0 946v113h84v-113h-84zM2 788v41h84v-41q0 -23 1 -43t3 -43q2 -25 3 -49t1 -49q0 -49 -1 -95t-3 -87q-4 -68 0 -139.5t10 -143.5q4 -55 7.5 -112.5t3.5 -112.5v-43h-84v43q0 53 -3.5 108.5t-7.5 110.5q-6 72 -10 145.5t0 145.5q2 41 3 87t1 93q0 23 -1 45.5t-3 44.5 q-2 23 -3 46.5t-1 47.5z" />
<glyph unicode="&#xa2;" horiz-adv-x="536" d="M0 846q-2 90 31 184q10 31 35.5 69t60.5 62q27 16 51 23q0 33 -1 64.5t-1 64.5l-2 43l84 2l2 -41q0 -35 1 -67.5t1 -67.5q4 -2 10 -2l7 -2q18 -4 37.5 -10.5t37.5 -20.5v33h84v-129q2 -8 1 -15.5t-1 -13.5t-1 -12t-1 -13l-80 -14q-10 29 -20 49.5t-25 40.5q-12 14 -47 21 q2 -158 0 -315.5t-4 -329.5v-66q-2 -80 -3 -161t-1 -161q16 4 32.5 8.5t26.5 8.5q10 6 19.5 24.5t11.5 34.5l8 43l82 -14l-6 -41q-4 -31 -22.5 -64.5t-47.5 -52.5q-23 -16 -51 -21t-53 -10q0 -35 3 -69.5t7 -69.5l4 -59l-84 -8l-4 59q-4 39 -7 77t-3 79l-31 12 q-41 20 -82 68q-41 51 -46 110.5t-5 112.5q2 29 0 55q0 20 -1 41t-1 43q-4 53 -5 108.5t3 110.5q2 33 1 63.5t-3 63.5q0 18 -1 35.5t-1 36.5zM84 813.5q0 -18.5 2 -35.5q2 -33 3 -66.5t-1 -68.5q-4 -53 -3 -105.5t5 -105.5q0 -23 1 -43t1 -43q2 -16 1 -29.5t-1 -29.5 q0 -47 3 -91t30 -79q12 -14 23.5 -24.5t23.5 -16.5q0 78 1 153.5t3 153.5v68q2 170 4 328.5t0 316.5q-4 -4 -6 -4q-18 -12 -35.5 -37t-27.5 -54q-29 -78 -27 -153v-34.5z" />
<glyph unicode="&#xa3;" horiz-adv-x="622" d="M0 629l6 84l41 -2l41 -4v84q0 14 -1 28.5t-1 28.5q0 90 33 182q10 33 34.5 70t59.5 61q35 25 76 26t71 -7h7q18 -4 37.5 -10.5t37.5 -22.5v33h84v-129q0 -18 -2 -29v-23l-82 -14q-10 27 -19 48.5t-26 39.5q-8 10 -18 14.5t-31 10.5h-6q-53 12 -80 -4q-20 -14 -37.5 -39 t-27.5 -54q-27 -78 -27 -151v-30.5t2 -28.5v-84h22.5t28.5 2q23 2 40.5 2h31.5h41v-84h-41h-30.5t-37.5 -2q-16 -2 -28.5 -2h-22.5q0 -18 1 -36t1 -34h4q18 0 43 1t72 -3l43 -2l-6 -84l-43 2q-41 4 -64.5 4t-40.5 -2h-4q4 -66 5 -130.5t3 -125.5v-9t3 -9v-59t-11 -60 q10 0 17 2q10 2 21 3t26 -1q29 -2 60.5 -2h66.5q10 0 27.5 -1t35.5 -1q16 -2 30.5 -2h29.5v63l-2 41l84 2l2 -43v-147h-41q-18 -2 -47 -1t-58 3q-18 0 -35.5 1t-27.5 1h-68t-61 2q-10 2 -33 -2q-4 0 -10 -1t-13 -1q-23 -2 -41 -3t-34 -1h-93v86l43 -2q16 0 22.5 4t8.5 6 q16 16 16.5 50t0.5 58q0 6 -1.5 11.5t-1.5 11.5q-2 61 -3 124.5t-5 129.5h-96v84h92q0 18 -1 35.5t-3 36.5l-47 4z" />
<glyph unicode="&#xa4;" horiz-adv-x="569" d="M0 250l27 35l28 39l13 14l8 10q-18 25 -33 66q-12 37 -18.5 80t-1.5 88q6 70 38 131l9 14q-16 18 -27.5 34.5t-22.5 39.5l-16 37l76 36l16 -38q6 -16 14.5 -27.5t18.5 -24.5q49 31 111 31q63 0 118 -33q8 10 16.5 21.5t12.5 15.5q12 12 14 19l21 36l74 -38l-21 -37 q-8 -18 -29 -39l-24 -35l4 -4q37 -53 47 -129t-8 -160q-12 -47 -41 -86q6 -16 10 -16l19 -23l16 -20l29 -31l-62 -57l-28 30l-23 27q-4 8 -12 16q-8 4 -15 17q-35 -16 -63 -23q-23 -6 -45 -6q-47 0 -86 19q-8 4 -14.5 6t-12.5 6q-2 -4 -10 -12l-4 -5q-2 -4 -8 -13t-23 -28 l-26 -34zM106 575q-2 -31 1.5 -64.5t13.5 -64t28.5 -54t47.5 -36.5q25 -12 53 -12q8 0 29 4q41 8 67.5 35t36.5 68q10 51 8 113.5t-35 109.5q-18 27 -49.5 42t-66.5 15q-74 0 -105 -59q-12 -20 -19 -47t-10 -50z" />
<glyph unicode="&#xa5;" horiz-adv-x="655" d="M0 1174l41 2q25 2 45 1t41 -1q14 -2 26.5 -2h22.5h43v-84h-43h-16l8 -27l20 -59q6 -23 12.5 -43.5t10.5 -36.5l33 -105q10 -37 21 -73.5t24 -73.5l8 -27l39 129q10 31 20 51q4 10 7.5 21.5t7.5 21.5q10 25 16 49.5t12 51.5l25 96l10 27h-22l-43 2l4 84l41 -2q31 -2 46 -2 t32 2h96v-84h-68l-14 -52q-8 -23 -14.5 -46t-12.5 -46q-6 -27 -12 -52.5t-16 -53.5q-4 -12 -9.5 -24.5t-9.5 -24.5q-4 -10 -8 -21.5t-8 -21.5l-56 -179q16 2 33 3t29 1h41v-83h-41q-12 0 -30.5 -1.5t-37.5 -3.5h-16v-69h35.5t50.5 -2l41 -2l-4 -84l-43 2q-29 2 -46.5 2 h-31.5v-33q2 -51 3 -102.5t1 -104.5v-14q-2 -2 -2 -8h20h44v-84h-44h-37t-28 -2q-14 0 -29.5 -1t-38.5 -1h-43v84h43h29q0 10 2 16v10q0 51 -1 102.5t-1 102.5q0 8 -1 15.5t-1 17.5h-127v84h125v69h-34.5t-51.5 4l-41 3l6 83l41 -2q23 -2 35 -3t22 -1l-24 78 q-10 37 -21.5 74t-23.5 74q-8 29 -15.5 56.5t-15.5 49.5q-4 14 -10 33.5t-12 42.5q-6 16 -11.5 32.5l-9.5 28.5q-4 18 -7 26.5t-5 14.5l-6 13h-25h-41z" />
<glyph unicode="&#xa6;" horiz-adv-x="192" d="M-2 240q2 16 2 41.5t2 54.5t3 59.5t1 57.5l2 41l84 -2l-2 -41q0 -27 -1 -59t-3 -60q-2 -29 -2 -53.5t-2 -38.5q0 -53 1 -91t3 -75q2 -33 3 -68t1 -82v-41h-84v41q0 47 -1 81t-3 65q-2 39 -3 77.5t-1 92.5zM0 1292h84l2 -41v-27.5t2 -29.5q2 -14 2 -27.5v-29.5 q0 -8 1 -14.5t1 -14.5q0 -23 1 -46.5t-3 -45.5q-4 -47 -3 -97.5t1 -97.5q2 -25 2 -49v-47v-43h-84v43v94q-2 49 -2 100.5t4 104.5q2 18 1 38.5t-1 43.5q0 18 -2 29v26.5t-2 26.5q0 16 -1 30.5t-1 30.5z" />
<glyph unicode="&#xa7;" horiz-adv-x="421" d="M0 -18l4 43q2 8 2 28v37q2 33 0 60l82 14v-2q4 -10 7 -21.5t9 -21.5q10 -18 30 -37t34 -21q27 0 45 19q20 16 24.5 22.5t4.5 20.5q2 29 1 48t-12 40q-29 53 -81 117l-54 65l-6 8q-16 20 -31.5 43t-25.5 52q-4 8 -8 24l-5 17q-29 72 13 145q29 51 84 100q4 4 6 5t4 6 l-31 38l-6 9q-16 20 -31.5 42.5t-25.5 51.5q-4 8 -8 24q0 4 -5 17q-27 66 7 131q33 63 98 80q57 12 111 -19v21h83v-68q-2 -16 -2 -30.5t5 -24.5l-80 -29q-10 27 -38 51.5t-61 16.5q-18 -4 -27.5 -15.5t-13.5 -19.5q-10 -18 -10 -32.5t6 -32.5q4 -6 5 -13.5t3 -13.5l5 -14 q6 -18 18 -36t27 -36l6 -8q12 -16 24.5 -30.5t26.5 -31.5q29 -35 52.5 -67.5t41.5 -69.5q12 -25 18.5 -53.5t1.5 -61t-24.5 -68.5t-62.5 -73q-4 -2 -21 -18l-18 -17l12 -10q29 -35 52.5 -67.5t41.5 -67.5q16 -35 18.5 -68t0.5 -61q-2 -41 -17.5 -60.5t-40.5 -42.5 q-18 -16 -45.5 -28.5t-58.5 -10.5q-23 2 -41.5 11.5t-34.5 23.5l-4 -39zM93 585.5q3 -12.5 5 -18.5q4 -8 5 -15t3 -13l5 -15q4 -16 15 -31.5t24 -31.5l14 10q6 8 11 12t9 9q57 51 59.5 90t-12.5 67q-20 37 -51 78l-8 -8q-37 -33 -54.5 -58.5t-22.5 -44t-2 -31z" />
<glyph unicode="&#xa8;" horiz-adv-x="405" d="M0 991v31v39l39 2h43l37 -2l2 -37v-31v-43h-41h-8h-15h-18l-37 2zM203 991v31v43h41h8h14h19l37 -2l2 -39v-31v-39l-39 -2h-43l-37 2z" />
<glyph unicode="&#xa9;" horiz-adv-x="663" d="M-1 846.5q1 56.5 13 116.5q8 41 27.5 84t44.5 77q35 47 88 74t115 27q78 0 149 -41q70 -39 109 -115q39 -74 39 -174t-39 -205q-29 -78 -94.5 -126t-149.5 -54h-20q-37 0 -74 9t-70 30q-100 59 -129 192q-10 49 -9 105.5zM82 854q-2 -47 7 -92t30.5 -82t60.5 -59 q45 -27 101 -27h14q59 4 105 38t65 87q12 33 21.5 74t12.5 81.5t-3.5 81.5t-24.5 76q-25 49 -75 79t-109 30q-86 0 -135 -68q-20 -27 -36 -61.5t-22 -67.5q-10 -43 -12 -90zM156 918v22q0 39 16 72q8 16 21.5 29.5t29.5 21.5q18 10 38 11t34 -3h2q4 0 7 -1t7 -1v14h84v-43 v-2q0 -10 -2 -27.5t-14 -41.5h-76q-6 14 -10 18q-6 0 -10 2h-2q-10 2 -14.5 1t-6.5 -1q-4 -2 -7 -6t-7 -8q-6 -18 -6 -33v-18q2 -10 2 -22.5v-24.5q-4 -29 0 -60v-13t2 -13v-21q-2 -23 4 -27q8 -8 12 -8q8 -4 14 -4h2q4 2 11.5 2t11.5 2l8 39l82 -18l-10 -41 q-4 -14 -13.5 -29.5t-29.5 -26.5q-10 -4 -22.5 -6t-26.5 -4l-4 -2h-9q-20 0 -43 8q-25 10 -41 27q-25 23 -28.5 47.5t-1.5 42.5v14q0 6 -1 12.5t-1 14.5q-2 33 0 72v15t-2 18z" />
<glyph unicode="&#xaa;" horiz-adv-x="397" d="M-6 693.5q0 29.5 2 58.5v53q-2 20 0 44.5t20 53.5q10 16 28.5 28.5t39.5 20.5q20 8 44 8.5t40 -2.5q2 -2 8 -2q6 -2 21 -2q4 29 3 56.5t-12 56.5q-8 23 -24 35q-8 4 -17 4h-18t-14 -2l-4 -4q-14 -18 -25 -41l-76 35q6 12 14.5 28.5t22.5 32.5q16 18 39 27q27 8 59 8 q35 0 64 -19q23 -16 38 -37.5t21 -39.5q14 -41 15.5 -76t-2.5 -70v-35v-55.5t1 -71t2 -78.5t3 -73h49v-84l-123 -2l-2 10q-18 -10 -33.5 -13t-25.5 -3h-9q-25 0 -49 8q-84 20 -94 82q-6 31 -6 60.5zM78 696.5q0 -24.5 4 -47.5q0 -10 31 -18q10 -2 19 -3t13 -1q12 2 31 9 t23 17v4q-2 51 -2 105.5v101.5l-4 4q-4 2 -12.5 3t-14.5 1q-2 2 -8 2q-31 2 -45 -2q-23 -6 -27 -16q-8 -14 -6 -47v-61q-2 -27 -2 -51.5z" />
<glyph unicode="&#xab;" horiz-adv-x="501" d="M41 623l8 9q8 9 18.5 22.5t21.5 26.5t22 24q8 10 26.5 27.5t22.5 21.5l28 28l60 -59l-31 -31q-10 -10 -24.5 -23.5t-20.5 -19.5q-8 -10 -20.5 -24.5t-22.5 -28.5q20 -23 47 -53.5t41 -44.5l31 -29l-60 -61l-30 30q-12 12 -30.5 33t-37 42.5t-33 37.5t-14.5 18zM203 625 l8 8l18.5 18.5t21.5 22.5t19 20q10 10 28.5 24.5t23.5 18.5l30 27l54 -66l-33 -26q-10 -8 -24.5 -20.5t-18.5 -16.5q-8 -8 -17.5 -18.5t-19.5 -20.5q20 -18 43.5 -42t38.5 -34l31 -28l-54 -64l-33 27q-12 10 -30.5 28.5t-37 36t-32.5 31.5l-14 14z" />
<glyph unicode="&#xac;" horiz-adv-x="606" d="M0 635v84h43h82q43 2 88 2t92 -4q20 -2 42 -1t44 1q20 0 41 1t41 -1l37 -2l4 -35q4 -29 2 -55.5t-4 -55.5q0 -16 -1 -29.5t-1 -27.5v-43h-84v43q0 16 1 31.5t3 31.5q0 16 1 29.5t1 28.5h-39q-23 0 -47 -1t-47 3q-88 4 -174 0h-82h-43z" />
<glyph unicode="&#xad;" horiz-adv-x="583" d="M0 549v84h41q33 0 62.5 -1t58.5 -3q63 -2 128.5 -2t145.5 6l43 4l8 -82l-43 -4q-86 -8 -153.5 -8t-130.5 2q-31 2 -59.5 3t-59.5 1h-41z" />
<glyph unicode="&#xae;" horiz-adv-x="653" d="M-8 922q4 41 16 87t33 83q35 61 94.5 95t132.5 34q72 0 135.5 -32t102.5 -87q47 -70 60.5 -168t-9.5 -209q-18 -80 -76.5 -137.5t-140.5 -73.5q-30 -6 -59 -6q-59 0 -109 20q-106 47 -154 174q-16 47 -23 103.5t-3 116.5zM76 915q-4 -43 1 -90t19.5 -90t41 -77.5 t67.5 -51.5q35 -14 76 -14h20t21 4q59 10 100 51t53 96q8 35 11 76t-1 83t-15 81t-34 70q-27 41 -72 62.5t-96 21.5q-106 0 -153 -86q-16 -29 -26.5 -66t-12.5 -70zM160 891h26v46.5t2 39.5v18h-24v84h61h20.5t18.5 -2q29 -2 60 -16q31 -16 48 -38t24 -45.5t4 -48t-11 -44.5 q-12 -33 -45 -56l-2 -2q16 -23 33 -53l2 -2l10 -22h33v-84h-82l-12 20l-9 16l-14 29l-2 4l-29 49v-10v-108h-108v84h24v22q0 2 -1 11.5t-1 23.5h-24zM270 891h9q4 2 6 2t4 2q4 0 4 1t2 1q14 10 16 18q18 49 -24 70l-15 6v-18q-2 -16 -2 -37.5v-44.5z" />
<glyph unicode="&#xaf;" horiz-adv-x="530" d="M0 1040v84h43h109h110h70q16 2 33.5 2h35.5h43v-84h-43h-33.5t-33.5 -2h-72h-110h-109h-43z" />
<glyph unicode="&#xb0;" horiz-adv-x="352" d="M0 1083q0 59 19.5 89t41.5 42q27 16 60 17q43 0 84 -27q47 -33 55 -71.5t8 -79.5v-4q2 -47 -26.5 -88t-77.5 -43h-2q-74 0 -118 44t-44 121zM84 1085q0 -55 25.5 -69.5t50.5 -14.5q12 2 18 19.5t6 28.5v4q0 37 -3 53t-23 29q-8 4 -17.5 8t-19.5 4q-8 0 -17 -4 q-4 -4 -12 -13.5t-8 -44.5z" />
<glyph unicode="&#xb1;" horiz-adv-x="534" d="M0 279v83h43h107h108h66q16 0 34.5 1.5t34.5 1.5h43v-84h-43h-32.5t-32.5 -2h-70h-108h-107h-43zM2 600v86h61h56.5t56.5 -2q0 6 1 12t1 13v151h86v-180q16 0 31.5 1t34.5 1q16 0 32.5 1t34.5 1h43v-86h-43q-16 0 -31.5 -1t-31.5 -1t-30.5 -1t-31.5 -1h-8v-59 q2 -16 2 -35v-35v-43h-86v43q0 16 -1 33.5t-1 33.5t-1 33t-1 33q-29 2 -56.5 2h-56.5h-61z" />
<glyph unicode="&#xb2;" horiz-adv-x="376" d="M0 555v39q0 51 8 82q2 10 6 26q2 4 2 6.5t2 4.5q4 14 8.5 28.5t12.5 28.5q4 10 9 18.5t9 16.5q4 6 6.5 11t6.5 11q4 10 9 17.5t9 15.5q6 10 12 21.5t11 21.5q6 20 15 39t19 35q4 6 6.5 11t6.5 11q14 25 22 48q6 18 4 32v8v11l-2 2q-4 4 -4 6q-16 8 -26 8t-22.5 1 t-23.5 -1q-8 -4 -12 -8l-6 -10q-2 -6 -2 -23l-2 -41h-84l2 43q0 12 1 22.5t3 20.5q8 23 23 41q25 31 65 37q14 2 28.5 3t35.5 -1q33 -4 63 -20q10 -6 17.5 -13.5t11.5 -13.5v-2q14 -16 16 -31.5t2 -27.5v-7q2 -35 -8 -65q-10 -29 -29 -60q-4 -6 -6 -11t-6 -11 q-16 -29 -31 -59q-4 -16 -12 -31t-16 -29q-4 -8 -8.5 -14t-8.5 -15q-4 -6 -7 -12t-7 -12q-8 -14 -14 -29q-10 -23 -17 -43q-2 -4 -2 -7t-2 -7q-4 -12 -4 -19q-2 -6 -3 -11t-1 -11h8q10 0 19.5 1t21.5 1h27q10 -2 21.5 -2h21.5l-2 41l84 4l2 -41v-22.5t-2 -18.5v-8l-4 -37 h-37q-43 -4 -84 0h-27q-10 0 -18 -1t-19 -1q-8 0 -17.5 -1t-19.5 -1q-4 0 -10 1t-12 1z" />
<glyph unicode="&#xb3;" horiz-adv-x="362" d="M-12 651l75 35l17 -39q10 -20 51 -22q33 -4 42 5t22 38l6 16q14 29 11 53.5t-13 59.5q-4 20 -9 30q-8 31 -32.5 47.5t-42.5 24.5q-8 4 -14.5 7t-10.5 9l-4 3v55l2 2l35 37q6 6 14 22q4 4 6 9.5t7 9.5l16 28l8 17h-12q-25 -2 -41.5 -2h-38.5v-35h-84v121h43q47 -2 66.5 -2 t50.5 2q14 0 22 2q23 2 45.5 2t44.5 -6l4 -2v-80q-10 -10 -18 -25.5t-16 -30.5l-21 -34q-4 -4 -5 -7.5t-3 -7.5q-10 -18 -25 -37q25 -14 50.5 -40.5t35.5 -69.5l9 -27q10 -39 14 -80t-19 -90q0 -2 -4 -14q-6 -12 -14 -28.5t-22.5 -31t-37 -24.5t-55.5 -10h-20 q-23 2 -59.5 13t-59.5 58z" />
<glyph unicode="&#xb4;" horiz-adv-x="258" d="M0 993l20 39q8 16 15.5 28.5t13.5 24.5q4 8 9 15.5t10 17.5q4 6 8 14.5t6 18.5l14 39l80 -27l-14 -39q-4 -16 -10.5 -29.5t-10.5 -17.5q-4 -10 -9 -17t-9 -16q-8 -12 -14.5 -24t-14.5 -27l-18 -37z" />
<glyph unicode="&#xb7;" horiz-adv-x="215" d="M-1 594q1 10 1 14v39l39 2h43l37 -2l2 -37v-30v-43h-41h-8h-15h-18l-37 2l-2 39q-2 6 -1 16z" />
<glyph unicode="&#xb8;" horiz-adv-x="288" d="M-2 -80q20 41 25.5 49t7.5 13q8 8 15 18t9 14l21 39l74 -41l-19 -37q-4 -6 -11 -16t-14 -18q18 -4 37 -14.5t31 -26.5q25 -33 21 -78q-4 -35 -26 -59.5t-56 -34.5q-16 -4 -31.5 -7.5t-38.5 -3.5h-2h-41v84h41q29 0 47 6q18 4 23 23q0 16 -5 20q-4 6 -24.5 9.5t-40.5 1.5z " />
<glyph unicode="&#xb9;" horiz-adv-x="362" d="M0 1004l31 28q10 8 17 19.5t15 25.5l19 29l6 10q29 41 35 52.5t6 15.5l2 6h82v-4q2 -29 2 -60.5v-62.5v-80q4 -92 0 -176v-66q0 -10 -1 -18t-1 -18q-4 -16 -4 -27v-41h53l43 -2l-4 -84l-41 2h-49q-10 0 -17.5 -1t-15.5 -1h-10q-14 0 -27.5 1t-29.5 1q-8 0 -16.5 1 t-18.5 1h-41l2 84h43q10 -2 18 -2h17q2 0 4 -1t6 -1v43q0 10 1 19.5t3 19.5q2 6 2 13v13v66q2 82 0 172v47q-10 -14 -19.5 -28.5t-23.5 -28.5l-31 -29z" />
<glyph unicode="&#xba;" horiz-adv-x="389" d="M0 782.5v46.5v25v33v67q0 59 14 109q4 8 4 18q4 18 11.5 45t40.5 45q16 8 33.5 11.5t33.5 5.5l4 2q31 2 68 -12q37 -16 60.5 -48t27.5 -73q12 -104 13 -194.5t-9 -176.5q-4 -35 -18.5 -74t-61.5 -67q-26 -17 -59 -17q-10 0 -18.5 1t-18.5 3h-4q-14 4 -31.5 10.5 t-34.5 22.5q-31 35 -40 81t-13 87q-2 25 -2 49.5zM84 784q0 -22 2 -45q2 -33 8 -64.5t25 -53.5l20 -7h2q8 -2 21 -2h10q2 0 4 2q23 14 30 32t11 50q10 80 9 165t-11 186q-2 8 -8 25.5t-29 27.5q-18 6 -24 6h-2h-5q-6 -2 -18 -3t-16 -5q-4 -2 -6.5 -6.5t-4.5 -20.5 q-2 -8 -3 -15t-3 -18q-6 -20 -9 -39.5t-3 -44.5v-67v-33v-25v-45z" />
<glyph unicode="&#xbb;" horiz-adv-x="536" d="M0 492l31 26l7 6t16 14.5t18.5 16.5t13.5 12t11 12.5t18 16.5q-33 33 -82 76l-33 26l53 66l31 -27q51 -41 84 -75.5t35 -38.5v-56l-7 -8q-8 -8 -17 -17.5t-19 -18.5t-17 -15q-6 -6 -15 -14.5t-18.5 -16.5t-16.5 -15l-7 -7l-33 -27zM158 467l30 31l23 22q10 10 18.5 19.5 t14.5 15.5q4 6 13 18.5t19 22.5q-31 41 -88 98l-30 29l59 59l29 -28q51 -49 83.5 -90t35.5 -43v-52l-9 -9q-8 -9 -17 -20.5t-18.5 -22.5t-15.5 -17t-15 -16.5t-18.5 -19.5t-16.5 -18l-7 -8l-29 -30z" />
<glyph unicode="&#xbc;" horiz-adv-x="940" d="M-37 1004l31 28q10 8 17 19.5t15 25.5l19 29l6 10q29 41 35 52.5t6 15.5l2 6h82v-4q2 -29 2 -60.5v-62.5v-80q4 -92 0 -176v-66q0 -10 -1 -18t-1 -18q-4 -16 -4 -27v-41h53l43 -2l-4 -84l-41 2h-49q-10 0 -17.5 -1t-15.5 -1h-10q-14 0 -27.5 1t-29.5 1q-8 0 -16.5 1 t-18.5 1h-41l2 84h43q10 -2 18 -2h17q2 0 4 -1t6 -1v43q0 10 1 19.5t3 19.5q2 6 2 13v13v66q2 82 0 172v47q-10 -14 -19.5 -28.5t-23.5 -28.5l-31 -29zM4 -72l20 35q88 160 166 289t158 256q49 82 100.5 166t108.5 182q12 18 34.5 59t50.5 95.5t57.5 119t54.5 130.5l14 38 l78 -28l-15 -39q-25 -68 -55.5 -134.5t-59 -124t-52 -99.5t-33.5 -60q-59 -98 -110.5 -182t-100.5 -166q-78 -129 -156 -256t-166 -287l-20 -37zM567 232v73q10 16 18.5 34t16.5 34l26 45q10 16 19.5 34.5t19.5 39.5l13 20q0 2 6 12q6 12 17 35t30 54l6 12h70l2 -33 q2 -49 3 -97t-1 -89v-48.5t-2 -46.5h45v-83h-51v-11q-2 -25 -1 -49t3 -51q2 -23 3 -43.5t1 -42.5v-41h-82v41q0 20 -1 38.5t-3 41.5q-6 57 -4 110v4h-57.5t-73.5 5zM663 309h64q2 25 2 48.5v48.5v20l-29 -51l-24 -43z" />
<glyph unicode="&#xbd;" horiz-adv-x="985" d="M-37 1004l31 28q10 8 17 19.5t15 25.5l19 29l6 10q29 41 35 52.5t6 15.5l2 6h82v-4q2 -29 2 -60.5v-62.5v-80q4 -92 0 -176v-66q0 -10 -1 -18t-1 -18q-4 -16 -4 -27v-41h53l43 -2l-4 -84l-41 2h-49q-10 0 -17.5 -1t-15.5 -1h-10q-14 0 -27.5 1t-29.5 1q-8 0 -16.5 1 t-18.5 1h-41l2 84h43q10 -2 18 -2h17q2 0 4 -1t6 -1v43q0 10 1 19.5t3 19.5q2 6 2 13v13v66q2 82 0 172v47q-10 -14 -19.5 -28.5t-23.5 -28.5l-31 -29zM8 -72l20 35q88 160 166 289t158 256q49 82 100.5 166t108.5 182q12 18 34.5 59t50.5 95.5t57.5 119t54.5 130.5l14 38 l78 -28l-15 -39q-25 -68 -55.5 -134.5t-59 -124t-52 -99.5t-33.5 -60q-59 -98 -110.5 -182t-100.5 -166q-78 -129 -156 -256t-166 -287l-20 -37zM608 -10v39q0 51 8 82q2 10 6 26q2 4 2 6.5t2 4.5q4 14 8.5 28.5t12.5 28.5q4 10 9 18.5t9 16.5q4 6 6.5 11t6.5 11 q4 10 9 17.5t9 15.5q6 10 12 21.5t11 21.5q6 20 15 39t19 35q4 6 6.5 11t6.5 11q14 25 22 48q6 18 4 32v8v11l-2 2q-4 4 -4 6q-16 8 -26 8t-22.5 1t-23.5 -1q-8 -4 -12 -8l-6 -10q-2 -6 -2 -23l-2 -41h-84l2 43q0 12 1 22.5t3 20.5q8 23 23 41q25 31 65 37q14 2 28.5 3 t35.5 -1q33 -4 63 -20q10 -6 17.5 -13.5t11.5 -13.5v-2q14 -16 16 -31.5t2 -27.5v-7q2 -35 -8 -65q-10 -29 -29 -60q-4 -6 -6 -11t-6 -11q-16 -29 -31 -59q-4 -16 -12 -31t-16 -29q-4 -8 -8.5 -14t-8.5 -15q-4 -6 -7 -12t-7 -12q-8 -14 -14 -29q-10 -23 -17 -43q-2 -4 -2 -7 t-2 -7q-4 -12 -4 -19q-2 -6 -3 -11t-1 -11h8q10 0 19.5 1t21.5 1h27q10 -2 21.5 -2h21.5l-2 41l84 4l2 -41v-22.5t-2 -18.5v-8l-4 -37h-37q-43 -4 -84 0h-27q-10 0 -18 -1t-19 -1q-8 0 -17.5 -1t-19.5 -1q-4 0 -10 1t-12 1z" />
<glyph unicode="&#xbe;" horiz-adv-x="948" d="M-18 651l75 35l17 -39q10 -20 51 -22q33 -4 42 5t22 38l6 16q14 29 11 53.5t-13 59.5q-4 20 -9 30q-8 31 -32.5 47.5t-42.5 24.5q-8 4 -14.5 7t-10.5 9l-4 3v55l2 2l35 37q6 6 14 22q4 4 6 9.5t7 9.5l16 28l8 17h-12q-25 -2 -41.5 -2h-38.5v-35h-84v121h43q47 -2 66.5 -2 t50.5 2q14 0 22 2q23 2 45.5 2t44.5 -6l4 -2v-80q-10 -10 -18 -25.5t-16 -30.5l-21 -34q-4 -4 -5 -7.5t-3 -7.5q-10 -18 -25 -37q25 -14 50.5 -40.5t35.5 -69.5l9 -27q10 -39 14 -80t-19 -90q0 -2 -4 -14q-6 -12 -14 -28.5t-22.5 -31t-37 -24.5t-55.5 -10h-20 q-23 2 -59.5 13t-59.5 58zM12 -72l20 35q88 160 166 289t158 256q49 82 100.5 166t108.5 182q12 18 34.5 59t50.5 95.5t57.5 119t54.5 130.5l14 38l78 -28l-15 -39q-25 -68 -55.5 -134.5t-59 -124t-52 -99.5t-33.5 -60q-59 -98 -110.5 -182t-100.5 -166q-78 -129 -156 -256 t-166 -287l-20 -37zM575 232v73q10 16 18.5 34t16.5 34l26 45q10 16 19.5 34.5t19.5 39.5l13 20q0 2 6 12q6 12 17 35t30 54l6 12h70l2 -33q2 -49 3 -97t-1 -89v-48.5t-2 -46.5h45v-83h-51v-11q-2 -25 -1 -49t3 -51q2 -23 3 -43.5t1 -42.5v-41h-82v41q0 20 -1 38.5t-3 41.5 q-6 57 -4 110v4h-57.5t-73.5 5zM671 309h64q2 25 2 48.5v48.5v20l-29 -51l-24 -43z" />
<glyph unicode="&#xbf;" horiz-adv-x="501" d="M-1 218q1 20 7 42q14 49 31 88q35 76 96 154q23 29 30 52.5t7 63.5q2 23 1 43.5t-3 43.5q0 23 -1 45t-1 45l2 41l84 -2l-2 -41q0 -20 1 -41t1 -43q2 -23 3 -46.5t-1 -46.5q-2 -51 -11.5 -89t-43.5 -78q-55 -68 -84 -136q-8 -16 -14.5 -34.5t-14.5 -40.5q-4 -14 -4 -26.5 v-29.5l2 -6v-26q2 -39 4 -72t18 -66q12 -23 34 -44t61 -21h2q37 0 76 43q20 23 32.5 48t12.5 44l-2 43l84 2l2 -41q2 -37 -16.5 -78t-51.5 -76q-63 -66 -137 -69h-2q-53 0 -97.5 29.5t-70.5 82.5q-23 45 -27 88t-6 84v27v6q-2 18 -1 38zM166 946v113h84v-113h-84z" />
<glyph unicode="&#xc0;" horiz-adv-x="628" d="M2 -14v84h43h29l4 49l12 119q4 16 5 30.5t3 28.5q4 53 13 109l14 86q8 37 14 75.5t10 77.5t11.5 77t13.5 77l18 102l13 84q4 27 7 53.5t7 55.5h-41v84h64h8h59l12 -45q10 -47 20.5 -92.5t16.5 -86.5l2 -18q10 -72 20.5 -144.5t24.5 -144.5q8 -37 12.5 -74.5t8.5 -74.5 l12 -103q6 -41 11.5 -83t9.5 -83q6 -82 18 -157h27h43v-84h-43h-36.5t-27.5 -2h-108v84h61q-6 39 -10 75.5t-8 75.5q-6 84 -19 162q-4 23 -7 47.5t-7 46.5q-4 0 -6 -1t-6 -1q-10 0 -22.5 -1t-24.5 -1h-11h-31.5t-31.5 4q-4 -23 -7 -43t-7 -41q-4 -27 -7.5 -52.5t-7.5 -51.5 l-6 -62l-12 -116l-4 -37h18h41v-84h-41h-37t-26 -2q-14 0 -29.5 -1t-38.5 -1h-43zM111 1471l68 47l24 -35q14 -23 26.5 -45.5t22 -41.5t15.5 -32l6 -14l14 -41l-78 -29l-14 39q-10 18 -18 39q-8 16 -19.5 38t-23.5 40zM223 559q10 -2 23.5 -2h25.5h9h21t22 2q4 0 5 1t5 1 q-2 16 -4 34.5t-6 37.5q-16 70 -26.5 140.5t-21.5 141.5q0 -8 -1 -14t-1 -12q-4 -27 -9 -53.5t-9 -53.5q-6 -35 -12 -72.5t-11 -74.5z" />
<glyph unicode="&#xc1;" horiz-adv-x="628" d="M2 -14v84h43h29l4 49l12 119q4 16 5 30.5t3 28.5q4 53 13 109l14 86q8 37 14 75.5t10 77.5t11.5 77t13.5 77l18 102l13 84q4 27 7 53.5t7 55.5h-41v84h64h8h59l12 -45q10 -47 20.5 -92.5t16.5 -86.5l2 -18q10 -72 20.5 -144.5t24.5 -144.5q8 -37 12.5 -74.5t8.5 -74.5 l12 -103q6 -41 11.5 -83t9.5 -83q6 -82 18 -157h27h43v-84h-43h-36.5t-27.5 -2h-108v84h61q-6 39 -10 75.5t-8 75.5q-6 84 -19 162q-4 23 -7 47.5t-7 46.5q-4 0 -6 -1t-6 -1q-10 0 -22.5 -1t-24.5 -1h-11h-31.5t-31.5 4q-4 -23 -7 -43t-7 -41q-4 -27 -7.5 -52.5t-7.5 -51.5 l-6 -62l-12 -116l-4 -37h18h41v-84h-41h-37t-26 -2q-14 0 -29.5 -1t-38.5 -1h-43zM223 559q10 -2 23.5 -2h25.5h9h21t22 2q4 0 5 1t5 1q-2 16 -4 34.5t-6 37.5q-16 70 -26.5 140.5t-21.5 141.5q0 -8 -1 -14t-1 -12q-4 -27 -9 -53.5t-9 -53.5q-6 -35 -12 -72.5t-11 -74.5z M227 1321l20 39q8 16 15.5 28.5t13.5 24.5q4 8 9 15.5t10 17.5q4 6 8 14.5t6 18.5l14 39l80 -27l-14 -39q-4 -16 -10.5 -29.5t-10.5 -17.5q-4 -10 -9 -17t-9 -16q-8 -12 -14.5 -24t-14.5 -27l-18 -37z" />
<glyph unicode="&#xc2;" horiz-adv-x="628" d="M2 -14v84h43h29l4 49l12 119q4 16 5 30.5t3 28.5q4 53 13 109l14 86q8 37 14 75.5t10 77.5t11.5 77t13.5 77l18 102l13 84q4 27 7 53.5t7 55.5h-41v84h64h8h59l12 -45q10 -47 20.5 -92.5t16.5 -86.5l2 -18q10 -72 20.5 -144.5t24.5 -144.5q8 -37 12.5 -74.5t8.5 -74.5 l12 -103q6 -41 11.5 -83t9.5 -83q6 -82 18 -157h27h43v-84h-43h-36.5t-27.5 -2h-108v84h61q-6 39 -10 75.5t-8 75.5q-6 84 -19 162q-4 23 -7 47.5t-7 46.5q-4 0 -6 -1t-6 -1q-10 0 -22.5 -1t-24.5 -1h-11h-31.5t-31.5 4q-4 -23 -7 -43t-7 -41q-4 -27 -7.5 -52.5t-7.5 -51.5 l-6 -62l-12 -116l-4 -37h18h41v-84h-41h-37t-26 -2q-14 0 -29.5 -1t-38.5 -1h-43zM78 1319l31 30q49 47 86 85t39 40h57l11 -11t21.5 -20.5t24 -22.5t17.5 -17q12 -14 28.5 -36t18.5 -24l24 -32l-67 -52l-25 35q-6 8 -19.5 25.5t-23.5 27.5q-4 4 -15 15.5t-22 23.5 q-18 -18 -43.5 -42.5t-54.5 -53.5l-29 -31zM223 559q10 -2 23.5 -2h25.5h9h21t22 2q4 0 5 1t5 1q-2 16 -4 34.5t-6 37.5q-16 70 -26.5 140.5t-21.5 141.5q0 -8 -1 -14t-1 -12q-4 -27 -9 -53.5t-9 -53.5q-6 -35 -12 -72.5t-11 -74.5z" />
<glyph unicode="&#xc3;" horiz-adv-x="628" d="M2 -14v84h43h29l4 49l12 119q4 16 5 30.5t3 28.5q4 53 13 109l14 86q8 37 14 75.5t10 77.5t11.5 77t13.5 77l18 102l13 84q4 27 7 53.5t7 55.5h-41v84h64h8h59l12 -45q10 -47 20.5 -92.5t16.5 -86.5l2 -18q10 -72 20.5 -144.5t24.5 -144.5q8 -37 12.5 -74.5t8.5 -74.5 l12 -103q6 -41 11.5 -83t9.5 -83q6 -82 18 -157h27h43v-84h-43h-36.5t-27.5 -2h-108v84h61q-6 39 -10 75.5t-8 75.5q-6 84 -19 162q-4 23 -7 47.5t-7 46.5q-4 0 -6 -1t-6 -1q-10 0 -22.5 -1t-24.5 -1h-11h-31.5t-31.5 4q-4 -23 -7 -43t-7 -41q-4 -27 -7.5 -52.5t-7.5 -51.5 l-6 -62l-12 -116l-4 -37h18h41v-84h-41h-37t-26 -2q-14 0 -29.5 -1t-38.5 -1h-43zM82 1300l6 41q6 39 41 70q14 12 38 20.5t58 -2.5q18 -6 35 -16t31 -21q14 -10 29 -18q8 -4 16 -7t16 1q4 2 8.5 7t4.5 15l6 43l82 -10l-4 -43q-4 -31 -21.5 -55.5t-44.5 -34.5q-19 -6 -39 -6 q-35 0 -61 16q-10 4 -19.5 10.5t-19.5 12.5q-29 20 -45 26q-10 4 -15 -2q-12 -8 -12 -20l-8 -41zM223 559q10 -2 23.5 -2h25.5h9h21t22 2q4 0 5 1t5 1q-2 16 -4 34.5t-6 37.5q-16 70 -26.5 140.5t-21.5 141.5q0 -8 -1 -14t-1 -12q-4 -27 -9 -53.5t-9 -53.5q-6 -35 -12 -72.5 t-11 -74.5z" />
<glyph unicode="&#xc4;" horiz-adv-x="628" d="M2 -14v84h43h29l4 49l12 119q4 16 5 30.5t3 28.5q4 53 13 109l14 86q8 37 14 75.5t10 77.5t11.5 77t13.5 77l18 102l13 84q4 27 7 53.5t7 55.5h-41v84h64h8h59l12 -45q10 -47 20.5 -92.5t16.5 -86.5l2 -18q10 -72 20.5 -144.5t24.5 -144.5q8 -37 12.5 -74.5t8.5 -74.5 l12 -103q6 -41 11.5 -83t9.5 -83q6 -82 18 -157h27h43v-84h-43h-36.5t-27.5 -2h-108v84h61q-6 39 -10 75.5t-8 75.5q-6 84 -19 162q-4 23 -7 47.5t-7 46.5q-4 0 -6 -1t-6 -1q-10 0 -22.5 -1t-24.5 -1h-11h-31.5t-31.5 4q-4 -23 -7 -43t-7 -41q-4 -27 -7.5 -52.5t-7.5 -51.5 l-6 -62l-12 -116l-4 -37h18h41v-84h-41h-37t-26 -2q-14 0 -29.5 -1t-38.5 -1h-43zM88 1339v31v39l39 2h43l37 -2l2 -37v-31v-43h-41h-8h-15h-18l-37 2zM223 559q10 -2 23.5 -2h25.5h9h21t22 2q4 0 5 1t5 1q-2 16 -4 34.5t-6 37.5q-16 70 -26.5 140.5t-21.5 141.5 q0 -8 -1 -14t-1 -12q-4 -27 -9 -53.5t-9 -53.5q-6 -35 -12 -72.5t-11 -74.5zM291 1339v31v43h41h8h14h19l37 -2l2 -39v-31v-39l-39 -2h-43l-37 2z" />
<glyph unicode="&#xc5;" horiz-adv-x="628" d="M2 -14v84h43h29l4 49l12 119q4 16 5 30.5t3 28.5q4 53 13 109l14 86q8 37 14 75.5t10 77.5t11.5 77t13.5 77l18 102l13 84q4 27 7 53.5t7 55.5h-41v84h64h8h59l12 -45q10 -47 20.5 -92.5t16.5 -86.5l2 -18q10 -72 20.5 -144.5t24.5 -144.5q8 -37 12.5 -74.5t8.5 -74.5 l12 -103q6 -41 11.5 -83t9.5 -83q6 -82 18 -157h27h43v-84h-43h-36.5t-27.5 -2h-108v84h61q-6 39 -10 75.5t-8 75.5q-6 84 -19 162q-4 23 -7 47.5t-7 46.5q-4 0 -6 -1t-6 -1q-10 0 -22.5 -1t-24.5 -1h-11h-31.5t-31.5 4q-4 -23 -7 -43t-7 -41q-4 -27 -7.5 -52.5t-7.5 -51.5 l-6 -62l-12 -116l-4 -37h18h41v-84h-41h-37t-26 -2q-14 0 -29.5 -1t-38.5 -1h-43zM139 1415v4q-2 41 22.5 75t67.5 36h2q61 0 97 -37t36 -101q2 -47 -15 -72.5t-36 -35.5q-20 -14 -51 -14q-37 0 -70 22q-41 27 -47 59.5t-6 63.5zM223 559q10 -2 23.5 -2h25.5h9h21t22 2 q4 0 5 1t5 1q-2 16 -4 34.5t-6 37.5q-16 70 -26.5 140.5t-21.5 141.5q0 -8 -1 -14t-1 -12q-4 -27 -9 -53.5t-9 -53.5q-6 -35 -12 -72.5t-11 -74.5zM223 1417q0 -31 2 -39t14 -16t23 -8q6 0 8 2q12 6 12 36q-2 35 -17.5 44.5t-33.5 9.5q-2 0 -5 -8.5t-3 -18.5v-2z" />
<glyph unicode="&#xc6;" horiz-adv-x="909" d="M0 -12v82h43h31l12 53q6 29 12 59.5t15 59.5q10 43 23.5 85t27.5 83l49 159q4 10 5 18.5t5 16.5q12 41 25.5 81t27.5 81q12 35 24.5 68.5t23.5 68.5l24 82q12 49 31 107h-41v84h98q29 -2 60.5 -3.5t58.5 3.5q35 4 72 4t73 -4h22.5t22.5 -2h41v-80q2 -12 2 -22.5v-16.5 v-43h-83v41v16t-3 21v2q-2 0 -3 1t-3 1q-35 2 -68.5 3t-62.5 -3q-18 -4 -37.5 -4h-40.5q0 -14 1 -26.5t4 -27.5q2 -18 3 -36.5t1 -38.5q0 -51 1 -102.5t1 -102.5v-49.5t2 -49.5q2 0 3 1t5 1q12 2 25.5 3.5t29.5 1.5h72q10 -2 22.5 -2h22.5v12v43h84v-43q0 -37 2 -45 q0 -8 1 -19.5t1 -34.5v-43h-84v43v3h-26.5t-24.5 2h-68q-14 0 -25.5 -1t-23.5 -4q-4 0 -7 -1t-7 -1q2 -145 4 -269t6 -234h52.5t51.5 2q27 2 53.5 2h55.5v78h84v-164l-43 2q-37 2 -74 1t-74 -3q-25 -2 -50 -2h-52h-49.5t-48.5 4l-41 4l8 84l41 -4h2q-4 90 -6 188t-4 211h-15 q-12 -2 -24 -2h-27h-10q-16 0 -34.5 -1t-37.5 3l-28 -90q-14 -45 -26.5 -84t-22.5 -78q-8 -29 -13.5 -58.5t-11.5 -58.5q-4 -10 -8 -30h12h43v-84h-43h-36t-27 -2h-109zM295 555h47h8h23.5t23.5 2h21v39q0 41 -1 80t-1 78q-2 35 -3 71.5t-1 73.5l-9 -20q-10 -37 -22 -72 t-25 -70q-14 -39 -27.5 -77.5t-25.5 -77.5q-4 -16 -8 -27z" />
<glyph unicode="&#xc7;" horiz-adv-x="534" d="M-4 846q0 47 7 91t24 91q12 33 36.5 71t59.5 62q35 25 76 25t71 -6l6 -2q18 -4 38 -10.5t38 -20.5v39h84v-135q0 -20 -2 -31v-23l-82 -14q-10 27 -19 48.5t-26 41.5q-12 14 -51 23l-6 2q-53 12 -78 -6q-20 -14 -37.5 -38t-28.5 -53q-27 -78 -26 -153q0 -16 1 -34.5 t1 -35.5q2 -35 3 -68.5t-1 -68.5q-4 -51 -3 -104.5t5 -104.5l4 -86v-59q-2 -47 1 -91t32 -79q25 -31 51 -43q16 -8 31.5 -12.5t25.5 -2.5h7q16 4 39.5 7.5t33.5 11.5q10 6 19.5 24.5t13.5 34.5l6 41l82 -12l-6 -41q-4 -31 -22.5 -65.5t-47.5 -53.5q-33 -18 -77 -24l-3 -7 l-24 -34q18 -4 36.5 -14.5t30.5 -26.5q25 -33 21 -78q-4 -35 -25.5 -59.5t-56.5 -34.5q-16 -4 -31.5 -7.5t-38.5 -3.5h-43v84h41q29 0 47 6q18 4 23 23q0 16 -4 20q-4 6 -24.5 9.5t-41.5 1.5l-43 59q20 41 25.5 49t7.5 13v2q-10 2 -18 6t-19 8q-47 23 -82 68q-41 51 -47 109 t-4 114v55l-4 84q-2 53 -4 108.5t2 110.5q2 31 2 62.5t-4 64.5q0 16 -1 34.5t-1 37.5z" />
<glyph unicode="&#xc8;" horiz-adv-x="548" d="M2 1090v84h41q14 0 27.5 -1.5t25.5 -1.5q25 -2 48.5 -2t47.5 5q37 4 74 3t74 -3q10 -2 22.5 -2.5t22.5 -0.5l41 -2v-79q0 -12 1 -22.5t1 -16.5v-43h-84v43v14t-2 20v5h-8q-33 2 -67 3t-64 -3q-23 -4 -41.5 -4.5t-36.5 -0.5q0 -12 1 -25t3 -28q2 -18 3 -37.5t1 -38.5 q0 -53 1 -104t3 -102v-93l64 7q18 0 36.5 -1t36.5 -1q10 0 22.5 -1.5t22.5 -1.5v15v41h84v-41v-31t2 -16q0 -8 1.5 -18.5t1.5 -35.5v-43h-84v43v2q-14 0 -26.5 1.5t-27.5 1.5q-16 2 -33.5 2h-33.5l-62 -7h-2q2 -147 4 -270t6 -235h51.5t53.5 2t55.5 3t54.5 -1v80h84v-166 l-43 2q-37 2 -73.5 1t-73.5 -3q-27 0 -52.5 -1t-51.5 -1q-25 0 -49.5 1t-49.5 3l-41 4l8 84l43 -4q-4 111 -6 232.5t-4 264.5h-39v84h39q-2 23 -2 47.5v47.5q-2 53 -3 104t-1 104q0 16 -1 34t-3 36q-2 16 -3 31.5t-1 32.5h-39zM98 1471l68 47l24 -35q14 -23 26.5 -45.5 t22 -41.5t15.5 -32l6 -14l14 -41l-78 -29l-14 39q-10 18 -18 39q-8 16 -19.5 38t-23.5 40z" />
<glyph unicode="&#xc9;" horiz-adv-x="548" d="M2 1090v84h41q14 0 27.5 -1.5t25.5 -1.5q25 -2 48.5 -2t47.5 5q37 4 74 3t74 -3q10 -2 22.5 -2.5t22.5 -0.5l41 -2v-79q0 -12 1 -22.5t1 -16.5v-43h-84v43v14t-2 20v5h-8q-33 2 -67 3t-64 -3q-23 -4 -41.5 -4.5t-36.5 -0.5q0 -12 1 -25t3 -28q2 -18 3 -37.5t1 -38.5 q0 -53 1 -104t3 -102v-93l64 7q18 0 36.5 -1t36.5 -1q10 0 22.5 -1.5t22.5 -1.5v15v41h84v-41v-31t2 -16q0 -8 1.5 -18.5t1.5 -35.5v-43h-84v43v2q-14 0 -26.5 1.5t-27.5 1.5q-16 2 -33.5 2h-33.5l-62 -7h-2q2 -147 4 -270t6 -235h51.5t53.5 2t55.5 3t54.5 -1v80h84v-166 l-43 2q-37 2 -73.5 1t-73.5 -3q-27 0 -52.5 -1t-51.5 -1q-25 0 -49.5 1t-49.5 3l-41 4l8 84l43 -4q-4 111 -6 232.5t-4 264.5h-39v84h39q-2 23 -2 47.5v47.5q-2 53 -3 104t-1 104q0 16 -1 34t-3 36q-2 16 -3 31.5t-1 32.5h-39zM166 1321l20 39q8 16 15.5 28.5t13.5 24.5 q4 8 9 15.5t10 17.5q4 6 8 14.5t6 18.5l14 39l80 -27l-14 -39q-4 -16 -10.5 -29.5t-10.5 -17.5q-4 -10 -9 -17t-9 -16q-8 -12 -14.5 -24t-14.5 -27l-18 -37z" />
<glyph unicode="&#xca;" horiz-adv-x="548" d="M2 1090v84h41q14 0 27.5 -1.5t25.5 -1.5q25 -2 48.5 -2t47.5 5q37 4 74 3t74 -3q10 -2 22.5 -2.5t22.5 -0.5l41 -2v-79q0 -12 1 -22.5t1 -16.5v-43h-84v43v14t-2 20v5h-8q-33 2 -67 3t-64 -3q-23 -4 -41.5 -4.5t-36.5 -0.5q0 -12 1 -25t3 -28q2 -18 3 -37.5t1 -38.5 q0 -53 1 -104t3 -102v-93l64 7q18 0 36.5 -1t36.5 -1q10 0 22.5 -1.5t22.5 -1.5v15v41h84v-41v-31t2 -16q0 -8 1.5 -18.5t1.5 -35.5v-43h-84v43v2q-14 0 -26.5 1.5t-27.5 1.5q-16 2 -33.5 2h-33.5l-62 -7h-2q2 -147 4 -270t6 -235h51.5t53.5 2t55.5 3t54.5 -1v80h84v-166 l-43 2q-37 2 -73.5 1t-73.5 -3q-27 0 -52.5 -1t-51.5 -1q-25 0 -49.5 1t-49.5 3l-41 4l8 84l43 -4q-4 111 -6 232.5t-4 264.5h-39v84h39q-2 23 -2 47.5v47.5q-2 53 -3 104t-1 104q0 16 -1 34t-3 36q-2 16 -3 31.5t-1 32.5h-39zM41 1319l31 30q49 47 86 85t39 40h57l11 -11 t21.5 -20.5t24 -22.5t17.5 -17q12 -14 28.5 -36t18.5 -24l24 -32l-67 -52l-25 35q-6 8 -19.5 25.5t-23.5 27.5q-4 4 -15 15.5t-22 23.5q-18 -18 -43.5 -42.5t-54.5 -53.5l-29 -31z" />
<glyph unicode="&#xcb;" horiz-adv-x="548" d="M2 1090v84h41q14 0 27.5 -1.5t25.5 -1.5q25 -2 48.5 -2t47.5 5q37 4 74 3t74 -3q10 -2 22.5 -2.5t22.5 -0.5l41 -2v-79q0 -12 1 -22.5t1 -16.5v-43h-84v43v14t-2 20v5h-8q-33 2 -67 3t-64 -3q-23 -4 -41.5 -4.5t-36.5 -0.5q0 -12 1 -25t3 -28q2 -18 3 -37.5t1 -38.5 q0 -53 1 -104t3 -102v-93l64 7q18 0 36.5 -1t36.5 -1q10 0 22.5 -1.5t22.5 -1.5v15v41h84v-41v-31t2 -16q0 -8 1.5 -18.5t1.5 -35.5v-43h-84v43v2q-14 0 -26.5 1.5t-27.5 1.5q-16 2 -33.5 2h-33.5l-62 -7h-2q2 -147 4 -270t6 -235h51.5t53.5 2t55.5 3t54.5 -1v80h84v-166 l-43 2q-37 2 -73.5 1t-73.5 -3q-27 0 -52.5 -1t-51.5 -1q-25 0 -49.5 1t-49.5 3l-41 4l8 84l43 -4q-4 111 -6 232.5t-4 264.5h-39v84h39q-2 23 -2 47.5v47.5q-2 53 -3 104t-1 104q0 16 -1 34t-3 36q-2 16 -3 31.5t-1 32.5h-39zM63 1339v31v39l39 2h43l37 -2l2 -37v-31v-43 h-41h-8h-15h-18l-37 2zM266 1339v31v43h41h8h14h19l37 -2l2 -39v-31v-39l-39 -2h-43l-37 2z" />
<glyph unicode="&#xcc;" horiz-adv-x="350" d="M-2 1471l68 47l24 -35q14 -23 26.5 -45.5t22 -41.5t15.5 -32l6 -14l14 -41l-78 -29l-14 39q-10 18 -18 39q-8 16 -19.5 38t-23.5 40zM4 -10v84h94q0 135 1 250.5t5 224.5q4 86 2 171t-4 171q-2 51 -3 102t-1 105h-94v84h270v-84h-92q0 -51 1 -102.5t3 -100.5 q2 -86 4 -174t-2 -176q-4 -104 -6 -219t-2 -250q10 0 23.5 -1t29.5 -1l43 -2l-4 -84l-41 2q-41 2 -64.5 2t-49.5 -2h-113z" />
<glyph unicode="&#xcd;" horiz-adv-x="346" d="M0 -10v84h94q0 135 1 250.5t5 224.5q4 86 2 171t-4 171q-2 51 -3 102t-1 105h-94v84h270v-84h-92q0 -51 1 -102.5t3 -100.5q2 -86 4 -174t-2 -176q-4 -104 -6 -219t-2 -250q10 0 23.5 -1t29.5 -1l43 -2l-4 -84l-41 2q-41 2 -64.5 2t-49.5 -2h-113zM92 1321l20 39 q8 16 15.5 28.5t13.5 24.5q4 8 9 15.5t10 17.5q4 6 8 14.5t6 18.5l14 39l80 -27l-14 -39q-4 -16 -10.5 -29.5t-10.5 -17.5q-4 -10 -9 -17t-9 -16q-8 -12 -14.5 -24t-14.5 -27l-18 -37z" />
<glyph unicode="&#xce;" horiz-adv-x="370" d="M-18 1319l31 30q49 47 86 85t39 40h57l11 -11t21.5 -20.5t24 -22.5t17.5 -17q12 -14 28.5 -36t18.5 -24l24 -32l-67 -52l-25 35q-6 8 -19.5 25.5t-23.5 27.5q-4 4 -15 15.5t-22 23.5q-18 -18 -43.5 -42.5t-54.5 -53.5l-29 -31zM25 -10v84h94q0 135 1 250.5t5 224.5 q4 86 2 171t-4 171q-2 51 -3 102t-1 105h-94v84h270v-84h-92q0 -51 1 -102.5t3 -100.5q2 -86 4 -174t-2 -176q-4 -104 -6 -219t-2 -250q10 0 23.5 -1t29.5 -1l43 -2l-4 -84l-41 2q-41 2 -64.5 2t-49.5 -2h-113z" />
<glyph unicode="&#xcf;" horiz-adv-x="368" d="M0 1339v31v39l39 2h43l37 -2l2 -37v-31v-43h-41h-8h-15h-18l-37 2zM23 -10v84h94q0 135 1 250.5t5 224.5q4 86 2 171t-4 171q-2 51 -3 102t-1 105h-94v84h270v-84h-92q0 -51 1 -102.5t3 -100.5q2 -86 4 -174t-2 -176q-4 -104 -6 -219t-2 -250q10 0 23.5 -1t29.5 -1l43 -2 l-4 -84l-41 2q-41 2 -64.5 2t-49.5 -2h-113zM203 1339v31v43h41h8h14h19l37 -2l2 -39v-31v-39l-39 -2h-43l-37 2z" />
<glyph unicode="&#xd0;" horiz-adv-x="608" d="M0 551l8 84l41 -4q16 -2 26.5 -3t18.5 -1q0 8 1 15t1 15v20.5t2 20.5q0 29 1 55.5t3 55.5l4 100q2 29 1 57.5t-3 59.5q-2 18 -3 37.5t-1 38.5h-8l-41 -2l-6 84l43 2q47 4 98.5 -2t104.5 -37q72 -41 122 -122t68 -185q12 -68 23.5 -160t7.5 -180q-2 -14 -2 -28.5v-31.5 q-2 -45 -4 -93t-19 -91q-23 -66 -77 -131q-16 -18 -42 -42t-61 -40l-20 -12q-16 -8 -31.5 -16.5t-32.5 -12.5q-29 -10 -63.5 -12t-63.5 -2h-49v84h45h8l-6 164q-4 78 -5 153.5t3 153.5q-10 0 -20.5 1t-28.5 3zM173 393q1 -76 5 -151l6 -166l13 4q10 4 23 10t26 14l24 13 q25 14 44.5 31.5t31.5 31.5q45 51 62 103q12 35 14 75.5t4 83.5v30.5t2 31.5q4 82 -6 169t-23 150q-16 86 -56 152.5t-93 97.5q-35 18 -66 25q0 -16 1 -33.5t3 -34.5q2 -31 3.5 -61.5t-1.5 -63.5l-4 -100q-2 -27 -3 -53.5t-1 -55.5q-2 -10 -2 -20v-21q0 -6 -1 -13t-1 -13 q14 2 24.5 3t20.5 1h43v-84h-43q-8 0 -20.5 -1t-24.5 -3h-2q-4 -76 -3 -152z" />
<glyph unicode="&#xd1;" horiz-adv-x="634" d="M2 1090v84h143l9 -29l79 -254l37 -115q16 -47 31.5 -94t28.5 -96l12 -49q14 -55 28.5 -112.5t30.5 -113.5v80t-2 78q0 63 -1 128t-1 128q0 25 1 49.5t3 46.5q2 29 3 55.5t1 53.5q-2 23 -2 44v42q-2 18 -3 35.5t-1 35.5h-65v82h41q23 0 37 1t26 1q14 2 29.5 2.5t40.5 0.5 h41v-84h-41h-25q0 -18 1 -36t1 -34l4 -88q0 -29 -1 -57.5t-3 -57.5q-2 -23 -3 -46t-1 -46v-126.5t2 -127.5q2 -72 3 -143.5t-1 -143.5v-59v-50.5t-2 -62.5v-24h-78l-4 14l-20 76q-10 43 -21.5 87t-25.5 85q-23 66 -40.5 133.5t-33.5 132.5l-10 49q-12 47 -26.5 93.5 t-31.5 91.5q-10 29 -19 57.5t-19 58.5q-2 2 -2 4q-2 -35 -1 -67.5t3 -65.5q12 -236 0 -469q-2 -35 -1 -66.5t3 -66.5q0 -16 1 -30.5t1 -28.5h24h43v-84h-43q-23 0 -37 -1t-26 -1t-27.5 -1t-40.5 -1h-43v84h43h23q0 16 -1 29.5t-1 29.5q-2 35 -3 70t1 71q12 229 0 461 q-4 59 -3 119.5t3 120.5q2 29 2 58.5v58.5h-70zM88 1321l6 41q6 39 41 70q14 12 38 20.5t58 -2.5q18 -6 35 -16t31 -21q14 -10 29 -18q8 -4 16 -7t16 1q4 2 8.5 7t4.5 15l6 43l82 -10l-4 -43q-4 -31 -21.5 -55.5t-44.5 -34.5q-19 -6 -39 -6q-35 0 -61 16q-10 4 -19.5 10.5 t-19.5 12.5q-29 20 -45 26q-10 4 -15 -2q-12 -8 -12 -20l-8 -41z" />
<glyph unicode="&#xd2;" horiz-adv-x="608" d="M0 547q2 90 6 178q0 14 1 28.5t1 28.5q2 6 2 21q4 55 9.5 105t29.5 108q8 16 10 22q16 35 37 71t66 58q47 20 100 21q23 0 44.5 -3t41.5 -11q33 -10 52.5 -27t31.5 -36t18.5 -40.5t10.5 -42.5q4 -16 8 -27q23 -88 34 -186t11 -221v-12q0 -72 -2 -148t-14 -155 q-2 -10 -2 -21.5t-2 -26.5q-4 -41 -12.5 -84t-43.5 -79q-86 -93 -178 -93q-47 0 -92 25q-35 18 -57.5 46t-36 60.5t-22.5 66.5t-15 65l-6 30q-4 14 -6 28.5t-5 29.5q-2 10 -3 20t-3 21q-16 90 -14 180zM84 550q-2 -85 14 -169q2 -10 3 -22.5t3 -22.5q4 -33 9 -49 q2 -8 3 -16.5t3 -16.5q12 -53 28.5 -104.5t61.5 -75.5q29 -14 51 -15q55 0 117 66q20 20 25.5 49t7.5 64q2 14 2 26t4 27q10 76 12 148.5t2 142.5v12q0 117 -10 210t-33 175q-4 20 -6 29q-10 41 -20.5 58t-38.5 28q-31 10 -60 10q-39 0 -63 -12q-23 -10 -35 -31t-27 -55 q-4 -6 -5 -12.5t-5 -12.5q-23 -45 -27 -88t-6 -94q0 -4 -1 -10.5t-1 -10.5q0 -14 -1 -28.5t-1 -28.5q-4 -86 -6 -171zM127 1471l68 47l24 -35q14 -23 26.5 -45.5t22 -41.5t15.5 -32l6 -14l14 -41l-78 -29l-14 39q-10 18 -18 39q-8 16 -19.5 38t-23.5 40z" />
<glyph unicode="&#xd3;" horiz-adv-x="608" d="M0 547q2 90 6 178q0 14 1 28.5t1 28.5q2 6 2 21q4 55 9.5 105t29.5 108q8 16 10 22q16 35 37 71t66 58q47 20 100 21q23 0 44.5 -3t41.5 -11q33 -10 52.5 -27t31.5 -36t18.5 -40.5t10.5 -42.5q4 -16 8 -27q23 -88 34 -186t11 -221v-12q0 -72 -2 -148t-14 -155 q-2 -10 -2 -21.5t-2 -26.5q-4 -41 -12.5 -84t-43.5 -79q-86 -93 -178 -93q-47 0 -92 25q-35 18 -57.5 46t-36 60.5t-22.5 66.5t-15 65l-6 30q-4 14 -6 28.5t-5 29.5q-2 10 -3 20t-3 21q-16 90 -14 180zM84 550q-2 -85 14 -169q2 -10 3 -22.5t3 -22.5q4 -33 9 -49 q2 -8 3 -16.5t3 -16.5q12 -53 28.5 -104.5t61.5 -75.5q29 -14 51 -15q55 0 117 66q20 20 25.5 49t7.5 64q2 14 2 26t4 27q10 76 12 148.5t2 142.5v12q0 117 -10 210t-33 175q-4 20 -6 29q-10 41 -20.5 58t-38.5 28q-31 10 -60 10q-39 0 -63 -12q-23 -10 -35 -31t-27 -55 q-4 -6 -5 -12.5t-5 -12.5q-23 -45 -27 -88t-6 -94q0 -4 -1 -10.5t-1 -10.5q0 -14 -1 -28.5t-1 -28.5q-4 -86 -6 -171zM227 1321l20 39q8 16 15.5 28.5t13.5 24.5q4 8 9 15.5t10 17.5q4 6 8 14.5t6 18.5l14 39l80 -27l-14 -39q-4 -16 -10.5 -29.5t-10.5 -17.5q-4 -10 -9 -17 t-9 -16q-8 -12 -14.5 -24t-14.5 -27l-18 -37z" />
<glyph unicode="&#xd4;" horiz-adv-x="608" d="M0 547q2 90 6 178q0 14 1 28.5t1 28.5q2 6 2 21q4 55 9.5 105t29.5 108q8 16 10 22q16 35 37 71t66 58q47 20 100 21q23 0 44.5 -3t41.5 -11q33 -10 52.5 -27t31.5 -36t18.5 -40.5t10.5 -42.5q4 -16 8 -27q23 -88 34 -186t11 -221v-12q0 -72 -2 -148t-14 -155 q-2 -10 -2 -21.5t-2 -26.5q-4 -41 -12.5 -84t-43.5 -79q-86 -93 -178 -93q-47 0 -92 25q-35 18 -57.5 46t-36 60.5t-22.5 66.5t-15 65l-6 30q-4 14 -6 28.5t-5 29.5q-2 10 -3 20t-3 21q-16 90 -14 180zM84 550q-2 -85 14 -169q2 -10 3 -22.5t3 -22.5q4 -33 9 -49 q2 -8 3 -16.5t3 -16.5q12 -53 28.5 -104.5t61.5 -75.5q29 -14 51 -15q55 0 117 66q20 20 25.5 49t7.5 64q2 14 2 26t4 27q10 76 12 148.5t2 142.5v12q0 117 -10 210t-33 175q-4 20 -6 29q-10 41 -20.5 58t-38.5 28q-31 10 -60 10q-39 0 -63 -12q-23 -10 -35 -31t-27 -55 q-4 -6 -5 -12.5t-5 -12.5q-23 -45 -27 -88t-6 -94q0 -4 -1 -10.5t-1 -10.5q0 -14 -1 -28.5t-1 -28.5q-4 -86 -6 -171zM88 1319l31 30q49 47 86 85t39 40h57l11 -11t21.5 -20.5t24 -22.5t17.5 -17q12 -14 28.5 -36t18.5 -24l24 -32l-67 -52l-25 35q-6 8 -19.5 25.5 t-23.5 27.5q-4 4 -15 15.5t-22 23.5q-18 -18 -43.5 -42.5t-54.5 -53.5l-29 -31z" />
<glyph unicode="&#xd5;" horiz-adv-x="608" d="M0 547q2 90 6 178q0 14 1 28.5t1 28.5q2 6 2 21q4 55 9.5 105t29.5 108q8 16 10 22q16 35 37 71t66 58q47 20 100 21q23 0 44.5 -3t41.5 -11q33 -10 52.5 -27t31.5 -36t18.5 -40.5t10.5 -42.5q4 -16 8 -27q23 -88 34 -186t11 -221v-12q0 -72 -2 -148t-14 -155 q-2 -10 -2 -21.5t-2 -26.5q-4 -41 -12.5 -84t-43.5 -79q-86 -93 -178 -93q-47 0 -92 25q-35 18 -57.5 46t-36 60.5t-22.5 66.5t-15 65l-6 30q-4 14 -6 28.5t-5 29.5q-2 10 -3 20t-3 21q-16 90 -14 180zM84 550q-2 -85 14 -169q2 -10 3 -22.5t3 -22.5q4 -33 9 -49 q2 -8 3 -16.5t3 -16.5q12 -53 28.5 -104.5t61.5 -75.5q29 -14 51 -15q55 0 117 66q20 20 25.5 49t7.5 64q2 14 2 26t4 27q10 76 12 148.5t2 142.5v12q0 117 -10 210t-33 175q-4 20 -6 29q-10 41 -20.5 58t-38.5 28q-31 10 -60 10q-39 0 -63 -12q-23 -10 -35 -31t-27 -55 q-4 -6 -5 -12.5t-5 -12.5q-23 -45 -27 -88t-6 -94q0 -4 -1 -10.5t-1 -10.5q0 -14 -1 -28.5t-1 -28.5q-4 -86 -6 -171zM84 1321l6 41q6 39 41 70q14 12 38 20.5t58 -2.5q18 -6 35 -16t31 -21q14 -10 29 -18q8 -4 16 -7t16 1q4 2 8.5 7t4.5 15l6 43l82 -10l-4 -43 q-4 -31 -21.5 -55.5t-44.5 -34.5q-19 -6 -39 -6q-35 0 -61 16q-10 4 -19.5 10.5t-19.5 12.5q-29 20 -45 26q-10 4 -15 -2q-12 -8 -12 -20l-8 -41z" />
<glyph unicode="&#xd6;" horiz-adv-x="608" d="M0 547q2 90 6 178q0 14 1 28.5t1 28.5q2 6 2 21q4 55 9.5 105t29.5 108q8 16 10 22q16 35 37 71t66 58q47 20 100 21q23 0 44.5 -3t41.5 -11q33 -10 52.5 -27t31.5 -36t18.5 -40.5t10.5 -42.5q4 -16 8 -27q23 -88 34 -186t11 -221v-12q0 -72 -2 -148t-14 -155 q-2 -10 -2 -21.5t-2 -26.5q-4 -41 -12.5 -84t-43.5 -79q-86 -93 -178 -93q-47 0 -92 25q-35 18 -57.5 46t-36 60.5t-22.5 66.5t-15 65l-6 30q-4 14 -6 28.5t-5 29.5q-2 10 -3 20t-3 21q-16 90 -14 180zM84 550q-2 -85 14 -169q2 -10 3 -22.5t3 -22.5q4 -33 9 -49 q2 -8 3 -16.5t3 -16.5q12 -53 28.5 -104.5t61.5 -75.5q29 -14 51 -15q55 0 117 66q20 20 25.5 49t7.5 64q2 14 2 26t4 27q10 76 12 148.5t2 142.5v12q0 117 -10 210t-33 175q-4 20 -6 29q-10 41 -20.5 58t-38.5 28q-31 10 -60 10q-39 0 -63 -12q-23 -10 -35 -31t-27 -55 q-4 -6 -5 -12.5t-5 -12.5q-23 -45 -27 -88t-6 -94q0 -4 -1 -10.5t-1 -10.5q0 -14 -1 -28.5t-1 -28.5q-4 -86 -6 -171zM100 1339v31v39l39 2h43l37 -2l2 -37v-31v-43h-41h-8h-15h-18l-37 2zM303 1339v31v43h41h8h14h19l37 -2l2 -39v-31v-39l-39 -2h-43l-37 2z" />
<glyph unicode="&#xd7;" horiz-adv-x="536" d="M0 430l31 31q12 12 23.5 22.5t23.5 20.5q20 18 40.5 38.5l49.5 49.5l4 4l-74 72q-31 29 -59 59l-31 29l60 59l30 -29q14 -14 27.5 -28.5t30.5 -28.5l75 -74l19 17q29 25 55.5 50.5t48.5 55.5l25 33l67 -49l-24 -33q-29 -37 -57.5 -65.5t-57.5 -53.5l-20 -18 q53 -59 116 -117l43 -45l-59 -59l-43 45q-33 33 -60.5 59.5t-56.5 59.5q-29 -35 -51 -55.5t-43 -37.5l-45 -41l-29 -30z" />
<glyph unicode="&#xd8;" horiz-adv-x="704" d="M0 12l18 37q25 49 49.5 95t47.5 89l-6 33l-11 58q0 10 -1 19t-3 19q-16 92 -15 182.5t5 178.5l4 57v21q4 55 9 105t32 108q2 6 4 11t6 11q14 35 35 70t66 57q49 23 100 23q23 0 44.5 -4t41.5 -11q59 -18 79.5 -55t31.5 -76l36 101l13 41l80 -27l-13 -41 q-18 -57 -40.5 -111.5t-45.5 -101.5q25 -139 25 -309v-12q0 -72 -2 -148t-15 -156l-4 -47q-2 -41 -11 -84t-44 -82q-86 -90 -176 -90q-49 0 -94 25q-39 20 -61.5 51t-37.5 66q-14 -25 -26 -50.5t-27 -52.5l-18 -39zM162 548q-2 -85 14 -169q0 -6 1 -12.5t1 -12.5l86 156 q39 68 78 138.5t82 152.5l55 110l-14 66l-6 29q-10 41 -19.5 58t-38.5 28q-34 10 -61 10q-37 0 -64 -15q-23 -10 -35 -29.5t-26 -53.5q-2 -8 -10 -25q-20 -47 -24.5 -89t-8.5 -93v-21l-4 -57q-4 -86 -6 -171zM203 221q10 -47 28.5 -86.5t55.5 -62.5q27 -14 53 -15 q55 0 117 66q20 20 24 49t8 64q0 14 1.5 26t3.5 27q10 76 12 147.5t2 143.5v12q0 47 -2 90t-6 84l-2 -4q-43 -82 -82 -153.5t-78 -139.5z" />
<glyph unicode="&#xd9;" horiz-adv-x="626" d="M0 1092l2 84l43 -2q25 0 39 -1.5t26.5 -1.5h27h38.5h43v-84h-43h-24q0 -53 -1.5 -105t-1.5 -103q-2 -92 -3 -186.5t1 -188.5v-19q2 -41 5.5 -116.5t19.5 -149.5q6 -29 14.5 -56.5t21.5 -51t29.5 -38t38.5 -14.5q8 0 25.5 2t38.5 23q23 23 42 77t19 169v561q-2 47 -2 95 v99h-24h-43v84h43q23 0 37 1t26 1q14 2 29.5 2.5t40.5 0.5h43v-84h-43h-25v-101.5t2 -97.5v-561q0 -219 -86 -305q-53 -49 -121 -50h-2q-29 0 -63.5 14.5t-65.5 61.5q-41 59 -57 150q-16 80 -20.5 160.5t-4.5 123.5q0 4 -1 9.5t-1 9.5q-2 94 -1 189t3 188q0 51 1.5 102 t1.5 104q-6 0 -11.5 1.5t-13.5 1.5zM139 1471l68 47l24 -35q14 -23 26.5 -45.5t22 -41.5t15.5 -32l6 -14l14 -41l-78 -29l-14 39q-10 18 -18 39q-8 16 -19.5 38t-23.5 40z" />
<glyph unicode="&#xda;" horiz-adv-x="626" d="M0 1092l2 84l43 -2q25 0 39 -1.5t26.5 -1.5h27h38.5h43v-84h-43h-24q0 -53 -1.5 -105t-1.5 -103q-2 -92 -3 -186.5t1 -188.5v-19q2 -41 5.5 -116.5t19.5 -149.5q6 -29 14.5 -56.5t21.5 -51t29.5 -38t38.5 -14.5q8 0 25.5 2t38.5 23q23 23 42 77t19 169v561q-2 47 -2 95 v99h-24h-43v84h43q23 0 37 1t26 1q14 2 29.5 2.5t40.5 0.5h43v-84h-43h-25v-101.5t2 -97.5v-561q0 -219 -86 -305q-53 -49 -121 -50h-2q-29 0 -63.5 14.5t-65.5 61.5q-41 59 -57 150q-16 80 -20.5 160.5t-4.5 123.5q0 4 -1 9.5t-1 9.5q-2 94 -1 189t3 188q0 51 1.5 102 t1.5 104q-6 0 -11.5 1.5t-13.5 1.5zM246 1321l20 39q8 16 15.5 28.5t13.5 24.5q4 8 9 15.5t10 17.5q4 6 8 14.5t6 18.5l14 39l80 -27l-14 -39q-4 -16 -10.5 -29.5t-10.5 -17.5q-4 -10 -9 -17t-9 -16q-8 -12 -14.5 -24t-14.5 -27l-18 -37z" />
<glyph unicode="&#xdb;" horiz-adv-x="626" d="M0 1092l2 84l43 -2q25 0 39 -1.5t26.5 -1.5h27h38.5h43v-84h-43h-24q0 -53 -1.5 -105t-1.5 -103q-2 -92 -3 -186.5t1 -188.5v-19q2 -41 5.5 -116.5t19.5 -149.5q6 -29 14.5 -56.5t21.5 -51t29.5 -38t38.5 -14.5q8 0 25.5 2t38.5 23q23 23 42 77t19 169v561q-2 47 -2 95 v99h-24h-43v84h43q23 0 37 1t26 1q14 2 29.5 2.5t40.5 0.5h43v-84h-43h-25v-101.5t2 -97.5v-561q0 -219 -86 -305q-53 -49 -121 -50h-2q-29 0 -63.5 14.5t-65.5 61.5q-41 59 -57 150q-16 80 -20.5 160.5t-4.5 123.5q0 4 -1 9.5t-1 9.5q-2 94 -1 189t3 188q0 51 1.5 102 t1.5 104q-6 0 -11.5 1.5t-13.5 1.5zM100 1319l31 30q49 47 86 85t39 40h57l11 -11t21.5 -20.5t24 -22.5t17.5 -17q12 -14 28.5 -36t18.5 -24l24 -32l-67 -52l-25 35q-6 8 -19.5 25.5t-23.5 27.5q-4 4 -15 15.5t-22 23.5q-18 -18 -43.5 -42.5t-54.5 -53.5l-29 -31z" />
<glyph unicode="&#xdc;" horiz-adv-x="626" d="M0 1092l2 84l43 -2q25 0 39 -1.5t26.5 -1.5h27h38.5h43v-84h-43h-24q0 -53 -1.5 -105t-1.5 -103q-2 -92 -3 -186.5t1 -188.5v-19q2 -41 5.5 -116.5t19.5 -149.5q6 -29 14.5 -56.5t21.5 -51t29.5 -38t38.5 -14.5q8 0 25.5 2t38.5 23q23 23 42 77t19 169v561q-2 47 -2 95 v99h-24h-43v84h43q23 0 37 1t26 1q14 2 29.5 2.5t40.5 0.5h43v-84h-43h-25v-101.5t2 -97.5v-561q0 -219 -86 -305q-53 -49 -121 -50h-2q-29 0 -63.5 14.5t-65.5 61.5q-41 59 -57 150q-16 80 -20.5 160.5t-4.5 123.5q0 4 -1 9.5t-1 9.5q-2 94 -1 189t3 188q0 51 1.5 102 t1.5 104q-6 0 -11.5 1.5t-13.5 1.5zM115 1339v31v39l39 2h43l37 -2l2 -37v-31v-43h-41h-8h-15h-18l-37 2zM318 1339v31v43h41h8h14h19l37 -2l2 -39v-31v-39l-39 -2h-43l-37 2z" />
<glyph unicode="&#xdd;" horiz-adv-x="659" d="M0 1174l43 2h44.5t41.5 -2q12 0 24.5 -1.5t24.5 -1.5h41v-84h-41h-16l8 -26q4 -10 8 -26.5t10 -33.5q8 -23 14.5 -43t10.5 -34l31 -107q8 -25 15 -50.5t17 -51.5l21 -70l4 12l35 115l20 53l17 41q8 25 14 49.5t12 51.5q6 23 12.5 47t14.5 49l8 27h-22l-41 2l2 84l43 -2 q29 -2 45 -1t33 1h96v-84h-70l-14 -52l-25 -92q-6 -27 -13 -52.5t-15 -51.5l-19 -49l-18 -45l-76 -252v-99.5t2 -97.5q2 -51 2 -102.5v-102.5v-24h21h41v-84h-41h-37.5t-28.5 -2h-111v84h72v14v12v101.5t-2 101.5q-2 47 -2 96v96l-61 201l-31 103q-8 29 -16.5 55t-14.5 53 l-24 74l-19 61l-14 43l-4 13h-25l-43 -2zM260 1321l20 39q8 16 15.5 28.5t13.5 24.5q4 8 9 15.5t10 17.5q4 6 8 14.5t6 18.5l14 39l80 -27l-14 -39q-4 -16 -10.5 -29.5t-10.5 -17.5q-4 -10 -9 -17t-9 -16q-8 -12 -14.5 -24t-14.5 -27l-18 -37z" />
<glyph unicode="&#xdf;" horiz-adv-x="671" d="M0 -6l6 84l43 -4h13.5t13.5 -2q0 23 1 48t1 54q2 45 3 87t1 69v131v62.5t-2 66.5h-12h-27l-41 4l8 84l41 -4q8 -2 31 -2v35v34v60.5t-2 60.5v43q-2 16 -3 34.5t-1 35.5v16.5t1 31.5t4 36.5t7 32.5q12 37 31.5 58t43 30.5t47 12.5t42.5 3q72 4 127 -32t86 -101 q39 -90 22 -193q-12 -106 -73 -168q-43 -43 -97 -69q-2 0 -4 -2l17 -13l24 -18l2 -2q16 -12 45 -37.5t43 -42.5q82 -102 115 -194q59 -152 -12 -256q-37 -53 -86 -67.5t-99 -14.5h-30.5t-30.5 2q-12 0 -25.5 1t-23.5 1h-43v84h43q14 0 27.5 -1t27.5 -1q63 -4 104.5 1 t65.5 42q27 39 24 87t-21.5 96t-47.5 92t-53 77q-8 10 -31.5 30.5t-42.5 34.5l-29 21q-8 6 -14 12t-14 10q-23 16 -30 33t-5 29q2 29 25.5 45t42.5 27q41 18 73 53q20 20 33.5 53t18 70t0 74.5t-18.5 68.5q-39 88 -131 86q-41 -4 -59.5 -11t-28.5 -38q-4 -10 -6 -38t-2 -52 q0 -16 1 -32.5t1 -33.5q2 -10 2 -21v-24q2 -31 2 -60.5v-62.5v-34v-124t2 -122v-131q0 -27 -1 -70t-3 -88q0 -41 -1 -80t-1 -63v-41h-43h-23h-23.5t-27.5 2z" />
<glyph unicode="&#xe0;" horiz-adv-x="509" d="M1 476.5q1 27.5 3 55.5q0 16 1 31t1 31q0 41 4 79t21 79q8 23 26.5 52.5t44.5 47.5q29 20 61 20t54 -6h6q12 -4 25.5 -8t27.5 -14l3 18l81 -4v-43q0 -10 -1 -29.5t-1 -41v-40v-26.5v-14q0 -43 1 -78t1 -69t-2 -70.5t-4 -81.5q-2 -47 -2 -95.5v-95.5v-52.5t-2 -51.5h4 q10 -2 19.5 -2h17.5h43v-84h-43h-20.5t-20.5 2q-10 0 -21.5 1t-21.5 1h-43v12q-23 -10 -44 -14t-32 -6h-4q-4 -2 -14 -3q-23 0 -41 7.5t-27 11.5q-29 12 -46 32.5t-26.5 43t-12.5 43t-3 35.5q-4 23 -3 43t1 43v51l-6 86q-2 12 -3 23.5t-1 23.5q-2 29 -1 56.5zM70 1143l68 47 l24 -35q14 -23 26.5 -45.5t22 -41.5t15.5 -32l6 -14l14 -41l-78 -29l-14 39q-10 18 -18 39q-8 16 -19.5 38t-23.5 40zM85 475q-1 -24 1 -49q0 -12 1 -23.5t1 -21.5q6 -47 6 -92q2 -14 2 -27.5v-28.5q-4 -43 2 -77q6 -70 39 -84q10 -6 20.5 -8.5t14.5 -2.5q2 0 3 1t3 1 q78 8 86 68l4 27v16v96t2 99q2 45 4 80.5t2 68.5t-1 68t-1 78v12v16l-2 15q-4 16 -13 30.5t-19 24.5q-4 8 -9 10q-4 4 -8 6t-20 6l-4 2q-33 6 -47 -4q-29 -18 -43 -59q-10 -33 -14.5 -63.5t-4.5 -65.5q0 -16 -1 -33.5t-1 -34.5q-2 -27 -3 -51z" />
<glyph unicode="&#xe1;" horiz-adv-x="509" d="M1 476.5q1 27.5 3 55.5q0 16 1 31t1 31q0 41 4 79t21 79q8 23 26.5 52.5t44.5 47.5q29 20 61 20t54 -6h6q12 -4 25.5 -8t27.5 -14l3 18l81 -4v-43q0 -10 -1 -29.5t-1 -41v-40v-26.5v-14q0 -43 1 -78t1 -69t-2 -70.5t-4 -81.5q-2 -47 -2 -95.5v-95.5v-52.5t-2 -51.5h4 q10 -2 19.5 -2h17.5h43v-84h-43h-20.5t-20.5 2q-10 0 -21.5 1t-21.5 1h-43v12q-23 -10 -44 -14t-32 -6h-4q-4 -2 -14 -3q-23 0 -41 7.5t-27 11.5q-29 12 -46 32.5t-26.5 43t-12.5 43t-3 35.5q-4 23 -3 43t1 43v51l-6 86q-2 12 -3 23.5t-1 23.5q-2 29 -1 56.5zM85 475 q-1 -24 1 -49q0 -12 1 -23.5t1 -21.5q6 -47 6 -92q2 -14 2 -27.5v-28.5q-4 -43 2 -77q6 -70 39 -84q10 -6 20.5 -8.5t14.5 -2.5q2 0 3 1t3 1q78 8 86 68l4 27v16v96t2 99q2 45 4 80.5t2 68.5t-1 68t-1 78v12v16l-2 15q-4 16 -13 30.5t-19 24.5q-4 8 -9 10q-4 4 -8 6t-20 6 l-4 2q-33 6 -47 -4q-29 -18 -43 -59q-10 -33 -14.5 -63.5t-4.5 -65.5q0 -16 -1 -33.5t-1 -34.5q-2 -27 -3 -51zM145 993l20 39q8 16 15.5 28.5t13.5 24.5q4 8 9 15.5t10 17.5q4 6 8 14.5t6 18.5l14 39l80 -27l-14 -39q-4 -16 -10.5 -29.5t-10.5 -17.5q-4 -10 -9 -17t-9 -16 q-8 -12 -14.5 -24t-14.5 -27l-18 -37z" />
<glyph unicode="&#xe2;" horiz-adv-x="509" d="M1 476.5q1 27.5 3 55.5q0 16 1 31t1 31q0 41 4 79t21 79q8 23 26.5 52.5t44.5 47.5q29 20 61 20t54 -6h6q12 -4 25.5 -8t27.5 -14l3 18l81 -4v-43q0 -10 -1 -29.5t-1 -41v-40v-26.5v-14q0 -43 1 -78t1 -69t-2 -70.5t-4 -81.5q-2 -47 -2 -95.5v-95.5v-52.5t-2 -51.5h4 q10 -2 19.5 -2h17.5h43v-84h-43h-20.5t-20.5 2q-10 0 -21.5 1t-21.5 1h-43v12q-23 -10 -44 -14t-32 -6h-4q-4 -2 -14 -3q-23 0 -41 7.5t-27 11.5q-29 12 -46 32.5t-26.5 43t-12.5 43t-3 35.5q-4 23 -3 43t1 43v51l-6 86q-2 12 -3 23.5t-1 23.5q-2 29 -1 56.5zM6 1012l31 30 q49 47 86 85t39 40h57l11 -11t21.5 -20.5t24 -22.5t17.5 -17q12 -14 28.5 -36t18.5 -24l24 -32l-67 -52l-25 35q-6 8 -19.5 25.5t-23.5 27.5q-4 4 -15 15.5t-22 23.5q-18 -18 -43.5 -42.5t-54.5 -53.5l-29 -31zM85 475q-1 -24 1 -49q0 -12 1 -23.5t1 -21.5q6 -47 6 -92 q2 -14 2 -27.5v-28.5q-4 -43 2 -77q6 -70 39 -84q10 -6 20.5 -8.5t14.5 -2.5q2 0 3 1t3 1q78 8 86 68l4 27v16v96t2 99q2 45 4 80.5t2 68.5t-1 68t-1 78v12v16l-2 15q-4 16 -13 30.5t-19 24.5q-4 8 -9 10q-4 4 -8 6t-20 6l-4 2q-33 6 -47 -4q-29 -18 -43 -59 q-10 -33 -14.5 -63.5t-4.5 -65.5q0 -16 -1 -33.5t-1 -34.5q-2 -27 -3 -51z" />
<glyph unicode="&#xe3;" horiz-adv-x="509" d="M1 476.5q1 27.5 3 55.5q0 16 1 31t1 31q0 41 4 79t21 79q8 23 26.5 52.5t44.5 47.5q29 20 61 20t54 -6h6q12 -4 25.5 -8t27.5 -14l3 18l81 -4v-43q0 -10 -1 -29.5t-1 -41v-40v-26.5v-14q0 -43 1 -78t1 -69t-2 -70.5t-4 -81.5q-2 -47 -2 -95.5v-95.5v-52.5t-2 -51.5h4 q10 -2 19.5 -2h17.5h43v-84h-43h-20.5t-20.5 2q-10 0 -21.5 1t-21.5 1h-43v12q-23 -10 -44 -14t-32 -6h-4q-4 -2 -14 -3q-23 0 -41 7.5t-27 11.5q-29 12 -46 32.5t-26.5 43t-12.5 43t-3 35.5q-4 23 -3 43t1 43v51l-6 86q-2 12 -3 23.5t-1 23.5q-2 29 -1 56.5zM2 993l6 41 q6 39 41 70q14 12 38 20.5t58 -2.5q18 -6 35 -16t31 -21q14 -10 29 -18q8 -4 16 -7t16 1q4 2 8.5 7t4.5 15l6 43l82 -10l-4 -43q-4 -31 -21.5 -55.5t-44.5 -34.5q-19 -6 -39 -6q-35 0 -61 16q-10 4 -19.5 10.5t-19.5 12.5q-29 20 -45 26q-10 4 -15 -2q-12 -8 -12 -20l-8 -41 zM85 475q-1 -24 1 -49q0 -12 1 -23.5t1 -21.5q6 -47 6 -92q2 -14 2 -27.5v-28.5q-4 -43 2 -77q6 -70 39 -84q10 -6 20.5 -8.5t14.5 -2.5q2 0 3 1t3 1q78 8 86 68l4 27v16v96t2 99q2 45 4 80.5t2 68.5t-1 68t-1 78v12v16l-2 15q-4 16 -13 30.5t-19 24.5q-4 8 -9 10q-4 4 -8 6 t-20 6l-4 2q-33 6 -47 -4q-29 -18 -43 -59q-10 -33 -14.5 -63.5t-4.5 -65.5q0 -16 -1 -33.5t-1 -34.5q-2 -27 -3 -51z" />
<glyph unicode="&#xe4;" horiz-adv-x="516" d="M5 476.5q1 27.5 3 55.5q0 16 1 31t1 31q0 41 4 79t21 79q8 23 26.5 52.5t44.5 47.5q29 20 61 20t54 -6h6q12 -4 25.5 -8t27.5 -14l3 18l81 -4v-43q0 -10 -1 -29.5t-1 -41v-40v-26.5v-14q0 -43 1 -78t1 -69t-2 -70.5t-4 -81.5q-2 -47 -2 -95.5v-95.5v-52.5t-2 -51.5h4 q10 -2 19.5 -2h17.5h43v-84h-43h-20.5t-20.5 2q-10 0 -21.5 1t-21.5 1h-43v12q-23 -10 -44 -14t-32 -6h-4q-4 -2 -14 -3q-23 0 -41 7.5t-27 11.5q-29 12 -46 32.5t-26.5 43t-12.5 43t-3 35.5q-4 23 -3 43t1 43v51l-6 86q-2 12 -3 23.5t-1 23.5q-2 29 -1 56.5zM35 1032v31v39 l39 2h43l37 -2l2 -37v-31v-43h-41h-8h-15h-18l-37 2zM89 475q-1 -24 1 -49q0 -12 1 -23.5t1 -21.5q6 -47 6 -92q2 -14 2 -27.5v-28.5q-4 -43 2 -77q6 -70 39 -84q10 -6 20.5 -8.5t14.5 -2.5q2 0 3 1t3 1q78 8 86 68l4 27v16v96t2 99q2 45 4 80.5t2 68.5t-1 68t-1 78v12v16 l-2 15q-4 16 -13 30.5t-19 24.5q-4 8 -9 10q-4 4 -8 6t-20 6l-4 2q-33 6 -47 -4q-29 -18 -43 -59q-10 -33 -14.5 -63.5t-4.5 -65.5q0 -16 -1 -33.5t-1 -34.5q-2 -27 -3 -51zM238 1032v31v43h41h8h14h19l37 -2l2 -39v-31v-39l-39 -2h-43l-37 2z" />
<glyph unicode="&#xe5;" horiz-adv-x="509" d="M1 476.5q1 27.5 3 55.5q0 16 1 31t1 31q0 41 4 79t21 79q8 23 26.5 52.5t44.5 47.5q29 20 61 20t54 -6h6q12 -4 25.5 -8t27.5 -14l3 18l81 -4v-43q0 -10 -1 -29.5t-1 -41v-40v-26.5v-14q0 -43 1 -78t1 -69t-2 -70.5t-4 -81.5q-2 -47 -2 -95.5v-95.5v-52.5t-2 -51.5h4 q10 -2 19.5 -2h17.5h43v-84h-43h-20.5t-20.5 2q-10 0 -21.5 1t-21.5 1h-43v12q-23 -10 -44 -14t-32 -6h-4q-4 -2 -14 -3q-23 0 -41 7.5t-27 11.5q-29 12 -46 32.5t-26.5 43t-12.5 43t-3 35.5q-4 23 -3 43t1 43v51l-6 86q-2 12 -3 23.5t-1 23.5q-2 29 -1 56.5zM85 475 q-1 -24 1 -49q0 -12 1 -23.5t1 -21.5q6 -47 6 -92q2 -14 2 -27.5v-28.5q-4 -43 2 -77q6 -70 39 -84q10 -6 20.5 -8.5t14.5 -2.5q2 0 3 1t3 1q78 8 86 68l4 27v16v96t2 99q2 45 4 80.5t2 68.5t-1 68t-1 78v12v16l-2 15q-4 16 -13 30.5t-19 24.5q-4 8 -9 10q-4 4 -8 6t-20 6 l-4 2q-33 6 -47 -4q-29 -18 -43 -59q-10 -33 -14.5 -63.5t-4.5 -65.5q0 -16 -1 -33.5t-1 -34.5q-2 -27 -3 -51zM86 1108v4q-2 41 22.5 75t67.5 36h2q61 0 97 -37t36 -101q2 -47 -15 -72.5t-36 -35.5q-20 -14 -51 -14q-37 0 -70 22q-41 27 -47 59.5t-6 63.5zM170 1110 q0 -31 2 -39t14 -16t23 -8q6 0 8 2q12 6 12 36q-2 35 -17.5 44.5t-33.5 9.5q-2 0 -5 -8.5t-3 -18.5v-2z" />
<glyph unicode="&#xe6;" horiz-adv-x="679" d="M-1 209q1 45 5 84q0 8 1 14t1 12q2 53 16.5 95.5t86.5 72.5q31 14 63.5 15.5t63.5 -0.5q6 -2 13 -2h13q0 14 -1 26.5t-1 26.5q-2 27 -3 53.5t3 55.5q2 29 -1 48t-15 35q-16 23 -41 30t-47 9q-10 0 -28.5 -6t-25.5 -10l-61 57q23 23 59.5 33t57.5 10q47 -2 86 -19.5 t63 -47.5q16 27 43 47q29 20 60.5 20t54.5 -6h4q16 -4 36.5 -12t37.5 -31q23 -29 30 -57q10 -25 12.5 -49.5t6.5 -46.5q0 -6 1 -12.5t1 -14.5l6 -39q0 -12 1 -26.5t1 -30.5q0 -4 -1 -32t-3 -54l-2 -37l-37 -2q-45 -4 -71.5 -3t-47.5 3q-20 4 -40.5 5t-55.5 -3v-4 q-2 -66 -2 -132.5t6 -131.5q2 -23 14.5 -49.5t36.5 -39.5q14 -6 22.5 -8t10.5 -2l4 2q10 2 25.5 4t21.5 7q4 4 9.5 14t7.5 22l6 41l84 -14l-6 -41q-4 -23 -17.5 -49.5t-38.5 -42.5q-16 -12 -38.5 -16.5t-40.5 -8.5h-5q-4 0 -7 -1t-7 -1q-29 0 -65 19q-35 16 -58 45 q-10 -10 -21.5 -17.5t-23.5 -15.5q-20 -10 -43.5 -19.5t-50.5 -9.5q-8 0 -16.5 1t-18.5 3q-35 10 -71.5 41t-53.5 103q-10 45 -9 90zM84 207q0 -39 6 -70t20.5 -52.5t43.5 -27.5q27 -6 67 17q10 4 22.5 14t14.5 25l6 26v4q-6 68 -6 136.5t2 136.5q-8 0 -15 1t-14 1 q-27 2 -50 2t-40 -8q-18 -8 -27.5 -14.5t-14.5 -16.5t-7 -25.5t-2 -40.5q0 -6 -1 -13t-1 -15q-4 -41 -4 -80zM342 589q0 -18 2 -34q0 -12 1 -25.5t1 -25.5q12 0 22.5 1t20.5 1q18 0 31.5 -1t25.5 -3q16 -2 32 -3t38 1q2 16 2 26.5v14.5q0 16 -1 29.5t-1 25.5q0 8 -1 14 t-3 15q-2 10 -3 17t-1 17q-2 41 -12 76q-8 18 -19 33q-4 4 -8 6t-20 6h-5q-29 10 -45 -2q-10 -8 -22 -24.5t-19 -34.5q-10 -27 -14 -62v-22q0 -8 -2 -12v-34z" />
<glyph unicode="&#xe7;" horiz-adv-x="417" d="M-2 282.5q0 69.5 2 135.5q0 18 1 36.5t1 37.5v30.5t-2 30.5q0 47 2 95t18 97q8 25 25.5 53.5t46.5 49.5q29 20 59.5 20t53.5 -6h4q10 -4 23.5 -7t23.5 -11v24h84v-43q0 -8 2 -12q0 -18 -1 -45t-15 -61h-78q-6 18 -13.5 33.5t-17.5 27.5q-4 8 -27 12h-6q-29 10 -43 -2 q-12 -8 -23.5 -24.5t-17.5 -34.5q-14 -41 -15 -81t-1 -83q2 -16 2 -32.5v-33.5q0 -18 -1 -36.5t-1 -36.5q-2 -66 -2 -132.5t6 -131.5q4 -23 15.5 -49.5t37.5 -39.5q27 -12 31 -8h6q10 2 24.5 4t20.5 7q10 8 19 36l6 41l82 -14l-6 -41q-4 -23 -16.5 -49.5t-37.5 -42.5 q-23 -10 -41 -16l-2 -5l-24 -34q18 -4 36.5 -14.5t30.5 -26.5q25 -33 21 -78q-4 -35 -25.5 -59.5t-56.5 -34.5q-16 -4 -31.5 -7.5t-38.5 -3.5h-43v84h41q29 0 47 6q18 4 23 23q0 16 -4 20q-4 6 -24.5 9.5t-41.5 1.5l-43 59l31 60l-21 8q-41 20 -68.5 62t-31.5 95 q-6 68 -6 137.5z" />
<glyph unicode="&#xe8;" horiz-adv-x="421" d="M2 280.5q0 69.5 2 135.5q0 18 1 36.5t1 36.5v31t-2 31q-2 47 1 95t19 97q8 25 25.5 53.5t46.5 49.5q29 20 59.5 20t53.5 -6h4q16 -4 37.5 -12t38.5 -31q18 -29 30 -57q8 -25 11.5 -49.5t5.5 -46.5q0 -6 1 -12.5t3 -14.5q2 -10 3 -18.5t1 -18.5q2 -14 2 -28.5v-30.5 q0 -4 -1 -32t-3 -54l-2 -37l-37 -2q-45 -4 -70.5 -3t-48.5 3q-20 4 -40.5 5t-55.5 -3v-4q-2 -66 -2 -132.5t6 -131.5q2 -23 14.5 -49.5t38.5 -39.5q27 -12 31 -8h6q10 2 24.5 4t20.5 6q10 8 19 37l6 41l82 -14l-6 -41q-4 -23 -17.5 -49.5t-36.5 -42.5q-18 -10 -40.5 -15.5 t-39.5 -9.5h-6h-12q-29 0 -68 17q-41 20 -68.5 62t-31.5 95q-6 68 -6 137.5zM49 1143l68 47l24 -35q14 -23 26.5 -45.5t22 -41.5t15.5 -32l6 -14l14 -41l-78 -29l-14 39q-10 18 -18 39q-8 16 -19.5 38t-23.5 40zM88 553q2 -12 2 -25.5v-25.5q12 2 23.5 2h21.5q16 0 29.5 -1 t27.5 -3t29.5 -2h38.5q2 16 2 26.5v14.5v29.5t-2 25.5q0 8 -1 14t-3 15q-2 10 -3 17t-1 17q-2 23 -4 41.5t-8 34.5t-19 33q-4 8 -27 12h-6q-29 10 -43 -2q-12 -8 -23.5 -24.5t-17.5 -34.5q-14 -41 -16 -81t0 -83z" />
<glyph unicode="&#xe9;" d="M4 280.5q0 69.5 2 135.5q0 18 1 36.5t1 36.5v31t-2 31q-2 47 1 95t19 97q8 25 25.5 53.5t46.5 49.5q29 20 59.5 20t53.5 -6h4q16 -4 37.5 -12t38.5 -31q18 -29 30 -57q8 -25 11.5 -49.5t5.5 -46.5q0 -6 1 -12.5t3 -14.5q2 -10 3 -18.5t1 -18.5q2 -14 2 -28.5v-30.5 q0 -4 -1 -32t-3 -54l-2 -37l-37 -2q-45 -4 -70.5 -3t-48.5 3q-20 4 -40.5 5t-55.5 -3v-4q-2 -66 -2 -132.5t6 -131.5q2 -23 14.5 -49.5t38.5 -39.5q27 -12 31 -8h6q10 2 24.5 4t20.5 6q10 8 19 37l6 41l82 -14l-6 -41q-4 -23 -17.5 -49.5t-36.5 -42.5q-18 -10 -40.5 -15.5 t-39.5 -9.5h-6h-12q-29 0 -68 17q-41 20 -68.5 62t-31.5 95q-6 68 -6 137.5zM90 553q2 -12 2 -25.5v-25.5q12 2 23.5 2h21.5q16 0 29.5 -1t27.5 -3t29.5 -2h38.5q2 16 2 26.5v14.5v29.5t-2 25.5q0 8 -1 14t-3 15q-2 10 -3 17t-1 17q-2 23 -4 41.5t-8 34.5t-19 33 q-4 8 -27 12h-6q-29 10 -43 -2q-12 -8 -23.5 -24.5t-17.5 -34.5q-14 -41 -16 -81t0 -83zM129 993l20 39q8 16 15.5 28.5t13.5 24.5q4 8 9 15.5t10 17.5q4 6 8 14.5t6 18.5l14 39l80 -27l-14 -39q-4 -16 -10.5 -29.5t-10.5 -17.5q-4 -10 -9 -17t-9 -16q-8 -12 -14.5 -24 t-14.5 -27l-18 -37z" />
<glyph unicode="&#xea;" horiz-adv-x="432" d="M4 1012l31 30q49 47 86 85t39 40h57l11 -11t21.5 -20.5t24 -22.5t17.5 -17q12 -14 28.5 -36t18.5 -24l24 -32l-67 -52l-25 35q-6 8 -19.5 25.5t-23.5 27.5q-4 4 -15 15.5t-22 23.5q-18 -18 -43.5 -42.5t-54.5 -53.5l-29 -31zM12 280.5q0 69.5 2 135.5q0 18 1 36.5t1 36.5 v31t-2 31q-2 47 1 95t19 97q8 25 25.5 53.5t46.5 49.5q29 20 59.5 20t53.5 -6h4q16 -4 37.5 -12t38.5 -31q18 -29 30 -57q8 -25 11.5 -49.5t5.5 -46.5q0 -6 1 -12.5t3 -14.5q2 -10 3 -18.5t1 -18.5q2 -14 2 -28.5v-30.5q0 -4 -1 -32t-3 -54l-2 -37l-37 -2q-45 -4 -70.5 -3 t-48.5 3q-20 4 -40.5 5t-55.5 -3v-4q-2 -66 -2 -132.5t6 -131.5q2 -23 14.5 -49.5t38.5 -39.5q27 -12 31 -8h6q10 2 24.5 4t20.5 6q10 8 19 37l6 41l82 -14l-6 -41q-4 -23 -17.5 -49.5t-36.5 -42.5q-18 -10 -40.5 -15.5t-39.5 -9.5h-6h-12q-29 0 -68 17q-41 20 -68.5 62 t-31.5 95q-6 68 -6 137.5zM98 553q2 -12 2 -25.5v-25.5q12 2 23.5 2h21.5q16 0 29.5 -1t27.5 -3t29.5 -2h38.5q2 16 2 26.5v14.5v29.5t-2 25.5q0 8 -1 14t-3 15q-2 10 -3 17t-1 17q-2 23 -4 41.5t-8 34.5t-19 33q-4 8 -27 12h-6q-29 10 -43 -2q-12 -8 -23.5 -24.5 t-17.5 -34.5q-14 -41 -16 -81t0 -83z" />
<glyph unicode="&#xeb;" horiz-adv-x="415" d="M-2 280.5q0 69.5 2 135.5q0 18 1 36.5t1 36.5v31t-2 31q-2 47 1 95t19 97q8 25 25.5 53.5t46.5 49.5q29 20 59.5 20t53.5 -6h4q16 -4 37.5 -12t38.5 -31q18 -29 30 -57q8 -25 11.5 -49.5t5.5 -46.5q0 -6 1 -12.5t3 -14.5q2 -10 3 -18.5t1 -18.5q2 -14 2 -28.5v-30.5 q0 -4 -1 -32t-3 -54l-2 -37l-37 -2q-45 -4 -70.5 -3t-48.5 3q-20 4 -40.5 5t-55.5 -3v-4q-2 -66 -2 -132.5t6 -131.5q2 -23 14.5 -49.5t38.5 -39.5q27 -12 31 -8h6q10 2 24.5 4t20.5 6q10 8 19 37l6 41l82 -14l-6 -41q-4 -23 -17.5 -49.5t-36.5 -42.5q-18 -10 -40.5 -15.5 t-39.5 -9.5h-6h-12q-29 0 -68 17q-41 20 -68.5 62t-31.5 95q-6 68 -6 137.5zM4 1032v31v39l39 2h43l37 -2l2 -37v-31v-43h-41h-8h-15h-18l-37 2zM84 553q2 -12 2 -25.5v-25.5q12 2 23.5 2h21.5q16 0 29.5 -1t27.5 -3t29.5 -2h38.5q2 16 2 26.5v14.5v29.5t-2 25.5q0 8 -1 14 t-3 15q-2 10 -3 17t-1 17q-2 23 -4 41.5t-8 34.5t-19 33q-4 8 -27 12h-6q-29 10 -43 -2q-12 -8 -23.5 -24.5t-17.5 -34.5q-14 -41 -16 -81t0 -83zM207 1032v31v43h41h8h14h19l37 -2l2 -39v-31v-39l-39 -2h-43l-37 2z" />
<glyph unicode="&#xec;" horiz-adv-x="309" d="M-12 1143l67 47l25 -35q14 -23 26.5 -45.5t21.5 -41.5t16 -32l6 -14l14 -41l-78 -29l-14 39q-10 18 -19 39l-19 38t-24 40zM16 776v84h41q6 0 12.5 1t12.5 1h49l37 -4l2 -37q4 -80 6 -140t3 -110.5t0 -93.5t-3 -86q-2 -61 -3 -135t1 -182h59v-84h-86q-33 2 -75 0l-43 -4 l-6 84l40 2q8 0 14.5 1t12.5 1q-2 109 -1 183.5t3 135.5q2 41 3 81t1 84t-2 98.5t-6 121.5h-2q-8 0 -14 -1t-15 -1h-41z" />
<glyph unicode="&#xed;" horiz-adv-x="292" d="M0 776v84h41q6 0 12 1t13 1h49l37 -4l2 -37q4 -80 6 -140t3 -110.5t0 -93.5t-3 -86q-2 -61 -3 -135t1 -182h59v-84h-86q-33 2 -76 0l-43 -4l-6 84l41 2q8 0 14.5 1t12.5 1q-2 109 -1 183.5t3 135.5q2 41 3 81t1 84t-2 98.5t-6 121.5h-2q-8 0 -14.5 -1t-14.5 -1h-41z M53 993l21 39q8 16 15 28.5t13 24.5q4 8 9.5 15.5t9.5 17.5q4 6 8 14.5t6 18.5l15 39l79 -27l-14 -39q-4 -16 -10 -29.5t-10 -17.5q-4 -10 -9.5 -17t-9.5 -16q-8 -12 -14 -24t-15 -27l-18 -37z" />
<glyph unicode="&#xee;" horiz-adv-x="344" d="M-31 1012l31 30q49 47 86 85t39 40h57q2 -2 11.5 -11t21.5 -20.5t23.5 -22.5t17.5 -17q12 -14 28.5 -36t18.5 -24l25 -32l-68 -52l-24 35q-6 8 -19.5 25.5t-23.5 27.5l-15.5 15.5t-21.5 23.5q-18 -18 -44 -42.5t-55 -53.5l-28 -31zM51 776v84h41q6 0 12.5 1t12.5 1h49 l37 -4l2 -37q4 -80 6 -140t3 -110.5t0 -93.5t-3 -86q-2 -61 -3 -135t1 -182h59v-84h-86q-33 2 -76 0l-43 -4l-6 84l41 2q8 0 14.5 1t12.5 1q-2 109 -1 183.5t3 135.5q2 41 3 81t1 84t-2 98.5t-6 121.5h-2q-8 0 -14.5 -1t-14.5 -1h-41z" />
<glyph unicode="&#xef;" horiz-adv-x="362" d="M-12 1032v31v39l39 2h43l36 -2l3 -37v-31v-43h-41h-9h-14h-18l-37 2zM70 776v84h41q6 0 12 1t12 1h49l37 -4l2 -37q4 -80 6 -140t3 -110.5t0 -93.5t-3 -86q-2 -61 -3 -135t1 -182h60v-84h-86q-33 2 -76 0l-43 -4l-6 84l41 2q8 0 14 1t12 1q-2 109 -1 183.5t3 135.5 q2 41 3.5 81t1.5 84t-2.5 98.5t-6.5 121.5h-2q-8 0 -14 -1t-14 -1h-41zM190 1032v31v43h41h9h14h18l37 -2l2 -39v-31v-39l-39 -2h-43l-36 2z" />
<glyph unicode="&#xf0;" horiz-adv-x="460" d="M0 1114l29 80l39 -14q84 -31 147 -90q25 4 48.5 7t49.5 3h41v-84h-41h-17t-17 -2q33 -49 53 -105q16 -43 25.5 -115.5t15.5 -138.5l2 -39l2 -4h-2l2 -10q2 -35 2 -67.5v-65.5v-176q0 -41 -4 -76t-13 -70q-4 -8 -4 -15t-2 -15q-4 -27 -12 -58.5t-43 -54.5 q-18 -12 -40.5 -16t-39.5 -8h-6q-4 0 -6 -1.5t-6 -1.5q-31 0 -68 19q-41 20 -68.5 61t-31.5 95q-12 147 -13.5 272t9.5 244q4 49 20.5 98t71.5 90q31 20 70 21q20 0 43 -7l4 -2l18 -4l-4 17q-25 66 -66 116l-45 -12l-65 -16l-21 80l41 12q4 0 7.5 1t7.5 1q-35 20 -74 37z M105.5 422.5q0.5 -121.5 13.5 -262.5q2 -23 14 -49.5t39 -38.5q23 -10 31 -11l6 2q10 2 24.5 4.5t20.5 6.5q10 6 13 17t7 34q0 20 7 43q8 31 11 59.5t3 65.5v176v64.5t-2 64.5v8l-2 15l-2 18v8v4q-4 35 -14.5 68t-26.5 57q-4 4 -8 6t-19 6h-6q-16 5 -22 5q-12 0 -21 -7 q-31 -23 -42 -51t-15 -76q-10 -115 -9.5 -236.5z" />
<glyph unicode="&#xf1;" horiz-adv-x="569" d="M2 774v84h43q6 0 12 1t13 1h49l37 -4v-20q16 10 32.5 18t34.5 12q23 4 50.5 5t58.5 -19q29 -18 49 -47t31 -53q23 -51 24.5 -100.5t-2.5 -96.5v-61q2 -70 1 -137.5t-3 -133.5q0 -37 -1 -74.5t-1 -76.5h64v-84h-103q-14 -2 -28.5 -2h-34.5h-43v84h43h20v155q2 66 3 132.5 t-1 136.5v32.5t2 32.5q0 43 -1 83t-17 79q-6 18 -19.5 34.5t-27.5 24.5q-10 6 -18.5 7t-28.5 -3q-27 -8 -43 -26q-12 -16 -19.5 -26.5t-11.5 -31.5l-4 -20v-188v-99q0 -16 -1 -31.5t-1 -31.5q-2 -27 -3 -51.5t3 -49.5q4 -31 4 -61.5v-61.5q-2 -10 -2 -18v-16h57v-84h-84 q-33 2 -78 0l-41 -4l-6 84l41 2q8 0 14.5 1t12.5 1v18t2 19q0 29 1 56.5t-3 53.5q-4 31 -4 59.5t2 57.5q0 14 1 27.5t1 29.5v101q0 70 1 140.5t-3 141.5h-4q-6 0 -13.5 -1t-13.5 -1h-43zM43 993l6 41q6 39 41 70q14 12 38 20.5t58 -2.5q18 -6 35 -16t31 -21q14 -10 29 -18 q8 -4 16 -7t16 1q4 2 8.5 7t4.5 15l6 43l82 -10l-4 -43q-4 -31 -21.5 -55.5t-44.5 -34.5q-19 -6 -39 -6q-35 0 -61 16q-10 4 -19.5 10.5t-19.5 12.5q-29 20 -45 26q-10 4 -15 -2q-12 -8 -12 -20l-8 -41z" />
<glyph unicode="&#xf2;" d="M0 314.5v66.5v174q0 41 3 76t13 71q4 16 4 31q4 25 13.5 56.5t44.5 54.5q16 12 38.5 16t45.5 8q33 6 82 -16q41 -20 67.5 -61t30.5 -95q14 -147 15 -272t-11 -244q-4 -49 -20.5 -98t-69.5 -88q-29 -21 -70 -21q-10 0 -21 1t-24 3l-6 3q-16 4 -35.5 12t-36.5 31 q-35 47 -46 106t-15 117q-2 35 -2 68.5zM45 1143l68 47l24 -35q14 -23 26.5 -45.5t22 -41.5t15.5 -32l6 -14l14 -41l-78 -29l-14 39q-10 18 -18 39q-8 16 -19.5 38t-23.5 40zM84 315.5q0 -30.5 2 -63.5q2 -49 10 -97.5t33 -82.5q4 -4 9 -6.5t24 -6.5q8 -2 24 -2q14 0 21 4 q31 23 42 51.5t15 75.5q10 115 9 237t-13 263q-4 25 -15.5 50.5t-37.5 37.5q-14 8 -21.5 9t-9.5 1h-6q-10 0 -25.5 -4t-21.5 -8q-10 -6 -12 -17.5t-7 -33.5q-2 -10 -2 -20.5t-4 -22.5q-14 -55 -14 -125v-174v-65.5z" />
<glyph unicode="&#xf3;" d="M0 314.5v66.5v174q0 41 3 76t13 71q4 16 4 31q4 25 13.5 56.5t44.5 54.5q16 12 38.5 16t45.5 8q33 6 82 -16q41 -20 67.5 -61t30.5 -95q14 -147 15 -272t-11 -244q-4 -49 -20.5 -98t-69.5 -88q-29 -21 -70 -21q-10 0 -21 1t-24 3l-6 3q-16 4 -35.5 12t-36.5 31 q-35 47 -46 106t-15 117q-2 35 -2 68.5zM84 315.5q0 -30.5 2 -63.5q2 -49 10 -97.5t33 -82.5q4 -4 9 -6.5t24 -6.5q8 -2 24 -2q14 0 21 4q31 23 42 51.5t15 75.5q10 115 9 237t-13 263q-4 25 -15.5 50.5t-37.5 37.5q-14 8 -21.5 9t-9.5 1h-6q-10 0 -25.5 -4t-21.5 -8 q-10 -6 -12 -17.5t-7 -33.5q-2 -10 -2 -20.5t-4 -22.5q-14 -55 -14 -125v-174v-65.5zM141 993l20 39q8 16 15.5 28.5t13.5 24.5q4 8 9 15.5t10 17.5q4 6 8 14.5t6 18.5l14 39l80 -27l-14 -39q-4 -16 -10.5 -29.5t-10.5 -17.5q-4 -10 -9 -17t-9 -16q-8 -12 -14.5 -24 t-14.5 -27l-18 -37z" />
<glyph unicode="&#xf4;" d="M-4 1012l31 30q49 47 86 85t39 40h57l11 -11t21.5 -20.5t24 -22.5t17.5 -17q12 -14 28.5 -36t18.5 -24l24 -32l-67 -52l-25 35q-6 8 -19.5 25.5t-23.5 27.5q-4 4 -15 15.5t-22 23.5q-18 -18 -43.5 -42.5t-54.5 -53.5l-29 -31zM0 314.5v66.5v174q0 41 3 76t13 71 q4 16 4 31q4 25 13.5 56.5t44.5 54.5q16 12 38.5 16t45.5 8q33 6 82 -16q41 -20 67.5 -61t30.5 -95q14 -147 15 -272t-11 -244q-4 -49 -20.5 -98t-69.5 -88q-29 -21 -70 -21q-10 0 -21 1t-24 3l-6 3q-16 4 -35.5 12t-36.5 31q-35 47 -46 106t-15 117q-2 35 -2 68.5z M84 315.5q0 -30.5 2 -63.5q2 -49 10 -97.5t33 -82.5q4 -4 9 -6.5t24 -6.5q8 -2 24 -2q14 0 21 4q31 23 42 51.5t15 75.5q10 115 9 237t-13 263q-4 25 -15.5 50.5t-37.5 37.5q-14 8 -21.5 9t-9.5 1h-6q-10 0 -25.5 -4t-21.5 -8q-10 -6 -12 -17.5t-7 -33.5q-2 -10 -2 -20.5 t-4 -22.5q-14 -55 -14 -125v-174v-65.5z" />
<glyph unicode="&#xf5;" d="M-8 993l6 41q6 39 41 70q14 12 38 20.5t58 -2.5q18 -6 35 -16t31 -21q14 -10 29 -18q8 -4 16 -7t16 1q4 2 8.5 7t4.5 15l6 43l82 -10l-4 -43q-4 -31 -21.5 -55.5t-44.5 -34.5q-19 -6 -39 -6q-35 0 -61 16q-10 4 -19.5 10.5t-19.5 12.5q-29 20 -45 26q-10 4 -15 -2 q-12 -8 -12 -20l-8 -41zM0 314.5v66.5v174q0 41 3 76t13 71q4 16 4 31q4 25 13.5 56.5t44.5 54.5q16 12 38.5 16t45.5 8q33 6 82 -16q41 -20 67.5 -61t30.5 -95q14 -147 15 -272t-11 -244q-4 -49 -20.5 -98t-69.5 -88q-29 -21 -70 -21q-10 0 -21 1t-24 3l-6 3 q-16 4 -35.5 12t-36.5 31q-35 47 -46 106t-15 117q-2 35 -2 68.5zM84 315.5q0 -30.5 2 -63.5q2 -49 10 -97.5t33 -82.5q4 -4 9 -6.5t24 -6.5q8 -2 24 -2q14 0 21 4q31 23 42 51.5t15 75.5q10 115 9 237t-13 263q-4 25 -15.5 50.5t-37.5 37.5q-14 8 -21.5 9t-9.5 1h-6 q-10 0 -25.5 -4t-21.5 -8q-10 -6 -12 -17.5t-7 -33.5q-2 -10 -2 -20.5t-4 -22.5q-14 -55 -14 -125v-174v-65.5z" />
<glyph unicode="&#xf6;" d="M0 314.5v66.5v174q0 41 3 76t13 71q4 16 4 31q4 25 13.5 56.5t44.5 54.5q16 12 38.5 16t45.5 8q33 6 82 -16q41 -20 67.5 -61t30.5 -95q14 -147 15 -272t-11 -244q-4 -49 -20.5 -98t-69.5 -88q-29 -21 -70 -21q-10 0 -21 1t-24 3l-6 3q-16 4 -35.5 12t-36.5 31 q-35 47 -46 106t-15 117q-2 35 -2 68.5zM10 1032v31v39l39 2h43l37 -2l2 -37v-31v-43h-41h-8h-15h-18l-37 2zM84 315.5q0 -30.5 2 -63.5q2 -49 10 -97.5t33 -82.5q4 -4 9 -6.5t24 -6.5q8 -2 24 -2q14 0 21 4q31 23 42 51.5t15 75.5q10 115 9 237t-13 263q-4 25 -15.5 50.5 t-37.5 37.5q-14 8 -21.5 9t-9.5 1h-6q-10 0 -25.5 -4t-21.5 -8q-10 -6 -12 -17.5t-7 -33.5q-2 -10 -2 -20.5t-4 -22.5q-14 -55 -14 -125v-174v-65.5zM213 1032v31v43h41h8h14h19l37 -2l2 -39v-31v-39l-39 -2h-43l-37 2z" />
<glyph unicode="&#xf7;" horiz-adv-x="530" d="M0 557v82h59h79t81 -4q27 -2 52.5 -1t54.5 1q16 2 32.5 2h34.5h41v-84h-41h-32.5t-32.5 -2h-60h-27.5t-27.5 2q-39 4 -76 4h-78h-59zM159 422.5q-1 13.5 1 23.5l2 37l37 2h10h22l41 -2v-41v-8v-31l-2 -38l-39 -3h-12h-18h-39l-2 41q0 6 -1 19.5zM160 705v40v9v32l2 37 l37 2h12h18h41v-41q2 -4 2 -18v-23l-2 -38l-39 -3h-10h-20z" />
<glyph unicode="&#xf8;" horiz-adv-x="565" d="M0 6l18 37q18 37 28.5 58.5t17 36t8.5 20.5l4 12q4 12 8 18q-2 14 -3 26.5t-1 27.5q-4 35 -4 68.5v66.5q2 10 2 33v141q-2 41 2 76t14 71q4 16 4 31q4 25 12.5 56.5t45.5 54.5q16 12 38.5 16t38.5 8h7q35 6 79 -16q51 -27 76 -74q8 16 12.5 27.5t8.5 21.5l12 41l80 -26 l-12 -39q-8 -23 -27.5 -64t-44.5 -90q10 -131 10 -244.5t-10 -224.5q-4 -49 -20.5 -98t-69.5 -88q-29 -20 -72 -21q-10 0 -21.5 1t-21.5 3l-4 2q-16 4 -36.5 12.5t-37.5 30.5q-16 14 -24 37l-25 -51l-18 -37zM160 338l22 39q29 49 72 128t84 154q0 6 -1 12.5t-1 12.5 q-2 25 -14.5 50.5t-36.5 37.5q-14 8 -21.5 9t-9.5 1h-2l-6 -2q-10 0 -24.5 -3t-20.5 -7q-16 -10 -19 -51l-6 -43q-10 -29 -13 -58.5t-3 -66.5q4 -47 0 -94v-80v-39zM168 174q10 -65 39 -106q4 -4 8 -5.5t21 -5.5l4 -2q8 -2 22 -2h11.5t11.5 4q31 23 41 51.5t14 75.5 q6 76 9 155t-1 165l-92 -168l-37 -64q-23 -39 -34 -61.5t-17 -36.5z" />
<glyph unicode="&#xf9;" horiz-adv-x="561" d="M2 770v84h61q10 0 22.5 1t25.5 -1l36 -6v-37q0 -47 -1 -92t-1 -90q0 -70 -1 -139.5t1 -139.5v-34.5t-2 -32.5q-2 -41 0 -81t19 -81q6 -18 19.5 -34.5t27.5 -25.5q8 -6 17 -7t30 3q23 6 43 27q12 16 19.5 26.5t11.5 30.5l2 15v97t2 97v99v31.5t2 31.5q2 27 3 51.5t-3 48.5 q-4 31 -5 66t1 70v22h-56l-2 84h105l37 -4v-105q-2 -33 -2 -63.5t4 -58.5q4 -31 4 -58.5t-2 -56.5q-2 -16 -2 -29.5v-29.5v-99q-2 -72 -2 -142.5t4 -141.5h2q10 2 29 2h43v-84h-43q-16 0 -25 -2h-27q-16 0 -22 2l-37 2l-2 20q-31 -20 -66 -31q-10 -2 -20.5 -3t-22.5 -1 q-14 0 -30.5 4.5t-34.5 14.5q-31 18 -51.5 47t-30.5 53q-20 51 -22.5 100.5t-0.5 96.5q2 16 2 30.5v30.5q-2 72 -1 142.5t1 140.5q0 35 1 69.5t1 69.5h-61zM82 1143l68 47l24 -35q14 -23 26.5 -45.5t22 -41.5t15.5 -32l6 -14l14 -41l-78 -29l-14 39q-10 18 -18 39 q-8 16 -19.5 38t-23.5 40z" />
<glyph unicode="&#xfa;" horiz-adv-x="561" d="M2 770v84h61q10 0 22.5 1t25.5 -1l36 -6v-37q0 -47 -1 -92t-1 -90q0 -70 -1 -139.5t1 -139.5v-34.5t-2 -32.5q-2 -41 0 -81t19 -81q6 -18 19.5 -34.5t27.5 -25.5q8 -6 17 -7t30 3q23 6 43 27q12 16 19.5 26.5t11.5 30.5l2 15v97t2 97v99v31.5t2 31.5q2 27 3 51.5t-3 48.5 q-4 31 -5 66t1 70v22h-56l-2 84h105l37 -4v-105q-2 -33 -2 -63.5t4 -58.5q4 -31 4 -58.5t-2 -56.5q-2 -16 -2 -29.5v-29.5v-99q-2 -72 -2 -142.5t4 -141.5h2q10 2 29 2h43v-84h-43q-16 0 -25 -2h-27q-16 0 -22 2l-37 2l-2 20q-31 -20 -66 -31q-10 -2 -20.5 -3t-22.5 -1 q-14 0 -30.5 4.5t-34.5 14.5q-31 18 -51.5 47t-30.5 53q-20 51 -22.5 100.5t-0.5 96.5q2 16 2 30.5v30.5q-2 72 -1 142.5t1 140.5q0 35 1 69.5t1 69.5h-61zM190 993l20 39q8 16 15.5 28.5t13.5 24.5q4 8 9 15.5t10 17.5q4 6 8 14.5t6 18.5l14 39l80 -27l-14 -39 q-4 -16 -10.5 -29.5t-10.5 -17.5q-4 -10 -9 -17t-9 -16q-8 -12 -14.5 -24t-14.5 -27l-18 -37z" />
<glyph unicode="&#xfb;" horiz-adv-x="561" d="M2 770v84h61q10 0 22.5 1t25.5 -1l36 -6v-37q0 -47 -1 -92t-1 -90q0 -70 -1 -139.5t1 -139.5v-34.5t-2 -32.5q-2 -41 0 -81t19 -81q6 -18 19.5 -34.5t27.5 -25.5q8 -6 17 -7t30 3q23 6 43 27q12 16 19.5 26.5t11.5 30.5l2 15v97t2 97v99v31.5t2 31.5q2 27 3 51.5t-3 48.5 q-4 31 -5 66t1 70v22h-56l-2 84h105l37 -4v-105q-2 -33 -2 -63.5t4 -58.5q4 -31 4 -58.5t-2 -56.5q-2 -16 -2 -29.5v-29.5v-99q-2 -72 -2 -142.5t4 -141.5h2q10 2 29 2h43v-84h-43q-16 0 -25 -2h-27q-16 0 -22 2l-37 2l-2 20q-31 -20 -66 -31q-10 -2 -20.5 -3t-22.5 -1 q-14 0 -30.5 4.5t-34.5 14.5q-31 18 -51.5 47t-30.5 53q-20 51 -22.5 100.5t-0.5 96.5q2 16 2 30.5v30.5q-2 72 -1 142.5t1 140.5q0 35 1 69.5t1 69.5h-61zM35 1012l31 30q49 47 86 85t39 40h57l11 -11t21.5 -20.5t24 -22.5t17.5 -17q12 -14 28.5 -36t18.5 -24l24 -32 l-67 -52l-25 35q-6 8 -19.5 25.5t-23.5 27.5q-4 4 -15 15.5t-22 23.5q-18 -18 -43.5 -42.5t-54.5 -53.5l-29 -31z" />
<glyph unicode="&#xfc;" horiz-adv-x="561" d="M2 770v84h61q10 0 22.5 1t25.5 -1l36 -6v-37q0 -47 -1 -92t-1 -90q0 -70 -1 -139.5t1 -139.5v-34.5t-2 -32.5q-2 -41 0 -81t19 -81q6 -18 19.5 -34.5t27.5 -25.5q8 -6 17 -7t30 3q23 6 43 27q12 16 19.5 26.5t11.5 30.5l2 15v97t2 97v99v31.5t2 31.5q2 27 3 51.5t-3 48.5 q-4 31 -5 66t1 70v22h-56l-2 84h105l37 -4v-105q-2 -33 -2 -63.5t4 -58.5q4 -31 4 -58.5t-2 -56.5q-2 -16 -2 -29.5v-29.5v-99q-2 -72 -2 -142.5t4 -141.5h2q10 2 29 2h43v-84h-43q-16 0 -25 -2h-27q-16 0 -22 2l-37 2l-2 20q-31 -20 -66 -31q-10 -2 -20.5 -3t-22.5 -1 q-14 0 -30.5 4.5t-34.5 14.5q-31 18 -51.5 47t-30.5 53q-20 51 -22.5 100.5t-0.5 96.5q2 16 2 30.5v30.5q-2 72 -1 142.5t1 140.5q0 35 1 69.5t1 69.5h-61zM47 1032v31v39l39 2h43l37 -2l2 -37v-31v-43h-41h-8h-15h-18l-37 2zM250 1032v31v43h41h8h14h19l37 -2l2 -39v-31 v-39l-39 -2h-43l-37 2z" />
<glyph unicode="&#xfd;" horiz-adv-x="573" d="M2 768v84h197v-84h-47l24 -125l8 -49l13 -80q14 -59 25 -114.5t22 -110.5l14 -86l8 37l29 159l12 66l47 252l8 49h-47v84h97q10 2 23 2h34h43v-84h-43h-21l-12 -68q-12 -63 -24.5 -125.5t-22.5 -125.5l-12 -64l-29 -160q-4 -18 -7 -35.5t-7 -33.5l-4 -23 q-4 -16 -7.5 -29.5t-7.5 -29.5l-14 -62l-6 -43q-4 -23 -7 -42t-10 -42q0 -4 -1 -6t-1 -6l-4 -16q-6 -25 -10 -48.5t-8 -50.5l-6 -37h4h43v-83h-43h-28.5t-24.5 -3q-12 0 -26.5 -1t-33.5 -1h-41v84h41h21q4 12 5 26.5t5 29.5q4 27 9 52t13 52q0 8 3 12q0 4 4 17q4 18 6 36.5 t6 39.5v4l-2 14q-8 41 -15.5 87t-17.5 93l-14 92q-10 55 -21.5 109.5t-25.5 114.5q-4 23 -7.5 44t-7.5 42l-6 47q-13 69 -29 139h-63zM225 993l20 39q8 16 15.5 28.5t13.5 24.5q4 8 9 15.5t10 17.5q4 6 8 14.5t6 18.5l14 39l80 -27l-14 -39q-4 -16 -10.5 -29.5t-10.5 -17.5 q-4 -10 -9 -17t-9 -16q-8 -12 -14.5 -24t-14.5 -27l-18 -37z" />
<glyph unicode="&#xff;" horiz-adv-x="573" d="M2 768v84h197v-84h-47l24 -125l8 -49l13 -80q14 -59 25 -114.5t22 -110.5l14 -86l8 37l29 159l12 66l47 252l8 49h-47v84h97q10 2 23 2h34h43v-84h-43h-21l-12 -68q-12 -63 -24.5 -125.5t-22.5 -125.5l-12 -64l-29 -160q-4 -18 -7 -35.5t-7 -33.5l-4 -23 q-4 -16 -7.5 -29.5t-7.5 -29.5l-14 -62l-6 -43q-4 -23 -7 -42t-10 -42q0 -4 -1 -6t-1 -6l-4 -16q-6 -25 -10 -48.5t-8 -50.5l-6 -37h4h43v-83h-43h-28.5t-24.5 -3q-12 0 -26.5 -1t-33.5 -1h-41v84h41h21q4 12 5 26.5t5 29.5q4 27 9 52t13 52q0 8 3 12q0 4 4 17q4 18 6 36.5 t6 39.5v4l-2 14q-8 41 -15.5 87t-17.5 93l-14 92q-10 55 -21.5 109.5t-25.5 114.5q-4 23 -7.5 44t-7.5 42l-6 47q-13 69 -29 139h-63zM94 1032v31v39l39 2h43l37 -2l2 -37v-31v-43h-41h-8h-15h-18l-37 2zM297 1032v31v43h41h8h14h19l37 -2l2 -39v-31v-39l-39 -2h-43l-37 2z " />
<glyph unicode="&#x152;" horiz-adv-x="923" d="M-1 549q1 86 5 172l4 57v21q4 51 9.5 101t31.5 108l8 16q16 35 37 67.5t68 55.5t98 27t98 2h138q18 0 35.5 1t35.5 1h28.5t29.5 2q23 0 44 -1t44 -3q10 0 22.5 -1t24.5 -1l39 -3v-38q0 -6 1 -17.5t1 -23.5t1 -22.5t1 -16.5v-41l-84 -2v43q0 4 -1 14t-1 23v2h-8 q-23 2 -42.5 3t-39.5 1q-16 0 -29.5 -1t-28.5 -1q-18 0 -35.5 -1t-33.5 -1q0 -14 1 -28.5t3 -29.5q2 -18 3 -36.5t1 -39.5q0 -53 1 -104t3 -102v-93l63 7h37t37 -2q10 0 22.5 -1t22.5 -1v14v43h84v-88q2 -10 2 -20.5v-35.5v-40h-84v43q-14 0 -26.5 1t-24.5 1q-16 2 -33.5 2 h-33.5l-62 -4q-2 -2 -2 -3q2 -145 4 -268t6 -237q23 0 42.5 1t39.5 3q35 0 67 1t66 1v78h84v-166l-55 2q-78 4 -158 0q-33 -2 -65.5 -3t-67.5 1q-12 0 -25.5 -1t-27.5 -1q-16 0 -34.5 -1t-37.5 -1q-49 0 -98 6t-86 26q-35 18 -57.5 46t-37 59t-23.5 63.5t-15 63.5l-6 31 q-4 14 -5 28.5t-4 28.5l-6 39q-16 88 -15 174zM82 551q-2 -80 14 -160l6 -45q2 -12 3 -24.5t6 -24.5l6 -31q12 -55 29.5 -103t60.5 -73q37 -20 98.5 -21t116.5 1h18q-4 117 -6 244.5t-4 277.5q0 41 -1 80t-1 78q-2 53 -3 104t-1 104q0 16 -1 34t-3 36q-2 16 -3 31.5t-1 32.5 h-29q-18 0 -29 2q-45 0 -86 -3.5t-75 -19.5q-25 -10 -37.5 -29.5t-26.5 -52.5l-8 -16q-20 -45 -24.5 -87t-8.5 -91v-21l-4 -59q-4 -84 -6 -164z" />
<glyph unicode="&#x153;" horiz-adv-x="694" d="M-1 312.5q1 33.5 1 66.5v174q0 41 3 76t13 71q4 16 4 31q4 25 13.5 56.5t44.5 54.5q16 12 38.5 16t39.5 8h6q35 6 80 -16q45 -23 69 -66q10 16 23.5 34t32.5 30q29 20 59.5 20t52.5 -6h4q16 -4 38 -12t38 -31q18 -29 31 -57q8 -25 11 -49.5t5 -46.5q0 -6 1 -12.5t3 -14.5 q2 -10 3 -18.5t1 -18.5q2 -14 2 -28.5v-30.5q0 -4 -1 -32t-3 -54l-2 -37l-37 -2q-45 -4 -70.5 -3t-47.5 3q-20 4 -41 5t-56 -3v-4q-2 -23 -2 -43.5v-40.5v-13q0 -41 1 -83.5t5 -83.5q2 -23 14.5 -49.5t39.5 -39.5q27 -12 30 -8h7q10 2 24.5 4t20.5 7q10 8 18 36l6 41l82 -14 l-6 -41q-4 -23 -17.5 -49.5t-35.5 -42.5q-18 -10 -41 -15.5t-39 -9.5h-19q-29 0 -67 17q-23 10 -39 25.5t-31 35.5q-10 -16 -22.5 -30.5t-30.5 -26.5q-29 -21 -70 -21h-21t-24 4l-4 2q-16 4 -36.5 12.5t-37.5 30.5q-35 47 -46 106.5t-15 117.5q-4 35 -3 68.5zM82 313.5 q0 -30.5 4 -63.5q2 -49 10 -97.5t33 -82.5q4 -4 8 -5.5t21 -5.5l4 -2q33 -6 45 2q31 23 41 51.5t14 75.5q4 35 6 73t4 75v42t2 42q0 18 1 36.5t1 37.5v34l-4 41q0 16 -2 31.5t-4 32.5l-8 55q-2 25 -14.5 50.5t-36.5 37.5q-14 8 -22.5 9t-10.5 1l-6 -2q-8 0 -23.5 -3 t-21.5 -7q-10 -6 -12 -17.5t-7 -33.5l-6 -43q-14 -55 -14 -125v-174q-2 -35 -2 -65.5zM358 555q2 -12 2 -25.5v-25.5q12 2 24 2h22q16 0 29.5 -1t27.5 -3t29.5 -2h37.5q2 16 2 26.5v14.5v29.5t-2 25.5q0 8 -1 14t-3 15l-4 34q-2 23 -4 41.5t-8 34.5t-18 33q-4 8 -27 12h-6 q-29 10 -43 -2q-12 -8 -23.5 -24.5t-17.5 -34.5q-14 -41 -15.5 -81t-1.5 -83z" />
<glyph unicode="&#x178;" horiz-adv-x="661" d="M2 1174l43 2h44.5t41.5 -2q12 0 24.5 -1.5t24.5 -1.5h41v-84h-41h-16l8 -26q4 -10 8 -26.5t10 -33.5q8 -23 14.5 -43t10.5 -34l31 -107q8 -25 15 -50.5t17 -51.5l21 -70l4 12l35 115l20 53l17 41q8 25 14 49.5t12 51.5q6 23 12.5 47t14.5 49l8 27h-22l-41 2l2 84l43 -2 q29 -2 45 -1t33 1h96v-84h-70l-14 -52l-25 -92q-6 -27 -13 -52.5t-15 -51.5l-19 -49l-18 -45l-76 -252v-99.5t2 -97.5q2 -51 2 -102.5v-102.5v-24h21h41v-84h-41h-37.5t-28.5 -2h-111v84h72v14v12v101.5t-2 101.5q-2 47 -2 96v96l-61 201l-31 103q-8 29 -16.5 55t-14.5 53 l-24 74l-19 61l-14 43l-4 13h-25l-43 -2zM135 1319v31v39l39 2h43l37 -2l2 -37v-31v-43h-41h-8h-15h-18l-37 2zM338 1319v31v43h41h8h14h19l37 -2l2 -39v-31v-39l-39 -2h-43l-37 2z" />
<glyph unicode="&#x2c6;" horiz-adv-x="440" d="M0 1012l31 30q49 47 86 85t39 40h57l11 -11t21.5 -20.5t24 -22.5t17.5 -17q12 -14 28.5 -36t18.5 -24l24 -32l-67 -52l-25 35q-6 8 -19.5 25.5t-23.5 27.5q-4 4 -15 15.5t-22 23.5q-18 -18 -43.5 -42.5t-54.5 -53.5l-29 -31z" />
<glyph unicode="&#x2dc;" horiz-adv-x="452" d="M0 993l6 41q6 39 41 70q14 12 38 20.5t58 -2.5q18 -6 35 -16t31 -21q14 -10 29 -18q8 -4 16 -7t16 1q4 2 8.5 7t4.5 15l6 43l82 -10l-4 -43q-4 -31 -21.5 -55.5t-44.5 -34.5q-19 -6 -39 -6q-35 0 -61 16q-10 4 -19.5 10.5t-19.5 12.5q-29 20 -45 26q-10 4 -15 -2 q-12 -8 -12 -20l-8 -41z" />
<glyph unicode="&#x2000;" horiz-adv-x="765" />
<glyph unicode="&#x2001;" horiz-adv-x="1530" />
<glyph unicode="&#x2002;" horiz-adv-x="765" />
<glyph unicode="&#x2003;" horiz-adv-x="1530" />
<glyph unicode="&#x2004;" horiz-adv-x="510" />
<glyph unicode="&#x2005;" horiz-adv-x="382" />
<glyph unicode="&#x2006;" horiz-adv-x="255" />
<glyph unicode="&#x2007;" horiz-adv-x="255" />
<glyph unicode="&#x2008;" horiz-adv-x="191" />
<glyph unicode="&#x2009;" horiz-adv-x="306" />
<glyph unicode="&#x200a;" horiz-adv-x="85" />
<glyph unicode="&#x2010;" horiz-adv-x="471" d="M0 553v84h41q23 0 45.5 -1t44.5 -1h88h27.5t27.5 2h60h41v-84h-41h-55q-14 -2 -29 -2h-31h-88q-23 0 -45.5 1t-44.5 1h-41z" />
<glyph unicode="&#x2011;" horiz-adv-x="471" d="M0 553v84h41q23 0 45.5 -1t44.5 -1h88h27.5t27.5 2h60h41v-84h-41h-55q-14 -2 -29 -2h-31h-88q-23 0 -45.5 1t-44.5 1h-41z" />
<glyph unicode="&#x2012;" horiz-adv-x="471" d="M0 553v84h41q23 0 45.5 -1t44.5 -1h88h27.5t27.5 2h60h41v-84h-41h-55q-14 -2 -29 -2h-31h-88q-23 0 -45.5 1t-44.5 1h-41z" />
<glyph unicode="&#x2013;" horiz-adv-x="583" d="M0 625l43 4q86 8 153.5 8t131.5 -2q31 -2 59.5 -3t58.5 -1h41v-84h-41q-33 0 -62.5 1t-57.5 3q-63 2 -129 2t-146 -6l-43 -4z" />
<glyph unicode="&#x2014;" horiz-adv-x="702" d="M0 635l41 2q43 4 84 3t82 -1q23 -2 44 -2h44h64.5t64.5 2h139h43v-84h-43h-139q-31 -2 -63.5 -2h-65.5h-45.5t-44.5 2q-41 2 -80 2t-78 -4l-41 -2z" />
<glyph unicode="&#x2018;" horiz-adv-x="241" d="M0 997v37q0 8 2 40t10 65l8 41l82 -19l-8 -41q-4 -12 -5 -25.5t-3 -25.5h35l2 -39v-31v-38l-41 -3q-6 0 -19.5 -1t-23.5 1l-37 3z" />
<glyph unicode="&#x2019;" horiz-adv-x="243" d="M31 1098v15t2 13l-2 41l41 2q6 0 19 1t24 -1h39v-36q2 -4 2 -20.5v-18.5q0 -6 -1 -39t-10 -66l-10 -41l-80 19l6 41q4 12 5.5 24t3.5 27h-35z" />
<glyph unicode="&#x201a;" horiz-adv-x="258" d="M39 25v30v39l41 2q6 0 19.5 1t23.5 -1l37 -2l2 -37v-37q0 -8 -2 -39.5t-10 -64.5l-9 -41l-82 19l9 40q4 12 5 25.5t3 26.5h-35z" />
<glyph unicode="&#x201c;" horiz-adv-x="460" d="M0 997v37q0 8 2 40t10 65l8 41l82 -19l-8 -41q-4 -12 -5 -25.5t-3 -25.5h35l2 -39v-31v-38l-41 -3q-6 0 -19.5 -1t-23.5 1l-37 3zM203 997v37q0 8 2 40t10 65l8 41l82 -19l-8 -41q-4 -12 -5 -25.5t-3 -25.5h35l2 -39v-31v-38l-41 -3q-6 0 -19.5 -1t-23.5 1l-37 3z" />
<glyph unicode="&#x201d;" horiz-adv-x="456" d="M41 1098v15t2 13l-2 41l41 2q6 0 19.5 1t23.5 -1h39v-36q2 -4 2 -20.5v-18.5q0 -6 -1 -39t-9 -66l-11 -41l-79 19l6 41q4 12 5 24t3 27h-35zM244 1098v15t2 13l-2 41l41 2q6 0 19 1t24 -1h39v-36q2 -4 2 -20.5v-18.5q0 -6 -1 -39t-10 -66l-10 -41l-80 19l6 41 q4 12 5.5 24t3.5 27h-35z" />
<glyph unicode="&#x201e;" horiz-adv-x="442" d="M41 25v30v39l41 2q6 0 19.5 1t23.5 -1l37 -2l2 -37v-37q0 -8 -2 -39.5t-10 -64.5l-9 -41l-82 19l9 40q4 12 5 25.5t3 26.5h-35zM223 25v30v39l41 2q6 0 19.5 1t23.5 -1l37 -2l2 -37v-37q0 -8 -2 -39.5t-10 -64.5l-8 -41l-82 19l8 40q4 12 5 25.5t3 26.5h-35z" />
<glyph unicode="&#x2022;" horiz-adv-x="290" d="M2 543v26.5v34v29.5v14v39l39 2q8 0 30.5 1t47.5 1q10 0 19 -1t16 -1l39 -2l2 -37v-104l-2 -43h-41h-27h-35h-27.5t-21.5 2l-37 2z" />
<glyph unicode="&#x2026;" horiz-adv-x="714" d="M52 43q1 10 1 14v39l39 2h43l37 -2l2 -37v-30v-43h-41h-8h-15h-18l-37 2l-2 39q-2 6 -1 16zM278 43q1 10 1 14v39l39 2h43l37 -2l2 -37v-30v-43h-41h-8h-15h-18l-37 2l-2 39q-2 6 -1 16zM497 43q1 10 1 14v39l39 2h43l37 -2l2 -37v-30v-43h-41h-8h-15h-18l-37 2l-2 39 q-2 6 -1 16z" />
<glyph unicode="&#x202f;" horiz-adv-x="306" />
<glyph unicode="&#x2039;" horiz-adv-x="356" d="M49 567v54q0 2 8.5 11t18.5 22.5t21.5 26.5t19.5 24l49 49l31 28l57 -61l-29 -29q-10 -10 -25.5 -24.5t-19.5 -18.5q-10 -10 -22.5 -24.5t-22.5 -28.5q20 -23 48 -53.5t42 -44.5l29 -31l-59 -59l-29 30q-12 12 -30.5 33t-37 42.5t-33 36.5t-16.5 17z" />
<glyph unicode="&#x203a;" horiz-adv-x="378" d="M0 467l29 29l7 8t16 17l18.5 18.5t13.5 15.5q16 16 35 41q-14 16 -37 43t-51 53l-31 31l57 59l31 -28q51 -49 84 -90t35 -43l-2 -52l-7 -9q-8 -9 -17 -20.5t-18 -22.5t-16 -17q-6 -6 -15 -16.5t-18.5 -19.5t-17.5 -18l-8 -8l-29 -30z" />
<glyph unicode="&#x205f;" horiz-adv-x="382" />
<glyph unicode="&#x20ac;" horiz-adv-x="624" d="M0 535l43 4q16 0 25.5 1t19.5 1v77q-8 2 -18.5 2.5t-26.5 2.5l-43 2l6 84l41 -2l45 -5q0 16 -1 34t-1 36l-4 72q0 92 33 184q10 31 34.5 69t61.5 62q35 25 75 26t70 -7h7q18 -4 37.5 -10.5t37.5 -22.5v33h84v-129q0 -20 -2 -29v-23l-82 -14q-10 27 -19 48.5t-26 39.5 q-8 10 -18 14.5t-31 10.5h-6q-53 12 -80 -4q-20 -14 -37.5 -39t-27.5 -54q-27 -78 -27 -153l4 -70q0 -18 1 -36.5t1 -37.5q10 0 22.5 1.5t24.5 1.5q23 2 40.5 3t31.5 1h41v-84h-41q-12 0 -29.5 -1t-38.5 -3q-16 0 -29.5 -1.5t-25.5 -1.5v-75h23.5t27.5 2q23 2 40.5 2h31.5 h41v-84h-41h-29.5t-38.5 -2q-16 -2 -28.5 -2h-24.5q0 -8 1 -15.5t1 -13.5q2 -23 3 -43t1 -43v-57q-2 -49 2 -93t31 -77q25 -33 51 -45q41 -16 58 -15q2 0 3 1t5 1q16 2 38.5 6.5t34.5 10.5q10 8 18.5 25.5t12.5 35.5l6 41l84 -14l-8 -41q-4 -31 -22.5 -64.5t-47.5 -52.5 q-23 -14 -52 -20t-52 -11h-8q-6 -2 -17 -2q-37 0 -88 23q-45 20 -82 67q-41 51 -47 110.5t-4 115.5v53q0 23 -1 43.5t-3 40.5q0 8 -1 15.5t-1 15.5q-8 0 -17.5 -1t-25.5 -1l-41 -2z" />
<glyph unicode="&#x2122;" horiz-adv-x="980" d="M0 1053v43q0 14 1 23t1 16v10l4 39h127q18 2 49 2h58q10 -2 24 -2h115v-137l-84 2v51q-10 0 -19.5 1t-11.5 1h-26q0 -29 -1 -56.5t-1 -54.5q-2 -51 -3.5 -102t0.5 -103q2 -37 2.5 -72.5t0.5 -72.5v-8h43v-84h-84q-10 0 -19.5 -1t-25.5 -1h-44v84h46v10v72t-2 71v105.5 t2 103.5q0 27 1 53.5t1 55.5h-19q-6 -2 -20.5 -2h-28.5q-2 -2 -2 -8v-41zM477 1100l2 82h117l10 -27l27 -61q4 -10 8 -20.5t8 -20.5q4 -12 8 -19q4 -12 9 -16l16 -45l6 16l10 27q4 16 9 28l6 13l6 18q2 10 4 16.5t6 14.5q0 2 4 10l15 39l10 27h116l3 -84h-41q2 -53 3 -119 t2 -131.5t2 -122.5t1 -94h43v-84h-41q-31 0 -41 -2h-88v84h43q0 47 -1 128t-3 171q-10 -16 -13 -29l-12 -31v-2l-4 -6h-92l-19 47q-4 12 -8 21q-4 4 -4 8v-33q0 -12 -1 -22.5t-1 -20.5q0 -6 -1 -12t-1 -12t1 -12.5t1 -14.5t1 -15.5t1 -15.5v-76.5t2 -70.5h43v-84h-41h-24.5 t-18.5 -2h-86v84h43q-2 35 -2 71.5v77.5q0 14 -2 23q0 10 -1 19t-1 20q2 8 2 24q0 10 1 19.5t1 19.5v195z" />
<glyph unicode="&#x25fc;" horiz-adv-x="860" d="M0 0v860h860v-860h-860z" />
</font>
</defs>
</svg>
