<?xml version="1.0" standalone="no"?>
<!DOCTYPE svg PUBLIC "-//W3C//DTD SVG 1.1//EN" "http://www.w3.org/Graphics/SVG/1.1/DTD/svg11.dtd" >
<svg xmlns="http://www.w3.org/2000/svg">
<metadata></metadata>
<defs>
<font id="enyo_serif_regularregular" horiz-adv-x="612" >
<font-face units-per-em="2048" ascent="1536" descent="-512" />
<missing-glyph horiz-adv-x="260" />
<glyph unicode="&#xfb01;" horiz-adv-x="716" d="M-2 698l2 64l31 -2q14 -2 27.5 -2h27.5q-2 20 -1 37.5t1 29.5v9l-4 73q0 16 -1 32.5t-1 33.5q0 20 1 38.5t3 35.5v10q4 27 9 55.5t28 52.5q35 39 78 43t80 0h16t25.5 -1t24.5 -1h17h31v-61h-31h-16h-26.5t-26.5 1t-19 1q-39 4 -64.5 1t-43.5 -24q-10 -14 -13 -31.5 t-6 -39.5q-2 -4 -2 -11q-2 -16 -3 -33.5t1 -33.5v-32.5t2 -33.5q0 -18 1 -36.5t1 -36.5v-9v-29.5t3 -37.5q8 0 15 1t17 1q25 0 50.5 1t52.5 1h30v-62h-30q-25 0 -50.5 -1t-50.5 -3h-34l6 -307l4 -92q0 -29 1 -53.5t1 -48.5q0 -47 -1 -84t-3 -62h69h31v-63h-127 q-20 0 -41.5 -1t-56.5 -1h-31v63h92q2 23 4 62t0 86v47t-2 53q0 23 -1 46.5t-1 47.5l-6 305h-8h-25.5t-25.5 2h-31zM412 791v61h57q25 2 49 0l27 -2l2 -27q4 -80 6 -142.5t3 -112.5t0 -94t-3 -89q-2 -66 -3 -143.5t1 -192.5h59v-61h-73q-20 0 -38 1t-42 -3l-31 -2l-6 61 l31 4q10 0 19 1t17 1q-2 115 0 193t5 143q0 43 1 84t1 88t-2.5 103.5t-6.5 128.5h-73zM483 1087v31q0 18 2 29v53h64v-31q0 -8 -1 -14t-1 -14q0 -6 -1 -11.5t-1 -11.5v-31h-62z" />
<glyph unicode="&#xfb02;" horiz-adv-x="706" d="M-2 698l2 64l31 -2q14 -2 27.5 -2h27.5q-2 20 -1 37.5t1 29.5v9l-4 73q0 16 -1 32.5t-1 33.5q0 20 1 38.5t3 35.5v10q4 27 9 55.5t28 52.5q35 39 78 43t80 0h16t25.5 -1t25.5 -1h19h30q37 2 69 2t44 -2l27 -2l2 -26q10 -166 10 -334t-4 -334q-2 -115 -3 -229.5t1 -231.5 h8h78v-61h-80q-33 0 -67 1t-60 -3l-33 -2l-4 61l31 4q14 0 30.5 1t32.5 1q-2 117 0 230.5t4 230.5q2 158 3 316.5t-7 316.5h-112h-16.5h-27t-27.5 1t-20 1q-39 4 -64.5 1t-43.5 -24q-10 -14 -13 -31.5t-6 -39.5q-2 -4 -2 -11q-2 -16 -3 -33.5t1 -33.5v-32.5t2 -33.5 q0 -18 1 -36.5t1 -36.5v-9v-29.5t3 -37.5q8 0 15 1t17 1q27 0 52.5 1t52.5 1h30v-62h-30q-27 0 -52.5 -1t-50.5 -3h-34l6 -307l4 -92q0 -29 1 -53.5t1 -48.5q0 -47 -1 -84t-3 -62h69h31v-63h-127q-20 0 -41.5 -1t-56.5 -1h-31v63h92q2 23 4 62t0 86v47t-2 53q0 23 -1 46.5 t-1 47.5l-6 305h-8h-25.5t-25.5 2h-31z" />
<glyph unicode="&#xfb03;" horiz-adv-x="1058" d="M-2 698l2 64l31 -2q14 -2 27.5 -2h29.5q-2 23 -2 39v30v7l-4 73v32.5t-2 33.5q0 20 1 38.5t3 35.5v10q4 27 9 54.5t28 53.5q35 39 78 43t80 0l32 -2l-6 -61l-31 2q-39 4 -63.5 1t-42.5 -24q-12 -14 -15 -31.5t-6 -39.5q0 -4 -1 -6.5t-1 -4.5q-2 -16 -3 -33.5t1 -33.5 v-32.5t2 -33.5q0 -18 1 -36.5t1 -38.5v-7v-29.5t3 -39.5h38h13q10 0 21 1t24 3q20 2 40.5 3t41.5 -3q25 -4 49 -4h51q-2 23 -2 39v30v7v36.5t-2 36.5q0 16 -1 32.5t-1 33.5q0 20 1 38.5t3 35.5v10q2 27 7 54.5t28 53.5q35 39 78 43t82 0h16t25.5 -1t25.5 -1h19h30v-61h-30 h-17.5h-28t-26.5 1t-19 1h-2q-37 4 -62.5 1t-43.5 -24q-12 -14 -14 -31.5t-7 -39.5v-11q-2 -16 -3 -33.5t-1 -33.5q2 -16 2 -32.5v-33.5l4 -75v-7v-29.5t3 -37.5h15t17 2q25 0 51.5 1t53.5 1h30v-62h-30q-27 0 -52.5 -1t-50.5 -3q-10 0 -17 -1t-17 -1l6 -305q0 -23 1 -46 t1 -46l4 -102q0 -47 -2 -85t-2 -63q12 0 28.5 1t38.5 1h33v-63h-121q-16 -2 -36.5 -2h-55.5h-31v61h31h49q2 25 3 64t1 86v47t-2 53q0 23 -1 46.5t-1 47.5l-6 305h-54.5t-53.5 4q-16 2 -34 1t-36 -3q-12 0 -25.5 -1t-25.5 -1h-51l6 -305l4 -92q0 -29 1 -54.5t1 -47.5 q0 -47 -1 -84t-3 -64q10 0 23.5 1t31.5 1h31v-63h-121q-16 -2 -35.5 -2h-54.5h-31v61h31h63q0 25 2 64t0 86v47t-2 53q0 23 -1 46.5t-1 47.5l-6 305h-29.5t-29.5 2h-31zM754 788v64h57q25 2 49 0l27 -2l2 -27q4 -80 6 -142.5t2 -112.5t-1 -94t-1 -89q-2 -66 -4 -143.5 t0 -192.5h61v-61h-73h-38t-44 -2l-31 -2l-4 61l31 2q10 2 19 2h17q-2 117 -1 195t6 143q0 43 1 84t1 88t-2.5 103.5t-6.5 128.5h-14q-6 0 -13 -1.5t-16 -1.5h-30zM825 1087v60q2 8 2 22v31h62v-59q-2 -8 -2 -23v-31h-62z" />
<glyph unicode="&#xfb04;" horiz-adv-x="1050" d="M-4 698l4 64l31 -2q14 -2 27.5 -2h27.5q-2 23 -2 39v30v7v36.5t-2 36.5q0 16 -1 32.5t-1 33.5q0 20 1 38.5t3 35.5v10q4 27 9 55.5t28 52.5q35 39 77 43t81 0l30 -2l-4 -61l-33 2q-37 4 -62.5 1t-43.5 -24q-10 -14 -13 -31.5t-8 -39.5v-11q-2 -16 -3 -33.5t-1 -33.5 l4 -66q0 -18 1 -36.5t1 -36.5v-9v-29.5t3 -39.5h36l15 2h21t24 2q20 2 39.5 3t42.5 -1q49 -6 100 -6q-2 23 -2 40v29v7q0 18 -1 36.5t-1 36.5q-2 16 -2 32.5v33.5q-2 20 -1 38.5t3 35.5q2 4 2 10q2 25 7 51.5t28 50.5q35 39 76 46t84 3h16t25.5 -1t25.5 -1h19h30q37 2 69 2 t44 -2l29 -2v-26q10 -166 10 -334t-4 -334q-2 -115 -3 -229.5t1 -231.5h8h80v-61h-80q-35 0 -69 1t-60 -3l-31 -2l-6 61l31 4q14 0 30.5 1t34.5 1q-2 117 -1 230.5t3 230.5q2 158 3 316.5t-7 316.5h-112h-17.5h-28t-26.5 1t-19 1q-37 4 -63.5 -1t-44.5 -28 q-12 -12 -15.5 -27.5t-5.5 -39.5v-9q-2 -16 -3 -33.5t-1 -33.5t1 -32.5t1 -33.5q2 -18 2 -36.5v-36.5l2 -9v-67h15.5t17.5 2q27 0 52.5 1t52.5 1h32v-62h-32q-25 0 -50.5 -1t-50.5 -3q-10 0 -18 -1t-19 -1l9 -305q0 -23 1 -46t1 -46q2 -29 2 -53.5v-48.5q0 -47 -1 -84 t-3 -62h69h31v-63h-121q-16 0 -35.5 -1t-54.5 -1h-31v63h80q2 23 3 62t1 86q0 23 -1 47t-1 53l-4 94l-6 305h-53.5t-52.5 4q-16 4 -34 3t-38 -3q-12 -2 -24.5 -3t-24.5 -1h-51l6 -305q0 -23 1 -46t1 -46l4 -102q0 -47 -2 -84t-2 -62h55h31v-63h-121q-16 0 -35.5 -1t-54.5 -1 h-33v63h94q2 23 3 62t1 86v47t-2 53q0 23 -1 46.5t-1 47.5l-6 305h-30.5t-28.5 2h-33z" />
<glyph horiz-adv-x="2048" />
<glyph horiz-adv-x="2048" />
<glyph unicode="&#xd;" horiz-adv-x="2048" />
<glyph unicode=" "  horiz-adv-x="260" />
<glyph unicode="&#x09;" horiz-adv-x="260" />
<glyph unicode="&#xa0;" horiz-adv-x="260" />
<glyph unicode="!" horiz-adv-x="241" d="M45 1141l2 30l64 -2l-2 -32q-4 -49 0 -100.5t10 -104.5q4 -39 7 -79t3 -81q0 -33 1 -64.5t3 -62.5q0 -39 1 -79t1 -81v-47t2 -49q2 -31 3 -65.5t1 -71.5v-31h-63v31q0 37 -1 69.5t-1 63.5q-2 29 -3 53.5t-1 46.5v80t-2 80q0 31 -1 62.5t-1 64.5q0 37 -4.5 76t-8.5 78 q-4 53 -9 107t-1 108zM80 -12v92h63v-92h-63z" />
<glyph unicode="&#x22;" horiz-adv-x="301" d="M0 1066v43v54v31h61v-31v-54.5v-42.5t1 -40.5t1 -48.5l3 -31l-64 -2v31q0 29 -1 50.5t-1 40.5zM141 1163v31h64v-31v-40.5t2 -51.5q2 -29 2 -53.5v-40.5v-33h-62v33q0 14 -1 38.5t-1 53.5q-2 29 -3 53.5t-1 40.5z" />
<glyph unicode="#" horiz-adv-x="1017" d="M0 367v63h137h113v178v53t2 70q-53 2 -107.5 4t-113.5 2h-31v62h31q59 0 115.5 -2t109.5 -4q2 14 2 25v22q0 53 -1 90t-3 74q-2 31 -3 65.5t-1 81.5v31h61v-31q0 -47 1 -81t3 -64q4 -37 5.5 -76t-1.5 -92v-21.5t-2 -25.5q51 -4 104.5 -4.5t108.5 -0.5h45.5t45.5 2 q0 90 -1.5 180.5t-1.5 182.5v31h62v-31q0 -92 1 -181t1 -177h15.5t17.5 2q47 4 95 6t93 2h31v-64h-31q-43 0 -90 -2t-94 -6l-37 -4q0 -76 1 -151.5t1 -153.5l82 6q35 2 67.5 4t67.5 2h33v-61h-31q-35 0 -67.5 -2t-65.5 -4l-86 -7v-51q0 -23 -1 -42t-3 -40q-2 -20 -3 -37.5 t-1 -35.5q0 -16 1 -32t3 -32t3 -34.5t1 -35.5v-32h-61v32q0 16 -1 32t-4 32q-2 16 -4 34.5t-2 37.5l6 75q2 20 3.5 39t1.5 39v49h-7q-16 0 -29.5 1t-27.5 1q-127 6 -248 7v-52q0 -43 1 -86t3 -84q0 -31 1 -62.5t1 -62.5v-30l-61 -2l-2 30v64t-2 61q-2 41 -2 85v87v52h-113 h-137zM311 430q61 -2 125 -3t127 -5q16 -2 29.5 -2h30.5q-2 78 -2 153.5v151.5q-23 -2 -44.5 -2h-44.5h-2q-57 0 -110 1t-107 3q-2 -35 -2 -67.5v-51.5v-178z" />
<glyph unicode="$" horiz-adv-x="503" d="M0 -23l2 31q2 14 2 27.5v27.5v50l2 10q2 29 2 54.5t-4 51.5l62 9q6 -47 26 -88q10 -23 31.5 -50.5t46.5 -44.5q0 84 1 167t3 167l2 74q0 31 1 60.5t1 60.5q-14 18 -26.5 35.5t-22.5 35.5l-10 15q-23 35 -44.5 69.5t-33.5 75.5l-10 35q-4 20 -8 33q-31 92 8 184 q18 45 50 74.5t71 40.5q16 4 26 4q-2 41 -3 79t-1 78v31l62 2l2 -30l4 -166q18 -4 36.5 -15.5t36.5 -25.5l23 -21q2 10 2 18.5v18.5v31h61v-74q-2 -29 -2 -56.5t7 -49.5l-60 -19q-10 35 -38.5 72t-65.5 53v-250t-2 -258l14 -18q41 -57 74.5 -108.5t58.5 -110.5 q23 -51 25 -98.5t-2 -96.5q-2 -53 -19.5 -79.5t-52.5 -61.5q-18 -18 -46 -34.5t-61 -21.5q2 -35 4.5 -68.5t6.5 -68.5l4 -49l-62 -6l-4 49q-4 37 -7 75t-3 77q-33 12 -59.5 37.5t-44.5 54.5v-72l-5 -31zM82 903q4 -10 6 -20.5t4 -20.5q4 -20 8 -28q10 -35 30 -67t40 -62 l8 -15q2 221 0 434q-4 0 -5 -1t-5 -1q-25 -8 -46.5 -27.5t-33.5 -50.5q-29 -72 -6 -141zM231 39q16 4 34 14.5t30 20.5q29 31 40 48t13 54q2 45 0 85t-18 81q-18 41 -41 80t-51 80v-41l-2 -74q0 -86 -1.5 -173t-3.5 -175z" />
<glyph unicode="%" horiz-adv-x="1036" d="M0 985v8q0 29 8 63t26.5 61.5t46.5 47t66 21.5h3q119 0 184 -72q59 -66 63 -184q0 -141 -90 -197q-39 -22 -84 -22q-33 0 -66.5 10t-60.5 29q-37 25 -56.5 51t-28.5 56t-10 61.5t-1 66.5zM61 985q2 -66 10.5 -107.5t59.5 -74.5q18 -14 44 -21.5t48 -7.5q29 0 51 12 q61 37 60 144q0 33 -7.5 67.5t-27.5 62t-56 46t-93 18.5q-25 -2 -41.5 -17t-27.5 -35.5t-15.5 -42t-4.5 -36.5v-8zM90 -80l12 29q78 162 144.5 293t136.5 262q43 82 87 169t95 185q10 18 29.5 60.5t44.5 98.5t50.5 121.5t47.5 133.5l8 31l60 -19l-10 -31q-23 -70 -48.5 -137 t-50 -124.5t-45 -99.5t-30.5 -63q-51 -98 -95.5 -185t-87.5 -169q-70 -131 -136 -261t-144 -292l-13 -28zM520 268q0 143 90 197q39 23 84 22q68 0 127 -38q37 -25 56.5 -51.5t28.5 -56.5t10.5 -61.5t1.5 -66.5v-8q0 -29 -8.5 -62.5t-27 -61.5t-46 -47.5t-66.5 -21.5h-2 q-119 0 -184 72q-63 70 -64 184zM584 268q0 -33 7 -67.5t27.5 -62t56.5 -46t93 -18.5q25 2 41 17t27.5 35.5t15.5 42t4 36.5v8q-2 66 -10 107.5t-60 76.5q-20 12 -44.5 20.5t-47.5 8.5q-27 0 -51 -14q-61 -37 -59 -144z" />
<glyph unicode="&#x26;" horiz-adv-x="638" d="M0 283v57q-4 78 12.5 132t50.5 91q10 10 21.5 18.5t24.5 14.5q-35 23 -58 57q-49 72 -51 199q0 47 2 91t18 91q10 31 35 68t60 61q35 23 72.5 24t66.5 -7l6 -2q25 -4 48.5 -13.5t43.5 -34.5v50h62v-88q2 -10 2 -33q0 -8 -1 -14.5t-1 -14.5q0 -6 -1 -12t-1 -12l-60 -11 q-18 57 -47 95q-10 12 -22.5 17t-34.5 11l-8 2q-16 4 -43 5t-47 -13q-20 -16 -40 -43t-30 -55q-14 -41 -16.5 -78t-0.5 -82v-2q0 -106 39 -164q43 -63 140 -63l88 4l4 -62l-92 -4q-90 0 -133 -43q-49 -57 -48 -178v-59q-2 -53 3.5 -99.5t33.5 -83.5q25 -31 58 -47 q39 -20 63 -16l37 4q14 0 30.5 1t26.5 5q8 4 17.5 12.5t19.5 16.5l10 10q23 20 35.5 48t16.5 58.5t4 63.5t-2 68q-2 14 -2 27.5v27.5q-12 -2 -25 -2h-27h-30v61h30q23 0 38.5 2t31.5 4q23 4 43.5 6.5t42.5 -1.5l31 -5l-8 -61l-31 4q-18 4 -35 0q0 -14 1 -29.5t1 -31.5 q2 -37 3 -76t-6 -76t-23.5 -71.5t-47.5 -63.5l-8 -8q-12 -10 -26.5 -22.5t-30.5 -18.5t-35.5 -8t-40.5 -5h-18.5t-14.5 -2h-14q-41 0 -84 21q-41 20 -80 65q-41 51 -46 109.5t-3 112.5z" />
<glyph unicode="'" horiz-adv-x="159" d="M0 1163v31h63v-31v-40.5t3 -51.5q2 -29 2 -53.5v-40.5v-33h-62v33q0 14 -1 38.5t-1 53.5q-2 29 -3 53.5t-1 40.5z" />
<glyph unicode="(" horiz-adv-x="331" d="M5 544.5q1 104.5 5 209.5q2 16 2 32.5t2 32.5v25q4 66 9.5 122t31.5 121q2 4 3 10.5t5 12.5q16 41 37 83t66 67l27 14l30 -53l-28 -17q-29 -16 -44.5 -47t-29.5 -70q-2 -4 -4 -11t-4 -13q-23 -55 -28 -107.5t-7 -113.5q-2 -8 -2 -25q0 -16 -1 -33.5t-1 -33.5 q-6 -100 -7 -203t15 -201q2 -12 3 -25.5t3 -25.5q2 -16 3 -31.5t5 -30.5q2 -8 6 -28q12 -72 33 -140.5t72 -101.5l26 -16l-32 -53l-27 16q-35 20 -56.5 53t-36.5 72t-24.5 80t-15.5 78q-4 20 -6 28q-4 16 -5 32.5t-3 33.5q-2 14 -3 25.5t-4 23.5q-16 104 -15 208.5z" />
<glyph unicode=")" horiz-adv-x="331" d="M-12 -49l28 14q41 18 80 70q23 29 29 66.5t8 78.5q2 16 2 30.5t4 31.5q10 90 12.5 175t2.5 169v14v26.5t-2 26.5v59.5t2 59.5q2 53 -7.5 106.5t-19.5 106.5q-4 12 -6 25.5t-4 25.5q-27 135 -90 168l-27 15l29 55l26 -14q90 -45 121 -211q4 -12 6 -25.5t6 -26.5 q10 -55 20.5 -111.5t6.5 -115.5q-2 -29 -1 -58.5t1 -58.5v-53v-14q0 -86 -2 -173t-12 -180q-2 -14 -3 -27t-1 -30q-4 -47 -11.5 -93t-40.5 -87q-47 -61 -102 -88l-29 -12z" />
<glyph unicode="*" horiz-adv-x="401" d="M0 997l27 17l10 6q12 6 24.5 12t28.5 10q2 0 3 1t3 1l-8 9q-10 4 -18.5 9t-18.5 11q-4 0 -12 4l-27 15l29 55l29 -14q4 -4 10 -5q10 -6 20.5 -11t20.5 -13l8 -4v57v31h61v-31v-65q4 0 13 4q31 8 55 24l27 17l32 -52l-24 -16q-14 -10 -28.5 -17.5t-31.5 -13.5l41 -24 l41 -25l-32 -53l-41 27q-14 8 -27.5 15t-28.5 17l4 -22q2 -10 2.5 -22.5t0.5 -26.5v-31l-64 2l2 31q0 10 -1 20t-1 21l-4 22l-21 -8q-10 -2 -18 -6t-18 -10l-11 -7l-26 -14z" />
<glyph unicode="+" horiz-adv-x="518" d="M0 565v62h49h62.5t66.5 -2v39q2 27 2 54v54v31h62v-139v-43q20 0 39.5 1t40.5 1q16 2 33.5 2h33.5h33v-62h-33q-16 0 -32.5 -1t-32.5 -1t-30.5 -1t-31.5 -1h-22v-6q0 -16 1 -33.5t1 -34.5q0 -16 1 -34.5t1 -36.5v-31h-64v100q-2 16 -2 35v35v10q-33 2 -64.5 2h-64.5h-49z " />
<glyph unicode="," horiz-adv-x="196" d="M-1 30.5q1 10.5 1 14.5v29l29 2h43l26 -2l2 -27v-37q0 -8 -2 -40.5t-8 -63.5l-8 -31l-59 14l6 31q4 16 6 33.5t2 32.5h-37v28q-2 6 -1 16.5z" />
<glyph unicode="-" horiz-adv-x="454" d="M0 563v62h31h92q23 0 45 -1t45 -1q14 0 27.5 1t29.5 1q14 0 27.5 1t30.5 1h30v-64h-30h-56q-16 -2 -29.5 -2h-29.5h-92q-23 2 -45.5 2h-44.5h-31z" />
<glyph unicode="." horiz-adv-x="196" d="M0 -14v28v31v31h29h28h15h26l2 -29v-31v-30h-30h-9h-14h-18h-29z" />
<glyph unicode="/" horiz-adv-x="577" d="M-2 -96l8 30q53 162 97 292t90 263q29 82 58.5 168t61.5 187q6 18 20.5 60t31 98.5t33 123t30.5 134.5l6 30l62 -14l-7 -29q-14 -70 -31.5 -137.5t-33.5 -124.5t-30.5 -99t-20.5 -63q-35 -98 -63.5 -185t-57.5 -169q-47 -131 -90 -262t-96 -291l-9 -31z" />
<glyph unicode="0" horiz-adv-x="575" d="M0 567v13q0 68 2 130t8 124q4 53 15.5 108t42.5 107q8 16 10 26q4 10 8 21.5t12 23.5q27 33 72 51q18 6 37.5 10.5t38.5 4.5q49 0 90 -23q37 -20 60.5 -51t38 -67.5t20.5 -74.5t8 -73q6 -109 8 -223.5t2 -243.5q0 -12 1 -25.5t1 -29.5q2 -49 1 -105.5t-13 -108.5 t-40 -96.5t-81 -68.5q-41 -21 -96 -21q-45 0 -84 13q-61 20 -81 60t-28 81q-2 6 -3 13.5t-3 13.5q-25 90 -36 189t-11 222zM63 567q0 -117 10.5 -213t32.5 -182l3.5 -14t3.5 -15q10 -41 21 -63.5t46 -32.5t66 -10q18 0 35.5 4t33.5 10q39 18 59.5 54t30 80t9.5 93.5v94.5 q-2 16 -2 29.5v27.5q0 129 -3 242.5t-8 220.5q-2 25 -6 55.5t-15 61t-28.5 56.5t-46.5 42q-22 14 -59 14q-33 0 -56 -10q-27 -10 -40 -31q-4 -4 -6.5 -11t-6.5 -15q-4 -10 -7 -18.5t-9 -18.5q-25 -43 -35 -93.5t-14 -97.5q-6 -59 -7.5 -119.5t-1.5 -127.5v-13z" />
<glyph unicode="1" horiz-adv-x="491" d="M0 842l23 22q18 23 33.5 49.5t31.5 55.5q12 27 31 55l22 35q16 27 38 60.5t26 60.5h63q4 -74 5 -145.5t3 -143.5v-44.5t3 -43.5q2 -92 1 -180t-4 -172q-2 -16 -1 -35t1 -37q0 -16 1.5 -30.5t-1.5 -31.5q0 -16 -1 -33.5t-3 -33.5t-3 -30.5t-1 -31.5v-141h19.5t19.5 2 q23 2 47.5 2h48.5l31 -2l-4 -61h-31q-23 2 -45 1t-45 -3q-14 0 -27.5 -1t-27.5 -1h-16q-27 0 -50.5 1t-50.5 3q-14 0 -29.5 1t-31.5 1l-31 2l2 61h31l63 -4q16 -2 31.5 -3t32.5 -1v143q0 35 6 70q2 16 3 30.5t1 28.5v62q-2 16 -2 35.5v36.5q4 86 5 173t-3 179v86 q-2 41 -3 81t-1 81l-18 -27l-21 -33l-31 -53q-16 -29 -33.5 -59.5t-39.5 -55.5l-23 -24z" />
<glyph unicode="2" horiz-adv-x="512" d="M0 -14v28q0 47 2 84t8 72q4 12 6 23.5t7 21.5q2 10 6 27q6 25 14 51t18 55q8 16 15.5 32.5t15.5 33.5q6 12 12.5 23.5t10.5 23.5q16 37 32 63q12 25 23.5 49.5t19.5 51.5q12 35 27.5 69.5t32.5 69.5q6 10 12 21.5t10 23.5q25 49 43 104q8 23 10.5 42.5t0.5 45.5v17 q0 16 -1 28.5t-12 24.5l-2 4q-10 16 -20 25q-29 18 -64 22q-18 2 -41.5 3t-46.5 -3q-18 -4 -30.5 -14t-18.5 -21q-16 -23 -20 -38q-6 -25 -7 -60v-33l-61 2v31q0 43 8 74q8 33 29 61q35 49 90 60q43 6 102 0q51 -4 95 -33q14 -10 22 -21.5t14 -21.5l5 -2q16 -23 18 -44.5 t4 -43.5v-12q2 -61 -14 -111q-10 -31 -22.5 -58.5t-24.5 -54.5q-4 -12 -10.5 -24.5t-10.5 -22.5q-37 -66 -57 -129q-10 -31 -22.5 -57.5t-24.5 -52.5q-10 -16 -16.5 -29.5t-14.5 -30.5q-4 -14 -11 -26.5t-14 -22.5q-8 -16 -15 -30.5t-13 -30.5q-10 -25 -17.5 -50.5 t-13.5 -48.5q-2 -10 -6 -26q-4 -10 -5 -21.5t-5 -21.5q-4 -25 -6.5 -51.5t-4.5 -61.5h32t30 2q16 2 32.5 3t39.5 -1h47q31 0 59.5 -1t58.5 1v55l-2 31l64 2v-31q2 -29 2 -40t-4 -33v-19l-4 -26h-27q-76 -2 -147 0h-47q-20 0 -36 -1t-32 -1q-14 -2 -29.5 -3t-31.5 -1 q-10 0 -18.5 1t-18.5 1z" />
<glyph unicode="3" horiz-adv-x="526" d="M6 121l60 22l10 -28q20 -51 54 -61.5t71 -14.5h2q39 -4 63.5 3t41 23.5t26.5 40t22 54.5l11 28q14 37 19 70t3 65.5t-9 65.5t-15 68l-13 59q-8 41 -27.5 71.5t-43 52.5t-47 36t-41.5 24q-25 12 -35 23v43l61 74q10 12 17.5 25.5t15.5 29.5l18 35q8 14 15.5 30.5 t15.5 32.5q16 31 31.5 62.5t34.5 58.5q-16 0 -34 -1t-34 -3q-10 -2 -21.5 -3t-21.5 -1q-27 -2 -46.5 -3t-39.5 -1t-43 1t-53 1v-74h-64v139l33 -2q43 -2 70.5 -3t50 -1t42 1t48.5 3l39 4q37 4 75 5.5t72 -9.5v-61q-25 -23 -45 -62.5t-37 -76.5q-10 -18 -17 -36t-17 -32 l-17 -31q-8 -16 -17 -33.5t-24 -33.5l-39 -49q20 -10 48 -27.5t54.5 -44.5t50 -63.5t34.5 -88.5l12 -57q18 -76 24.5 -146.5t-26.5 -158.5q-4 -6 -5 -13.5t-5 -15.5q-10 -29 -22.5 -57.5t-33 -51t-52.5 -38t-79 -15.5h-32q-18 2 -43 6.5t-49.5 16.5t-47 33.5t-37.5 60.5z " />
<glyph unicode="4" horiz-adv-x="522" d="M0 479v47q20 37 39.5 78t38.5 80l43 90q20 37 38.5 76t35.5 76l20 43l10 24q10 27 30.5 71t53.5 105l4 9h54l2 -21q4 -100 4 -196.5v-182.5q-2 -61 -4 -122.5t-7 -120.5v-3h84v-61h-88q0 -18 -1 -36.5t-1 -37.5q-4 -53 -2 -105t6 -104q4 -41 6.5 -84t2.5 -86v-30h-62v30 q0 41 -2 83t-6 83q-4 53 -6 107.5t0 107.5l4 70h-14q-61 -2 -115.5 -2t-144.5 10zM76 535q66 -4 109.5 -5.5t95.5 0.5h18q0 2 1 4.5t1 4.5q4 59 6 119.5t2 121.5v248q-10 -18 -16 -33.5t-10 -25.5l-13 -27l-18 -41q-18 -39 -36.5 -78t-39.5 -78l-41 -88z" />
<glyph unicode="5" horiz-adv-x="477" d="M4 682l4 33q4 35 4 49t2 24q0 4 1 7.5t1 7.5q2 23 4.5 37t6.5 28q2 10 3 19.5t3 23.5q2 6 2 14.5v16.5v19.5t2 19.5t3 19.5t3 17.5t3 16t3 17q4 23 6 47t6 47l2 24l25 2q33 4 61.5 5.5t57.5 1.5h2q6 0 16.5 -1t26.5 -1q8 -2 13 -2h9h11q23 -2 37 -2.5t43 2.5h30l2 -62 l-30 -2q-29 -2 -45.5 -1t-38.5 1l-13 2h-22q-10 2 -22.5 3t-16.5 -1h-2h-42t-44 -2q-4 -16 -6 -35.5t-4 -36.5q-2 -8 -3.5 -16t-3.5 -16q-2 -10 -3 -17.5t-3 -17.5v-15.5t-2 -17.5v-19.5t-2 -19.5q-2 -14 -4 -23.5t-4 -19.5q-2 -14 -4 -27.5t-4 -33.5q0 -10 -2 -15 q0 -8 -1 -16t-3 -25h12q10 0 16 -1t17 -1q84 0 162 -61q14 -10 23 -23.5t20 -25.5q8 -8 10 -13q12 -16 25.5 -34.5t23.5 -40.5q29 -68 33 -135v-33v-13v-16q2 -59 -2 -123.5t-39 -122.5q-14 -23 -44 -57.5t-75 -52.5q-26 -11 -53 -11q-16 0 -32.5 4.5t-33.5 8.5q-6 2 -11 3 t-11 3q-63 16 -93 100l-10 29l58 20l10 -28q6 -16 17 -36t34 -26q16 -4 23 -6q25 -6 41 -9t36 5q51 23 90 86q29 45 32 102.5t1 110.5v14v15v30q-2 27 -8 54.5t-20 56.5q-8 18 -19.5 34.5t-21.5 29.5q-2 6 -11 14q-8 10 -15 20.5t-17 18.5q-20 16 -52 31.5t-71 15.5 q-25 0 -35 2h-43z" />
<glyph unicode="6" horiz-adv-x="514" d="M0 395q2 41 3 81t5 75v29q2 16 2 33.5t4 33.5v4q4 23 8.5 49.5t10.5 49.5l4 20q16 53 31.5 108.5t37.5 108.5q23 57 56 112.5t88 84.5l26 14l29 -55l-26 -15q-41 -23 -68 -69.5t-47 -93.5q-23 -51 -37 -104.5t-29 -106.5l-6 -21q-10 -45 -16 -90v-4q0 -6 -1 -12t-1 -13 q29 31 57 43q47 23 92 18t74 -22q45 -20 65 -51q4 -6 6.5 -11t6.5 -11t8 -12.5t8 -12.5q14 -23 21.5 -40t13.5 -38q12 -47 12 -102q4 -80 -4 -165t-67 -161q-29 -35 -70 -54.5t-84 -19.5q-39 0 -74 15q-18 10 -31.5 23.5t-23.5 27.5l-4 8q-18 23 -29.5 43.5t-19.5 42.5 q-6 18 -9.5 38t-5.5 38q-2 6 -2 12t-2 13q-4 16 -5 30.5t-3 30.5q-2 23 -3 47.5t-1 50.5zM63 348q0 -22 3 -45q2 -14 3 -27.5t5 -29.5q2 -8 2 -14.5t2 -12.5q2 -35 12 -65q10 -33 39 -68q2 -2 3 -4t3 -4q8 -10 14.5 -18.5t16.5 -12.5q37 -16 81 -5t72 46q47 61 54.5 135 t3.5 150q0 47 -12 88q-4 16 -9.5 29.5t-15.5 27.5l-18 31q-8 12 -13 20q-4 4 -12 11.5t-29 17.5q-16 8 -47 13t-63 -9q-59 -27 -88 -131l-7 -25v-51v-47z" />
<glyph unicode="7" horiz-adv-x="464" d="M0 1044v136h31q25 0 50 -1t52 -1q29 -2 55.5 -3t51.5 -1h88q41 2 49 2h16h25v-64l-17 -61q-6 -23 -13 -48.5t-13 -49t-10.5 -40t-4.5 -22.5q-10 -55 -24 -103q-8 -31 -15.5 -61.5t-11.5 -60.5q-6 -53 -11 -107.5t-11 -114.5q-10 -117 -23.5 -231.5t-30.5 -206.5l-6 -31 l-61 13l6 30q16 92 28.5 204t24.5 229q4 57 10.5 113.5t12.5 109.5q4 35 11 66.5t17 64.5q6 25 12.5 49.5t10.5 46.5l43 166q4 12 6 23.5t4 21.5h-22q-16 -2 -33.5 -1t-34.5 1h-22q-27 0 -53.5 1t-55.5 1q-16 2 -34.5 2h-35.5v-72h-61z" />
<glyph unicode="8" horiz-adv-x="507" d="M-1 246.5q1 60.5 17 113.5q6 23 19.5 42.5t27.5 37.5l21 31q20 33 41.5 64.5t50.5 66.5q4 8 8 10q-35 45 -61.5 83t-50.5 75q-14 23 -21.5 48.5t-13.5 47.5q-2 10 -4 19.5t-4 17.5q-25 82 12 166q39 92 125 115q10 2 20.5 3t24.5 1h27q23 -2 41 -5t34 -14q39 -18 62 -51 q18 -25 31 -49q20 -47 14 -100.5t-14 -96.5q-10 -53 -39 -103t-56 -85l-8 -10q-10 -16 -20.5 -30.5t-20.5 -31.5l8 -10q35 -43 76 -105.5t70 -127.5q41 -96 27.5 -186.5t-78.5 -151.5q-25 -23 -76 -43q-35 -13 -66 -13t-53 9q-10 4 -39 15t-51 32q-18 18 -39 42.5t-29 59.5 q-14 53 -13 113.5zM62.5 246q-1.5 -51 9.5 -99q4 -23 18 -38t33 -33q10 -10 27.5 -18.5t35.5 -14.5t37 -6q10 0 21.5 2t21.5 6q27 10 39 18.5t17 12.5q31 29 45 62.5t16 69.5t-5 70.5t-20 65.5q-27 59 -64.5 117.5t-70.5 99.5q-27 -33 -47 -62.5t-39 -60.5q-12 -18 -24 -35 q-10 -16 -21.5 -31.5t-15.5 -29.5q-12 -45 -13.5 -96zM88 922l10 -41q4 -23 10.5 -42.5t16.5 -35.5q20 -31 44 -64.5t52 -72.5l33 43l8 12q23 33 47.5 76t34.5 88q8 37 13 81t-9 78q-4 10 -9 18.5t-13 18.5q-14 18 -41 33q-10 4 -21.5 7t-27.5 3h-5q-8 2 -20 2q-14 0 -31 -4 q-55 -12 -84 -78q-27 -61 -8 -122z" />
<glyph unicode="9" horiz-adv-x="507" d="M0 932q0 57 31 149q8 23 22.5 47.5t46.5 40.5q37 18 88.5 18.5t92.5 -18.5q43 -23 75.5 -62.5t42.5 -84.5q6 -37 7 -70q2 -10 2 -24q2 -29 4 -54.5t6 -54.5q2 -4 2 -9t2 -11q4 -35 1 -72t-7 -74q-4 -16 -4 -28q-18 -168 -78 -338q-4 -16 -8 -25q-12 -35 -27.5 -78 t-38 -83t-52.5 -73.5t-71 -52.5l-28 -12l-27 55l29 15q33 14 57.5 42.5t42.5 63.5t32.5 73t24.5 71q4 16 8 24q18 53 33 107.5t25 107.5q-31 -10 -61.5 -9t-58.5 8t-50.5 17.5t-40.5 20.5l-4 2q-53 29 -71.5 70t-27.5 86l-2 12q-8 51 -14 101.5t-4 101.5zM61 932 q0 -47 5.5 -95.5t13.5 -97.5l2 -12q6 -41 19.5 -67.5t45.5 -43.5l5 -2q18 -10 40.5 -20t47 -15.5t51 -2t51.5 19.5l4 2q0 10 1 17.5t3 17.5q0 6 1 13t1 16q4 35 7 67.5t-1 63.5q0 12 -2 20q-4 27 -6 54.5t-4 56.5q-2 8 -2 24q0 33 -6 62q-6 31 -29.5 59.5t-54.5 42.5 q-27 14 -68 14q-35 0 -59 -12q-23 -12 -37 -51q-29 -86 -29 -131z" />
<glyph unicode=":" horiz-adv-x="196" d="M0 -14v28v31v31h29h28h15h26l2 -29v-31v-30h-30h-9h-14h-18h-29zM0 618v31v31h31h8h14h19h28v-29v-30v-31h-28h-29h-14h-27z" />
<glyph unicode=";" horiz-adv-x="196" d="M-1 30.5q1 10.5 1 14.5v29l29 2h43l26 -2l2 -27v-37q0 -8 -2 -40.5t-8 -63.5l-8 -31l-59 14l6 31q4 16 6 33.5t2 32.5h-37v28q-2 6 -1 16.5zM0 590v90h98l2 -29v-61h-100z" />
<glyph unicode="&#x3c;" horiz-adv-x="378" d="M43 621q2 0 14.5 9t28.5 21.5t32.5 23.5t26.5 17t26.5 16.5t34 19.5t30.5 16l12 8l26 16l31 -55l-26 -15q-20 -12 -41 -22q-16 -10 -33 -20.5t-25 -14.5q-10 -6 -27.5 -18.5t-33.5 -24.5q29 -18 71.5 -46t90.5 -63l26 -18l-37 -49l-24 16q-37 27 -73 51.5t-64 40.5 q-33 20 -62 37z" />
<glyph unicode="=" horiz-adv-x="516" d="M0 479v62h31h108q29 -2 55.5 -2h55.5q16 0 33.5 1t33.5 1t35 1t37 1h31v-64h-31h-70q-16 -2 -34.5 -2h-34.5h-111q-27 0 -54.5 1t-53.5 1h-31zM0 645v62h31q16 0 32.5 1t32.5 1q57 2 117 0q39 -4 78 -4h80h49v-64h-49h-19q-35 0 -71.5 1t-73.5 3q-29 4 -54.5 3t-54.5 -1 q-16 -2 -33.5 -2h-33.5h-31z" />
<glyph unicode="&#x3e;" horiz-adv-x="356" d="M0 477l29 15q16 10 31.5 17t19.5 11q18 12 50 33.5t58 40.5q-18 12 -40.5 26.5t-45 30t-43 27.5t-32.5 20l-27 15l31 55l26 -16q20 -12 53 -33t66 -42.5t57.5 -37.5t26.5 -18v-52q-2 -2 -19.5 -14t-40 -28.5t-47 -33t-38.5 -26.5q-10 -4 -32 -15.5t-28 -15.5l-26 -14z " />
<glyph unicode="?" horiz-adv-x="475" d="M0 940v31q-2 45 33 102q23 35 61 64l8 4t9 6q16 12 37.5 24.5t50.5 12.5q53 0 95 -29t66 -82q47 -94 35 -211q-4 -31 -12 -62.5t-23 -64.5l-12 -35q-10 -27 -22.5 -54.5t-38.5 -51.5q-6 -4 -19 -21l-14 -22q-27 -31 -34 -56.5t-9 -70.5q-2 -23 -1 -44.5t1 -43.5 q2 -23 2 -45.5v-44.5l-2 -31l-61 2l2 31v43t-2 43q0 23 -1.5 46t1.5 48q2 51 11 87t44 77l12 16l27 33q18 16 27.5 35.5t17.5 44.5q4 10 7 18.5t7 18.5q12 29 18.5 56.5t10.5 53.5q12 96 -27 179q-10 23 -34.5 49t-71.5 26q-14 -2 -24.5 -8t-27.5 -16q-12 -8 -18 -15 q-16 -10 -25.5 -19t-19.5 -24q-23 -41 -23 -67l2 -31zM152 -12v90h61v-90h-61z" />
<glyph unicode="@" horiz-adv-x="862" d="M42 320.5q1 82.5 1 162.5v68q0 92 8 187.5t55 179.5q25 43 64 67.5t84 34.5t91 12t87 2h12q25 0 60 -1t71.5 -10t69.5 -29.5t55 -57.5q33 -55 38 -117.5t5 -120.5v-26q2 -78 0 -156t-4 -149v-9q-2 -31 -4 -66.5t-9 -71.5t-20.5 -68.5t-37.5 -59.5q-23 -25 -58 -36t-67 -5 q-12 4 -30.5 12.5t-35.5 30.5q-12 -16 -31 -24q-20 -10 -38.5 -14.5t-28.5 -4.5l-2 -2h-12q-16 0 -32 5t-24 9q-47 23 -57 62t-12 61q-2 18 -2 36v34v43l-7 72q0 10 -1 19t-1 20q-2 23 -1 45t3 45q0 14 1 26.5t1 26.5q0 35 4.5 64.5t14.5 62.5q8 20 22.5 42.5t36.5 39.5 q23 16 47.5 15t44.5 -5h3q12 -4 24 -7t25 -13l2 26l61 -2v-31q0 -10 -1 -27.5t-1 -36.5v-36.5v-23.5v-13q0 -37 1 -64.5t0 -55t-2 -57.5t-3 -69t-2 -66.5v-55.5v-68l2 -6q4 -16 14.5 -32.5t30.5 -20.5q18 -4 36.5 3t29.5 19q35 41 43 103.5t10 121.5v9q4 72 5 148.5t1 154.5 v26q0 53 -4 107.5t-31 97.5q-14 25 -36.5 39t-50.5 20.5t-57.5 8.5t-58.5 2h-12q-37 0 -77 -1t-76.5 -9.5t-67.5 -25.5t-49 -50q-41 -72 -48.5 -159t-7.5 -177v-20.5t-2 -20.5v-354q2 -76 14.5 -139.5t65.5 -108.5q31 -25 67 -29t79 -2q49 2 82.5 1t81.5 -5q35 -4 76.5 4 t66.5 31q20 18 20 47v31h62v-31q0 -57 -41 -94q-35 -31 -81 -41t-81 -10q-20 0 -29 2q-43 4 -75.5 5t-79.5 -3q-49 -2 -96.5 5t-90.5 42q-35 29 -55 62.5t-30.5 71.5t-13.5 78t-3 83q-2 82 -1 164.5zM290 454.5q-1 -20.5 1 -40.5l4 -37q2 -18 3 -38t1 -38v-45v-31.5t2 -31.5 q6 -59 35 -74q10 -4 18 -6t13 -2l4 2q27 4 48 14t25 43l5 33v37v57.5t2 69.5q2 37 3 66.5t1 56v55v63.5v13q0 2 -1 3t-1 5l-2 16q-2 14 -10.5 25.5t-16.5 21.5l-6 8q-4 4 -8 6.5t-19 4.5l-2 2q-31 6 -43 -2q-25 -18 -35 -52q-10 -29 -13 -53t-3 -55q0 -14 -1 -27.5t-1 -25.5 q-2 -23 -3 -43.5z" />
<glyph unicode="A" d="M0 -14v63h72l6 57l18 185q4 27 7 53.5t8 54.5l14 88q8 39 14 78t11 78q4 41 11 80t13 78q12 51 19 104l12 86q4 29 8 59.5t8 63.5h-43v64h33q10 0 16 -2h15q4 2 10 2h41l8 -37q10 -47 21.5 -93.5t17.5 -86.5l2 -19q10 -74 20.5 -148.5t24.5 -146.5q8 -39 13.5 -77 t9.5 -76q2 -25 5 -51.5t7 -51.5q6 -43 11 -86t9 -84q4 -43 9.5 -86t11.5 -86h67v-61h-30h-37t-29 -2q-12 0 -27 -1t-40 -1h-31v63h31h34q-6 41 -11 84t-9 84t-9 83t-12 83q-4 27 -7 53.5t-7 52.5q-8 -2 -24 -2q-12 -2 -23.5 -3t-24.5 -1h-10q-41 0 -76 8q0 -4 -1 -7t-1 -7 l-14 -86q-10 -53 -12 -104q-2 -16 -3 -31.5t-5 -32.5l-13 -121l-4 -49h31h31v-61h-31q-23 0 -37 -1t-29 -1q-14 0 -30.5 -1t-38.5 -1h-31zM201 549q14 -4 30.5 -4h32.5h8h21.5t23.5 2h23q-4 23 -7 44t-7 44q-14 74 -24.5 149.5t-20.5 149.5l-2 18l-11 52q0 -4 -1 -10.5 t-1 -10.5q-4 -23 -6 -43t-6 -43q-6 -57 -18 -109q-6 -37 -13.5 -74.5t-11.5 -76.5q-2 -23 -4 -44.5t-6 -43.5z" />
<glyph unicode="B" horiz-adv-x="550" d="M-2 1124v62h55h31h31v-2q18 -2 36.5 -6t41.5 -9q90 -25 155 -84q59 -54 59 -157q0 -37 -8 -80q-10 -59 -35.5 -88t-60.5 -58l-20 -18q-16 -14 -37 -26.5t-43 -22.5l14 -4q35 -12 63.5 -26.5t57.5 -31.5q39 -23 61.5 -48t34.5 -55t17.5 -61.5t9.5 -68.5q1 -17 1 -34 q0 -127 -81 -212q-49 -51 -121 -78.5t-158 -27.5h-102v61h45v62q0 129 2 252.5t6 250.5q-4 6 0 15q2 49 3 98t5 100q1 22 1 44q0 23 -1 45q-2 46 -4 88q-6 57 -6 118h-22zM106 49q70 0 129.5 23.5t100.5 64.5q64 70 64 167q0 15 -1 30q-6 70 -21.5 111.5t-72.5 76.5 q-25 14 -50.5 26.5t-59.5 22.5q-31 10 -50.5 14.5t-31.5 6.5q-6 -240 -7 -483v-60zM113 1120q0 -57 6 -112q4 -46 6 -92q1 -16 1 -31q0 -31 -3 -62q-4 -41 -5 -79.5t-3 -79.5q80 30 129 69l20 17q33 29 50.5 48t23.5 60q8 39 8 71q0 74 -41 109q-49 49 -131 72 q-16 4 -30.5 6t-30.5 4z" />
<glyph unicode="C" horiz-adv-x="522" d="M0 815v37v19q0 37 6 72q8 44 25 91q10 31 33.5 68t58.5 61q35 23 74 24h9q34 0 58 -7l6 -2q23 -4 46.5 -13.5t43.5 -34.5v25v31h64v-31v-65v-31q0 -18 -2 -29v-24l-62 -11q-10 29 -20 51.5t-27 43.5q-10 12 -22 17t-35 11h-6q-16 4 -43 6t-47 -12q-23 -16 -42.5 -43 t-29.5 -55q-14 -43 -22 -82q-6 -31 -5 -63v-17q0 -16 1 -34.5t1 -35.5q1 -34 3 -68q1 -14 1 -29q0 -20 -1 -40q-4 -47 -3 -96q-1 -7 -1 -13q0 -56 6 -108q2 -23 2 -44.5t2 -43.5v-57q-1 -18 -1 -35q0 -34 3 -64q4 -46 32 -84q29 -37 58 -47q37 -16 60 -16h5t3 1t4 1 q18 2 42.5 6t36.5 12q14 10 23.5 31t13.5 39l6 31l62 -11l-6 -30q-4 -29 -20.5 -61.5t-45.5 -49.5q-23 -14 -51.5 -19t-50.5 -10l-8 -2h-17q-37 0 -84 21q-45 23 -80 65q-39 51 -45 109q-4 44 -4 86v27q0 16 1 29.5t-1 27.5q0 23 -1 43t-1 43q-4 54 -5 110v22q0 45 3 89 q1 22 1 43v22q-1 32 -3 66q-2 18 -2 37z" />
<glyph unicode="D" horiz-adv-x="544" d="M-2 1184l31 2q20 2 39 2q30 0 60 -4q50 -6 103 -37q70 -41 119 -121t70 -184q12 -68 22 -161q8 -67 8 -133q0 -25 -1 -50v-28.5t-3 -31.5q0 -47 -2 -95t-18 -91q-20 -63 -78 -127q-16 -20 -40.5 -43t-59.5 -39l-23 -12q-31 -18 -61 -31q-29 -10 -62.5 -11t-62.5 -1h-39 v61h35h20q-2 45 -3 89t-5 91q-5 82 -5 163q0 28 1 54q2 108 6 213v20.5t2 20.5q0 29 1 56.5t3 56.5q2 25 3 50.5t1 49.5q2 31 1 62t-3 61q-2 23 -3 43.5t-1 42.5h-20h-31zM106 446q0 -19 -1 -38q0 -88 6 -175l6 -182q20 4 28 8q10 4 23.5 10.5t26.5 14.5l24 14 q29 12 49.5 30.5t32.5 35.5q51 57 66 108q12 35 15 79t3 87v31.5t2 32.5q1 25 1 49q0 62 -7 126q-10 89 -23 154q-16 90 -58 159t-99 104q-41 20 -84 26q0 -20 1 -40.5t1 -41.5q2 -30 3 -62v-22q0 -21 -1 -43q0 -25 -1 -50t-3 -52l-4 -111v-20t-2 -21q-3 -103 -5 -211z" />
<glyph unicode="E" horiz-adv-x="532" d="M0 1112v62h31h27.5t25.5 -3q27 0 50.5 -1t49.5 4q35 4 73 4t75 -4q12 0 23.5 -1.5t21.5 -1.5h31v-30v-17.5t2 -23.5v-70l-62 -2v33v15t-2 22v14h-18q-35 2 -70 3h-14q-28 0 -54 -3q-23 -4 -44 -4h-44q0 -16 1 -33.5t3 -34.5q2 -18 3.5 -36.5t1.5 -38.5q0 -53 1 -105.5 t1 -105.5v-52.5t2 -52.5h10q16 2 32.5 3t32.5 1q20 2 39 1t37 -1q14 -2 27.5 -2h30.5v25v31h61v-31q0 -23 1 -31t1 -16q0 -10 1 -20.5t1 -35.5v-30h-61v30v15q-16 0 -32.5 1t-33.5 1q-16 2 -33.5 2h-35.5q-16 -2 -32 -3t-32 -1q-4 -2 -12 -2q0 -156 3 -287t7 -252 q29 -2 59.5 -1t59.5 3q31 2 61.5 3t63.5 -1v80h61v-143h-33q-30 3 -60 3h-15q-38 -1 -76 -3q-27 -2 -52.5 -3t-54.5 -1q-47 0 -96 6l-31 2l6 61l31 -2q4 0 7 -1t8 -1q-6 119 -8.5 249t-4.5 284h-8h-31v61h31h8q0 29 -1 55.5t-1 53.5q-2 53 -2 106v107q0 16 -1 34.5t-3 36.5 t-4 37t-2 39h-8h-31z" />
<glyph unicode="F" horiz-adv-x="483" d="M-4 1174l31 2q27 2 51 1t49 -3q33 -2 63.5 -2.5t63.5 4.5q20 4 42 4q15 0 30 -2h61v-31v-18.5t2 -24.5v-72h-61v31v16.5t-2 22.5v14h-2q-16 0 -30.5 1t-31.5 -3q-37 -4 -70.5 -4t-68.5 2h-4q0 -16 -1 -29.5t-1 -27.5v-62q1 -25 1 -49v-24q-1 -36 -3 -72v-33 q-1 -23 -1 -47v-24q1 -36 3 -70v-19h33.5t35.5 -2q20 -2 41 -2t43 2h27v25v31h63v-80q2 -10 2 -54v-30h-61v30v17q-8 0 -14 -1t-15 -1h-45h-23t-24 2q-16 0 -30.5 1t-30.5 -1q2 -29 1 -54.5t-1 -52.5q-2 -20 -2 -40.5v-41.5q0 -92 6 -184q2 -41 3 -84t1 -84h37h31v-61h-31 h-38t-28 -2q-14 0 -29.5 -1t-39.5 -1h-31v63h68q0 84 -7 168q-2 47 -3 93t-1 93v84q2 25 2 50.5v54.5h-43v61h31h10v17q-2 37 -3 73.5t-1 73.5q2 10 2 17.5v15.5q2 36 3 70v23q0 23 -1 46q-2 18 -1 35.5t1 34.5v53h-24l-31 -2z" />
<glyph unicode="G" horiz-adv-x="526" d="M-2 705.5v60.5q0 35 2 68.5t10 68.5q2 12 2 25.5v29.5q0 23 2 48.5t13 52.5q6 14 22.5 44t44.5 52q18 12 38 18.5t36 10.5q21 4 42 4q11 0 22 -1q32 -3 61 -20q16 -10 31.5 -20t27.5 -27q-2 10 -2 17.5v17.5v31h62v-31q0 -10 4 -31q2 -10 3 -22t1 -25q-2 -10 -2 -24 q-2 -14 -3 -26.5t-1 -25.5l-60 -12q-29 90 -90 123q-30 12 -58 12q-12 0 -24 -2q-14 -4 -26.5 -7t-22.5 -11q-29 -18 -49 -70q-8 -16 -9 -35.5t-1 -40.5v-32.5t-4 -34.5q-4 -33 -6.5 -61.5t-4.5 -63.5q0 -29 1 -59.5t1 -59.5q2 -25 2 -50.5v-51.5v-174q0 -72 11.5 -136.5 t34.5 -119.5q12 -29 22 -42.5t33 -23.5q29 -11 56 -11q13 0 26 3q33 6 57 18q18 10 37 39l4 8q8 10 15.5 22.5t7.5 23.5l4 30v2q0 20 -1 41t-3 43q-2 23 -3.5 44.5t-1.5 43.5v38t3 40q2 29 3 56.5t-1 56.5q-15 -2 -32 -2t-34 2q-18 2 -39 0h-59v61h30q16 0 25 2q12 0 24.5 1 t28.5 -3q16 -2 36 -1t38 3l39 4l2 -30q4 -39 4 -77t-4 -77q0 -20 -1 -38.5t-1 -37.5q0 -20 1 -39.5t3 -42.5t3 -45t1 -45v-76q-2 -23 -2 -47v-49v-30h-63v30v21q-16 -16 -33 -25q-16 -10 -34.5 -16t-41.5 -10q-10 -2 -18.5 -3.5t-18.5 -1.5q-39 0 -82 17q-41 16 -58.5 42.5 t-29.5 57.5q-25 59 -37 130t-12 149v174q0 25 -1 50.5t-1 51.5q-2 29 -2 58.5z" />
<glyph unicode="H" horiz-adv-x="622" d="M0 -14v61h31h43v139.5t2 147.5q2 203 2 404.5t-10 373.5h-64v62h31h38t29 2q14 0 29.5 1t40.5 1h31v-64h-31h-41q4 -104 6 -218t2 -232q43 0 115 1t135 5v213v116.5t-2 110.5h-37h-31v61h31h39t27 3q14 0 29.5 1t39.5 1h33v-64h-67q1 -56 1 -113.5t-1 -117.5 q0 -80 1 -163t5 -161q4 -59 4 -115.5v-115.5q2 -66 2.5 -132.5t3.5 -144.5h39h31v-61h-31h-39t-27 -2q-14 0 -29.5 -1t-39.5 -1h-33v63h68q-4 78 -4.5 145.5t-2.5 133.5q0 113 -6 227q-2 14 -2 27.5v27.5q-66 -4 -137.5 -5t-114.5 -1q0 -68 -1 -135.5t-1 -132.5 q0 -78 -1 -147.5t-1 -135.5h33h31v-61h-31q-23 0 -38 -1t-30 -1q-14 0 -29.5 -1t-39.5 -1h-31z" />
<glyph unicode="I" horiz-adv-x="329" d="M0 -12v63h96q0 141 1 262t5 234q3 70 3 141v35q-1 88 -5 174q-2 53 -3 109.5t-1 113.5h-63l-33 -2v64h223l31 -2l-2 -62h-31q-20 0 -34.5 1t-28.5 1q0 -55 1 -111.5t3 -109.5q4 -88 6 -176q1 -29 0 -59q0 -59 -2 -119q-4 -113 -6 -232.5t-2 -261.5h65l31 -2l-2 -61h-31 q-41 2 -65.5 2h-51.5q-16 0 -32.5 -1t-38.5 -1h-33z" />
<glyph unicode="J" horiz-adv-x="600" d="M0 301v31l61 2v-33q2 -59 17.5 -122.5t71.5 -108.5q16 -14 36.5 -22.5t42 -10.5t43 5t39.5 24q43 41 56.5 98t17.5 112q6 78 11 159t5 161q0 57 -6 119q0 16 -1 33.5t-3 35.5l-4 80q-4 37 -6 76t-2 78v53q-2 10 -2 19.5v21.5h-62h-30v62h254v-64h-31q-23 0 -38 1t-32 1 q0 -10 1 -19.5t1 -19.5t1 -23.5t1 -31.5q0 -76 7 -150q2 -20 3 -40.5t1 -41.5l6 -67q2 -29 4 -60.5t2 -62.5q-2 -82 -7 -164t-9 -160q-4 -59 -22.5 -128.5t-72.5 -123.5q-25 -25 -54.5 -35t-59.5 -10q-74 0 -129 45q-35 29 -56.5 64t-34 72t-16.5 73.5t-4 71.5z" />
<glyph unicode="K" horiz-adv-x="606" d="M0 -16v61h31h43q0 10 -1 22.5t-1 24.5q-2 14 -2 27.5v27.5q0 111 1 213.5t5 206.5q4 41 4 82v78l-4 90q-2 35 -3 68v22q0 22 1 45v158h-35h-31v64h98q12 2 28 2h42h31v-62h-31h-39q0 -41 -1 -82t-1 -82q0 -33 1 -65.5t1 -65.5q2 -23 3 -45t1 -45v-74q12 27 23.5 51.5 t19.5 53.5q37 131 113 268l12 25l31 57h-27h-30v64h98q12 2 27.5 2h42.5h30v-62h-30h-39q-10 -25 -22.5 -46t-24.5 -44q-8 -16 -15 -25q-35 -66 -61.5 -130t-44.5 -128q-14 -49 -41 -102q35 -25 47 -51.5t22 -55.5l7 -16l12 -39q8 -18 14 -36.5t12 -39.5q8 -29 17.5 -54 t19.5 -50l19 -47q16 -49 35.5 -99.5t40.5 -101.5h43h30v-61h-30q-25 0 -39.5 -1t-28.5 -1q-14 -2 -29.5 -2h-40.5h-30v61h30h29q-18 47 -34.5 92t-33.5 90l-18 47q-10 25 -20.5 51.5t-20.5 61.5q-4 16 -10 33.5t-13 34.5q-8 18 -14 41l-6 18q-8 23 -14 38t-23 30 q-10 -23 -19.5 -42.5t-15.5 -41.5l-6 -17l-4 -334q0 -12 1 -24t1 -27q0 -12 2 -24.5t2 -22.5h31h31v-61h-31q-25 0 -39 -1t-29 -1q-12 -2 -27.5 -2h-41.5h-31z" />
<glyph unicode="L" horiz-adv-x="546" d="M0 1112v64h96q14 2 29.5 2h40.5h31v-62h-31h-37v-39.5t-2 -38.5q-2 -42 -3 -78v-14q0 -30 3 -63q4 -55 5 -118q0 -13 1 -25q0 -50 -4 -99q-2 -31 -1 -60.5t3 -62.5q2 -23 3 -45t1 -47q0 -82 6 -162q3 -54 7 -108l2 -44q0 -32 -3 -63h17q29 2 58.5 1t58.5 -1q31 0 61.5 -1 t60.5 -1v2v36.5t-2 39.5v31h64v-168l-31 -2h-153q-29 2 -57.5 2h-57.5h-45q-16 0 -33.5 -1t-34.5 1h-30v61h61q3 35 3 70q0 17 -1 35q-2 52 -6 106q-4 41 -6 83t-2 83v44.5t-2 43.5q-2 32 -3 64v22q0 22 1 45q3 39 3 79q0 20 -1 40q-2 60 -7 115q-1 29 -1 56v27q1 40 4 78 v36t2 36h-37h-31z" />
<glyph unicode="M" horiz-adv-x="661" d="M0 1114l2 62h127l6 -21l41 -129l25 -82l14 -41l12 -35q10 -29 18.5 -59.5t16.5 -58.5l12 -41l11 -37l6 20l22 76q4 10 7.5 22.5t7.5 22.5l16 61l12 56l9 24l12 45q2 14 6 26.5t8 25.5l6 22l23 80l8 23h127v-62h-66q2 -74 4.5 -169t3.5 -200.5t2 -212t2 -199.5t2 -168 t1 -116h69v-61h-30q-25 0 -39.5 -1t-26.5 -1q-14 -2 -29.5 -2h-39.5h-33v61h67q0 51 -2 155.5t-3 233.5t-3 267.5t-4 256.5l-6 -22q-4 -16 -8 -25l-13 -49q-4 -16 -7 -32.5t-9 -32.5q-4 -12 -7 -24.5t-7 -24.5q-6 -16 -11.5 -35t-11.5 -37q-4 -20 -9 -34.5t-9 -29.5 q0 -4 -4 -16q-4 -4 -6.5 -11t-4.5 -12h-63q-10 29 -20.5 60t-18.5 59l-12 41q-8 29 -16.5 58.5t-18.5 58.5q-2 10 -10 31q-4 10 -8.5 21t-8.5 24l-12 43v-60v-55.5t-2 -52.5v-142v-43t-2 -41q0 -12 -1 -24t-1 -25q0 -16 1 -31.5t1 -31.5q2 -14 3 -28.5t1 -28.5v-186.5 t2 -170.5h68v-61h-31q-23 0 -38 -1t-28 -1q-14 -2 -29.5 -2h-39.5h-31v61h68l-4 361v25t-3 28q-2 16 -3 33.5t1 35.5v24.5t2 25.5q0 20 1.5 40.5t1.5 40.5v453q-27 0 -35 2h-31z" />
<glyph unicode="N" horiz-adv-x="622" d="M0 1108v61h125l8 -20l80 -260l39 -117q16 -47 32.5 -95t28.5 -97l13 -52q16 -66 32.5 -133t38.5 -133l11 -35q1 39 1 78v39q-1 58 -3 119q0 66 -1.5 131t-1.5 131q0 25 1.5 49.5t3.5 48.5q2 27 3 54.5t1 56.5q0 23 -1 44t-1 44q-2 20 -2 39.5v42.5h-70v63h98q12 2 27.5 2 h40.5h33v-61h-68q0 -23 1 -43.5t1 -40.5q2 -23 2 -45.5v-44.5q0 -29 -1 -57.5t-3 -57.5q0 -23 -1 -47t-1 -47q-1 -44 -1 -88v-43q1 -66 3 -129q0 -72 1 -145.5t1 -145.5v-30.5t-2 -30.5v-125h-59l-2 4l-21 76q-10 43 -22.5 88t-26.5 86q-23 68 -40 136l-34 136l-12 51 q-10 47 -25.5 93.5t-31.5 93.5q-10 29 -20.5 59.5t-20.5 58.5l-25 78q-2 -53 -2 -106.5t4 -106.5q6 -119 6 -238t-6 -239q-1 -23 -1 -46v-22q1 -34 3 -69q0 -16 1 -34.5t3 -37.5h68v-61h-31h-39t-26 -2q-14 0 -30 -1t-40 -1h-31v63h68l-4 72q-2 35 -3 71v23q0 24 1 49 q6 118 6 236t-6 235q-3 49 -3 98v25q1 62 3 121q2 33 2 65.5v65.5h-72z" />
<glyph unicode="O" horiz-adv-x="595" d="M1 546q1 92 5 181q2 14 2 28.5t2 28.5v21q4 57 9.5 107.5t31.5 105.5q4 6 5 12t5 12q16 35 36 69t63 54q41 20 96 21q43 0 84 -12q31 -10 50.5 -25.5t30.5 -34t17 -40t11 -42.5q2 -6 3 -13t3 -13q25 -90 36 -189.5t11 -222.5v-12q0 -74 -2 -151t-15 -157q-2 -12 -3 -24 t-1 -25q-4 -41 -11 -84t-42 -78q-86 -88 -172 -88q-45 0 -90 23q-66 37 -89.5 102.5t-37.5 130.5q-2 8 -4 15.5t-4 15.5q-4 16 -5 29.5t-3 30.5q-2 10 -3.5 20t-3.5 20q-15 87 -15 173v11zM62 549v-14q0 -81 16 -160q2 -12 3 -23.5t3 -21.5q2 -14 3 -27.5t5 -26.5 q2 -8 3 -16t3 -16q12 -57 30.5 -110.5t68.5 -80.5q29 -16 59 -16q59 0 127 69q23 23 28 55t9 68q0 14 1 26.5t3 27.5q10 78 12 152.5t2 146.5v12q0 119 -10 214t-33 181q-4 20 -8 29q-10 43 -20.5 64.5t-44.5 31.5q-35 10 -66 10q-41 0 -70 -14q-29 -12 -42 -35.5t-25 -56.5 q-8 -16 -10 -25q-23 -47 -28 -92t-7 -98q0 -4 -1 -10.5t-1 -10.5q0 -16 -1 -30.5t-1 -28.5q-6 -86 -8 -174z" />
<glyph unicode="P" horiz-adv-x="563" d="M0 -14v61h31q8 0 14 1t16 3h5v2v62.5t2 62.5q0 29 1 57.5t1 57.5q0 41 -1 84t-1 84h-23h-31v61h31h23v109q0 35 1 68.5t3 68.5q6 74 6 150l-6 102l-6 96h-54v62h84q9 1 20.5 1t24.5 -1q27 -2 45 -4q37 -6 66 -17.5t63 -34.5q117 -74 146 -223q8 -43 9 -83q0 -28 -5 -54 q-10 -64 -21 -98q-16 -53 -53 -104.5t-78 -80.5q-27 -16 -56 -22t-64 -6q-16 0 -31 1t-31 3v-162v-57.5t-2 -57.5q0 -31 -1 -62.5t1 -62.5h8q8 0 15.5 -1t13.5 -1h31v-61h-31h-18.5t-16.5 2q-10 2 -19.5 2h-19.5l-20 -4q-10 -2 -19.5 -3t-21.5 -1h-31zM129 633 q0 -29 1 -58.5t1 -58.5q33 -3 65 -3h16q40 1 69 19q31 20 61.5 64.5t42.5 85.5q5 16 15 64q6 30 7 64q-1 20 -3 41q-6 58 -32 117.5t-91 102.5q-29 18 -51.5 27.5t-51.5 13.5q-10 0 -23.5 1t-25.5 3q0 -23 1 -46t3 -46q2 -27 4 -52.5t2 -53.5q0 -39 -1 -77t-3 -77 q-2 -33 -4 -65.5t-2 -65.5z" />
<glyph unicode="Q" horiz-adv-x="595" d="M1 620v10q0 86 15 173l7 41q2 14 3 28.5t5 28.5l8 33q14 66 37.5 130t89.5 101q43 25 90 25q86 0 172 -88q35 -37 42 -79t11 -83q0 -14 1 -25.5t3 -23.5q12 -80 14.5 -157t2.5 -150v-13q0 -123 -11.5 -222t-35.5 -189l-6 -27q-4 -20 -10.5 -41.5t-17.5 -40t-30.5 -35 t-50.5 -24.5q-29 -10 -57 -12v-13q0 -12 -1 -30.5t1 -24.5q2 -10 6 -14t28 -4q16 0 27 2q20 4 35 4h31v-64h-31q-16 0 -25 -2q-10 -2 -18.5 -3t-18.5 -1q-8 0 -22 1t-29.5 8t-28 21.5t-16.5 41.5q-2 9 -2 25.5t2 41.5v11q-35 6 -61 18q-43 23 -62.5 56.5t-36.5 68.5 q-4 6 -5 12t-5 10q-27 57 -32 107.5t-9 105.5v23l-4 57q-4 90 -5 182zM62 616q1 -88 8 -174q0 -16 1 -29.5t1 -29.5q0 -4 1 -10t1 -11q2 -53 7 -98t28 -92q2 -8 10 -25q12 -33 25.5 -56t41.5 -36q29 -14 70 -14q39 0 66 10q35 10 45 31.5t20 62.5q4 10 8 31q23 86 33 181.5 t10 213.5v13q0 72 -2 146.5t-12 152.5q-2 12 -3 25.5t-1 27.5q-4 37 -9 67.5t-28 55.5q-70 69 -127 69q-31 0 -59 -16q-49 -27 -67.5 -80t-31.5 -110l-6 -33q-4 -12 -5 -25.5t-3 -27.5l-6 -45q-16 -83 -16 -169v-6z" />
<glyph unicode="R" horiz-adv-x="620" d="M-8 467v61h31h36q-2 109 -2 220.5t4 187.5q2 47 3.5 90t1.5 90h-66v62h84q10 1 21 1t24 -1q25 -2 43 -4q41 -6 70.5 -17.5t60.5 -32.5q121 -78 146 -223q7 -38 7 -80q0 -17 -1 -33q-4 -60 -21 -120q-25 -82 -90 -144q-10 -10 -22.5 -18t-26.5 -14q-12 -8 -37 -15 q35 -39 63.5 -92t45.5 -92q4 -10 12 -24.5t16 -30.5q10 -16 18.5 -32t12.5 -28q16 -39 25.5 -66.5t17.5 -48.5l6 -18q10 0 24.5 -1t28.5 -1h31v-61h-31q-27 0 -51 1t-26 1l-19 2l-6 16q-4 8 -8 18.5t-8 22.5q-6 20 -15.5 48t-25.5 63l-27 53l-33 61q-31 78 -65.5 130.5 t-61.5 62.5l-14 6h-27h-18q2 -92 3 -157.5t1 -71.5q2 -23 1 -58t-1 -71v-62h39h31v-61h-31q-25 0 -39 -1t-27 -1q-14 -2 -29.5 -2h-39.5h-31v61h31h35v195q0 6 -2.5 70.5t-4.5 158.5h-67zM119 747.5q0 -110.5 2 -217.5h22q15 -1 30 -1h13q20 1 43 6q10 4 20.5 7t20.5 7 q16 6 31 20q29 27 46.5 55.5t27.5 59.5q6 25 15 72q5 28 5 60q0 20 -2 44q-6 58 -33.5 114t-91.5 99q-25 16 -48 24.5t-56 14.5q-8 0 -17.5 1t-19.5 1q0 -47 -1 -90t-3 -90q-4 -76 -4 -186.5z" />
<glyph unicode="S" horiz-adv-x="503" d="M0 -20l2 30q2 14 2 27.5v28.5v59q2 29 3 54.5t-3 49.5l62 11q6 -47 26 -88q16 -35 51 -72t66 -41q23 -2 45 9t39 28q31 29 41 47t12 53q3 31 3 60q0 14 -1 27q-2 40 -18 81q-23 53 -54.5 102.5t-72.5 102.5l-76 108l-8 15q-23 33 -44.5 67.5t-35.5 75.5q-2 10 -4 18.5 t-4 18.5q-2 8 -3 16.5t-5 16.5q-14 41 -14 81q0 51 22 103q39 92 121 115q22 6 43 6q61 0 120 -49q6 -4 11.5 -10.5t11.5 -12.5q0 10 1 19.5t1 19.5v31h61v-31v-21.5t-2 -21.5q-2 -29 -1 -56.5t8 -49.5l-60 -19q-8 25 -25.5 52.5t-42 48t-52 30.5t-58.5 2q-53 -12 -80 -78 q-16 -39 -16 -78q0 -31 10 -61l10 -41q4 -20 8 -30q10 -35 28.5 -66t41.5 -61l8 -15q18 -27 36.5 -53.5t39.5 -52.5q41 -55 73.5 -106.5t57.5 -110.5q23 -51 25 -99q1 -24 1 -48t-1 -48q-4 -53 -20.5 -80.5t-51.5 -60.5q-24 -23 -58 -41q-28 -15 -61 -16q-7 0 -14 1 q-41 4 -78 34t-61 65v-10v-28.5t-3 -31.5l-2 -33z" />
<glyph unicode="T" horiz-adv-x="614" d="M0 1016l2 31v77q0 14 2 23l2 31h490l30 -2v-170l-63 2l2 30v76q-25 0 -53.5 1t-32.5 1h-74q0 -72 -1 -141.5t-3 -136.5q-2 -104 -4 -210q-1 -53 -1 -105.5t1 -104.5q2 -74 2 -148.5v-146.5v-72h37h31v-61h-31q-25 0 -39 -1t-27 -1q-14 -2 -29.5 -2h-39.5h-33v61h33h37v78 v145.5t-2 145.5q-1 71 -1 142v70q1 106 3 212q2 66 3 135t1 141h-66q-12 -2 -47 -2h-63q0 -10 -1.5 -27.5t-1.5 -39.5v-33z" />
<glyph unicode="U" horiz-adv-x="610" d="M-2 1114l2 62l31 -2h166v-64h-31h-37q0 -57 -1 -113.5t-3 -109.5q-2 -95 -2 -191t2 -192v-19q0 -43 4 -120.5t21 -155.5q37 -170 118 -172q8 0 28.5 4t43.5 27t45.5 81t22.5 177v106q-2 37 -2 75v77q1 55 1 107v53q-1 78 -1 153q0 51 -1.5 104.5t-1.5 106.5h-36h-31v63 h31h39t28 3h101v-62h-31h-37v-213q2 -78 2 -155.5v-159.5v-258q0 -217 -86 -303q-47 -47 -115 -48q-27 0 -60.5 13.5t-62.5 60.5q-18 27 -32.5 64t-24.5 84q-16 82 -20.5 162.5t-4.5 123.5v19q-3 78 -3 156v38q1 96 3 191q2 53 2.5 109.5t0.5 113.5q-8 0 -17.5 1t-19.5 1z " />
<glyph unicode="V" horiz-adv-x="645" d="M-8 1102v63h201v-63h-66q10 -49 19.5 -103.5t19.5 -107.5q4 -16 5 -33.5t3 -34.5q4 -29 8 -58.5t11 -57.5q16 -84 30.5 -162t26.5 -156l37 -235q10 47 17 87t13 81l37 225q4 23 7.5 46t7.5 46q14 88 27.5 177t29.5 179l18 105h-65v61h33h39t28 2q12 0 27.5 1t42.5 1h31 v-63h-31h-41q-4 -29 -10 -57.5t-11 -59.5q-16 -90 -29.5 -179t-27.5 -177q-4 -23 -7 -46.5t-7 -45.5l-37 -226l-35 -200l-27 -134h-61q-18 102 -34.5 203t-33.5 199q-12 78 -26.5 155.5t-30.5 159.5q-6 31 -10 61.5t-8 61.5q-2 16 -3 32.5t-6 33.5q-10 55 -20.5 111.5 t-20.5 107.5h-71z" />
<glyph unicode="W" horiz-adv-x="1069" d="M0 1098v63h98q14 2 29.5 2h42.5h31v-61h-31h-33q4 -23 7 -45.5t8 -44.5l2 -15l20 -123q4 -25 7 -50t7 -52q4 -31 8.5 -62.5t8.5 -64.5q4 -27 10 -53.5t12 -52.5q4 -29 10.5 -56.5t12.5 -56.5q2 -16 4 -32.5t6 -33.5l12 -77q6 -29 11.5 -61t11.5 -66l27 143l16 82l24 133 q4 16 6.5 30.5t4.5 30.5q12 59 22.5 121t18.5 121q2 29 9 68t14 73.5t13.5 60t6.5 28.5h59q12 -55 21.5 -111.5t17.5 -110.5q4 -23 7 -43t7 -43v-2q2 -10 3 -17t1 -18l17 -120q0 -4 1 -7.5t1 -7.5l6 -41l6 -43q0 -6 1 -12t1 -12l8 -33l7 -29l16 -92q4 -25 16.5 -75 t24.5 -103q4 14 5 26.5t3 26.5q8 41 14.5 81t10.5 81l22 137q2 16 8.5 53t16.5 82q10 51 19 102.5t11 69.5l7 33q6 43 9 67.5t6 46t8 48.5t13 74l3 14l4 27v6h-35h-31v61h100q14 0 28.5 -1t41.5 -1h31v-61h-74v-10l-4 -31l-2 -15q-8 -47 -13.5 -73.5t-8.5 -48t-6 -46 t-9 -65.5l-4 -33l-33 -176q-10 -43 -16 -80t-8 -53l-23 -137q-4 -41 -10 -81t-14 -81q-8 -61 -25 -125q-4 -16 -7 -31.5t-7 -31.5h-60l-20 79q-6 31 -14.5 65t-16.5 65.5t-14 58t-9 43.5l-16 92l-6 27l-8 39q0 8 -1 14t-1 12l-6 39l-7 41q0 4 -1 8t-1 8l-16 123q0 10 -4 31 v2q-4 23 -7 43.5t-7 42.5l-9 59l-10 -63q-8 -63 -19.5 -124.5t-21.5 -121.5l-10 -61l-25 -135l-16 -82q-16 -80 -29.5 -156t-29.5 -149h-62q0 2 -4 27.5t-8 39.5l-12 74q-8 41 -14.5 79t-10.5 72q-4 18 -7 38t-7 38q-4 16 -6.5 32.5t-4.5 33.5q-4 29 -10 55.5t-12 54.5 q-6 27 -12.5 53.5t-10.5 55.5l-18 131l-12 100l-19 121l-4 14l-16 97h-43h-31z" />
<glyph unicode="X" horiz-adv-x="684" d="M0 47l31 2h39q4 10 8 22.5t10 22.5q10 23 18.5 45.5t16.5 44.5l41 140l22 71q12 45 31 84l19 51q4 12 8 23.5t8 21.5l12 39q0 2 -1 4.5t-1 6.5q-4 10 -8 22t-8 25l-23 69l-24 80l-19 68l-16 45q-10 27 -17 47l-43 133h-65v64h31q25 0 40 -1t29 -1h97v-64h-31h-35l37 -113 q4 -10 7 -21t7 -24l19 -47l18 -69l25 -78l16 -51q0 6 2 8l21 63l30 94q2 8 4 14.5t6 14.5l13 33l10 37q10 43 25 78q4 14 8 27.5t8 29.5h-35h-31v61h31q23 0 38 1t28 1q14 2 29.5 2.5t39.5 0.5h31v-62h-31h-34l-5 -20q-4 -16 -9 -30.5t-11 -31.5l-23 -74l-10 -38l-14 -37 l-10 -27l-29 -92l-21 -66l-30 -84l30 -86l58 -172q4 -18 10 -36.5t12 -36.5l19 -54q4 -16 10 -29.5t12 -29.5q8 -16 14.5 -32.5t12.5 -33.5l14 -34q0 -10 6 -19h74v-61h-31h-39t-28 -2q-12 0 -27.5 -1t-42.5 -1h-31v63h31h29q-8 12 -14 37q-4 16 -10.5 29.5t-14.5 29.5 l-25 66q-10 29 -16 51l-25 74l-57 172q-2 2 -2 4t-2 6q0 -2 -1 -3t-1 -3l-21 -53l-28 -78l-23 -74l-41 -139q-8 -25 -17 -49.5t-20 -46.5q-4 -6 -6 -11.5t-4 -11.5h13.5t17.5 2l31 2l2 -63h-31q-27 -2 -42 -2h-32q-12 0 -25.5 1t-35.5 -1h-31z" />
<glyph unicode="Y" horiz-adv-x="643" d="M0 1174l31 2q17 1 31 1h14q20 -1 43 -1q12 -2 24.5 -2h26.5h31v-64h-31h-35q4 -6 6 -15.5t9 -27.5q4 -10 9 -26.5t9 -34.5q8 -23 14 -43.5t11 -34.5l32 -109l66 -213l51 168q10 31 20 51q4 12 8.5 23.5t8.5 21.5q8 25 14 50.5t15 52.5q10 49 24 96l12 43h-36l-31 2l2 62 h33q29 -2 45 -2h32q10 0 23.5 1t32.5 1h33v-64h-68l-18 -61l-25 -95q-6 -27 -13.5 -52t-15.5 -54l-18 -49q-10 -20 -19 -45l-79 -264q0 -51 1 -100.5t1 -98.5q2 -51 3 -103.5t1 -105.5v-14q-2 -8 -2 -21h32h31v-61h-31q-23 0 -37 -1t-30 -1q-14 -2 -29.5 -2h-38.5h-33v61h33 h41q-2 8 -1 14.5t1 14.5q0 4 1 6t1 4q0 53 -1 105.5t-3 103.5q-2 47 -2 97v102l-94 309l-33 110q-4 14 -10 34t-14 42l-19 64l-14 43l-6 20h-35l-31 -2z" />
<glyph unicode="Z" horiz-adv-x="585" d="M0 -10v61l43 107l12 30q10 25 17.5 49.5t15.5 51.5l10 37q23 72 45.5 127t44.5 108q16 33 30.5 69t31.5 77l46 106t48 105l29 65q8 14 14 27.5t12 27.5l33 72l-31 -4q-20 -2 -44.5 -3t-61.5 -1h-31.5t-27.5 2q-10 0 -18.5 1t-14.5 1h-101v-100l-61 -2v32q-2 25 -2 45.5 v42.5l2 41l29 2h133h17t20 -2q12 0 25.5 -1t29.5 -1q35 0 57.5 1t42.5 5q23 1 43 3q4 0 9 1q16 0 36 -4l17 -2v-61q-10 -25 -22.5 -48.5t-22.5 -45.5l-25 -56l-31 -63q-23 -53 -47 -104.5t-45 -104.5q-16 -43 -30.5 -79t-30.5 -70q-23 -53 -44.5 -104.5t-43.5 -123.5 l-11 -37l-32 -104l-15 -33l-34 -86q16 0 32.5 -1t30.5 -1q10 0 28.5 1t37.5 3q23 2 42 3t31 1h23q24 2 44.5 2t37.5 -2q20 0 30 -2q12 0 23.5 -1t22.5 -1v43q0 10 -1.5 18.5t-1.5 18.5v31h64v-68q0 -16 1 -36v-13q0 -13 -1 -27v-28h-29q-23 -2 -42 -1t-40 3q-8 0 -15 1 t-15 1h-101q-10 0 -28.5 -1t-38.5 -3q-23 -2 -41.5 -3t-30.5 -1h-2q-31 0 -69 2t-40 2z" />
<glyph unicode="[" horiz-adv-x="405" d="M2 1221l2 30l31 -2q10 0 21.5 1t21.5 1t18 1t19 1q25 -2 45 -3t41 -3q12 -2 24.5 -2t22.5 -2h31l-3 -63l-30 2q-12 2 -24.5 2t-24.5 2q-20 2 -40 3t-42 1h-33q-6 -2 -16 -2v-39t2 -41q2 -23 2 -47.5v-44.5q0 -59 1 -118.5t1 -119.5q2 -45 2 -90v-92q2 -133 3 -296t5 -327 q18 0 35.5 1t36.5 3q29 2 56.5 3.5t55.5 -0.5l31 -5l-4 -61l-31 2q-27 2 -51.5 1t-52.5 -3q-18 0 -37 -1t-37 -1h-33l-28 2l-3 29q-4 170 -6 341t-2 312q0 47 -1 92t-1 90q0 59 -1 118.5t-1 119.5q0 20 -1 42.5t-1 47.5q-2 29 -3 58.5t-1 56.5z" />
<glyph unicode="\" horiz-adv-x="575" d="M0 1274l59 20l9 -30q51 -166 110 -344q8 -20 14.5 -41t12.5 -43q14 -43 28.5 -88.5t30.5 -88.5q29 -72 53.5 -146.5t47.5 -145.5l24 -78t25 -80q4 -12 8 -24.5t8 -24.5q18 -55 37.5 -110.5t44.5 -108.5l14 -29l-57 -27l-12 29q-27 55 -46.5 112.5t-39.5 114.5 q-4 12 -7.5 23.5t-7.5 23.5q-14 41 -26.5 81t-24.5 79q-23 72 -46 144.5t-52 144.5q-18 45 -32.5 90t-29.5 92q-6 20 -12 41t-14 41q-29 90 -56.5 175t-54.5 169z" />
<glyph unicode="]" horiz-adv-x="395" d="M2 -80l2 62h31q18 -2 35.5 -3.5t33.5 -3.5q12 -2 23.5 -3t19.5 -1q16 0 29.5 1t28.5 3q8 2 14 2t14 3v42.5t-2 45.5v79q0 72 -1 146t-1 145q0 41 -1 83t-1 83q0 53 1 104.5t1 102.5q4 164 0 330q-2 6 -2 19.5v27.5h-47q-6 -2 -18 -2q-29 -2 -54.5 -2t-60.5 2l-31 2l4 63 l31 -4q33 -2 56.5 -1t52.5 3h18h17.5t27 1t24.5 1h11h31v-30v-11q0 -10 1 -23t1 -25.5v-18.5q4 -84 3 -167t-3 -165v-207v-166q2 -72 2 -145.5v-145.5v-37.5t2 -41.5v-119v-31h-31q-14 0 -26.5 -1t-24.5 -3q-14 -2 -28.5 -3t-30.5 -1h-7q-10 0 -22 1t-27 3q-16 2 -32.5 3 t-32.5 1z" />
<glyph unicode="^" horiz-adv-x="382" d="M0 1008l18 26q20 31 40 59.5t34 51t22 37.5l9 14l53 2l8 -10q9 -10 18 -23.5t18 -28t16 -22.5q6 -8 13 -21.5t15 -27.5t14 -25l7 -10l14 -26l-53 -31l-17 26l-5 11q-5 10 -13 23.5t-15.5 26.5t-13.5 21q-4 6 -12 18.5t-16 24.5q-16 -25 -38 -58.5t-46 -68.5l-19 -26z" />
<glyph unicode="_" horiz-adv-x="690" d="M0 16h31q70 -2 148.5 -3t158.5 -7q33 -4 63.5 -2t65.5 6q23 2 47.5 3t48.5 1h31v-63h-31q-23 0 -46 -1t-46 -3t-47 -3t-49 -1h-21.5t-21.5 2q-78 6 -156 7t-145 1h-31v63z" />
<glyph unicode="`" horiz-adv-x="231" d="M0 1147l51 35l17 -25q31 -45 50 -89t19 -46l13 -29l-58 -22l-12 28q-10 18 -19 41q-10 18 -20 39t-25 41z" />
<glyph unicode="a" horiz-adv-x="495" d="M0 474l4 56q0 16 1 33t1 33q0 41 4 78t21 78q8 23 25.5 50t43.5 46q27 18 55.5 18t51.5 -4l6 -2q16 -4 33.5 -10t34.5 -27v2l2 31l61 -4v-31q0 -12 -1 -32.5t-1 -42v-40v-26.5v-14q0 -45 1 -80t1 -70t-2 -71.5t-4 -84.5q-4 -47 -4 -96v-98v-117q10 0 16 -2h68v-63h-31 q-10 0 -20.5 1t-20.5 1t-21.5 1t-23.5 1h-31v22l-10 -6q-25 -14 -47.5 -18t-32.5 -6h-4q-4 0 -7 -1.5t-7 -1.5q-20 0 -38 6.5t-28 10.5q-47 23 -62.5 64.5t-19.5 82.5q-4 23 -3 44.5t1 41.5v54l-6 90q-2 12 -3 23.5t-1 23.5q-3 19 -3 38q0 9 1 18zM62 474q-1 -11 0 -22 q0 -15 1 -30l5 -45l6 -94v-56v-39.5t2 -40.5q8 -78 47 -96q23 -11 36 -11q4 0 7 1h6q33 4 62.5 19.5t33.5 60.5l4 31v14v99t4 100q2 45 3.5 81.5t2.5 70.5v34v35q-1 35 -1 78v16v2l-5 31q-4 16 -14 32.5t-20 28.5q-2 4 -4 5t-5 3q-4 8 -11 11.5t-23 7.5h-6q-15 4 -28 4 q-18 0 -30 -8q-14 -10 -26.5 -27.5t-20.5 -38.5q-12 -35 -15 -66.5t-5 -70.5v-33.5t-2 -34.5q-2 -27 -4 -52z" />
<glyph unicode="b" horiz-adv-x="481" d="M0 -12v63h31q10 0 21 -1t22 -1h12q-3 90 -3 181v46q1 114 3 224q4 160 4 320.5t-8 318.5h-74v61h31q16 0 27 2h22t27 -2l26 -2l2 -27q4 -84 6.5 -166.5t2.5 -168.5q12 10 25 14t28 8l4 2q23 4 51.5 4t54.5 -18q25 -18 42.5 -46t25.5 -50q16 -52 18 -100q1 -24 1 -48 t-1 -47v-63v-37t2 -37q3 -70 3 -138v-10q0 -64 -7 -131q-2 -12 -5 -31.5t-11 -41t-23.5 -42t-42.5 -32.5q-8 -4 -25.5 -10.5t-37.5 -6.5q-4 0 -7 1t-7 1h-4q-10 2 -33 6.5t-45 18.5l-11 6l3 -22h-33h-24.5t-22.5 2h-70zM145 150l5 -31q6 -45 33.5 -60.5t60.5 -19.5h6 q4 -1 8 -1q14 0 33 11q39 18 45 96q6 68 6 136.5t-2 134.5v76q-2 16 -1 32.5t1 32.5q1 30 1 59v28q-1 42 -17 85q-14 45 -45 66q-12 8 -29 8q-12 0 -27 -4h-4q-29 -8 -35 -17q-8 -10 -12 -21t-8 -26l-6 -20l-6 -19q0 -49 -1 -98t-1 -98q-2 -88 -3.5 -175t-1.5 -175z" />
<glyph unicode="c" horiz-adv-x="401" d="M-2 280.5q0 69.5 2 137.5v36.5t2 37.5q0 16 -1 31.5t-1 31.5q-1 24 -1 47.5t1 47.5q2 48 20 100q8 23 24.5 50t43.5 46q27 18 55.5 18t51.5 -4l4 -2q16 -4 31.5 -9t31.5 -22v7v30h62v-30v-15q1 -9 1 -20t-1 -23q-2 -26 -15 -61l-59 2q-6 18 -13.5 33.5t-17.5 31.5 q-6 6 -12 9.5t-23 7.5h-4q-39 10 -55 -4q-14 -10 -26.5 -27.5t-20.5 -38.5q-14 -41 -15.5 -84t-1.5 -88q2 -16 2 -32.5v-32.5q0 -18 -1 -38t-1 -38q-2 -66 -2 -134.5t7 -136.5q4 -27 17 -55.5t44 -42.5q14 -8 24.5 -10t14.5 -2l4 2q12 2 27.5 5t25.5 7q16 12 21 45l6 31 l61 -10l-6 -31q-4 -23 -15 -47.5t-34 -38.5q-16 -10 -37.5 -15.5t-38.5 -7.5l-6 -2h-12q-25 0 -64 17q-39 20 -64.5 60t-29.5 89q-6 72 -6 141.5z" />
<glyph unicode="d" horiz-adv-x="481" d="M-1 358v9q0 18 3 36q6 41 6 79t-2 73q-3 39 -3 77v19q1 47 20 99q8 23 25.5 51t43.5 47q25 18 53.5 18t51.5 -6h4q14 -4 28.5 -9t28.5 -15q0 45 1 103t1 109.5t1 86t1 36.5v31h31q3 0 29 1h17q16 0 30 -1l30 -4l-6 -61l-31 2q-6 2 -17 2h-21v-96.5t-1 -124t-2.5 -112.5 t-1.5 -60v-37t-2 -37q-2 -74 -3 -149.5t-1 -151.5q0 -20 1 -40t3 -40t3.5 -41t1.5 -43v-158q23 0 30 -2h54v-61h-58q-10 0 -22.5 1t-34.5 -1l-35 -4l2 26l-10 -6q-23 -14 -45.5 -18t-32.5 -6h-4q-4 -2 -14 -3q-20 0 -37 6.5t-27 10.5q-27 12 -42 32.5t-23.5 41t-11.5 41 t-3 32.5q-4 37 -5 74t-1 74q0 6 -1 12t-1 12q0 23 -1 45zM62 356q0 -4 -1 -8q0 -16 2 -33v-26q0 -72 7 -142q4 -43 14 -64.5t31 -31.5q21 -11 34 -11q4 0 7 1h6q33 4 60.5 18.5t33.5 61.5l4 31v57q0 20 -1 38.5t-3 39.5q-2 23 -4 43t0 43q0 76 1 151.5t3 149.5v26.5t2 26.5 q0 16 -4 21.5t-14 15.5q-4 4 -9.5 8t-9.5 10q-4 8 -11 10.5t-24 6.5l-4 2q-15 4 -27 4q-17 0 -28 -8q-33 -20 -45 -68q-16 -43 -18 -84v-19q0 -32 4 -67q2 -37 3 -77v-12q0 -35 -5 -75q-4 -19 -4 -39z" />
<glyph unicode="e" horiz-adv-x="401" d="M-2 279.5q0 68.5 2 138.5q0 18 1 36.5t1 37.5v31.5t-2 31.5q0 47 2 95t18 100q8 23 25.5 50t42.5 46q27 18 55.5 18t51.5 -4l4 -2q16 -4 34.5 -11t34.5 -28q16 -23 31 -53q8 -27 11 -50.5t5 -45.5q0 -8 4 -29q2 -10 3.5 -18.5t1.5 -18.5q2 -14 2 -28.5v-30.5q0 -6 -1 -38 t-3 -50v-27l-29 -2q-30 -3 -52 -3q-11 0 -19 1q-26 2 -48 4t-46 3h-11q-22 0 -54 -3v-14q-2 -66 -2 -134.5t7 -136.5q2 -27 16 -55.5t43 -44.5q14 -6 24.5 -8t14.5 -2l6 2q10 2 26.5 5t24.5 7q6 4 12.5 17.5t10.5 25.5l4 31l61 -8l-4 -31q-4 -23 -15 -47.5t-34 -38.5 q-16 -10 -38.5 -15.5t-39.5 -7.5l-4 -2h-12q-27 0 -64 17q-41 18 -66.5 58t-29.5 91q-6 72 -6 140.5zM62 644q-1 -18 0 -37q0 -25 1 -50v-65q18 2 33 3t25 1q16 0 30.5 -1t26.5 -3q16 -2 36 -4q8 -1 18 0q13 0 30 1q0 18 1 34t1 20q-2 16 -2 30.5v26.5q-2 8 -2 15.5t-2 15.5 t-3 16t-3 19q-2 23 -4 42t-8 35q-4 10 -9.5 19.5t-11.5 19.5q-6 8 -35 17h-4q-14 3 -26 3q-17 0 -29 -7q-31 -20 -45 -66q-16 -43 -18 -85z" />
<glyph unicode="f" horiz-adv-x="419" d="M0 698l2 62h31q14 -2 27.5 -2h29.5q-2 23 -2 39v28v6l-4 74v33.5t-2 34.5q0 18 1 36.5t3 37.5v10q4 27 9 54.5t28 51.5q35 41 78 45q21 2 41 2t39 -2q10 -2 19 -2h19h31v-63h-31q-10 0 -21 1t-22 1q-39 4 -63.5 2t-42.5 -25q-12 -12 -15 -29.5t-5 -39.5q0 -4 -1.5 -6.5 t-1.5 -6.5q-2 -16 -3 -32.5t1 -32.5v-32.5t2 -33.5q0 -18 1.5 -37.5t1.5 -37.5v-7v-29.5t2 -39.5q8 0 16 1t16 1q27 2 52.5 3t52.5 1h30v-64h-30h-51.5t-51.5 -2h-34l6 -307l4 -94q0 -27 1 -52.5t1 -47.5q0 -47 -1 -85t-3 -63h100v-61h-31h-56t-40 -2h-129v61h31h63 q0 25 2 64q1 19 1 41t-1 45v47t-2 51q0 23 -1 47.5t-1 46.5l-6 307h-8h-51z" />
<glyph unicode="g" horiz-adv-x="440" d="M-2 280.5q0 69.5 2 137.5v74q2 16 1 32.5t-1 32.5q-1 23 -1 47t1 48q2 48 18 98q10 23 26.5 51t43.5 47q25 16 54.5 17t52.5 -5h4q14 -4 29.5 -9t31.5 -22v7l2 30h105l30 -2l-2 -61l-30 2h-41l-5 -76q0 -23 -1 -44t-3 -44q-6 -90 -6 -180v-406v-21t-2 -22v-73l4 -31 q2 -16 2 -32.5v-33.5q0 -12 -1 -24.5t-3 -24.5q0 -4 -1 -8t-1 -8q-4 -37 -14 -70q-8 -18 -24.5 -32.5t-32.5 -22.5q-12 -4 -29 -8t-33 -4q-39 0 -78 15t-69 48l-21 23l45 43l23 -23q31 -35 72 -41q16 -2 29 -2q22 0 36 6q20 10 25 21q4 12 6 25.5t4 27.5q0 4 1 9t1 9 q2 10 3 21.5t1 21.5q0 14 -1 27.5t-3 30.5q0 8 -1 16t-1 19q-2 14 -2 27v28q-16 -6 -32.5 -9t-31.5 -8h-6q-4 -2 -12 -2q-27 0 -64 19q-39 18 -64.5 58t-29.5 91q-6 70 -6 139.5zM59 281.5q0 -68.5 7 -134.5q4 -29 17 -57.5t42 -42.5q21 -11 34 -11q4 0 7 1h4q12 2 27.5 5 t23.5 7q10 10 15 19l10 18v375q0 47 2 92t6 92v30.5t2 31.5l-2 18q-2 8 -13.5 25.5t-21.5 31.5q-6 8 -12 10.5t-23 6.5l-6 2q-15 4 -27 4q-17 0 -26 -8q-31 -23 -47 -68q-14 -41 -16 -84q-2 -24 -2 -48q0 -20 1 -40q2 -16 2 -32.5v-32.5q0 -18 -1 -37t-1 -37 q-2 -68 -2 -136.5z" />
<glyph unicode="h" horiz-adv-x="526" d="M0 1139v61h31q6 0 12 1t14 1h49l27 -2l2 -29q4 -84 6 -166.5t2 -166.5q12 10 25.5 14t28.5 8h4q23 6 51.5 5t52.5 -19q27 -18 44.5 -46t25.5 -50q16 -52 18 -100q1 -24 1 -48t-1 -47v-63q1 -47 1 -93v-47q-1 -70 -3 -135v-166h27h33v-63h-84q-10 -2 -23.5 -2h-34.5h-30 v61h30h19q0 43 1 86t1 84q2 68 2 136.5v138.5q-2 16 -1 32.5t1 32.5q1 30 1 59v29q-1 43 -18 84q-6 20 -18 38.5t-27 29.5q-18 12 -55 2h-4q-16 -4 -23.5 -6t-11.5 -11q-8 -10 -12 -21t-8 -26l-13 -37q0 -47 -1 -94t-1 -94q-2 -116 -4 -230q-1 -57 -1 -114.5t1 -116.5h23h30 v-61h-71q-16 2 -29.5 2t-38.5 -2l-31 -4l-4 63l31 2q10 0 16.5 1t12.5 1q-1 77 -1 153v76q1 114 3 230q4 156 4 313.5t-8 317.5q-10 0 -15 -2h-59z" />
<glyph unicode="i" horiz-adv-x="274" d="M0 791v61h31q6 0 12 1t14 1h49l27 -2l2 -29q4 -80 6 -142.5t2 -112.5t-1 -94t-1 -89q-2 -65 -4 -141q-1 -38 -1 -86t1 -107h62v-63h-74q-18 1 -37.5 1t-42.5 -1l-33 -2l-4 61l31 2q10 0 19.5 1t17.5 1q-1 78 -1 139v56q1 78 5 141q0 43 1 84t1 88t-2 103.5t-6 130.5 q-10 0 -15 -2h-59zM72 1087v60q2 8 2 24v31h61v-59q-2 -8 -2 -23v-33h-61z" />
<glyph unicode="j" horiz-adv-x="440" d="M6 -274l45 43l23 -25q14 -16 32 -25q20 -10 39 -14t31 -4q18 0 35 8q20 10 25 21q4 12 6 25.5t4 27.5q8 66 9 134.5t1 133.5v105q2 39 0 63.5t-4 44.5q-4 16 -5 33.5t1 40.5v182q0 23 1 43.5t3 40.5q0 25 1 48.5t1 47.5q0 4 -2 37t-4 68l-76 -2v63h133l2 -28q0 -12 2 -34 t4 -43.5t3 -40t1 -20.5q0 -25 -1 -50t-3 -48l-4 -82v-74q1 -28 1 -55t-1 -55q0 -18 1 -33.5t3 -32.5q2 -20 4 -46.5t2 -67.5q-2 -27 -2 -52.5v-52.5q0 -68 -1 -137.5t-9 -136.5q-2 -16 -5 -34.5t-9 -35.5q-8 -18 -24.5 -32.5t-32.5 -22.5q-29 -12 -58 -12h-2q-27 0 -52.5 8 t-39.5 14q-18 8 -32.5 19.5t-24.5 21.5zM238 1139v59h61v-31q0 -16 2 -24v-60h-61v33q0 14 -2 23z" />
<glyph unicode="k" d="M0 1139v61h102l31 2v-31q0 -10 2 -36.5t3 -55t2 -53.5t1 -29v-161q0 -31 1 -62t1 -63v-152q0 -20 -1 -38.5t-1 -41.5l45 68q14 23 28.5 44t29.5 44q10 20 19 36.5t18 33.5q10 20 20 40.5t27 45.5q-6 0 -11.5 -1.5t-11.5 -1.5l-31 -2l-6 62l31 4q24 1 46.5 1t41.5 -1h72 v-61h-56l-12 -19q-20 -29 -32.5 -50.5t-22.5 -43.5q-16 -37 -39 -76q-27 -43 -59 -90l-9 -12l2 -4q35 -51 58.5 -95.5t52.5 -99.5q10 -23 22.5 -44t24.5 -44q23 -39 44.5 -79t37.5 -85h35h31v-61h-31h-33.5t-28.5 -2q-14 0 -29.5 -1t-35.5 -1h-31v63h58q-16 35 -34 67.5 t-38 67.5q-12 23 -24.5 45.5t-22.5 44.5q-25 47 -46.5 88t-47.5 84q-12 -20 -22.5 -38.5t-20.5 -40.5l-11 -25q2 -43 4 -85t2 -83q2 -31 3.5 -61.5t1.5 -61.5h59v-63h-31q-12 0 -22.5 1t-20.5 1h-38.5t-43.5 -2l-30 -2l-5 61l31 2q10 2 19.5 2h19.5q-2 31 -3 60.5t-1 60.5 q-6 111 -6 227v90t2 76q2 23 2 47.5v48.5q-2 12 -2 25.5v26.5v288q0 2 -1 15.5t-2 34t-2 44t-1 46.5h-74z" />
<glyph unicode="l" horiz-adv-x="329" d="M0 1139v61h33q4 0 12 1t16 1h72l29 -2v-29q10 -166 10 -331.5t-4 -329.5q-2 -116 -3 -230v-76q0 -76 1 -153h8q14 -2 25.5 -2h21.5h33v-61h-80q-35 0 -68.5 1t-60.5 -3l-31 -2l-6 63l31 2q14 0 30.5 1t34.5 1q-1 78 -1 154v77q1 114 3 228q2 156 4 314v45q0 135 -8 272 h-19t-20 -2h-63z" />
<glyph unicode="m" horiz-adv-x="839" d="M0 788v64h55q25 2 49 0l29 -2v-27q0 -4 1 -5t1 -5q31 35 80 47q23 4 47.5 4t52.5 -18q23 -12 39.5 -31.5t28.5 -40.5q4 10 10 17.5t15 17.5q10 10 36.5 30.5t63.5 20.5q23 2 50.5 -2t51.5 -22q41 -31 64 -86q14 -35 17 -74t7 -78q0 -12 1 -24.5t1 -22.5q4 -16 3 -33.5 t-1 -34.5v-14v-111.5t-2 -111.5q0 -49 -1 -98.5t-1 -98.5q8 0 16.5 -1t18.5 -1l31 -2l-4 -61l-31 2q-23 2 -39 1t-33 -1q-10 0 -22 -1t-29 -1h-33v63h64q0 49 1 99.5t1 101.5q2 53 2 109.5v111.5v14v30.5t-2 31.5q-2 12 -2 24.5v24.5q-4 35 -7 69.5t-16 63.5q-12 39 -41 59 q-18 12 -65 13q-27 0 -53 -31q-12 -14 -19.5 -26.5t-11.5 -34.5l-8 -45q4 -29 3 -54.5t-1 -52.5q-2 -16 -2 -31.5v-31.5q1 -48 1 -94v-46q-1 -68 -1 -137q-2 -41 -2 -83v-83h30h31v-61h-31h-32.5t-28.5 -2q-14 0 -28.5 -1t-35.5 -1h-30v63h61q0 43 1 86t1 84q2 67 3 135v45 q0 46 -1 92v68q1 22 1 44t-1 43q-2 42 -18 83q-16 45 -53 68q-10 6 -21.5 7t-34.5 -3q-31 -6 -51 -31q-14 -16 -21.5 -28.5t-11.5 -34.5l-4 -19v-197v-100q0 -16 -1 -31.5t-3 -31.5q-2 -29 -2 -53.5t4 -51.5q4 -31 4 -62.5t-2 -62.5v-47h58v-61h-74h-36.5t-43.5 -2l-31 -2 l-6 61l33 2q10 2 19.5 2h17.5q0 12 1 24.5t1 24.5q0 29 1 57.5t-3 57.5t-4 57.5t2 57.5q2 16 2 30.5v30.5v100q2 76 2 151t-4 151h-15q-8 0 -14 -1.5t-14 -1.5h-31z" />
<glyph unicode="n" horiz-adv-x="552" d="M0 791v61h57q23 4 49 0l27 -2l2 -27v-8q35 35 80 45q23 4 48.5 4t53.5 -16q29 -18 48.5 -47t29.5 -51q21 -48 23 -98q1 -28 1 -55q0 -21 -1 -42q0 -16 -1 -31.5t1 -31.5v-140.5t-2 -134.5q0 -41 -1 -84t-1 -84q6 0 14 1t18 1h31v-63h-31h-33.5t-27.5 -2q-14 0 -28.5 -1 t-37.5 -1h-30v63h30h33v86t2 84q0 67 1 135v46q0 46 -1 94v32.5t2 32.5q1 22 1 44t-1 43q-2 42 -18 83q-8 20 -22.5 38.5t-30.5 29.5q-12 8 -23.5 8t-34.5 -4q-29 -6 -49 -31q-14 -16 -22.5 -28.5t-12.5 -34.5l-4 -15q1 -34 1 -68v-33q-1 -50 -1 -100v-100q0 -16 -1 -31.5 t-1 -31.5q-2 -29 -3 -53.5t3 -51.5q4 -31 4 -62.5v-62.5q-2 -12 -2 -24.5v-22.5h60v-61h-74q-20 0 -37.5 1t-44.5 -3l-31 -2l-4 61l31 4h39v49q2 29 2 57.5t-4 57.5q-4 31 -3 59.5t3 57.5q0 14 1 28.5t1 30.5v100v152t-4 150h-74z" />
<glyph unicode="o" horiz-adv-x="407" d="M-1 310q1 32 1 67v33v49v96q0 41 3 76t13 71q4 16 4 33q4 25 12.5 53.5t41.5 51.5q16 10 37.5 15t38.5 7l6 2q6 1 12 1q30 0 63 -17q39 -18 65 -58t30 -92q14 -150 15 -276v-20q0 -116 -11 -228q-4 -47 -19.5 -95t-68.5 -87q-25 -19 -64 -19q-10 0 -21.5 1t-21.5 3l-4 3 q-16 4 -34.5 11t-35.5 27q-35 45 -45 104.5t-14 119.5q-3 28 -3 54v14zM61 310.5q0 -31.5 2 -66.5q4 -49 12.5 -101.5t35.5 -87.5q6 -6 12 -9t22 -7h7q16 -4 26 -4q18 0 27 8q35 23 47 55.5t16 81.5q10 117 10 241q0 4 1 8q0 121 -15 263q-4 27 -17.5 55.5t-41.5 45.5 q-25 10 -37 10h-4l-4 -2q-12 -2 -27.5 -5t-23.5 -8q-14 -10 -18.5 -23t-6.5 -38q-2 -10 -3 -20.5t-5 -20.5q-14 -59 -15 -131v-96v-49v-33v-66.5z" />
<glyph unicode="p" horiz-adv-x="538" d="M0 791v61h55q10 0 23.5 -1t36.5 1l32 2v-25l11 7q23 14 44 18t34 6h4q13 2 24 2q28 0 44 -14q24 -21 40 -43l10 -14q29 -35 37 -69t11 -81q1 -34 1 -68v-35q-1 -51 -4 -100q-2 -35 -2 -69.5v-69.5q0 -133 -24 -213q-16 -53 -51 -83t-82 -30q-10 0 -18.5 1t-18.5 3l-4 3 q-16 4 -32.5 9t-31.5 21q0 -35 1 -68.5t3 -68.5v-10v-23.5t-1 -44t-1 -50.5v-42q8 -2 25 -2h31v-61h-68q-19 1 -38 1t-38 -1l-30 -5l-7 62l31 4q10 0 17.5 1t15.5 1v51.5t1 49t1 39v20.5v8q-6 150 -6 293q0 47 2 93t6 91l4 62q1 22 1 43v21q-1 32 -3 65q-2 23 -2 46v46v157 q-23 0 -31 3h-53zM137 143l2 -30q0 -12 5.5 -18.5t15.5 -14.5q4 -4 11 -10.5t11 -12.5q6 -8 12.5 -11t22.5 -7h6q6 -2 21 -2q35 0 51 22.5t22 42.5q20 70 21 197q0 35 1 71t3 70q2 49 3 100v33q0 33 -1 66q-2 41 -8 63.5t-27 49.5l-12 16q-16 20 -25 28q-5 4 -14 4 q-4 0 -10 -1h-4q-33 -4 -61.5 -19.5t-32.5 -60.5l-5 -31v-57q0 -23 1 -44.5t1 -43.5q2 -35 5 -69v-26q0 -21 -2 -42q0 -16 -1.5 -31t-3.5 -31q-4 -45 -6 -90t-2 -90v-21z" />
<glyph unicode="q" horiz-adv-x="485" d="M-2 218.5q0 33.5 2 68.5q2 16 2 31.5v29.5v77t2 75v139q0 25 1 55.5t8 59t24.5 53t48.5 41.5q10 4 32 11q15 4 29 4q9 0 17 -1h4q10 -2 31.5 -6t44.5 -18l12 -9v25h78q10 -2 19 -2h20h30v-61h-71q-10 0 -15 2v-70t-2 -70q-2 -37 -3 -74.5t-1 -74.5q0 -23 1 -43.5t1 -42.5 q0 -66 1 -132.5t1 -131.5q-2 -104 -2 -217t9 -234q6 0 12 1t14 1h31v-63h-88q-12 -2 -26 -2h-32h-32v61h32h25q-6 156 -6 301q-14 -10 -26.5 -13t-26.5 -7l-4 -2q-10 -2 -18.5 -3.5t-16.5 -1.5q-33 0 -56.5 12.5t-44.5 26.5q-29 20 -37 50t-12 59l-4 27q-8 35 -8 68.5z M59 223.5q0 -30.5 7 -59.5q4 -8 4 -16.5t2 -16.5q4 -20 8 -38.5t14 -26.5q25 -16 44 -24q10 -4 22 -4q9 0 20 3h4q16 4 23.5 7t11.5 11q14 18 21 47l6 19l6 16v13q1 44 1 88v43q-1 65 -3 131v88q0 39 1 76.5t3 74.5v35l-2 31q-6 47 -34 61.5t-58 18.5h-6q-3 1 -7 1 q-13 0 -34 -11q-33 -16 -40 -56.5t-7 -93.5v-2q1 -23 1 -47v-24q-1 -36 -1 -70q0 -37 -2 -74v-25q0 -24 2 -49q0 -16 -1.5 -33.5t-1.5 -33.5q-4 -29 -4 -59.5z" />
<glyph unicode="r" horiz-adv-x="421" d="M-2 791l2 63l31 -2h32q10 0 20.5 1t20.5 -1l27 -2l2 -27q0 -14 1 -27.5t3 -23.5q10 16 22.5 33.5t28.5 28.5q42 30 84 30h12q48 -6 78 -28l27 -19l-35 -51l-26 18q-10 6 -38 16q-7 2 -15 2q-22 0 -50 -20q-29 -18 -49 -60t-29 -77l-4 -20v-11q0 -23 -1 -78t-2 -117.5 t-2 -120.5t-1 -83q-3 -26 -3 -54v-13q1 -34 3 -70v-29h29h31v-61h-31q-14 0 -25.5 -1t-21.5 -1h-80l-31 2l2 61h31q10 -2 18.5 -2h16.5v29q-2 36 -3 72v24q0 24 1 47q2 25 3 81t2 119.5t1 119v75.5v51.5v29t-1 16.5t-1 14q0 10 -1 23.5t-3 42.5h-8q-8 0 -17.5 -1.5 t-19.5 1.5h-31z" />
<glyph unicode="s" horiz-adv-x="423" d="M0 -25l4 31v74l2 8q0 20 1 38.5t-3 35.5l62 10q4 -16 9 -31.5t11 -27.5q37 -66 90 -76q5 -1 10 -1q31 0 56 23q41 37 43 89v10q0 47 -17 84q-10 20 -20 36.5t-21 32.5q-6 8 -11 15.5t-11 13.5l-33 47q-12 18 -26.5 34.5t-28.5 33.5l-27 28q-33 39 -51 88q-4 8 -4 13 q-10 35 -17 69q-4 29 -4 59.5t11 53.5q35 78 104 94q17 4 33 4q51 0 102 -37l10 -8v43h62v-61q-2 -18 -1 -39t5 -35l-59 -20q-6 18 -19.5 36.5t-32 33t-40 21.5t-46.5 1q-37 -6 -63 -60q-4 -10 -4 -29.5t3 -41t7 -40t6 -26.5l4 -6q14 -43 41 -72l27 -28q16 -16 30.5 -34 t28.5 -38l33 -47l20 -29q27 -37 48 -80q16 -32 21 -66q3 -19 3 -38q0 -15 -2 -29q-8 -72 -63 -123q-44 -39 -95 -39q-11 0 -22 2q-55 10 -98 60q0 -10 -1 -17.5t-1 -17.5l-5 -31z" />
<glyph unicode="t" horiz-adv-x="358" d="M-10 795v61h30h32t40 2v70q-2 20 -2 44.5v67.5v31h62v-31q0 -41 1 -66.5t1 -43.5q0 -16 1 -32.5t1 -39.5q29 2 53 2h41h31v-61h-31q-18 0 -43 -1t-53 -1v-2v-34t-2 -34q0 -25 -1 -50.5t-1 -49.5q0 -31 -1.5 -63t-3.5 -62q0 -37 -1 -74t-1 -74q0 -35 1 -55t1 -41 q2 -23 3.5 -49.5t1.5 -77.5t18 -65q10 -10 29.5 -11.5t40.5 0.5h22l31 2l2 -63h-51q-10 -2 -31 -2q-23 0 -45.5 5t-40.5 21q-37 37 -37 113q-2 49 -2 75.5t-2 49.5q0 20 -1 41.5t-1 56.5q-1 25 -1 50v25q1 38 3 75q2 31 3 61.5t1 61.5v52.5t2 49.5q0 16 1 33.5t1 34.5 q-23 -2 -40.5 -2h-31.5h-30z" />
<glyph unicode="u" horiz-adv-x="544" d="M0 788v64h51q9 0 21 1h8q8 0 16 -1l29 -4v-27q0 -47 -1 -94t-1 -92q-2 -72 -2 -143.5v-143.5q2 -16 1 -32.5t-1 -32.5q-1 -22 -1 -44t1 -43q2 -42 18 -83q8 -20 22.5 -39t31.5 -29q18 -12 55 -4q31 6 51 31q14 16 22.5 27.5t12.5 33.5l2 14v101.5t2 101.5v101v31.5 t2 31.5q2 29 3 53.5t-3 50.5q-4 31 -5 66v23q0 23 1 47v34h-57v64h92l26 -4v-94v-67t4 -60q4 -31 3 -59.5t-3 -57.5q0 -14 -1 -28.5t-1 -30.5v-103v-149.5t4 -149.5h74v-61h-33q-16 0 -24 -2h-27q-16 0 -22 2l-27 2l-2 26q0 2 -1 3t-1 6q-16 -18 -35.5 -29.5t-42.5 -15.5 q-10 -2 -20.5 -4.5t-20.5 -2.5q-31 0 -61 19q-29 18 -48.5 46t-29.5 52q-23 48 -24 98v33q0 32 1 64v63q-1 48 -1 96v48q1 72 1 143q2 39 2 77v79h-6q-6 0 -12 -1.5t-12 -1.5h-31z" />
<glyph unicode="v" horiz-adv-x="565" d="M0 788v64h176v-61h-51q8 -35 16.5 -71t14.5 -73l6 -47q4 -23 7 -43t7 -41q14 -59 25.5 -116.5t21.5 -112.5q6 -35 12.5 -71t14.5 -73l18 95q10 43 17.5 85t13.5 76l12 68q10 63 22.5 127.5t24.5 128.5l13 63h-19h-33v64h89q10 2 23 2h34h33v-61h-33h-31q-4 -20 -7 -39 t-7 -39l-47 -258l-13 -66q-6 -35 -13 -77t-17 -87l-29 -143l-22 -96h-60q-16 74 -30.5 146.5t-26.5 141.5q-10 57 -21.5 112.5t-25.5 115.5q-4 23 -7.5 44t-7.5 44l-6 47l-33 151h-28h-33z" />
<glyph unicode="w" horiz-adv-x="868" d="M0 788v62h31h32.5t22.5 2h90v-61h-33h-18l10 -54l2 -12q4 -23 8.5 -44.5t8.5 -43.5l12 -74q4 -23 7 -46t7 -46q4 -18 8.5 -37.5t8.5 -38.5q4 -20 9 -40.5t9 -43.5l10 -47q2 -14 4 -27.5t7 -27.5l12 -68l8 40l8 40l12 58q6 25 11.5 49t9.5 49l10 45q10 43 18.5 86t14.5 88 q2 20 7 48t11.5 53.5t11.5 44t5 20.5h59q10 -41 18.5 -81t14.5 -81l12 -61v-2q0 -8 4 -25l13 -88q0 -4 1 -5t1 -5l4 -29l6 -33q0 -10 2 -16q0 -6 4 -23l6 -22l15 -68l26 -104l4 14q4 29 9.5 58.5t11.5 58.5q4 25 8 50.5t8 49.5q2 12 8 39t13 60l26 124l4 23q4 31 7.5 49.5 t6.5 33.5t7 34.5t10 54.5l2 10q0 8 2 13h-53v61h176v-64h-33h-28q0 -6 -1 -11t-4 -11l-2 -10q-6 -33 -9 -52.5t-6 -35t-6 -34t-7 -48.5l-4 -23l-27 -129q-8 -31 -13 -57.5t-7 -36.5q-4 -25 -8.5 -50.5t-8.5 -49.5q-6 -29 -11 -58.5t-9 -58.5q-4 -23 -10.5 -46.5t-12.5 -45.5 q-2 -10 -4 -21.5t-6 -23.5h-62q0 4 -5 20.5t-9 36.5q-12 43 -26.5 94t-18.5 74l-14 68q0 6 -4 18q-2 8 -4 14t-2 17l-5 18q0 8 -1 14.5t-1 12.5q-4 8 -4 15t-2 15q0 4 -1 6.5t-1 4.5l-12 90l-4 22l-12 64q0 2 -1.5 5t-1.5 7q0 -4 -1 -8t-1 -8q-6 -45 -14 -89t-18 -89 l-11 -43l-20 -99l-12 -59l-50 -221l-61 2q-2 10 -4 18q-4 20 -4 29l-12 53q-4 29 -10.5 57.5t-10.5 51.5l-10 57l-10 47q-4 20 -8.5 39.5t-8.5 38.5q-12 39 -18 80l-17 96q-2 16 -4 34.5t-6 37.5l-14 86l-4 12l-13 63h-61z" />
<glyph unicode="x" horiz-adv-x="557" d="M-8 53h59q4 10 8 18.5t9 16.5q16 29 24 57q10 25 18.5 49.5t16.5 49.5l18 51q4 16 11.5 30.5t13.5 28.5q4 10 8 18.5t8 18.5q4 8 7.5 16.5t7.5 16.5l6 20v5l-12 34l-19 49q-6 14 -11 28.5t-9 29.5q-6 20 -17 47l-12 33q-4 8 -7 15t-7 17q-4 14 -8.5 26.5t-8.5 25.5 q-8 14 -14 39h-59v63h32q20 0 32.5 -1t23.5 -1h86v-63h-31h-19l7 -17l18 -51l12 -31l15 -35l8 -24t8 -23l18 -55l9 -27q4 10 7 19.5t7 19.5l25 68q2 6 4 11t4 9q8 16 10 25q4 8 8 25q4 14 9.5 28.5t11.5 28.5l10 24v2h-51v62h30h32.5t23.5 2h88v-61h-33h-25v-5 q-6 -12 -6 -18l-12 -31l-18 -51l-9 -27l-12 -28l-8 -19l-25 -65q-6 -20 -16 -45l-23 -56l23 -59q12 -29 24.5 -59.5t22.5 -61.5q10 -29 21 -53q4 -10 7 -18.5t7 -18.5q4 -18 18 -41l21 -47l10 -20q0 -6 4 -15q8 0 15.5 1t17.5 1h31v-63h-84q-12 0 -24.5 -1t-33.5 -1h-30v63 h41l-5 13l-20 40l-21 48q-4 10 -7 18t-7 18l-18 54l-47 116l-13 -30q-6 -14 -12 -27.5t-10 -28.5l-19 -51l-34 -98q-6 -18 -13.5 -33.5t-15.5 -30.5l-4 -8h14l31 2l2 -61l-31 -2h-110l-31 -2z" />
<glyph unicode="y" horiz-adv-x="557" d="M0 788v64h176v-64h-51q8 -35 15 -70.5t14 -70.5q4 -12 5 -24.5t3 -22.5q4 -23 7 -43t7 -41q14 -59 25.5 -116.5t21.5 -112.5q4 -23 8.5 -46.5t8.5 -50.5q2 -14 3 -27t5 -26q0 4 2 8l4 23q4 16 7 33.5t7 36.5q10 43 17.5 85t13.5 76l12 66q10 66 22.5 129t24.5 129l11 63 h-19h-31v64h89q10 0 22 1t35 1h31v-64h-62q-4 -18 -7 -37.5t-7 -39.5q-14 -63 -25.5 -128t-23.5 -128q-2 -16 -4 -32.5t-7 -33.5l-30 -164l-15 -69l-4 -23l-14 -59q-4 -16 -7 -32.5t-7 -33.5l-9 -43q-4 -23 -7 -43t-7 -41l-4 -14q0 -4 -4 -17l-19 -100q-4 -12 -5 -25.5 t-3 -25.5h19h30v-61h-30q-18 0 -30.5 -1.5t-27.5 -1.5q-12 -2 -25.5 -2h-31.5h-33v62h33h31q4 16 6 32.5t6 32.5q4 27 9 52.5t12 52.5l4 14q0 4 1 8t1 9q4 18 7 37.5t7 39.5v9l-2 16q-8 41 -16.5 88t-16.5 94l-16 94q-10 55 -21.5 111.5t-25.5 116.5q-4 23 -7.5 44t-7.5 44 q-2 12 -3 24.5t-5 22.5q-6 39 -13.5 77.5t-17.5 73.5h-61z" />
<glyph unicode="z" horiz-adv-x="507" d="M0 -12v67l33 70q10 16 10 20q2 4 7 13.5t22 38.5q12 23 29.5 53.5t36 63t34.5 64.5t29 56q31 70 64.5 150t60.5 143q10 20 17 36.5t11 31.5h-34.5t-40.5 -2q-29 -2 -55.5 -3.5t-55.5 -1.5q-14 0 -26.5 1.5t-24.5 1.5q-10 2 -25 2v-72h-61v31q0 2 -1 28.5t-1 42.5v31h92 q10 -2 22.5 -2h24.5q27 0 53.5 1t54.5 1q41 4 74 5h13q25 0 43 -3l14 -2v-68l-37 -81q-27 -66 -60.5 -146t-66.5 -151q-12 -25 -28.5 -57t-35 -64.5t-36 -64.5t-31.5 -56l-25 -45l-10 -23l-22 -45q12 2 24 2h23h36.5h61.5t62.5 -1t37.5 -1q16 0 27 -2h31v45l-2 33l63 2v-31 q0 -2 1 -30v-19q0 -18 -1 -33v-28l-29 -2h-33.5t-33.5 2q-8 0 -14.5 1t-12.5 1h-34.5t-60.5 1t-61.5 1h-37.5q-12 0 -27.5 -1t-32.5 -3q-18 -2 -35 -2h-20z" />
<glyph unicode="{" horiz-adv-x="479" d="M0 551v63q37 0 59 19q23 25 25 68.5t0 74.5v33v22q4 63 9 119t32 119l4 12t4 13q10 27 22.5 53.5t30.5 50.5q35 39 73 45t73 6h33v-61h-33q-35 0 -57.5 -4t-38.5 -27q-16 -16 -24.5 -38.5t-18.5 -47.5q-8 -16 -11 -27q-23 -53 -27.5 -104t-7.5 -111q-2 -8 -2 -24v-27 q4 -39 0 -94t-41 -94q-4 -2 -6 -4t-6 -4q18 -16 35 -45q25 -47 27 -129v-20.5t2 -20.5q0 -51 3 -100.5t13 -98.5t35.5 -98.5t56.5 -77.5q12 -12 22.5 -14.5t32.5 -0.5h19h31v-63h-31h-16h-17q-20 0 -40.5 5t-43.5 28q-47 43 -73.5 103.5t-36.5 105.5q-10 53 -13.5 104 t-5.5 105v41q-2 55 -13 83.5t-25.5 43t-30 16.5t-23.5 2z" />
<glyph unicode="|" horiz-adv-x="169" d="M0 266v350q0 25 1 68t3 90q2 35 3 65.5t1 51.5q2 61 1 106t-5 88q-2 37 -3 79t-1 96v32h63v-32q0 -53 1.5 -94.5t3.5 -78.5q2 -43 3 -88t1 -110q-2 -18 -2 -50t-2 -67q-2 -47 -3.5 -90t-1.5 -66v-350v-102t3 -101q0 -37 1 -73.5t1 -75.5v-31h-62v31q0 37 -1 75t-1 72 q-2 51 -3 102.5t-1 102.5z" />
<glyph unicode="}" horiz-adv-x="483" d="M0 1186v61l31 2q35 0 72.5 -6t72.5 -45q6 -10 13.5 -17t13.5 -16q4 -6 7 -11t7 -9q12 -14 17.5 -29.5t9.5 -32.5q0 -8 4 -16q10 -35 17 -67.5t11 -67.5q4 -25 4.5 -49.5t2.5 -48.5q0 -6 1 -12.5t1 -12.5v-33q-2 -31 1 -75t25 -68q20 -20 58 -19l2 -63q-10 0 -24.5 -2 t-29 -15.5t-24.5 -43t-12 -82.5v-41q-2 -53 -4.5 -104.5t-12.5 -104.5q-4 -29 -14 -57.5t-25 -57.5q-6 -10 -17 -29.5t-26.5 -40t-36 -38t-45.5 -21.5q-8 0 -15 -1t-15 -1h-15q-4 0 -7 1t-7 -1h-33v63h31h18q8 0 15.5 -1t15.5 1q18 4 42 34t40 61q23 45 33 98q10 51 12 99 t4 100v41q0 41 7 72.5t20 56.5q12 27 30 43q-2 4 -4 5t-6 5q-37 39 -41 94t-4 94q2 10 2 17.5v11.5q-2 8 -2 22q-2 25 -3 48.5t-3 46.5q-4 31 -10 61.5t-17 63.5q-2 4 -3 10t-3 10q-4 10 -6 20.5t-6 16.5q-4 4 -9 10t-9 10q-4 8 -10.5 15.5t-12.5 15.5q-16 20 -38.5 24.5 t-59.5 4.5h-31z" />
<glyph unicode="~" horiz-adv-x="514" d="M2 565l4 31q10 47 43 80q16 14 42 24.5t61 -4.5q23 -8 43 -21t36 -26q10 -10 20.5 -16t18.5 -12q33 -18 58 -9q10 4 19 18.5t11 35.5l4 30l62 -6l-2 -31q-4 -35 -22.5 -63.5t-47.5 -40.5q-18 -8 -41 -8q-37 0 -71 20q-10 6 -21.5 14.5t-23.5 16.5q-41 33 -63.5 41 t-39.5 -8q-18 -18 -24 -45l-5 -31z" />
<glyph unicode="&#xa1;" horiz-adv-x="188" d="M-2 967v92h61v-92h-61zM0 793v30h61v-30q0 -23 2.5 -44.5t4.5 -43.5q2 -25 3 -49.5t1 -51.5q0 -49 -1 -96t-3 -88q-4 -72 0 -144.5t10 -144.5q4 -57 7 -115.5t3 -113.5v-31h-61v31q0 53 -4.5 110.5t-8.5 114.5q-4 72 -9 147.5t-1 147.5q2 41 4 88t2 96q0 43 -6 92 q-2 23 -3 47.5t-1 47.5z" />
<glyph unicode="&#xa2;" horiz-adv-x="522" d="M0 815v37q-2 90 31 182q10 31 34.5 68t59.5 61q12 10 26.5 14.5t30.5 8.5q0 35 -1 70.5t-1 72.5l-2 31l64 2v-31q0 -37 1 -73.5t1 -73.5l20 -4h6q23 -6 46.5 -15.5t45.5 -34.5v50h62v-150q-2 -8 -2 -22l-60 -11q-10 27 -21 49.5t-28 45.5q-10 12 -22 17t-35 9l-6 2h-4 q2 -166 0 -329.5t-4 -344.5v-73q-2 -84 -3 -167t-1 -167q20 4 42.5 8t34.5 12q14 10 24.5 31t14.5 39l4 31l62 -10l-4 -31q-6 -29 -22.5 -61.5t-45.5 -51.5q-23 -14 -51.5 -19t-50.5 -10h-8q0 -41 3 -78.5t7 -74.5l4 -49l-62 -6l-6 49q-4 41 -7 82t-3 84q-10 4 -18.5 7 t-18.5 7q-39 16 -78 65q-41 49 -46 107.5t-5 114.5q2 27 0 55q0 23 -1 43t-1 43q-4 55 -5 110.5t3 112.5q2 33 1 64.5t-3 66.5q-2 16 -2 35zM61 854q0 -18 1 -36.5t1 -35.5q2 -35 4.5 -68.5t-1.5 -68.5q-4 -53 -3.5 -108.5t5.5 -108.5l4 -86v-59q-2 -51 2 -97.5t32 -83.5 q29 -35 58 -49q8 -4 10 -4q2 82 3 163t1 161l2 76q2 178 3 342.5t-1 330.5q-12 -2 -22 -10q-23 -14 -42.5 -42t-29.5 -56q-27 -80 -27 -160z" />
<glyph unicode="&#xa3;" horiz-adv-x="608" d="M-2 639l4 63l31 -2q20 -2 32.5 -3t22.5 -1q-2 25 -2 49.5v47.5v59q-2 47 6 91t25 91q10 31 34.5 68t59.5 61q33 23 72 23t67 -6l6 -2q25 -4 48.5 -13.5t44.5 -34.5v48h61v-148q-2 -8 -2 -24l-59 -11q-10 29 -20.5 51.5t-27.5 43.5q-10 12 -23 17t-36 11h-6q-16 4 -43 6 t-47 -12q-23 -16 -41.5 -43t-28.5 -55q-29 -78 -29 -160v-30.5t3 -28.5q0 -25 -1.5 -50.5t1.5 -48.5h29.5t33.5 2q23 2 41 2h33h30v-61h-30q-12 0 -30.5 -1t-39.5 -1q-18 -2 -34.5 -3t-30.5 -1l6 -94h14q18 2 44 3t73 -3l30 -2l-4 -64l-30 4q-45 2 -68.5 2t-40.5 -2 q-4 0 -8 -1t-8 -1q4 -70 5 -137.5t3 -132.5q0 -4 1 -9.5t1 -11.5q2 -29 1 -64.5t-17 -68.5q10 0 16 2q12 0 18 2q10 2 22.5 3t25.5 -1q29 -2 61.5 -2h67.5q12 0 29.5 -1t35.5 -1q18 -2 36.5 -2h35.5q0 18 1 36.5t-1 39.5v31l61 2l2 -31v-139l-30 -2q-18 0 -47 1t-60 1 q-18 2 -35.5 2h-27.5q-37 0 -70 1t-62 3q-10 0 -18 -1t-18 -1l-23 -4q-23 -2 -40 -2h-36h-82v61h31q27 0 41 14q18 18 19.5 54.5t-1.5 64.5v23q-2 66 -3 132t-5 138h-98v62h31q29 0 43 -1t22 1l-6 96q-10 0 -24.5 1t-36.5 3z" />
<glyph unicode="&#xa4;" horiz-adv-x="561" d="M0 236l18 24l33 43q4 8 10 14q2 2 6.5 8.5t8.5 12.5q-20 29 -37 72q-14 37 -19.5 81t-1.5 89q4 72 39 133q8 16 15 22q-4 4 -4 6q-18 18 -30.5 36t-23.5 40l-12 29l55 24l15 -26q14 -35 41 -60l2 -4q51 35 118 35q72 0 129 -41q8 14 18.5 28.5t16.5 20.5q12 8 19 23 l14 26l53 -30l-14 -27q-10 -20 -27 -37q-4 -4 -16 -19.5t-18 -25.5l10 -12q37 -53 47 -130t-8 -163q-12 -53 -45 -92l14 -29q10 -8 13 -13t7 -9l19 -21l20 -22l-45 -43l-20 22q-10 10 -14.5 16.5t-8.5 10.5l-16 18q-8 8 -19 27q-35 -23 -73 -31q-12 -2 -23.5 -3t-21.5 -1 q-41 0 -86 16q-20 6 -35 19l-17 -21q-4 -2 -6 -6l-32 -43l-19 -24zM80 575q-2 -35 1 -71.5t15.5 -70.5t33 -60.5t52.5 -40.5q27 -12 62 -13q8 0 15 1.5t17 3.5q45 10 77 41.5t42 74.5q12 55 9 125t-37 121q-23 31 -58 48.5t-76 17.5q-84 0 -122 -68q-27 -51 -31 -109z" />
<glyph unicode="&#xa5;" horiz-adv-x="643" d="M0 1176h31q23 2 44 1t42 -1q14 -2 26.5 -2h24.5h31v-64h-31h-33l12 -43q4 -10 9.5 -26.5t11.5 -32.5l25 -80l30 -109l66 -213l51 168q4 14 10 26.5t10 24.5t8.5 23.5t8.5 21.5q10 25 16 50.5t13 52.5q6 23 12 48.5t14 47.5l12 43h-36l-31 2l2 62h31q31 -2 47 -2h32 q10 0 23.5 1t32.5 1h30v-64h-65l-18 -61q-16 -47 -25 -95q-8 -27 -14.5 -52t-16.5 -54q-4 -12 -9 -24.5l-9 -22.5l-19 -47l-59 -197h4q23 2 41 3t33 1h31v-63h-31h-30.5t-39.5 -2q-10 -2 -26 -2v-93h38.5t59.5 -2l31 -2l-5 -63l-30 2q-37 2 -57.5 3t-36.5 -1q0 -10 1 -22.5 t1 -22.5q2 -53 2 -104.5v-104.5v-16q0 -4 -1 -10.5t1 -10.5h32h31v-61h-31q-23 0 -38 -1t-29 -1q-14 -2 -30.5 -2h-39.5h-31v61h31h41q0 18 2 29v12q0 51 -1 103.5t-1 103.5q0 10 -1 21.5t-1 23.5h-129v61h109q4 0 8 1t10 1v95h-42t-56 4l-31 2l4 61l31 -2q29 -4 45 -4h31 l-76 244q-8 27 -15.5 53.5t-15.5 56.5l-24 76l-21 64l-12 43l-8 20h-35l-31 -2z" />
<glyph unicode="&#xa6;" horiz-adv-x="174" d="M0 236q2 16 2 41.5t2 54.5q2 31 3 62.5t1 56.5l2 30h62v-30q-2 -27 -3 -60t-3 -61q0 -29 -1.5 -53.5t-1.5 -40.5q-2 -55 -1 -93.5t6 -76.5q2 -33 3 -69t1 -83v-31h-64v31q0 47 -1 82t-3 67q-2 39 -3 78t-1 95zM4 1229.5v32.5v30h62v-30q0 -14 1 -27.5t1 -30.5 q2 -14 3 -28.5t1 -30.5v-29q4 -47 0 -92q-4 -49 -4 -100.5t2 -100.5q0 -25 1 -49t1 -49v-31h-64v31v96q-2 51 -2 102.5t4 104.5q2 20 1 42t-1 44v31q-2 14 -2 26.5t-2 28.5q-2 14 -2 29.5z" />
<glyph unicode="&#xa7;" horiz-adv-x="403" d="M0 -20l4 30v64l2 6q0 16 1 31.5t-3 29.5l62 11q6 -27 16 -50q14 -23 36.5 -42t39.5 -21q29 0 55 20q20 18 25.5 26.5t7.5 27.5q2 27 0 49t-13 45q-16 33 -36.5 61.5t-49.5 61.5q-14 16 -27.5 33.5t-25.5 33.5l-6 9q-16 23 -31.5 44t-25.5 48q-4 6 -4 12t-2 10l-7 19 q-43 119 95 237l18 17l-37 51l-6 8q-16 23 -31.5 44.5t-25.5 47.5q-4 6 -4 12.5t-2 10.5l-7 18q-25 61 7 125q29 59 92 76q63 14 119 -29q2 0 4 -2v33h61v-58q-2 -16 -2 -32.5t4 -26.5l-57 -22q-10 31 -44 58.5t-73 16.5q-23 -4 -34 -17t-15 -24q-18 -39 -4 -75 q4 -6 5 -13.5t3 -13.5l6 -16q6 -18 18.5 -37t28.5 -37l6 -8l52 -66q31 -35 54 -67.5t40 -67.5q37 -74 12 -141q-18 -55 -78 -107l-20 -18l-27 -25l19 -20q31 -35 54 -68t40 -67q16 -35 18 -66t0 -61q-2 -37 -16.5 -55.5t-38.5 -41.5q-16 -14 -43 -25.5t-55 -9.5 q-25 2 -47.5 15.5t-40.5 32.5v-21l-5 -31zM76 561q4 -6 5 -13t3 -13l6 -17q6 -20 18.5 -37.5t28.5 -36.5l2 -4l23 21l20 20q96 82 51 172q-12 25 -26 47.5t-35 44.5l-18 -16q-106 -90 -78 -168z" />
<glyph unicode="&#xa8;" horiz-adv-x="366" d="M0 1001v31v29l29 2h30h13l28 -2v-29q2 -4 1 -16t-1 -15v-30h-30h-9h-14h-18l-27 2zM182 1001v31l2 31h31h8h15h18l27 -2l2 -29v-31v-28l-31 -2h-29h-12l-29 2z" />
<glyph unicode="&#xa9;" horiz-adv-x="653" d="M1 842.5q1 56.5 11 113.5q10 41 28.5 83t43.5 77q74 98 199 98q74 0 145 -38q72 -41 107 -113q29 -55 34.5 -113.5t0.5 -111t-17 -93t-18 -59.5q-29 -76 -93.5 -123t-146.5 -53h-19q-78 0 -141 37q-98 59 -125 188q-10 51 -9 107.5zM62.5 849q-1.5 -50 8 -97t33 -86 t64.5 -64q55 -35 123 -31q63 4 112.5 41t71.5 97q12 35 22.5 76.5t12.5 84.5t-5 86t-26 80q-27 53 -81 85t-115 32q-92 0 -148 -74q-23 -29 -38 -64.5t-23 -70.5q-10 -45 -11.5 -95zM147 950q0 41 17 74q16 35 53 55q18 10 37.5 10.5t36.5 -4.5h2q10 -2 19.5 -4t19.5 -8v19 h61v-33v-2q0 -12 -2 -27.5t-14 -40.5l-58 2q-6 16 -16 27q-4 2 -7 3t-13 3h-2q-25 6 -35 0q-10 -4 -15.5 -12t-9.5 -15q-12 -25 -12 -47q0 -4 1 -10t1 -12q0 -12 1 -25.5t-1 -25.5q-2 -18 -1 -36t3 -38q0 -20 2 -31v-22q-2 -35 10 -48q10 -10 21 -12q18 -6 24 -6l4 2 q6 0 17.5 1t15.5 3t5 5t3 5l7 31l61 -12l-8 -31q-2 -14 -12.5 -28.5t-28.5 -24.5q-10 -6 -25.5 -8t-27.5 -4h-5h-8q-20 0 -43 8q-27 10 -43 26q-25 23 -27.5 48.5t-2.5 46.5v18q0 20 -2 29q0 20 -1.5 40.5t1.5 41.5q2 10 1 21t-1 22q-2 8 -3 26z" />
<glyph unicode="&#xaa;" horiz-adv-x="397" d="M-2 686.5q0 30.5 2 58.5q0 6 1 13.5t1 15.5q0 16 -2 25q0 20 2 43.5t18 50.5q10 14 26.5 25.5t35.5 19.5q20 6 42.5 7t39.5 -3h6q8 -2 16.5 -2t18.5 -4q0 8 2 12q2 33 1 61.5t-11 59.5q-10 25 -31 43q-10 6 -23 4h-19t-20 -2q0 -2 -2 -3t-4 -5q-14 -14 -26 -43l-58 24 q6 12 14.5 27.5t22.5 32.5q18 23 35 24q14 4 28.5 6.5t26.5 2.5h2q31 0 58 -17q23 -16 36 -36.5t19 -36.5q14 -39 14 -75t-2 -71q0 -8 -1 -16t-1 -19v-58.5t1 -76.5t3 -83t4 -77h62v-63l-119 2l-2 10q-20 -10 -38.5 -15t-29.5 -5h-8q-20 0 -47 6q-78 20 -88 76 q-6 31 -6 61.5zM61 687q0 -25 5 -50q0 -6 9 -14.5t31 -12.5q25 -6 37 -4q12 0 36 9.5t28 25.5l2 8q-4 53 -4 111.5v107.5l-8 6l-33 7h-8q-37 4 -52 -2q-27 -10 -32 -23q-8 -10 -9.5 -22.5t0.5 -30.5v-31q0 -20 -2 -31v-54z" />
<glyph unicode="&#xab;" horiz-adv-x="479" d="M39 614l8 10q8 11 18.5 23t22.5 26.5t21 24.5l49 50l22 20l43 -43l-22 -23l-45 -45q-10 -12 -25.5 -29.5t-26.5 -31.5q10 -12 23.5 -27.5l27 -31t27 -29.5t21.5 -23l20 -20l-43 -45l-22 22q-12 12 -32 33t-38 42.5t-32.5 37.5t-14.5 18zM203 616l8 8q8 9 18.5 20 t22.5 22.5t20 19.5q10 10 28.5 24.5t21.5 18.5l24 21l39 -50l-23 -20q-8 -4 -24 -18.5t-23 -20.5q-10 -8 -22 -21.5t-23 -23.5l48 -48t44 -40l23 -21l-39 -47l-24 21q-12 10 -32 28.5t-38.5 37t-32.5 31.5t-14 15z" />
<glyph unicode="&#xac;" horiz-adv-x="593" d="M0 647v62h33h40.5t41.5 2q45 0 91 1t91 -3q23 -2 45.5 -2h44.5q41 2 84 0h25l4 -27q4 -29 3 -55.5t-3 -55.5q-2 -16 -2 -30.5v-28.5v-31h-64v31q0 16 1 31.5t3 31.5q0 18 1 37t1 35h-51q-23 0 -47.5 -1t-48.5 1q-43 4 -88 4t-88 -2h-84h-33z" />
<glyph unicode="&#xad;" horiz-adv-x="567" d="M0 563v62h31q31 0 61.5 -1t61.5 -1q63 -4 129.5 -4.5t150.5 8.5l31 2l6 -62l-31 -2q-86 -10 -154.5 -9t-133.5 3q-31 2 -61 3t-60 1h-31z" />
<glyph unicode="&#xae;" horiz-adv-x="653" d="M2 918q4 41 16.5 87t32.5 82q33 59 91.5 93t129.5 34q70 0 132.5 -31.5t101.5 -86.5q35 -49 48 -106.5t15 -110t-4 -95.5t-10 -63q-16 -78 -74.5 -134.5t-138.5 -72.5q-28 -6 -55 -6q-55 0 -107 22q-104 43 -151 168q-16 49 -23.5 105.5t-3.5 114.5zM63 913 q-4 -45 1.5 -95t21.5 -95t45 -81t72 -54q43 -16 84 -17q10 0 21 1t22 3q61 12 106 56.5t58 103.5q8 37 12 80t0 86t-16.5 84t-34.5 76q-29 41 -78.5 65.5t-104.5 24.5q-115 0 -166 -94q-16 -31 -27 -70t-16 -74zM166 811v61l29 2q-4 66 0 113q0 10 1 18.5t1 18.5h-29v61h55 h20.5t18.5 -2q16 -2 30.5 -5t33.5 -11q31 -16 48 -37.5t24.5 -46.5t4 -49.5t-11.5 -44.5q-12 -33 -45 -55l-14 -9q10 -14 20 -31.5t25 -41.5v-2l18 -33h35v-64h-72l-10 17l-8 14q-4 6 -7 15.5t-9 19.5l-2 2q-29 55 -43.5 70.5t-16.5 17.5h-4q0 -23 1 -36t1 -15v-41h29v-64 h-121v62h29v41q0 2 -1 17t-1 38h-29zM256 874h29q12 4 14 5l10 6q16 10 25 26q8 20 6 49t-43 52q-14 8 -37 10q-2 -10 -2 -19.5v-19.5q-2 -20 -2 -50v-59z" />
<glyph unicode="&#xaf;" horiz-adv-x="514" d="M0 1053v61h31h112h111h72q16 2 34.5 2h36.5h31v-61h-31q-18 0 -35.5 -1t-33.5 -1q-18 0 -37 -1t-37 -1h-56.5t-54.5 2h-112h-31z" />
<glyph unicode="&#xb0;" horiz-adv-x="333" d="M0 1075q-2 88 57 123q20 14 54 14q45 0 79 -24q45 -29 52.5 -66t7.5 -78v-4q0 -18 -5 -39.5t-17.5 -40t-31 -30.5t-42.5 -12h-2q-72 0 -113 45q-39 41 -39 112zM61 1077q0 -94 91 -98q20 2 28 23.5t8 37.5v4q0 41 -5 58.5t-27 34.5q-22 14 -45 14q-14 0 -23 -6 q-4 -4 -15.5 -16.5t-11.5 -51.5z" />
<glyph unicode="&#xb1;" horiz-adv-x="518" d="M0 301v61h31h108q29 -2 55.5 -2h55.5q16 0 33.5 1t33.5 1t35 1.5t37 1.5h31v-64h-31h-70q-16 -2 -34.5 -2h-34.5h-111q-27 0 -54.5 1t-53.5 1h-31zM0 606v62h49h62.5t66.5 -2v39q2 27 2 54v54v31h62v-139v-43q20 0 39.5 1t40.5 1q16 2 33.5 2h33.5h33v-62h-33 q-16 0 -32.5 -1t-32.5 -1t-30.5 -1t-31.5 -1h-22v-6q0 -16 1 -33.5t1 -34.5q0 -16 1 -34.5t1 -36.5v-31h-64v100q-2 16 -2 35v35v10q-33 2 -64.5 2h-64.5h-49z" />
<glyph unicode="&#xb2;" horiz-adv-x="360" d="M2 553v31q0 45 6 82l6 24q4 8 4 12q4 14 9.5 27.5t11.5 28.5q4 10 9 18t9 17q8 16 13 22q4 10 9 17.5t9 15.5q14 23 25 47q8 20 16 37.5t18 36.5q4 4 6.5 10t6.5 10q8 12 14 25.5t10 25.5q6 18 6 39v6q-2 14 -4 19l-2 2q-4 8 -8 8q-14 10 -31 10q-23 4 -49 0 q-10 -2 -20 -12q-4 -6 -8 -14q-2 -6 -2 -25l-3 -33l-61 2v31q0 23 6 41q4 20 19 37q27 29 61 35q25 2 62 0q16 0 30.5 -5t28.5 -14q10 -4 15 -11t9 -13l3 -2q10 -14 13 -27.5t3 -23.5v-9q2 -16 -1 -30.5t-7 -30.5q-6 -16 -13.5 -30.5t-15.5 -28.5q-8 -16 -12 -23 q-10 -16 -18.5 -31.5t-12.5 -32.5q-14 -35 -31 -57q-4 -8 -8 -15l-8 -14q-6 -16 -14 -26q-4 -8 -7.5 -15.5t-7.5 -13.5q-12 -23 -18 -47q0 -6 -4 -14q-4 -12 -4 -21q-4 -16 -7 -37h23q10 2 19.5 2h21.5h27h55v11l-2 32l63 3v-31q2 -16 2 -22.5t-2 -16.5q0 -6 -2 -10l-2 -27 h-26q-45 -2 -86 0h-27q-10 0 -19.5 -1t-19.5 -1q-8 0 -16.5 -1t-18.5 -1q-6 0 -11 1t-11 1h-29z" />
<glyph unicode="&#xb3;" horiz-adv-x="362" d="M0 635l57 27l13 -29q8 -18 22 -22.5t37 -8.5h2q39 -4 51.5 10.5t24.5 42.5l6 15q16 33 12 60.5t-14 62.5l-6 30q-10 37 -37 54.5t-47 27.5q-12 2 -21 10v54q12 16 16.5 19t14.5 13t16 25l13 18l16 31q4 10 9 18.5t12 16.5h-11q-6 0 -12 -1t-12 -1q-29 -2 -46.5 -2 t-45.5 2v-37h-64v100l33 -2q49 -2 69.5 -2t51.5 2q6 2 22 2q23 2 44.5 3.5t43.5 -5.5l4 -2v-57q-12 -10 -22 -28.5t-21 -34.5l-20 -37q-6 -6 -8 -15q-6 -8 -11.5 -17t-15.5 -20q-2 -4 -4 -5t-4 -3q27 -14 56.5 -39.5t39.5 -72.5q4 -16 8 -29q10 -39 15.5 -78t-17.5 -86 l-6 -14q-12 -29 -35.5 -59.5t-85.5 -30.5h-18q-23 2 -57.5 12t-55.5 55z" />
<glyph unicode="&#xb4;" horiz-adv-x="229" d="M0 999l14 27q8 16 15.5 29.5t15.5 25.5q4 12 18 33q4 8 8.5 17.5t8.5 19.5l8 29l59 -21l-10 -29q-4 -16 -10 -28t-10 -17q-4 -10 -9.5 -18t-9.5 -16q-8 -12 -14 -24.5t-14 -29.5l-15 -26z" />
<glyph unicode="&#xb7;" horiz-adv-x="196" d="M0 578v30v31h31h8h14h19h28v-29v-30v-31h-28h-29h-14h-27z" />
<glyph unicode="&#xb8;" horiz-adv-x="270" d="M0 -63q18 39 23.5 48t7.5 11q8 10 16 21.5t10 15.5l15 26l55 -28l-14 -27q-6 -10 -17.5 -25.5t-15.5 -19.5q0 -2 -1 -3t-1 -3q23 -4 44 -12.5t36 -28.5q23 -29 18 -72q-6 -63 -76 -86q-24 -8 -65 -8h-2h-33l2 64h31q29 -2 49 4q10 4 20.5 12t12.5 22q0 16 -6 27 q-10 12 -35 16.5t-43 -0.5z" />
<glyph unicode="&#xb9;" horiz-adv-x="339" d="M0 997l23 23q18 18 34 47l19 29l6 10q10 10 25.5 34.5t17.5 37.5h63q2 -29 2 -60v-59v-82q4 -94 0 -178v-68q0 -10 -1 -17t-1 -18q-4 -20 -4 -28v-56h11q14 0 27.5 1t27.5 -1h31l-2 -61h-82q-8 -2 -16.5 -2h-16.5h-10q-14 0 -27.5 1t-30.5 1h-16t-19 2h-30l2 63l30 -2 h18.5t18.5 -2q4 0 10.5 -1t12.5 -1v58q0 10 1 18t3 19q0 8 1 14t1 14v29q-2 10 -2 18v19q2 43 3 87t-1 89v88q-2 0 -2 -2l-16 -25q-10 -16 -20.5 -31.5t-24.5 -31.5l-23 -21z" />
<glyph unicode="&#xba;" horiz-adv-x="372" d="M0 777.5v47.5v23v35v69q0 57 14 107q2 4 2 10t2 12q2 16 9.5 41t38.5 41q14 8 31.5 10.5t31.5 6.5h4q27 2 64 -13q35 -14 56 -43.5t26 -68.5q12 -106 13 -197.5t-9 -177.5q-4 -35 -16.5 -72t-59.5 -65q-28 -15 -55 -15q-8 0 -16.5 1t-18.5 3h-2q-16 4 -31.5 9.5 t-30.5 21.5q-29 35 -39 79t-12 85q-2 27 -2 50.5zM61 777q0 -23 2 -46q2 -35 9.5 -69.5t27.5 -57.5q4 -4 27 -10h2q8 -2 23 -2q16 0 22 4q27 16 35 36.5t12 53.5q10 84 8 171t-12 190q-4 47 -45 63q-15 8 -29 8h-2h-4q-10 -2 -22.5 -4t-18.5 -6q-14 -6 -16 -35q-2 -8 -2 -15 t-4 -18q-6 -23 -9.5 -42t-3.5 -46v-69v-35v-23v-48z" />
<glyph unicode="&#xbb;" horiz-adv-x="520" d="M0 487l25 21q12 12 22 20t19.5 16.5t15.5 14.5q4 4 14 15.5t21 21.5q-31 35 -92 86l-25 18l41 50l22 -21q53 -41 86 -76t35 -39l-2 -41q-2 -2 -24.5 -25.5t-34.5 -33.5q-6 -6 -15.5 -14t-18.5 -16.5t-16 -15.5l-7 -7l-25 -21zM162 463l22 22q12 12 23 25q10 10 19.5 20.5 t15.5 16.5t18 20.5t23 28.5q-14 16 -40 46t-59 60l-22 23l45 43l20 -20q53 -49 86 -90.5t35 -45.5l-2 -37l-7 -9t-16.5 -21.5t-18.5 -23.5t-15 -17l-16.5 -16.5l-19.5 -19.5t-17 -18l-7 -8l-22 -22z" />
<glyph unicode="&#xbc;" horiz-adv-x="940" d="M-18 997l23 23q18 18 34 47l19 29l6 10q10 10 25.5 34.5t17.5 37.5h63q2 -29 2 -60v-59v-82q4 -94 0 -178v-68q0 -10 -1 -17t-1 -18q-4 -20 -4 -28v-56h11q14 0 27.5 1t27.5 -1h31l-2 -61h-82q-8 -2 -16.5 -2h-16.5h-10q-14 0 -27.5 1t-30.5 1h-16t-19 2h-30l2 63l30 -2 h18.5t18.5 -2q4 0 10.5 -1t12.5 -1v58q0 10 1 18t3 19q0 8 1 14t1 14v29q-2 10 -2 18v19q2 43 3 87t-1 89v88q-2 0 -2 -2l-16 -25q-10 -16 -20.5 -31.5t-24.5 -31.5l-23 -21zM20 -84l16 27q92 162 170 293t158 262q51 84 103.5 170t111.5 184q12 18 35.5 60t52.5 98.5 t58.5 122t54.5 133.5l10 28l59 -20l-10 -29q-27 -70 -57.5 -137.5t-60 -124.5t-53 -100t-36.5 -62q-59 -100 -111 -186t-104 -170q-80 -131 -158.5 -261t-168.5 -292l-15 -27zM561 233v58l39 69q8 14 14 25.5t13 20.5l40 75q4 6 6.5 11.5t4.5 11.5l6 12q8 12 19.5 34.5 t29.5 55.5l4 6h53l2 -22q2 -49 2 -98.5v-92.5q0 -53 -6 -108h47v-62h-49q-2 -6 -2 -22q-2 -45 4 -103q2 -23 3 -43t1 -43v-30h-63v30q0 20 -1 40t-3 42q-2 27 -3 54.5t1 56.5v18q-33 -2 -63.5 -1t-80.5 5h-18zM633 291q29 -2 49 -1t45 1q2 29 3 55.5t1 52.5v72l-8 -18 l-43 -78l-25 -45z" />
<glyph unicode="&#xbd;" horiz-adv-x="985" d="M-14 997l23 23q18 18 34 47l19 29l6 10q10 10 25.5 34.5t17.5 37.5h63q2 -29 2 -60v-59v-82q4 -94 0 -178v-68q0 -10 -1 -17t-1 -18q-4 -20 -4 -28v-56h11q14 0 27.5 1t27.5 -1h31l-2 -61h-82q-8 -2 -16.5 -2h-16.5h-10q-14 0 -27.5 1t-30.5 1h-16t-19 2h-30l2 63l30 -2 h18.5t18.5 -2q4 0 10.5 -1t12.5 -1v58q0 10 1 18t3 19q0 8 1 14t1 14v29q-2 10 -2 18v19q2 43 3 87t-1 89v88q-2 0 -2 -2l-16 -25q-10 -16 -20.5 -31.5t-24.5 -31.5l-23 -21zM25 -84l16 27q92 162 170 293t158 262q51 84 103.5 170t111.5 184q12 18 35.5 60t52.5 98.5 t58.5 122t54.5 133.5l10 28l59 -20l-10 -29q-27 -70 -57.5 -137.5t-60 -124.5t-53 -100t-36.5 -62q-59 -100 -111 -186t-104 -170q-80 -131 -158.5 -261t-168.5 -292l-15 -27zM629 -14v30q0 45 6 82l6 25q4 8 4 12q4 14 9.5 27.5t11.5 27.5q4 10 9 18.5t9 16.5q8 16 13 23 q4 10 9 17t9 16q14 23 25 47q8 20 16 37.5t18 35.5q4 4 6.5 10.5t6.5 10.5q8 12 14 25.5t10 25.5q6 18 6 39v6q-2 14 -4 19l-2 2q-4 8 -8 8q-14 10 -31 10q-23 4 -49 0q-10 -2 -20 -12q-4 -6 -8 -15q-2 -6 -2 -24l-3 -33l-61 2v31q0 23 6 41q4 20 19 37q27 29 61 34 q25 2 62 0q16 0 30.5 -5t28.5 -13q10 -4 15 -11t9 -14l3 -2q10 -14 13 -27.5t3 -23.5v-8q2 -16 -1 -30.5t-7 -30.5q-6 -16 -13.5 -30.5t-15.5 -29.5q-8 -16 -12 -22q-10 -16 -18.5 -31.5t-12.5 -32.5q-14 -35 -31 -57q-4 -8 -8 -15.5t-8 -13.5q-6 -16 -14 -26 q-4 -8 -7.5 -15.5t-7.5 -13.5q-12 -23 -18 -47q0 -6 -4 -15q-4 -12 -4 -20q-4 -16 -7 -37h23q10 2 19.5 2h21.5h27h55v10l-2 33l63 2v-31q2 -16 2 -22t-2 -16q0 -6 -2 -11l-2 -26h-26q-45 -2 -86 0h-27q-10 0 -19.5 -1t-19.5 -1q-8 0 -16.5 -1t-18.5 -1q-6 0 -11 1t-11 1 h-29z" />
<glyph unicode="&#xbe;" horiz-adv-x="948" d="M-6 635l57 27l13 -29q8 -18 22 -22.5t37 -8.5h2q39 -4 51.5 10.5t24.5 42.5l6 15q16 33 12 60.5t-14 62.5l-6 30q-10 37 -37 54.5t-47 27.5q-12 2 -21 10v54q12 16 16.5 19t14.5 13t16 25l13 18l16 31q4 10 9 18.5t12 16.5h-11q-6 0 -12 -1t-12 -1q-29 -2 -46.5 -2 t-45.5 2v-37h-64v100l33 -2q49 -2 69.5 -2t51.5 2q6 2 22 2q23 2 44.5 3.5t43.5 -5.5l4 -2v-57q-12 -10 -22 -28.5t-21 -34.5l-20 -37q-6 -6 -8 -15q-6 -8 -11.5 -17t-15.5 -20q-2 -4 -4 -5t-4 -3q27 -14 56.5 -39.5t39.5 -72.5q4 -16 8 -29q10 -39 15.5 -78t-17.5 -86 l-6 -14q-12 -29 -35.5 -59.5t-85.5 -30.5h-18q-23 2 -57.5 12t-55.5 55zM29 -84l16 27q92 162 170 293t158 262q51 84 103.5 170t111.5 184q12 18 35.5 60t52.5 98.5t58.5 122t54.5 133.5l10 28l59 -20l-10 -29q-27 -70 -57.5 -137.5t-60 -124.5t-53 -100t-36.5 -62 q-59 -100 -111 -186t-104 -170q-80 -131 -158.5 -261t-168.5 -292l-15 -27zM569 233v58l39 69q8 14 14 25.5t13 20.5l40 75q4 6 6.5 11.5t4.5 11.5l6 12q8 12 19.5 34.5t29.5 55.5l4 6h53l2 -22q2 -49 2 -98.5v-92.5q0 -53 -6 -108h47v-62h-49q-2 -6 -2 -22q-2 -45 4 -103 q2 -23 3 -43t1 -43v-30h-63v30q0 20 -1 40t-3 42q-2 27 -3 54.5t1 56.5v18q-33 -2 -63.5 -1t-80.5 5h-18zM641 291q29 -2 49 -1t45 1q2 29 3 55.5t1 52.5v72l-8 -18l-43 -78l-25 -45z" />
<glyph unicode="&#xbf;" horiz-adv-x="485" d="M0 172v38.5t8 41.5q8 27 14.5 48.5t16.5 39.5q35 76 96 154q25 31 32 56t9 71v44t-2 44t-2 45v45v30h64l-3 -30q0 -23 1.5 -43.5t1.5 -42.5q2 -23 3 -47.5t-1 -47.5q-2 -51 -11.5 -86.5t-44.5 -76.5q-51 -66 -86 -140q-8 -18 -15 -37.5t-13 -44.5q-8 -23 -5 -59v-6v-27 q2 -41 5.5 -74.5t21.5 -68.5q10 -23 35 -48.5t70 -25.5h2q20 0 41.5 12.5t44.5 34.5q23 25 36 52.5t13 50.5l-2 30l61 5l2 -33q2 -35 -15.5 -74t-49.5 -74q-61 -63 -131 -67h-2q-109 0 -162 108q-23 45 -26 86t-5 84v27zM172 967v92h61v-92h-61z" />
<glyph unicode="&#xc0;" d="M0 -14v63h72l6 57l18 185q4 27 7 53.5t8 54.5l14 88q8 39 14 78t11 78q4 41 11 80t13 78q12 51 19 104l12 86q4 29 8 59.5t8 63.5h-43v64h33q10 0 16 -2h15q4 2 10 2h41l8 -37q10 -47 21.5 -93.5t17.5 -86.5l2 -19q10 -74 20.5 -148.5t24.5 -146.5q8 -39 13.5 -77 t9.5 -76q2 -25 5 -51.5t7 -51.5q6 -43 11 -86t9 -84q4 -43 9.5 -86t11.5 -86h67v-61h-30h-37t-29 -2q-12 0 -27 -1t-40 -1h-31v63h31h34q-6 41 -11 84t-9 84t-9 83t-12 83q-4 27 -7 53.5t-7 52.5q-8 -2 -24 -2q-12 -2 -23.5 -3t-24.5 -1h-10q-41 0 -76 8q0 -4 -1 -7t-1 -7 l-14 -86q-10 -53 -12 -104q-2 -16 -3 -31.5t-5 -32.5l-13 -121l-4 -49h31h31v-61h-31q-23 0 -37 -1t-29 -1q-14 0 -30.5 -1t-38.5 -1h-31zM121 1475l51 35l17 -25q31 -45 50 -89t19 -46l13 -29l-58 -22l-12 28q-10 18 -19 41q-10 18 -20 39t-25 41zM201 549q14 -4 30.5 -4 h32.5h8h21.5t23.5 2h23q-4 23 -7 44t-7 44q-14 74 -24.5 149.5t-20.5 149.5l-2 18l-11 52q0 -4 -1 -10.5t-1 -10.5q-4 -23 -6 -43t-6 -43q-6 -57 -18 -109q-6 -37 -13.5 -74.5t-11.5 -76.5q-2 -23 -4 -44.5t-6 -43.5z" />
<glyph unicode="&#xc1;" d="M0 -14v63h72l6 57l18 185q4 27 7 53.5t8 54.5l14 88q8 39 14 78t11 78q4 41 11 80t13 78q12 51 19 104l12 86q4 29 8 59.5t8 63.5h-43v64h33q10 0 16 -2h15q4 2 10 2h41l8 -37q10 -47 21.5 -93.5t17.5 -86.5l2 -19q10 -74 20.5 -148.5t24.5 -146.5q8 -39 13.5 -77 t9.5 -76q2 -25 5 -51.5t7 -51.5q6 -43 11 -86t9 -84q4 -43 9.5 -86t11.5 -86h67v-61h-30h-37t-29 -2q-12 0 -27 -1t-40 -1h-31v63h31h34q-6 41 -11 84t-9 84t-9 83t-12 83q-4 27 -7 53.5t-7 52.5q-8 -2 -24 -2q-12 -2 -23.5 -3t-24.5 -1h-10q-41 0 -76 8q0 -4 -1 -7t-1 -7 l-14 -86q-10 -53 -12 -104q-2 -16 -3 -31.5t-5 -32.5l-13 -121l-4 -49h31h31v-61h-31q-23 0 -37 -1t-29 -1q-14 0 -30.5 -1t-38.5 -1h-31zM201 549q14 -4 30.5 -4h32.5h8h21.5t23.5 2h23q-4 23 -7 44t-7 44q-14 74 -24.5 149.5t-20.5 149.5l-2 18l-11 52q0 -4 -1 -10.5 t-1 -10.5q-4 -23 -6 -43t-6 -43q-6 -57 -18 -109q-6 -37 -13.5 -74.5t-11.5 -76.5q-2 -23 -4 -44.5t-6 -43.5zM240 1327l14 27q8 16 15.5 29.5t15.5 25.5q4 12 18 33q4 8 8.5 17.5t8.5 19.5l8 29l59 -21l-10 -29q-4 -16 -10 -28t-10 -17q-4 -10 -9.5 -18t-9.5 -16 q-8 -12 -14 -24.5t-14 -29.5l-15 -26z" />
<glyph unicode="&#xc2;" d="M0 -14v63h72l6 57l18 185q4 27 7 53.5t8 54.5l14 88q8 39 14 78t11 78q4 41 11 80t13 78q12 51 19 104l12 86q4 29 8 59.5t8 63.5h-43v64h33q10 0 16 -2h15q4 2 10 2h41l8 -37q10 -47 21.5 -93.5t17.5 -86.5l2 -19q10 -74 20.5 -148.5t24.5 -146.5q8 -39 13.5 -77 t9.5 -76q2 -25 5 -51.5t7 -51.5q6 -43 11 -86t9 -84q4 -43 9.5 -86t11.5 -86h67v-61h-30h-37t-29 -2q-12 0 -27 -1t-40 -1h-31v63h31h34q-6 41 -11 84t-9 84t-9 83t-12 83q-4 27 -7 53.5t-7 52.5q-8 -2 -24 -2q-12 -2 -23.5 -3t-24.5 -1h-10q-41 0 -76 8q0 -4 -1 -7t-1 -7 l-14 -86q-10 -53 -12 -104q-2 -16 -3 -31.5t-5 -32.5l-13 -121l-4 -49h31h31v-61h-31q-23 0 -37 -1t-29 -1q-14 0 -30.5 -1t-38.5 -1h-31zM86 1325l20 20q51 51 90.5 89t39.5 40h43l9 -9l21.5 -21.5l24.5 -24.5l18 -18q12 -12 28.5 -34t18.5 -24l19 -24l-49 -39l-19 24l-5 7 q-5 8 -12 17t-14.5 17.5t-13.5 14.5q-4 6 -18.5 20t-28.5 29l-106 -107l-23 -22zM201 549q14 -4 30.5 -4h32.5h8h21.5t23.5 2h23q-4 23 -7 44t-7 44q-14 74 -24.5 149.5t-20.5 149.5l-2 18l-11 52q0 -4 -1 -10.5t-1 -10.5q-4 -23 -6 -43t-6 -43q-6 -57 -18 -109 q-6 -37 -13.5 -74.5t-11.5 -76.5q-2 -23 -4 -44.5t-6 -43.5z" />
<glyph unicode="&#xc3;" d="M0 -14v63h72l6 57l18 185q4 27 7 53.5t8 54.5l14 88q8 39 14 78t11 78q4 41 11 80t13 78q12 51 19 104l12 86q4 29 8 59.5t8 63.5h-43v64h33q10 0 16 -2h15q4 2 10 2h41l8 -37q10 -47 21.5 -93.5t17.5 -86.5l2 -19q10 -74 20.5 -148.5t24.5 -146.5q8 -39 13.5 -77 t9.5 -76q2 -25 5 -51.5t7 -51.5q6 -43 11 -86t9 -84q4 -43 9.5 -86t11.5 -86h67v-61h-30h-37t-29 -2q-12 0 -27 -1t-40 -1h-31v63h31h34q-6 41 -11 84t-9 84t-9 83t-12 83q-4 27 -7 53.5t-7 52.5q-8 -2 -24 -2q-12 -2 -23.5 -3t-24.5 -1h-10q-41 0 -76 8q0 -4 -1 -7t-1 -7 l-14 -86q-10 -53 -12 -104q-2 -16 -3 -31.5t-5 -32.5l-13 -121l-4 -49h31h31v-61h-31q-23 0 -37 -1t-29 -1q-14 0 -30.5 -1t-38.5 -1h-31zM84 1315l4 30q6 37 37 64q14 10 35.5 18t52.5 -2q18 -4 33.5 -15t32.5 -22q8 -4 15 -9t13 -9q27 -12 43 -6t21 33l4 30l61 -8l-4 -31 q-4 -29 -19.5 -50t-39.5 -32q-21 -8 -35 -8q-29 0 -57 17q-14 8 -39 24q-31 23 -47.5 28t-26.5 -5q-14 -10 -18 -29l-5 -31zM201 549q14 -4 30.5 -4h32.5h8h21.5t23.5 2h23q-4 23 -7 44t-7 44q-14 74 -24.5 149.5t-20.5 149.5l-2 18l-11 52q0 -4 -1 -10.5t-1 -10.5 q-4 -23 -6 -43t-6 -43q-6 -57 -18 -109q-6 -37 -13.5 -74.5t-11.5 -76.5q-2 -23 -4 -44.5t-6 -43.5z" />
<glyph unicode="&#xc4;" d="M0 -14v63h72l6 57l18 185q4 27 7 53.5t8 54.5l14 88q8 39 14 78t11 78q4 41 11 80t13 78q12 51 19 104l12 86q4 29 8 59.5t8 63.5h-43v64h33q10 0 16 -2h15q4 2 10 2h41l8 -37q10 -47 21.5 -93.5t17.5 -86.5l2 -19q10 -74 20.5 -148.5t24.5 -146.5q8 -39 13.5 -77 t9.5 -76q2 -25 5 -51.5t7 -51.5q6 -43 11 -86t9 -84q4 -43 9.5 -86t11.5 -86h67v-61h-30h-37t-29 -2q-12 0 -27 -1t-40 -1h-31v63h31h34q-6 41 -11 84t-9 84t-9 83t-12 83q-4 27 -7 53.5t-7 52.5q-8 -2 -24 -2q-12 -2 -23.5 -3t-24.5 -1h-10q-41 0 -76 8q0 -4 -1 -7t-1 -7 l-14 -86q-10 -53 -12 -104q-2 -16 -3 -31.5t-5 -32.5l-13 -121l-4 -49h31h31v-61h-31q-23 0 -37 -1t-29 -1q-14 0 -30.5 -1t-38.5 -1h-31zM119 1349v31v29l29 2h30h13l28 -2v-29q2 -4 1 -16t-1 -15v-30h-30h-9h-14h-18l-27 2zM201 549q14 -4 30.5 -4h32.5h8h21.5t23.5 2h23 q-4 23 -7 44t-7 44q-14 74 -24.5 149.5t-20.5 149.5l-2 18l-11 52q0 -4 -1 -10.5t-1 -10.5q-4 -23 -6 -43t-6 -43q-6 -57 -18 -109q-6 -37 -13.5 -74.5t-11.5 -76.5q-2 -23 -4 -44.5t-6 -43.5zM301 1349v31l2 31h31h8h15h18l27 -2l2 -29v-31v-28l-31 -2h-29h-12l-29 2z" />
<glyph unicode="&#xc5;" d="M0 -14v63h72l6 57l18 185q4 27 7 53.5t8 54.5l14 88q8 39 14 78t11 78q4 41 11 80t13 78q12 51 19 104l12 86q4 29 8 59.5t8 63.5h-43v64h33q10 0 16 -2h15q4 2 10 2h41l8 -37q10 -47 21.5 -93.5t17.5 -86.5l2 -19q10 -74 20.5 -148.5t24.5 -146.5q8 -39 13.5 -77 t9.5 -76q2 -25 5 -51.5t7 -51.5q6 -43 11 -86t9 -84q4 -43 9.5 -86t11.5 -86h67v-61h-30h-37t-29 -2q-12 0 -27 -1t-40 -1h-31v63h31h34q-6 41 -11 84t-9 84t-9 83t-12 83q-4 27 -7 53.5t-7 52.5q-8 -2 -24 -2q-12 -2 -23.5 -3t-24.5 -1h-10q-41 0 -76 8q0 -4 -1 -7t-1 -7 l-14 -86q-10 -53 -12 -104q-2 -16 -3 -31.5t-5 -32.5l-13 -121l-4 -49h31h31v-61h-31q-23 0 -37 -1t-29 -1q-14 0 -30.5 -1t-38.5 -1h-31zM160 1413v4q-2 37 19.5 68.5t60.5 33.5h2q59 0 92 -34.5t33 -94.5q2 -45 -14.5 -68.5t-32.5 -33.5q-20 -10 -45 -10q-39 0 -66 18 q-37 25 -43 55.5t-6 61.5zM201 549q14 -4 30.5 -4h32.5h8h21.5t23.5 2h23q-4 23 -7 44t-7 44q-14 74 -24.5 149.5t-20.5 149.5l-2 18l-11 52q0 -4 -1 -10.5t-1 -10.5q-4 -23 -6 -43t-6 -43q-6 -57 -18 -109q-6 -37 -13.5 -74.5t-11.5 -76.5q-2 -23 -4 -44.5t-6 -43.5z M221 1415q0 -31 3.5 -43t19.5 -23q14 -10 31 -10q10 0 12 2q4 4 11 12.5t7 36.5q0 45 -20 55.5t-43 10.5q-10 0 -15.5 -14.5t-5.5 -24.5v-2z" />
<glyph unicode="&#xc6;" horiz-adv-x="903" d="M0 -14v63h74l12 62q6 29 12 59.5t15 60.5q12 45 25.5 88t27.5 84t26.5 81t24.5 83q4 8 5 16.5t5 18.5q12 41 26.5 82t29.5 80q12 35 24 70.5t23 70.5l24 84q10 31 18.5 61.5t20.5 63.5h-16h-33v62h33h25.5t29.5 -2q31 0 63.5 -1.5t59.5 3.5q35 4 73 4t72 -4q12 0 24.5 -1 t23.5 -1h30v-72q2 -12 2 -22.5v-16.5v-31h-61v31q0 4 -1 15.5t-1 21.5v12q-6 2 -19 2q-35 2 -69.5 3t-65.5 -3q-23 -4 -45 -4h-45q0 -31 6 -68q2 -18 3 -36.5t1 -38.5v-104.5t2 -104.5v-56.5t2 -56.5l21 4l53 4h38.5t37.5 -2q16 0 29.5 -1t27.5 -1v58h62v-31q0 -39 2 -49 q0 -8 1 -18.5t1 -35.5v-30h-64v30v15h-31.5t-31.5 2q-16 0 -33.5 1t-34.5 1q-16 -2 -27.5 -3t-23.5 -1q-16 -4 -27 -4q2 -156 5.5 -288t7.5 -249h58.5t57.5 2q31 2 62 3t61 -1v80h64v-143l-33 2q-37 2 -76 1t-76 -3q-27 -2 -52 -2h-52h-49.5t-48.5 4l-31 2l6 61l31 -2 q4 0 7 -1t7 -1q-4 98 -6 204.5t-4 229.5q-6 0 -13 -1t-14 -1q-12 0 -25.5 -1t-25.5 -1h-12h-37.5t-40.5 4l-33 -100q-14 -41 -27.5 -83t-23.5 -83q-8 -29 -14 -59.5t-13 -59.5q-2 -20 -10 -47h27h33v-61h-33q-23 0 -37 -1t-29 -1q-12 0 -28.5 -1t-38.5 -1h-31zM274 545 q16 -2 30.5 -3t31.5 -1h10q12 0 23.5 1t25.5 3h31v51q0 41 -1 81t-1 81q-2 51 -3 103t-1 106v24l-6 -18l-25 -86q-10 -37 -23.5 -73t-25.5 -71q-29 -78 -53 -159l-11 -35q0 -2 -1 -2t-1 -2z" />
<glyph unicode="&#xc7;" horiz-adv-x="522" d="M0 815v37q-2 47 6 91t25 91q10 31 33.5 68t58.5 61q35 23 74 24t67 -7l6 -2q23 -4 46.5 -13.5t43.5 -34.5v56h64v-127q0 -18 -2 -29v-24l-62 -11q-10 29 -20 51.5t-27 43.5q-10 12 -22 17t-35 11h-6q-16 4 -43 6t-47 -12q-23 -16 -42.5 -43t-29.5 -55q-14 -43 -21.5 -82 t-5.5 -80q0 -16 1 -34.5t1 -35.5q2 -35 3.5 -68.5t-0.5 -68.5q-4 -53 -3.5 -108.5t5.5 -108.5l4 -88v-57q-2 -53 2 -99.5t32 -83.5q29 -37 58 -47q41 -18 65 -16q2 0 3 1t4 1q18 2 42.5 6t36.5 12q14 10 23.5 31t13.5 39l6 31l62 -11l-6 -30q-4 -29 -20.5 -61.5t-45.5 -49.5 q-23 -14 -51.5 -19t-50.5 -10l-15 -18q0 -2 -1 -3t-1 -3q23 -4 44.5 -12.5t35.5 -28.5q23 -29 19 -72q-6 -63 -76 -86q-25 -8 -66 -8h-34l2 64h30q29 -2 49 4q10 4 20.5 12t12.5 22q0 16 -6 27q-10 12 -34.5 16.5t-43.5 -0.5l-30 46l22 47q-18 2 -37 12q-45 23 -80 65 q-39 51 -45 109.5t-4 112.5q0 16 1 29.5t-1 27.5q0 23 -1 43t-1 43q-4 53 -5 109.5t3 111.5q2 33 1 64.5t-3 66.5q-2 18 -2 37z" />
<glyph unicode="&#xc8;" horiz-adv-x="532" d="M0 1112v62h31h27.5t25.5 -3q27 0 50.5 -1t49.5 4q35 4 73 4t75 -4q12 0 23.5 -1.5t21.5 -1.5h31v-30v-17.5t2 -23.5v-70l-62 -2v33v15t-2 22v14h-18q-35 2 -70 3t-68 -3q-23 -4 -44 -4h-44q0 -16 1 -33.5t3 -34.5q2 -18 3.5 -36.5t1.5 -38.5q0 -53 1 -105.5t1 -105.5 v-52.5t2 -52.5h10q16 2 32.5 3t32.5 1q20 2 39 1t37 -1q14 -2 27.5 -2h30.5v25v31h61v-31q0 -23 1 -31t1 -16q0 -10 1 -20.5t1 -35.5v-30h-61v30v15q-16 0 -32.5 1t-33.5 1q-16 2 -33.5 2h-35.5q-16 -2 -32 -3t-32 -1q-4 -2 -12 -2q0 -156 3 -287t7 -252q29 -2 59.5 -1 t59.5 3q31 2 61.5 3t63.5 -1v80h61v-143h-33q-37 4 -74.5 3t-76.5 -3q-27 -2 -52.5 -3t-54.5 -1q-47 0 -96 6l-31 2l6 61l31 -2q4 0 7 -1t8 -1q-6 119 -8.5 249t-4.5 284h-8h-31v61h31h8q0 29 -1 55.5t-1 53.5q-2 53 -2 106v107q0 16 -1 34.5t-3 36.5t-4 37t-2 39h-8h-31z M109 1475l51 35l17 -25q31 -45 50 -89t19 -46l13 -29l-58 -22l-12 28q-10 18 -19 41q-10 18 -20 39t-25 41z" />
<glyph unicode="&#xc9;" horiz-adv-x="532" d="M0 1112v62h31h27.5t25.5 -3q27 0 50.5 -1t49.5 4q35 4 73 4t75 -4q12 0 23.5 -1.5t21.5 -1.5h31v-30v-17.5t2 -23.5v-70l-62 -2v33v15t-2 22v14h-18q-35 2 -70 3t-68 -3q-23 -4 -44 -4h-44q0 -16 1 -33.5t3 -34.5q2 -18 3.5 -36.5t1.5 -38.5q0 -53 1 -105.5t1 -105.5 v-52.5t2 -52.5h10q16 2 32.5 3t32.5 1q20 2 39 1t37 -1q14 -2 27.5 -2h30.5v25v31h61v-31q0 -23 1 -31t1 -16q0 -10 1 -20.5t1 -35.5v-30h-61v30v15q-16 0 -32.5 1t-33.5 1q-16 2 -33.5 2h-35.5q-16 -2 -32 -3t-32 -1q-4 -2 -12 -2q0 -156 3 -287t7 -252q29 -2 59.5 -1 t59.5 3q31 2 61.5 3t63.5 -1v80h61v-143h-33q-37 4 -74.5 3t-76.5 -3q-27 -2 -52.5 -3t-54.5 -1q-47 0 -96 6l-31 2l6 61l31 -2q4 0 7 -1t8 -1q-6 119 -8.5 249t-4.5 284h-8h-31v61h31h8q0 29 -1 55.5t-1 53.5q-2 53 -2 106v107q0 16 -1 34.5t-3 36.5t-4 37t-2 39h-8h-31z M178 1327l14 27q8 16 15.5 29.5t15.5 25.5q4 12 18 33q4 8 8.5 17.5t8.5 19.5l8 29l59 -21l-10 -29q-4 -16 -10 -28t-10 -17q-4 -10 -9.5 -18t-9.5 -16q-8 -12 -14 -24.5t-14 -29.5l-15 -26z" />
<glyph unicode="&#xca;" horiz-adv-x="532" d="M0 1112v62h31h27.5t25.5 -3q27 0 50.5 -1t49.5 4q35 4 73 4t75 -4q12 0 23.5 -1.5t21.5 -1.5h31v-30v-17.5t2 -23.5v-70l-62 -2v33v15t-2 22v14h-18q-35 2 -70 3t-68 -3q-23 -4 -44 -4h-44q0 -16 1 -33.5t3 -34.5q2 -18 3.5 -36.5t1.5 -38.5q0 -53 1 -105.5t1 -105.5 v-52.5t2 -52.5h10q16 2 32.5 3t32.5 1q20 2 39 1t37 -1q14 -2 27.5 -2h30.5v25v31h61v-31q0 -23 1 -31t1 -16q0 -10 1 -20.5t1 -35.5v-30h-61v30v15q-16 0 -32.5 1t-33.5 1q-16 2 -33.5 2h-35.5q-16 -2 -32 -3t-32 -1q-4 -2 -12 -2q0 -156 3 -287t7 -252q29 -2 59.5 -1 t59.5 3q31 2 61.5 3t63.5 -1v80h61v-143h-33q-37 4 -74.5 3t-76.5 -3q-27 -2 -52.5 -3t-54.5 -1q-47 0 -96 6l-31 2l6 61l31 -2q4 0 7 -1t8 -1q-6 119 -8.5 249t-4.5 284h-8h-31v61h31h8q0 29 -1 55.5t-1 53.5q-2 53 -2 106v107q0 16 -1 34.5t-3 36.5t-4 37t-2 39h-8h-31z M49 1325l20 20q51 51 90.5 89t39.5 40h43l9 -9l21.5 -21.5l24.5 -24.5l18 -18q12 -12 28.5 -34t18.5 -24l19 -24l-49 -39l-19 24l-5 7q-5 8 -12 17t-14.5 17.5t-13.5 14.5q-4 6 -18.5 20t-28.5 29l-106 -107l-23 -22z" />
<glyph unicode="&#xcb;" horiz-adv-x="532" d="M0 1112v62h31h27.5t25.5 -3q27 0 50.5 -1t49.5 4q35 4 73 4t75 -4q12 0 23.5 -1.5t21.5 -1.5h31v-30v-17.5t2 -23.5v-70l-62 -2v33v15t-2 22v14h-18q-35 2 -70 3t-68 -3q-23 -4 -44 -4h-44q0 -16 1 -33.5t3 -34.5q2 -18 3.5 -36.5t1.5 -38.5q0 -53 1 -105.5t1 -105.5 v-52.5t2 -52.5h10q16 2 32.5 3t32.5 1q20 2 39 1t37 -1q14 -2 27.5 -2h30.5v25v31h61v-31q0 -23 1 -31t1 -16q0 -10 1 -20.5t1 -35.5v-30h-61v30v15q-16 0 -32.5 1t-33.5 1q-16 2 -33.5 2h-35.5q-16 -2 -32 -3t-32 -1q-4 -2 -12 -2q0 -156 3 -287t7 -252q29 -2 59.5 -1 t59.5 3q31 2 61.5 3t63.5 -1v80h61v-143h-33q-37 4 -74.5 3t-76.5 -3q-27 -2 -52.5 -3t-54.5 -1q-47 0 -96 6l-31 2l6 61l31 -2q4 0 7 -1t8 -1q-6 119 -8.5 249t-4.5 284h-8h-31v61h31h8q0 29 -1 55.5t-1 53.5q-2 53 -2 106v107q0 16 -1 34.5t-3 36.5t-4 37t-2 39h-8h-31z M68 1349v31v29l29 2h30h13l28 -2v-29q2 -4 1 -16t-1 -15v-30h-30h-9h-14h-18l-27 2zM250 1349v31l2 31h31h8h15h18l27 -2l2 -29v-31v-28l-31 -2h-29h-12l-29 2z" />
<glyph unicode="&#xcc;" horiz-adv-x="329" d="M0 -12v63h96q0 141 1 262t5 234q4 88 3 176t-5 174q-2 53 -3 109.5t-1 113.5h-63l-33 -2v64h223l31 -2l-2 -62h-31q-20 0 -34.5 1t-28.5 1q0 -55 1 -111.5t3 -109.5q4 -88 6 -176t-2 -178q-4 -113 -6 -232.5t-2 -261.5h65l31 -2l-2 -61h-31q-41 2 -65.5 2h-51.5 q-16 0 -32.5 -1t-38.5 -1h-33zM2 1475l51 35l17 -25q31 -45 50 -89t19 -46l13 -29l-58 -22l-12 28q-10 18 -19 41q-10 18 -20 39t-25 41z" />
<glyph unicode="&#xcd;" horiz-adv-x="329" d="M0 -12v63h96q0 141 1 262t5 234q4 88 3 176t-5 174q-2 53 -3 109.5t-1 113.5h-63l-33 -2v64h223l31 -2l-2 -62h-31q-20 0 -34.5 1t-28.5 1q0 -55 1 -111.5t3 -109.5q4 -88 6 -176t-2 -178q-4 -113 -6 -232.5t-2 -261.5h65l31 -2l-2 -61h-31q-41 2 -65.5 2h-51.5 q-16 0 -32.5 -1t-38.5 -1h-33zM104 1327l14 27q8 16 15.5 29.5t15.5 25.5q4 12 18 33q4 8 8.5 17.5t8.5 19.5l8 29l59 -21l-10 -29q-4 -16 -10 -28t-10 -17q-4 -10 -9.5 -18t-9.5 -16q-8 -12 -14 -24.5t-14 -29.5l-15 -26z" />
<glyph unicode="&#xce;" horiz-adv-x="354" d="M-31 1325l20 20q51 51 90.5 89t39.5 40h43l9 -9l21.5 -21.5l24.5 -24.5l18 -18q12 -12 28.5 -34t18.5 -24l19 -24l-49 -39l-19 24l-5 7q-5 8 -12 17t-14.5 17.5t-13.5 14.5q-4 6 -18.5 20t-28.5 29l-106 -107l-23 -22zM25 -12v63h96q0 141 1 262t5 234q4 88 3 176t-5 174 q-2 53 -3 109.5t-1 113.5h-63l-33 -2v64h223l31 -2l-2 -62h-31q-20 0 -34.5 1t-28.5 1q0 -55 1 -111.5t3 -109.5q4 -88 6 -176t-2 -178q-4 -113 -6 -232.5t-2 -261.5h65l31 -2l-2 -61h-31q-41 2 -65.5 2h-51.5q-16 0 -32.5 -1t-38.5 -1h-33z" />
<glyph unicode="&#xcf;" horiz-adv-x="346" d="M0 1349v31v29l29 2h30h13l28 -2v-29q2 -4 1 -16t-1 -15v-30h-30h-9h-14h-18l-27 2zM16 -12v63h96q0 141 1 262t5 234q4 88 3 176t-5 174q-2 53 -3 109.5t-1 113.5h-63l-33 -2v64h223l31 -2l-2 -62h-31q-20 0 -34.5 1t-28.5 1q0 -55 1 -111.5t3 -109.5q4 -88 6 -176 t-2 -178q-4 -113 -6 -232.5t-2 -261.5h65l31 -2l-2 -61h-31q-41 2 -65.5 2h-51.5q-16 0 -32.5 -1t-38.5 -1h-33zM182 1349v31l2 31h31h8h15h18l27 -2l2 -29v-31v-28l-31 -2h-29h-12l-29 2z" />
<glyph unicode="&#xd0;" horiz-adv-x="591" d="M0 561l6 62l31 -5q23 -4 34 -4h23q0 10 1 22.5t1 22.5v20.5t2 20.5q0 29 1 56.5t3 56.5q2 25 3 50.5t1 49.5q2 31 1 62t-3 61q-2 23 -3 43.5t-1 42.5h-20h-31l-4 62l31 2q49 4 99 -2t104 -37q70 -41 118.5 -121t69.5 -184q12 -68 22.5 -161t6.5 -183v-60q-2 -47 -4.5 -95 t-18.5 -91q-20 -63 -78 -127q-16 -20 -40.5 -43t-59.5 -39l-23 -12q-31 -18 -61 -31q-29 -10 -62.5 -11t-62.5 -1h-39v61h35h20q-2 45 -3 89t-5 91q-4 80 -5 161t3 163h-25.5t-35.5 4zM153 392q1 -81 5 -159l6 -182q21 4 29 8q10 4 23 10.5t26 14.5l24 14q29 12 49.5 30.5 t32.5 35.5q51 57 66 108q12 35 15 79t3 87v31.5t2 32.5q4 86 -6 175t-22 154q-16 90 -58.5 159t-99.5 104q-37 20 -84 26q0 -20 1 -40.5t1 -41.5q2 -31 3 -62.5t1 -64.5l-6 -102q0 -29 -1 -55.5t-3 -55.5v-20t-2 -21q0 -10 -1 -20t-1 -21q2 0 3 1t3 1q16 0 29.5 1.5 t23.5 1.5h31v-62h-31q-8 0 -20.5 -1t-26.5 -3h-14q-2 -82 -1 -163z" />
<glyph unicode="&#xd1;" horiz-adv-x="622" d="M0 1108v61h125l8 -20l80 -260l39 -117q16 -47 32.5 -95t28.5 -97l13 -52q16 -66 32.5 -133t38.5 -133l11 -35q2 59 1 117.5t-3 118.5q0 66 -1.5 131t-1.5 131q0 25 1.5 49.5t3.5 48.5q2 27 3 54.5t1 56.5q0 23 -1 44t-1 44q-2 20 -2 39.5v42.5h-70v63h98q12 2 27.5 2 h40.5h33v-61h-68q0 -23 1 -43.5t1 -40.5q2 -23 2 -45.5v-44.5q0 -29 -1 -57.5t-3 -57.5q0 -23 -1 -47t-1 -47q-2 -66 -1 -131.5t3 -128.5q0 -72 1 -145.5t1 -145.5v-30.5t-2 -30.5v-125h-59l-2 4l-21 76q-10 43 -22.5 88t-26.5 86q-23 68 -40 136l-34 136l-12 51 q-10 47 -25.5 93.5t-31.5 93.5q-10 29 -20.5 59.5t-20.5 58.5l-25 78q-2 -53 -2 -106.5t4 -106.5q12 -238 0 -477q-2 -35 -1 -68.5t3 -68.5q0 -16 1 -34.5t3 -37.5h68v-61h-31h-39t-26 -2q-14 0 -30 -1t-40 -1h-31v63h68l-4 72q-2 35 -3 70.5t1 72.5q12 236 0 471 q-4 61 -3 123t3 121q2 33 2 65.5v65.5h-72zM94 1336l4 30q6 37 37 64q14 10 35.5 18t52.5 -2q18 -4 33.5 -15t32.5 -22q8 -4 15 -9t13 -9q27 -12 43 -6t21 33l4 30l61 -8l-4 -31q-4 -29 -19.5 -50t-39.5 -32q-21 -8 -35 -8q-29 0 -57 17q-14 8 -39 24q-31 23 -47.5 28 t-26.5 -5q-14 -10 -18 -29l-5 -31z" />
<glyph unicode="&#xd2;" horiz-adv-x="595" d="M1 545.5q1 91.5 5 181.5q2 14 2 28.5t2 28.5v21q4 57 9.5 107.5t31.5 105.5q4 6 5 12t5 12q16 35 36 69t63 54q41 20 96 21q43 0 84 -12q31 -10 50.5 -25.5t30.5 -34t17 -40t11 -42.5q2 -6 3 -13t3 -13q25 -90 36 -189.5t11 -222.5v-12q0 -74 -2 -151t-15 -157 q-2 -12 -3 -24t-1 -25q-4 -41 -11 -84t-42 -78q-86 -88 -172 -88q-45 0 -90 23q-66 37 -89.5 102.5t-37.5 130.5q-2 8 -4 15.5t-4 15.5q-4 16 -5 29.5t-3 30.5q-2 10 -3.5 20t-3.5 20q-16 92 -15 183.5zM62.5 549q-1.5 -88 15.5 -174q2 -12 3 -23.5t3 -21.5q2 -14 3 -27.5 t5 -26.5q2 -8 3 -16t3 -16q12 -57 30.5 -110.5t68.5 -80.5q29 -16 59 -16q59 0 127 69q23 23 28 55t9 68q0 14 1 26.5t3 27.5q10 78 12 152.5t2 146.5v12q0 119 -10 214t-33 181q-4 20 -8 29q-10 43 -20.5 64.5t-44.5 31.5q-35 10 -66 10q-41 0 -70 -14q-29 -12 -42 -35.5 t-25 -56.5q-8 -16 -10 -25q-23 -47 -28 -92t-7 -98q0 -4 -1 -10.5t-1 -10.5q0 -16 -1 -30.5t-1 -28.5q-6 -86 -7.5 -174zM141 1475l51 35l17 -25q31 -45 50 -89t19 -46l13 -29l-58 -22l-12 28q-10 18 -19 41q-10 18 -20 39t-25 41z" />
<glyph unicode="&#xd3;" horiz-adv-x="595" d="M1 545.5q1 91.5 5 181.5q2 14 2 28.5t2 28.5v21q4 57 9.5 107.5t31.5 105.5q4 6 5 12t5 12q16 35 36 69t63 54q41 20 96 21q43 0 84 -12q31 -10 50.5 -25.5t30.5 -34t17 -40t11 -42.5q2 -6 3 -13t3 -13q25 -90 36 -189.5t11 -222.5v-12q0 -74 -2 -151t-15 -157 q-2 -12 -3 -24t-1 -25q-4 -41 -11 -84t-42 -78q-86 -88 -172 -88q-45 0 -90 23q-66 37 -89.5 102.5t-37.5 130.5q-2 8 -4 15.5t-4 15.5q-4 16 -5 29.5t-3 30.5q-2 10 -3.5 20t-3.5 20q-16 92 -15 183.5zM62.5 549q-1.5 -88 15.5 -174q2 -12 3 -23.5t3 -21.5q2 -14 3 -27.5 t5 -26.5q2 -8 3 -16t3 -16q12 -57 30.5 -110.5t68.5 -80.5q29 -16 59 -16q59 0 127 69q23 23 28 55t9 68q0 14 1 26.5t3 27.5q10 78 12 152.5t2 146.5v12q0 119 -10 214t-33 181q-4 20 -8 29q-10 43 -20.5 64.5t-44.5 31.5q-35 10 -66 10q-41 0 -70 -14q-29 -12 -42 -35.5 t-25 -56.5q-8 -16 -10 -25q-23 -47 -28 -92t-7 -98q0 -4 -1 -10.5t-1 -10.5q0 -16 -1 -30.5t-1 -28.5q-6 -86 -7.5 -174zM244 1327l14 27q8 16 15.5 29.5t15.5 25.5q4 12 18 33q4 8 8.5 17.5t8.5 19.5l8 29l59 -21l-10 -29q-4 -16 -10 -28t-10 -17q-4 -10 -9.5 -18t-9.5 -16 q-8 -12 -14 -24.5t-14 -29.5l-15 -26z" />
<glyph unicode="&#xd4;" horiz-adv-x="595" d="M1 545.5q1 91.5 5 181.5q2 14 2 28.5t2 28.5v21q4 57 9.5 107.5t31.5 105.5q4 6 5 12t5 12q16 35 36 69t63 54q41 20 96 21q43 0 84 -12q31 -10 50.5 -25.5t30.5 -34t17 -40t11 -42.5q2 -6 3 -13t3 -13q25 -90 36 -189.5t11 -222.5v-12q0 -74 -2 -151t-15 -157 q-2 -12 -3 -24t-1 -25q-4 -41 -11 -84t-42 -78q-86 -88 -172 -88q-45 0 -90 23q-66 37 -89.5 102.5t-37.5 130.5q-2 8 -4 15.5t-4 15.5q-4 16 -5 29.5t-3 30.5q-2 10 -3.5 20t-3.5 20q-16 92 -15 183.5zM62.5 549q-1.5 -88 15.5 -174q2 -12 3 -23.5t3 -21.5q2 -14 3 -27.5 t5 -26.5q2 -8 3 -16t3 -16q12 -57 30.5 -110.5t68.5 -80.5q29 -16 59 -16q59 0 127 69q23 23 28 55t9 68q0 14 1 26.5t3 27.5q10 78 12 152.5t2 146.5v12q0 119 -10 214t-33 181q-4 20 -8 29q-10 43 -20.5 64.5t-44.5 31.5q-35 10 -66 10q-41 0 -70 -14q-29 -12 -42 -35.5 t-25 -56.5q-8 -16 -10 -25q-23 -47 -28 -92t-7 -98q0 -4 -1 -10.5t-1 -10.5q0 -16 -1 -30.5t-1 -28.5q-6 -86 -7.5 -174zM72 1325l20 20q51 51 90.5 89t39.5 40h43l9 -9l21.5 -21.5l24.5 -24.5l18 -18q12 -12 28.5 -34t18.5 -24l19 -24l-49 -39l-19 24l-5 7q-5 8 -12 17 t-14.5 17.5t-13.5 14.5q-4 6 -18.5 20t-28.5 29l-106 -107l-23 -22z" />
<glyph unicode="&#xd5;" horiz-adv-x="595" d="M1 545.5q1 91.5 5 181.5q2 14 2 28.5t2 28.5v21q4 57 9.5 107.5t31.5 105.5q4 6 5 12t5 12q16 35 36 69t63 54q41 20 96 21q43 0 84 -12q31 -10 50.5 -25.5t30.5 -34t17 -40t11 -42.5q2 -6 3 -13t3 -13q25 -90 36 -189.5t11 -222.5v-12q0 -74 -2 -151t-15 -157 q-2 -12 -3 -24t-1 -25q-4 -41 -11 -84t-42 -78q-86 -88 -172 -88q-45 0 -90 23q-66 37 -89.5 102.5t-37.5 130.5q-2 8 -4 15.5t-4 15.5q-4 16 -5 29.5t-3 30.5q-2 10 -3.5 20t-3.5 20q-16 92 -15 183.5zM62.5 549q-1.5 -88 15.5 -174q2 -12 3 -23.5t3 -21.5q2 -14 3 -27.5 t5 -26.5q2 -8 3 -16t3 -16q12 -57 30.5 -110.5t68.5 -80.5q29 -16 59 -16q59 0 127 69q23 23 28 55t9 68q0 14 1 26.5t3 27.5q10 78 12 152.5t2 146.5v12q0 119 -10 214t-33 181q-4 20 -8 29q-10 43 -20.5 64.5t-44.5 31.5q-35 10 -66 10q-41 0 -70 -14q-29 -12 -42 -35.5 t-25 -56.5q-8 -16 -10 -25q-23 -47 -28 -92t-7 -98q0 -4 -1 -10.5t-1 -10.5q0 -16 -1 -30.5t-1 -28.5q-6 -86 -7.5 -174zM74 1336l4 30q6 37 37 64q14 10 35.5 18t52.5 -2q18 -4 33.5 -15t32.5 -22q8 -4 15 -9t13 -9q27 -12 43 -6t21 33l4 30l61 -8l-4 -31q-4 -29 -19.5 -50 t-39.5 -32q-21 -8 -35 -8q-29 0 -57 17q-14 8 -39 24q-31 23 -47.5 28t-26.5 -5q-14 -10 -18 -29l-5 -31z" />
<glyph unicode="&#xd6;" horiz-adv-x="595" d="M1 545.5q1 91.5 5 181.5q2 14 2 28.5t2 28.5v21q4 57 9.5 107.5t31.5 105.5q4 6 5 12t5 12q16 35 36 69t63 54q41 20 96 21q43 0 84 -12q31 -10 50.5 -25.5t30.5 -34t17 -40t11 -42.5q2 -6 3 -13t3 -13q25 -90 36 -189.5t11 -222.5v-12q0 -74 -2 -151t-15 -157 q-2 -12 -3 -24t-1 -25q-4 -41 -11 -84t-42 -78q-86 -88 -172 -88q-45 0 -90 23q-66 37 -89.5 102.5t-37.5 130.5q-2 8 -4 15.5t-4 15.5q-4 16 -5 29.5t-3 30.5q-2 10 -3.5 20t-3.5 20q-16 92 -15 183.5zM62.5 549q-1.5 -88 15.5 -174q2 -12 3 -23.5t3 -21.5q2 -14 3 -27.5 t5 -26.5q2 -8 3 -16t3 -16q12 -57 30.5 -110.5t68.5 -80.5q29 -16 59 -16q59 0 127 69q23 23 28 55t9 68q0 14 1 26.5t3 27.5q10 78 12 152.5t2 146.5v12q0 119 -10 214t-33 181q-4 20 -8 29q-10 43 -20.5 64.5t-44.5 31.5q-35 10 -66 10q-41 0 -70 -14q-29 -12 -42 -35.5 t-25 -56.5q-8 -16 -10 -25q-23 -47 -28 -92t-7 -98q0 -4 -1 -10.5t-1 -10.5q0 -16 -1 -30.5t-1 -28.5q-6 -86 -7.5 -174zM115 1349v31v29l29 2h30h13l28 -2v-29q2 -4 1 -16t-1 -15v-30h-30h-9h-14h-18l-27 2zM297 1349v31l2 31h31h8h15h18l27 -2l2 -29v-31v-28l-31 -2h-29 h-12l-29 2z" />
<glyph unicode="&#xd7;" horiz-adv-x="512" d="M0 424l23 22l49 46q20 18 41.5 38.5t50.5 51.5l12 12q-20 23 -40.5 41t-43.5 41l-61 59l-23 21l45 45l23 -23l59 -57q43 -41 84 -84l29 25q29 27 55.5 52t50.5 58l19 25l51 -37l-21 -25q-27 -37 -56.5 -64.5t-57.5 -54.5l-27 -24q29 -35 59.5 -65.5l65.5 -65.5l37 -37 l-45 -43l-37 37l-64.5 64.5t-60.5 64.5q-4 -2 -5 -4t-3 -4q-29 -33 -52.5 -54.5t-43.5 -40.5q-23 -16 -45 -43l-23 -20z" />
<glyph unicode="&#xd8;" horiz-adv-x="690" d="M0 8l14 27l101 194v2q-4 10 -9 31q-4 16 -5 29.5t-3 30.5l-6 40q-16 92 -15 183.5t5 181.5l4 57v23q4 55 9 105.5t32 105.5l10 24q16 35 36 69t63 56q39 18 96 19q43 0 84 -12q31 -10 50 -25.5t30.5 -34t17.5 -40t10 -42.5q0 -6 4 -18q14 33 26.5 67.5t25.5 69.5l10 29 l59 -19l-10 -31q-20 -59 -43 -115.5t-45 -103.5q14 -72 20.5 -148.5t6.5 -168.5v-12q0 -74 -2.5 -151t-14.5 -157q-2 -12 -3 -24t-1 -25q-4 -41 -11 -84t-42 -78q-86 -88 -174 -88q-43 0 -88 23q-43 23 -66.5 59.5t-38.5 79.5q-16 -31 -33.5 -63.5t-33.5 -67.5l-13 -26z M138 549q-1 -88 16 -174l6 -45v-15l104 189q39 70 79 141.5t85 157.5q8 14 23.5 45t33.5 72q-4 16 -7 34.5t-7 34.5l-8 29q-10 43 -20.5 64.5t-45.5 31.5q-34 10 -65 10q-43 0 -70 -14q-29 -12 -42 -35.5t-25 -56.5q-8 -16 -11 -25q-23 -47 -27.5 -92t-6.5 -98q-2 -6 -3 -21 q0 -16 -1 -29.5t-1 -29.5q-6 -86 -7 -174zM178 217q12 -51 31.5 -96t62.5 -68q29 -16 58 -16q61 0 129 69q23 23 28 55t7 68l6 54q10 78 12 152.5t2 146.5v12q0 59 -3 113.5t-7 103.5l-21 -39q-45 -84 -85 -156.5t-79 -142.5z" />
<glyph unicode="&#xd9;" horiz-adv-x="610" d="M-2 1114l2 62l31 -2h166v-64h-31h-37q0 -57 -1 -113.5t-3 -109.5q-4 -190 0 -383v-19q0 -43 4 -120.5t21 -155.5q37 -170 118 -172q8 0 28.5 4t43.5 27t45.5 81t22.5 177v106q-2 37 -2 75v77q2 82 1 159.5t-1 153.5q0 51 -1.5 104.5t-1.5 106.5h-36h-31v63h31h39t28 3 h101v-62h-31h-37v-213q2 -78 2 -155.5v-159.5v-258q0 -217 -86 -303q-47 -47 -115 -48q-27 0 -60.5 13.5t-62.5 60.5q-18 27 -32.5 64t-24.5 84q-16 82 -20.5 162.5t-4.5 123.5v19q-4 98 -3 194.5t3 190.5q2 53 2.5 109.5t0.5 113.5q-8 0 -17.5 1t-19.5 1zM150 1475l51 35 l17 -25q31 -45 50 -89t19 -46l13 -29l-58 -22l-12 28q-10 18 -19 41q-10 18 -20 39t-25 41z" />
<glyph unicode="&#xda;" horiz-adv-x="610" d="M-2 1114l2 62l31 -2h166v-64h-31h-37q0 -57 -1 -113.5t-3 -109.5q-4 -190 0 -383v-19q0 -43 4 -120.5t21 -155.5q37 -170 118 -172q8 0 28.5 4t43.5 27t45.5 81t22.5 177v106q-2 37 -2 75v77q2 82 1 159.5t-1 153.5q0 51 -1.5 104.5t-1.5 106.5h-36h-31v63h31h39t28 3 h101v-62h-31h-37v-213q2 -78 2 -155.5v-159.5v-258q0 -217 -86 -303q-47 -47 -115 -48q-27 0 -60.5 13.5t-62.5 60.5q-18 27 -32.5 64t-24.5 84q-16 82 -20.5 162.5t-4.5 123.5v19q-4 98 -3 194.5t3 190.5q2 53 2.5 109.5t0.5 113.5q-8 0 -17.5 1t-19.5 1zM240 1327l14 27 q8 16 15.5 29.5t15.5 25.5q4 12 18 33q4 8 8.5 17.5t8.5 19.5l8 29l59 -21l-10 -29q-4 -16 -10 -28t-10 -17q-4 -10 -9.5 -18t-9.5 -16q-8 -12 -14 -24.5t-14 -29.5l-15 -26z" />
<glyph unicode="&#xdb;" horiz-adv-x="610" d="M-2 1114l2 62l31 -2h166v-64h-31h-37q0 -57 -1 -113.5t-3 -109.5q-4 -190 0 -383v-19q0 -43 4 -120.5t21 -155.5q37 -170 118 -172q8 0 28.5 4t43.5 27t45.5 81t22.5 177v106q-2 37 -2 75v77q2 82 1 159.5t-1 153.5q0 51 -1.5 104.5t-1.5 106.5h-36h-31v63h31h39t28 3 h101v-62h-31h-37v-213q2 -78 2 -155.5v-159.5v-258q0 -217 -86 -303q-47 -47 -115 -48q-27 0 -60.5 13.5t-62.5 60.5q-18 27 -32.5 64t-24.5 84q-16 82 -20.5 162.5t-4.5 123.5v19q-4 98 -3 194.5t3 190.5q2 53 2.5 109.5t0.5 113.5q-8 0 -17.5 1t-19.5 1zM88 1325l20 20 q51 51 90.5 89t39.5 40h43l9 -9l21.5 -21.5l24.5 -24.5l18 -18q12 -12 28.5 -34t18.5 -24l19 -24l-49 -39l-19 24l-5 7q-5 8 -12 17t-14.5 17.5t-13.5 14.5q-4 6 -18.5 20t-28.5 29l-106 -107l-23 -22z" />
<glyph unicode="&#xdc;" horiz-adv-x="610" d="M-2 1114l2 62l31 -2h166v-64h-31h-37q0 -57 -1 -113.5t-3 -109.5q-4 -190 0 -383v-19q0 -43 4 -120.5t21 -155.5q37 -170 118 -172q8 0 28.5 4t43.5 27t45.5 81t22.5 177v106q-2 37 -2 75v77q2 82 1 159.5t-1 153.5q0 51 -1.5 104.5t-1.5 106.5h-36h-31v63h31h39t28 3 h101v-62h-31h-37v-213q2 -78 2 -155.5v-159.5v-258q0 -217 -86 -303q-47 -47 -115 -48q-27 0 -60.5 13.5t-62.5 60.5q-18 27 -32.5 64t-24.5 84q-16 82 -20.5 162.5t-4.5 123.5v19q-4 98 -3 194.5t3 190.5q2 53 2.5 109.5t0.5 113.5q-8 0 -17.5 1t-19.5 1zM129 1349v31v29 l29 2h30h13l28 -2v-29q2 -4 1 -16t-1 -15v-30h-30h-9h-14h-18l-27 2zM311 1349v31l2 31h31h8h15h18l27 -2l2 -29v-31v-28l-31 -2h-29h-12l-29 2z" />
<glyph unicode="&#xdd;" horiz-adv-x="643" d="M0 1174l31 2q25 2 45 1t43 -1q12 -2 24.5 -2h26.5h31v-64h-31h-35q4 -6 6 -15.5t9 -27.5q4 -10 9 -26.5t9 -34.5q8 -23 14 -43.5t11 -34.5l32 -109l66 -213l51 168q10 31 20 51q4 12 8.5 23.5t8.5 21.5q8 25 14 50.5t15 52.5q10 49 24 96l12 43h-36l-31 2l2 62h33 q29 -2 45 -2h32q10 0 23.5 1t32.5 1h33v-64h-68l-18 -61l-25 -95q-6 -27 -13.5 -52t-15.5 -54l-18 -49q-10 -20 -19 -45l-79 -264q0 -51 1 -100.5t1 -98.5q2 -51 3 -103.5t1 -105.5v-14q-2 -8 -2 -21h32h31v-61h-31q-23 0 -37 -1t-30 -1q-14 -2 -29.5 -2h-38.5h-33v61h33h41 q-2 8 -1 14.5t1 14.5q0 4 1 6t1 4q0 53 -1 105.5t-3 103.5q-2 47 -2 97v102l-94 309l-33 110q-4 14 -10 34t-14 42l-19 64l-14 43l-6 20h-35l-31 -2zM254 1327l14 27q8 16 15.5 29.5t15.5 25.5q4 12 18 33q4 8 8.5 17.5t8.5 19.5l8 29l59 -21l-10 -29q-4 -16 -10 -28 t-10 -17q-4 -10 -9.5 -18t-9.5 -16q-8 -12 -14 -24.5t-14 -29.5l-15 -26z" />
<glyph unicode="&#xdf;" horiz-adv-x="655" d="M-2 604l6 64l31 -4q18 -4 45 0v79v64t-2 61q0 10 -1 21.5t-1 23.5q0 16 -1 34t-1 36v15.5t1 31t3 36.5t6 32q12 35 30.5 54t40 29.5t44 12.5t43.5 4q72 4 124 -30.5t80 -100.5q18 -43 24.5 -93t-0.5 -98.5t-25.5 -91.5t-47.5 -71q-23 -23 -45 -39.5t-51 -28.5 q-4 -4 -9 -5t-9 -5l30 -25q6 -4 12.5 -10t14.5 -10q16 -12 45 -38t43 -42q82 -106 115 -195q59 -147 -13 -249q-35 -51 -82 -65.5t-96 -14.5h-30.5t-28.5 2q-14 0 -27.5 1t-25.5 1h-31v61h31h28.5t28.5 -2q57 -4 105.5 1t76.5 50q29 43 27 93.5t-21.5 100.5t-49 96t-56.5 81 q-10 12 -35 34.5t-41 35.5q-16 8 -29 22q-8 6 -15 12.5t-15 10.5q-20 14 -26.5 27.5t-4.5 23.5q2 27 22.5 40t38.5 23q43 20 80 58q20 20 34.5 55t20 74t0 80t-19.5 75q-6 16 -18.5 34t-28.5 31t-41 21.5t-55 6.5q-41 -2 -64.5 -10.5t-38.5 -47.5q-4 -10 -6 -38.5t-2 -55.5 q0 -16 1 -33.5t1 -34.5q2 -10 2 -22v-23q2 -33 2 -63.5v-63.5v-34q0 -61 1 -124t1 -124v-137q0 -27 -1 -70t-3 -90q0 -41 -1 -81t-1 -65v-30h-31h-24.5t-50.5 2l-31 4l4 61l31 -2q10 -2 20.5 -2h20.5v52.5t2 62.5q2 47 3 90t1 68q0 35 -1 68.5t-1 68.5v139h-25q-8 0 -14 1 t-12 1z" />
<glyph unicode="&#xe0;" horiz-adv-x="495" d="M0 474.5q2 27.5 4 55.5q0 16 1 33t1 33q0 41 4 78t21 78q8 23 25.5 50t43.5 46q27 18 55.5 18t51.5 -4l6 -2q16 -4 33.5 -10t34.5 -27v2l2 31l61 -4v-31q0 -12 -1 -32.5t-1 -42v-40v-26.5v-14q0 -45 1 -80t1 -70t-2 -71.5t-4 -84.5q-4 -47 -4 -96v-98v-117q10 0 16 -2h68 v-63h-31q-10 0 -20.5 1t-20.5 1t-21.5 1t-23.5 1h-31v22l-10 -6q-25 -14 -47.5 -18t-32.5 -6h-4q-4 0 -7 -1.5t-7 -1.5q-20 0 -38 6.5t-28 10.5q-47 23 -62.5 64.5t-19.5 82.5q-4 23 -3 44.5t1 41.5v54l-6 90q-2 12 -3 23.5t-1 23.5q-4 29 -2 56.5zM62.5 474 q-1.5 -25 0.5 -52l5 -45l6 -94v-56v-39.5t2 -40.5q8 -78 47 -96q29 -14 43 -10h6q33 4 62.5 19.5t33.5 60.5l4 31v14v99t4 100q2 45 3.5 81.5t2.5 70.5t0 69t-1 78v16v2l-5 31q-4 16 -14 32.5t-20 28.5q-2 4 -4 5t-5 3q-4 8 -11 11.5t-23 7.5h-6q-37 10 -58 -4 q-14 -10 -26.5 -27.5t-20.5 -38.5q-12 -35 -15 -66.5t-5 -70.5v-33.5t-2 -34.5q-2 -27 -3.5 -52zM82 1147l51 35l17 -25q31 -45 50 -89t19 -46l13 -29l-58 -22l-12 28q-10 18 -19 41q-10 18 -20 39t-25 41z" />
<glyph unicode="&#xe1;" horiz-adv-x="495" d="M0 474.5q2 27.5 4 55.5q0 16 1 33t1 33q0 41 4 78t21 78q8 23 25.5 50t43.5 46q27 18 55.5 18t51.5 -4l6 -2q16 -4 33.5 -10t34.5 -27v2l2 31l61 -4v-31q0 -12 -1 -32.5t-1 -42v-40v-26.5v-14q0 -45 1 -80t1 -70t-2 -71.5t-4 -84.5q-4 -47 -4 -96v-98v-117q10 0 16 -2h68 v-63h-31q-10 0 -20.5 1t-20.5 1t-21.5 1t-23.5 1h-31v22l-10 -6q-25 -14 -47.5 -18t-32.5 -6h-4q-4 0 -7 -1.5t-7 -1.5q-20 0 -38 6.5t-28 10.5q-47 23 -62.5 64.5t-19.5 82.5q-4 23 -3 44.5t1 41.5v54l-6 90q-2 12 -3 23.5t-1 23.5q-4 29 -2 56.5zM62.5 474 q-1.5 -25 0.5 -52l5 -45l6 -94v-56v-39.5t2 -40.5q8 -78 47 -96q29 -14 43 -10h6q33 4 62.5 19.5t33.5 60.5l4 31v14v99t4 100q2 45 3.5 81.5t2.5 70.5t0 69t-1 78v16v2l-5 31q-4 16 -14 32.5t-20 28.5q-2 4 -4 5t-5 3q-4 8 -11 11.5t-23 7.5h-6q-37 10 -58 -4 q-14 -10 -26.5 -27.5t-20.5 -38.5q-12 -35 -15 -66.5t-5 -70.5v-33.5t-2 -34.5q-2 -27 -3.5 -52zM160 999l14 27q8 16 15.5 29.5t15.5 25.5q4 12 18 33q4 8 8.5 17.5t8.5 19.5l8 29l59 -21l-10 -29q-4 -16 -10 -28t-10 -17q-4 -10 -9.5 -18t-9.5 -16q-8 -12 -14 -24.5 t-14 -29.5l-15 -26z" />
<glyph unicode="&#xe2;" horiz-adv-x="495" d="M0 474.5q2 27.5 4 55.5q0 16 1 33t1 33q0 41 4 78t21 78q8 23 25.5 50t43.5 46q27 18 55.5 18t51.5 -4l6 -2q16 -4 33.5 -10t34.5 -27v2l2 31l61 -4v-31q0 -12 -1 -32.5t-1 -42v-40v-26.5v-14q0 -45 1 -80t1 -70t-2 -71.5t-4 -84.5q-4 -47 -4 -96v-98v-117q10 0 16 -2h68 v-63h-31q-10 0 -20.5 1t-20.5 1t-21.5 1t-23.5 1h-31v22l-10 -6q-25 -14 -47.5 -18t-32.5 -6h-4q-4 0 -7 -1.5t-7 -1.5q-20 0 -38 6.5t-28 10.5q-47 23 -62.5 64.5t-19.5 82.5q-4 23 -3 44.5t1 41.5v54l-6 90q-2 12 -3 23.5t-1 23.5q-4 29 -2 56.5zM16 1018l20 20 q51 51 90.5 89t39.5 40h43l9 -9l21.5 -21.5l24.5 -24.5l18 -18q12 -12 28.5 -34t18.5 -24l19 -24l-49 -39l-19 24l-5 7q-5 8 -12 17t-14.5 17.5t-13.5 14.5q-4 6 -18.5 20t-28.5 29l-106 -107l-23 -22zM62.5 474q-1.5 -25 0.5 -52l5 -45l6 -94v-56v-39.5t2 -40.5 q8 -78 47 -96q29 -14 43 -10h6q33 4 62.5 19.5t33.5 60.5l4 31v14v99t4 100q2 45 3.5 81.5t2.5 70.5t0 69t-1 78v16v2l-5 31q-4 16 -14 32.5t-20 28.5q-2 4 -4 5t-5 3q-4 8 -11 11.5t-23 7.5h-6q-37 10 -58 -4q-14 -10 -26.5 -27.5t-20.5 -38.5q-12 -35 -15 -66.5t-5 -70.5 v-33.5t-2 -34.5q-2 -27 -3.5 -52z" />
<glyph unicode="&#xe3;" horiz-adv-x="495" d="M0 474.5q2 27.5 4 55.5q0 16 1 33t1 33q0 41 4 78t21 78q8 23 25.5 50t43.5 46q27 18 55.5 18t51.5 -4l6 -2q16 -4 33.5 -10t34.5 -27v2l2 31l61 -4v-31q0 -12 -1 -32.5t-1 -42v-40v-26.5v-14q0 -45 1 -80t1 -70t-2 -71.5t-4 -84.5q-4 -47 -4 -96v-98v-117q10 0 16 -2h68 v-63h-31q-10 0 -20.5 1t-20.5 1t-21.5 1t-23.5 1h-31v22l-10 -6q-25 -14 -47.5 -18t-32.5 -6h-4q-4 0 -7 -1.5t-7 -1.5q-20 0 -38 6.5t-28 10.5q-47 23 -62.5 64.5t-19.5 82.5q-4 23 -3 44.5t1 41.5v54l-6 90q-2 12 -3 23.5t-1 23.5q-4 29 -2 56.5zM6 1008l4 30q6 37 37 64 q14 10 35.5 18t52.5 -2q18 -4 33.5 -15t32.5 -22q8 -4 15 -9t13 -9q27 -12 43 -6t21 33l4 30l61 -8l-4 -31q-4 -29 -19.5 -50t-39.5 -32q-21 -8 -35 -8q-29 0 -57 17q-14 8 -39 24q-31 23 -47.5 28t-26.5 -5q-14 -10 -18 -29l-5 -31zM62.5 474q-1.5 -25 0.5 -52l5 -45l6 -94 v-56v-39.5t2 -40.5q8 -78 47 -96q29 -14 43 -10h6q33 4 62.5 19.5t33.5 60.5l4 31v14v99t4 100q2 45 3.5 81.5t2.5 70.5t0 69t-1 78v16v2l-5 31q-4 16 -14 32.5t-20 28.5q-2 4 -4 5t-5 3q-4 8 -11 11.5t-23 7.5h-6q-37 10 -58 -4q-14 -10 -26.5 -27.5t-20.5 -38.5 q-12 -35 -15 -66.5t-5 -70.5v-33.5t-2 -34.5q-2 -27 -3.5 -52z" />
<glyph unicode="&#xe4;" horiz-adv-x="495" d="M0 474.5q2 27.5 4 55.5q0 16 1 33t1 33q0 41 4 78t21 78q8 23 25.5 50t43.5 46q27 18 55.5 18t51.5 -4l6 -2q16 -4 33.5 -10t34.5 -27v2l2 31l61 -4v-31q0 -12 -1 -32.5t-1 -42v-40v-26.5v-14q0 -45 1 -80t1 -70t-2 -71.5t-4 -84.5q-4 -47 -4 -96v-98v-117q10 0 16 -2h68 v-63h-31q-10 0 -20.5 1t-20.5 1t-21.5 1t-23.5 1h-31v22l-10 -6q-25 -14 -47.5 -18t-32.5 -6h-4q-4 0 -7 -1.5t-7 -1.5q-20 0 -38 6.5t-28 10.5q-47 23 -62.5 64.5t-19.5 82.5q-4 23 -3 44.5t1 41.5v54l-6 90q-2 12 -3 23.5t-1 23.5q-4 29 -2 56.5zM43 1042v31v29l29 2h30 h13l28 -2v-29q2 -4 1 -16t-1 -15v-30h-30h-9h-14h-18l-27 2zM62.5 474q-1.5 -25 0.5 -52l5 -45l6 -94v-56v-39.5t2 -40.5q8 -78 47 -96q29 -14 43 -10h6q33 4 62.5 19.5t33.5 60.5l4 31v14v99t4 100q2 45 3.5 81.5t2.5 70.5t0 69t-1 78v16v2l-5 31q-4 16 -14 32.5t-20 28.5 q-2 4 -4 5t-5 3q-4 8 -11 11.5t-23 7.5h-6q-37 10 -58 -4q-14 -10 -26.5 -27.5t-20.5 -38.5q-12 -35 -15 -66.5t-5 -70.5v-33.5t-2 -34.5q-2 -27 -3.5 -52zM225 1042v31l2 31h31h8h15h18l27 -2l2 -29v-31v-28l-31 -2h-29h-12l-29 2z" />
<glyph unicode="&#xe5;" horiz-adv-x="495" d="M0 474.5q2 27.5 4 55.5q0 16 1 33t1 33q0 41 4 78t21 78q8 23 25.5 50t43.5 46q27 18 55.5 18t51.5 -4l6 -2q16 -4 33.5 -10t34.5 -27v2l2 31l61 -4v-31q0 -12 -1 -32.5t-1 -42v-40v-26.5v-14q0 -45 1 -80t1 -70t-2 -71.5t-4 -84.5q-4 -47 -4 -96v-98v-117q10 0 16 -2h68 v-63h-31q-10 0 -20.5 1t-20.5 1t-21.5 1t-23.5 1h-31v22l-10 -6q-25 -14 -47.5 -18t-32.5 -6h-4q-4 0 -7 -1.5t-7 -1.5q-20 0 -38 6.5t-28 10.5q-47 23 -62.5 64.5t-19.5 82.5q-4 23 -3 44.5t1 41.5v54l-6 90q-2 12 -3 23.5t-1 23.5q-4 29 -2 56.5zM62.5 474 q-1.5 -25 0.5 -52l5 -45l6 -94v-56v-39.5t2 -40.5q8 -78 47 -96q29 -14 43 -10h6q33 4 62.5 19.5t33.5 60.5l4 31v14v99t4 100q2 45 3.5 81.5t2.5 70.5t0 69t-1 78v16v2l-5 31q-4 16 -14 32.5t-20 28.5q-2 4 -4 5t-5 3q-4 8 -11 11.5t-23 7.5h-6q-37 10 -58 -4 q-14 -10 -26.5 -27.5t-20.5 -38.5q-12 -35 -15 -66.5t-5 -70.5v-33.5t-2 -34.5q-2 -27 -3.5 -52zM90 1106v4q-2 37 19.5 68.5t60.5 33.5h2q59 0 92 -34.5t33 -94.5q2 -45 -14.5 -68.5t-32.5 -33.5q-20 -10 -45 -10q-39 0 -66 18q-37 25 -43 55.5t-6 61.5zM151 1108 q0 -31 3.5 -43t19.5 -23q14 -10 31 -10q10 0 12 2q4 4 11 12.5t7 36.5q0 45 -20 55.5t-43 10.5q-10 0 -15.5 -14.5t-5.5 -24.5v-2z" />
<glyph unicode="&#xe6;" horiz-adv-x="663" d="M-3 205q1 45 5 84v28q2 27 4 50.5t11.5 43t29 37t53.5 31.5q29 12 62 13.5t63 -0.5q10 0 19.5 -1.5t19.5 -1.5v3q0 16 -1 31.5t-1 31.5q-4 55 0 111q2 27 -1 50t-17 44q-20 27 -48 35t-53 8q-14 0 -35.5 -7.5t-25.5 -13.5l-47 43q20 20 55 29.5t53 9.5h2q100 0 148 -69 l4 -9q10 16 23.5 32t29.5 28q27 18 55.5 18t51.5 -4l4 -2q16 -4 34.5 -10t34.5 -29q20 -27 29 -53q10 -25 12 -49.5t4 -46.5l5 -27l6 -39v-28.5t2 -30.5q0 -2 -1 -12.5t-1 -24.5t-1 -27.5t-1 -21.5l-2 -29l-27 -2q-45 -4 -71.5 -2t-49.5 4t-46 3t-64 -3v-14 q-2 -66 -2 -134.5t6 -136.5q4 -27 17 -55.5t44 -42.5q14 -8 24.5 -10t14.5 -2l4 2q12 2 27.5 5t25.5 7q16 12 21 45l6 31l61 -10l-6 -31q-4 -23 -15 -47.5t-34 -38.5q-16 -10 -37.5 -14t-38.5 -9l-6 -2h-12q-25 0 -64 17q-37 18 -61 55q-23 -27 -53 -43q-18 -10 -40.5 -18.5 t-49.5 -8.5q-20 0 -31 5q-96 23 -119 137q-10 43 -9 88zM59 201q0 -41 7.5 -75t25 -56.5t47.5 -30.5q33 -8 76 18q14 8 27.5 19.5t17.5 27.5l6 35q-6 72 -6 141.5t2 137.5v10h-20.5t-20.5 2q-29 2 -52.5 2t-43.5 -10t-31.5 -18.5t-17.5 -19.5t-8 -28.5t-2 -42.5 q-2 -8 -3 -28q-4 -43 -4 -84zM324 557q2 -16 2 -31.5v-31.5q16 2 30.5 2h26.5q16 0 29.5 -1t27.5 -3q16 -2 35 -3.5t47 0.5q2 18 2 35v19v30.5t-2 26.5q0 10 -4 31q-2 10 -3 17t-1 18q-2 23 -4 42t-8 37q-4 10 -9.5 18.5t-11.5 18.5q-6 6 -12 9.5t-23 7.5h-6q-37 10 -53 -2 q-31 -23 -47 -68q-14 -41 -15 -84t-1 -88z" />
<glyph unicode="&#xe7;" horiz-adv-x="401" d="M-2 280.5q0 69.5 2 137.5v36.5t2 37.5q0 16 -1 31.5t-1 31.5q-2 47 0 95t20 100q8 23 24.5 50t43.5 46q27 18 55.5 18t51.5 -4l4 -2q16 -4 31.5 -9t31.5 -22v37h62v-45q2 -18 0 -43.5t-15 -60.5l-59 2q-6 18 -13.5 33.5t-17.5 31.5q-6 6 -12 9.5t-23 7.5h-4 q-39 10 -55 -4q-14 -10 -26.5 -27.5t-20.5 -38.5q-14 -41 -15.5 -84t-1.5 -88q2 -16 2 -32.5v-32.5q0 -18 -1 -38t-1 -38q-2 -66 -2 -134.5t7 -136.5q4 -27 17 -55.5t44 -42.5q14 -8 24.5 -10t14.5 -2l4 2q12 2 27.5 5t25.5 7q16 12 21 45l6 31l61 -10l-6 -31 q-4 -23 -15 -47.5t-34 -38.5q-16 -10 -32.5 -14t-33.5 -7l-14 -18q0 -2 -1 -3t-1 -3q23 -4 44.5 -12.5t35.5 -28.5q23 -29 18 -72q-6 -63 -75 -86q-25 -8 -66 -8h-35l2 64h31q29 -2 49 4q10 4 20.5 12t12.5 22q0 16 -6 27q-10 12 -35 16.5t-43 -0.5l-31 46q8 18 13.5 28 t9.5 17l-21 8q-39 20 -64.5 60t-29.5 89q-6 72 -6 141.5z" />
<glyph unicode="&#xe8;" horiz-adv-x="401" d="M-2 279.5q0 68.5 2 138.5q0 18 1 36.5t1 37.5v31.5t-2 31.5q0 47 2 95t18 100q8 23 25.5 50t42.5 46q27 18 55.5 18t51.5 -4l4 -2q16 -4 34.5 -11t34.5 -28q16 -23 31 -53q8 -27 11 -50.5t5 -45.5q0 -8 4 -29q2 -10 3.5 -18.5t1.5 -18.5q2 -14 2 -28.5v-30.5q0 -6 -1 -38 t-3 -50v-27l-29 -2q-45 -4 -71.5 -2t-47.5 4q-23 2 -46.5 3t-64.5 -3v-14q-2 -66 -2 -134.5t7 -136.5q2 -27 16 -55.5t43 -44.5q14 -6 24.5 -8t14.5 -2l6 2q10 2 26.5 5t24.5 7q6 4 12.5 17.5t10.5 25.5l4 31l61 -8l-4 -31q-4 -23 -15 -47.5t-34 -38.5q-16 -10 -38.5 -15.5 t-39.5 -7.5l-4 -2h-12q-27 0 -64 17q-41 18 -66.5 58t-29.5 91q-6 72 -6 140.5zM55 1147l51 35l17 -25q31 -45 50 -89t19 -46l13 -29l-58 -22l-12 28q-10 18 -19 41q-10 18 -20 39t-25 41zM62.5 644q-1.5 -42 0.5 -87v-65q18 2 33 3t25 1q16 0 30.5 -1t26.5 -3 q16 -2 35.5 -3.5t48.5 0.5q0 18 1 34t1 20q-2 16 -2 30.5v26.5q-2 8 -2 15.5t-2 15.5t-3 16t-3 19q-2 23 -4 42t-8 35q-4 10 -9.5 19.5t-11.5 19.5q-6 8 -35 17h-4q-35 8 -55 -4q-31 -20 -45 -66q-16 -43 -17.5 -85z" />
<glyph unicode="&#xe9;" horiz-adv-x="401" d="M-2 279.5q0 68.5 2 138.5q0 18 1 36.5t1 37.5v31.5t-2 31.5q0 47 2 95t18 100q8 23 25.5 50t42.5 46q27 18 55.5 18t51.5 -4l4 -2q16 -4 34.5 -11t34.5 -28q16 -23 31 -53q8 -27 11 -50.5t5 -45.5q0 -8 4 -29q2 -10 3.5 -18.5t1.5 -18.5q2 -14 2 -28.5v-30.5q0 -6 -1 -38 t-3 -50v-27l-29 -2q-45 -4 -71.5 -2t-47.5 4q-23 2 -46.5 3t-64.5 -3v-14q-2 -66 -2 -134.5t7 -136.5q2 -27 16 -55.5t43 -44.5q14 -6 24.5 -8t14.5 -2l6 2q10 2 26.5 5t24.5 7q6 4 12.5 17.5t10.5 25.5l4 31l61 -8l-4 -31q-4 -23 -15 -47.5t-34 -38.5q-16 -10 -38.5 -15.5 t-39.5 -7.5l-4 -2h-12q-27 0 -64 17q-41 18 -66.5 58t-29.5 91q-6 72 -6 140.5zM62.5 644q-1.5 -42 0.5 -87v-65q18 2 33 3t25 1q16 0 30.5 -1t26.5 -3q16 -2 35.5 -3.5t48.5 0.5q0 18 1 34t1 20q-2 16 -2 30.5v26.5q-2 8 -2 15.5t-2 15.5t-3 16t-3 19q-2 23 -4 42t-8 35 q-4 10 -9.5 19.5t-11.5 19.5q-6 8 -35 17h-4q-35 8 -55 -4q-31 -20 -45 -66q-16 -43 -17.5 -85zM135 999l14 27q8 16 15.5 29.5t15.5 25.5q4 12 18 33q4 8 8.5 17.5t8.5 19.5l8 29l59 -21l-10 -29q-4 -16 -10 -28t-10 -17q-4 -10 -9.5 -18t-9.5 -16q-8 -12 -14 -24.5 t-14 -29.5l-15 -26z" />
<glyph unicode="&#xea;" horiz-adv-x="401" d="M-6 1018l20 20q51 51 90.5 89t39.5 40h43l9 -9l21.5 -21.5l24.5 -24.5l18 -18q12 -12 28.5 -34t18.5 -24l19 -24l-49 -39l-19 24l-5 7q-5 8 -12 17t-14.5 17.5t-13.5 14.5q-4 6 -18.5 20t-28.5 29l-106 -107l-23 -22zM-2 279.5q0 68.5 2 138.5q0 18 1 36.5t1 37.5v31.5 t-2 31.5q0 47 2 95t18 100q8 23 25.5 50t42.5 46q27 18 55.5 18t51.5 -4l4 -2q16 -4 34.5 -11t34.5 -28q16 -23 31 -53q8 -27 11 -50.5t5 -45.5q0 -8 4 -29q2 -10 3.5 -18.5t1.5 -18.5q2 -14 2 -28.5v-30.5q0 -6 -1 -38t-3 -50v-27l-29 -2q-45 -4 -71.5 -2t-47.5 4 q-23 2 -46.5 3t-64.5 -3v-14q-2 -66 -2 -134.5t7 -136.5q2 -27 16 -55.5t43 -44.5q14 -6 24.5 -8t14.5 -2l6 2q10 2 26.5 5t24.5 7q6 4 12.5 17.5t10.5 25.5l4 31l61 -8l-4 -31q-4 -23 -15 -47.5t-34 -38.5q-16 -10 -38.5 -15.5t-39.5 -7.5l-4 -2h-12q-27 0 -64 17 q-41 18 -66.5 58t-29.5 91q-6 72 -6 140.5zM62.5 644q-1.5 -42 0.5 -87v-65q18 2 33 3t25 1q16 0 30.5 -1t26.5 -3q16 -2 35.5 -3.5t48.5 0.5q0 18 1 34t1 20q-2 16 -2 30.5v26.5q-2 8 -2 15.5t-2 15.5t-3 16t-3 19q-2 23 -4 42t-8 35q-4 10 -9.5 19.5t-11.5 19.5 q-6 8 -35 17h-4q-35 8 -55 -4q-31 -20 -45 -66q-16 -43 -17.5 -85z" />
<glyph unicode="&#xeb;" horiz-adv-x="401" d="M-2 279.5q0 68.5 2 138.5q0 18 1 36.5t1 37.5v31.5t-2 31.5q0 47 2 95t18 100q8 23 25.5 50t42.5 46q27 18 55.5 18t51.5 -4l4 -2q16 -4 34.5 -11t34.5 -28q16 -23 31 -53q8 -27 11 -50.5t5 -45.5q0 -8 4 -29q2 -10 3.5 -18.5t1.5 -18.5q2 -14 2 -28.5v-30.5q0 -6 -1 -38 t-3 -50v-27l-29 -2q-45 -4 -71.5 -2t-47.5 4q-23 2 -46.5 3t-64.5 -3v-14q-2 -66 -2 -134.5t7 -136.5q2 -27 16 -55.5t43 -44.5q14 -6 24.5 -8t14.5 -2l6 2q10 2 26.5 5t24.5 7q6 4 12.5 17.5t10.5 25.5l4 31l61 -8l-4 -31q-4 -23 -15 -47.5t-34 -38.5q-16 -10 -38.5 -15.5 t-39.5 -7.5l-4 -2h-12q-27 0 -64 17q-41 18 -66.5 58t-29.5 91q-6 72 -6 140.5zM14 1042v31v29l29 2h30h13l28 -2v-29q2 -4 1 -16t-1 -15v-30h-30h-9h-14h-18l-27 2zM62.5 644q-1.5 -42 0.5 -87v-65q18 2 33 3t25 1q16 0 30.5 -1t26.5 -3q16 -2 35.5 -3.5t48.5 0.5 q0 18 1 34t1 20q-2 16 -2 30.5v26.5q-2 8 -2 15.5t-2 15.5t-3 16t-3 19q-2 23 -4 42t-8 35q-4 10 -9.5 19.5t-11.5 19.5q-6 8 -35 17h-4q-35 8 -55 -4q-31 -20 -45 -66q-16 -43 -17.5 -85zM196 1042v31l2 31h31h8h15h18l27 -2l2 -29v-31v-28l-31 -2h-29h-12l-29 2z" />
<glyph unicode="&#xec;" horiz-adv-x="288" d="M-6 1147l51 35l16 -25q31 -45 50.5 -89t19.5 -46l12 -29l-57 -22l-12 28q-10 18 -19 41q-10 18 -20 39t-25 41zM14 791v61h31q6 0 12 1t15 1h49l26 -2l3 -29q4 -80 6 -142.5t2 -112.5t-1 -94t-1 -89q-2 -66 -4 -141.5t0 -192.5h61v-63h-74q-35 2 -80 0l-32 -2l-4 61l30 2 q10 0 19.5 1t17.5 1q-2 117 -1 195t5 141q0 43 1 84t1 88t-2 103.5t-6 130.5q-10 0 -14 -2h-60z" />
<glyph unicode="&#xed;" horiz-adv-x="274" d="M0 791v61h31q6 0 12 1t14 1h49l27 -2l2 -29q4 -80 6 -142.5t2 -112.5t-1 -94t-1 -89q-2 -66 -4 -141.5t0 -192.5h62v-63h-74q-35 2 -80 0l-33 -2l-4 61l31 2q10 0 19.5 1t17.5 1q-2 117 -1 195t5 141q0 43 1 84t1 88t-2 103.5t-6 130.5q-10 0 -15 -2h-59zM63 999l15 27 q8 16 15 29.5t16 25.5q4 12 18 33q4 8 8 17.5t8 19.5l9 29l59 -21l-10 -29q-4 -16 -10.5 -28t-10.5 -17q-4 -10 -9 -18t-9 -16q-8 -12 -14.5 -24.5t-14.5 -29.5l-14 -26z" />
<glyph unicode="&#xee;" horiz-adv-x="344" d="M-6 1018l20 20q51 51 90 89t39 40h43l10 -9q9 -9 21 -21.5t24.5 -24.5t18.5 -18q12 -12 28.5 -34t18.5 -24l19 -24l-50 -39l-18 24l-5 7q-5 8 -12.5 17t-14.5 17.5t-13 14.5q-4 6 -18.5 20t-28.5 29l-107 -107l-22 -22zM70 791v61h30q6 0 12.5 1t14.5 1h49l27 -2l2 -29 q4 -80 6 -142.5t2 -112.5t-1 -94t-1 -89q-2 -66 -4 -141.5t0 -192.5h61v-63h-73q-35 2 -80 0l-33 -2l-4 61l31 2q10 0 19 1t17 1q-2 117 -1 195t6 141q0 43 1 84t1 88t-2.5 103.5t-6.5 130.5q-10 0 -14 -2h-59z" />
<glyph unicode="&#xef;" horiz-adv-x="274" d="M-61 1042v31v29l28 2h31h12l29 -2v-29q2 -4 1 -16.5t-1 -14.5v-30h-31h-8h-14h-19l-26 2zM0 791v61h31q6 0 12 1t14 1h49l27 -2l2 -29q4 -80 6 -142.5t2 -112.5t-1 -94t-1 -89q-2 -66 -4 -141.5t0 -192.5h62v-63h-74q-35 2 -80 0l-33 -2l-4 61l31 2q10 0 19.5 1t17.5 1 q-2 117 -1 195t5 141q0 43 1 84t1 88t-2 103.5t-6 130.5q-10 0 -15 -2h-59zM121 1042v31l2 31h31h8h14h19l26 -2l2 -29v-31v-28l-30 -2h-29h-12l-29 2z" />
<glyph unicode="&#xf0;" horiz-adv-x="432" d="M-10 1133l22 57l29 -10q84 -31 149 -93q49 12 105 13h31v-64h-31q-16 0 -29.5 -1t-27.5 -3q20 -27 35.5 -56.5t29.5 -64.5q16 -43 25.5 -116.5t15.5 -139.5v-2l4 -51q2 -35 2 -68.5v-66.5v-180q0 -41 -4 -76t-14 -70l-4 -32q-4 -27 -11.5 -55.5t-42.5 -51.5 q-16 -10 -37.5 -14t-37.5 -8h-4q-4 0 -6.5 -1.5t-6.5 -1.5q-31 0 -63 19q-41 18 -66.5 58t-29.5 91q-14 147 -14.5 274.5t9.5 248.5q4 49 19.5 97t68.5 87q27 18 66 18q18 0 41 -6h4q10 -4 19.5 -6t19.5 -8q-2 12 -4 21.5t-6 19.5q-33 78 -76 127l-51 -12l-25 -7l-31 -8 l-16 60l31 8l24 6q4 0 7.5 2t7.5 2q-23 16 -46.5 29.5t-52.5 23.5zM71 421q1 -124 13 -269q4 -29 18.5 -57.5t42.5 -43.5q25 -10 37 -10h8q10 2 26.5 5t25.5 9q14 8 17 22.5t7 37.5q0 18 6 41q14 59 15 131v180q0 35 1 66.5t-3 64.5q-4 51 -12.5 102.5t-34.5 85.5 q-4 8 -11.5 10.5t-23.5 6.5l-4 2q-11 2 -27 2q-20 0 -29 -6q-35 -25 -47 -56.5t-16 -82.5q-10 -117 -9 -241z" />
<glyph unicode="&#xf1;" horiz-adv-x="552" d="M0 791v61h57q23 4 49 0l27 -2l2 -27v-8q35 35 80 45q23 4 48.5 4t53.5 -16q29 -18 48.5 -47t29.5 -51q20 -49 22.5 -98.5t0.5 -96.5q0 -16 -1 -31.5t1 -31.5v-140.5t-2 -134.5q0 -41 -1 -84t-1 -84q6 0 14 1t18 1h31v-63h-31h-33.5t-27.5 -2q-14 0 -28.5 -1t-37.5 -1h-30 v63h30h33v86t2 84q0 66 1 134.5t-1 140.5v32.5t2 32.5q2 45 0 87t-18 83q-8 20 -22.5 38.5t-30.5 29.5q-12 8 -23.5 8t-34.5 -4q-29 -6 -49 -31q-14 -16 -22.5 -28.5t-12.5 -34.5l-4 -15q2 -51 1 -101t-1 -100v-100q0 -16 -1 -31.5t-1 -31.5q-2 -29 -3 -53.5t3 -51.5 q4 -31 4 -62.5v-62.5q-2 -12 -2 -24.5v-22.5h60v-61h-74q-20 0 -37.5 1t-44.5 -3l-31 -2l-4 61l31 4h39v49q2 29 2 57.5t-4 57.5q-4 31 -3 59.5t3 57.5q0 14 1 28.5t1 30.5v100v152t-4 150h-74zM45 1008l4 30q6 37 37 64q14 10 35.5 18t52.5 -2q18 -4 33.5 -15t32.5 -22 q8 -4 15 -9t13 -9q27 -12 43 -6t21 33l4 30l61 -8l-4 -31q-4 -29 -19.5 -50t-39.5 -32q-21 -8 -35 -8q-29 0 -57 17q-14 8 -39 24q-31 23 -47.5 28t-26.5 -5q-14 -10 -18 -29l-5 -31z" />
<glyph unicode="&#xf2;" horiz-adv-x="407" d="M-1 309.5q1 32.5 1 67.5v33v49v96q0 41 3 76t13 71q4 16 4 33q4 25 12.5 53.5t41.5 51.5q16 10 37.5 15t38.5 7l6 2q35 4 75 -16q39 -18 65 -58t30 -92q14 -150 15 -276.5t-11 -247.5q-4 -47 -19.5 -95t-68.5 -87q-25 -19 -64 -19q-10 0 -21.5 1t-21.5 3l-4 3 q-16 4 -34.5 11t-35.5 27q-35 45 -45 104.5t-14 119.5q-4 35 -3 67.5zM55 1147l51 35l17 -25q31 -45 50 -89t19 -46l13 -29l-58 -22l-12 28q-10 18 -19 41q-10 18 -20 39t-25 41zM61 310.5q0 -31.5 2 -66.5q4 -49 12.5 -101.5t35.5 -87.5q6 -6 12 -9t22 -7h7q16 -4 26 -4 q18 0 27 8q35 23 47 55.5t16 81.5q10 117 10.5 241t-14.5 271q-4 27 -17.5 55.5t-41.5 45.5q-25 10 -37 10h-4l-4 -2q-12 -2 -27.5 -5t-23.5 -8q-14 -10 -18.5 -23t-6.5 -38q-2 -10 -3 -20.5t-5 -20.5q-14 -59 -15 -131v-96v-49v-33v-66.5z" />
<glyph unicode="&#xf3;" horiz-adv-x="407" d="M-1 309.5q1 32.5 1 67.5v33v49v96q0 41 3 76t13 71q4 16 4 33q4 25 12.5 53.5t41.5 51.5q16 10 37.5 15t38.5 7l6 2q35 4 75 -16q39 -18 65 -58t30 -92q14 -150 15 -276.5t-11 -247.5q-4 -47 -19.5 -95t-68.5 -87q-25 -19 -64 -19q-10 0 -21.5 1t-21.5 3l-4 3 q-16 4 -34.5 11t-35.5 27q-35 45 -45 104.5t-14 119.5q-4 35 -3 67.5zM61 310.5q0 -31.5 2 -66.5q4 -49 12.5 -101.5t35.5 -87.5q6 -6 12 -9t22 -7h7q16 -4 26 -4q18 0 27 8q35 23 47 55.5t16 81.5q10 117 10.5 241t-14.5 271q-4 27 -17.5 55.5t-41.5 45.5q-25 10 -37 10h-4 l-4 -2q-12 -2 -27.5 -5t-23.5 -8q-14 -10 -18.5 -23t-6.5 -38q-2 -10 -3 -20.5t-5 -20.5q-14 -59 -15 -131v-96v-49v-33v-66.5zM129 999l14 27q8 16 15.5 29.5t15.5 25.5q4 12 18 33q4 8 8.5 17.5t8.5 19.5l8 29l59 -21l-10 -29q-4 -16 -10 -28t-10 -17q-4 -10 -9.5 -18 t-9.5 -16q-8 -12 -14 -24.5t-14 -29.5l-15 -26z" />
<glyph unicode="&#xf4;" horiz-adv-x="407" d="M-1 309.5q1 32.5 1 67.5v33v49v96q0 41 3 76t13 71q4 16 4 33q4 25 12.5 53.5t41.5 51.5q16 10 37.5 15t38.5 7l6 2q35 4 75 -16q39 -18 65 -58t30 -92q14 -150 15 -276.5t-11 -247.5q-4 -47 -19.5 -95t-68.5 -87q-25 -19 -64 -19q-10 0 -21.5 1t-21.5 3l-4 3 q-16 4 -34.5 11t-35.5 27q-35 45 -45 104.5t-14 119.5q-4 35 -3 67.5zM2 1018l20 20q51 51 90.5 89t39.5 40h43l9 -9l21.5 -21.5l24.5 -24.5l18 -18q12 -12 28.5 -34t18.5 -24l19 -24l-49 -39l-19 24l-5 7q-5 8 -12 17t-14.5 17.5t-13.5 14.5q-4 6 -18.5 20t-28.5 29 l-106 -107l-23 -22zM61 310.5q0 -31.5 2 -66.5q4 -49 12.5 -101.5t35.5 -87.5q6 -6 12 -9t22 -7h7q16 -4 26 -4q18 0 27 8q35 23 47 55.5t16 81.5q10 117 10.5 241t-14.5 271q-4 27 -17.5 55.5t-41.5 45.5q-25 10 -37 10h-4l-4 -2q-12 -2 -27.5 -5t-23.5 -8 q-14 -10 -18.5 -23t-6.5 -38q-2 -10 -3 -20.5t-5 -20.5q-14 -59 -15 -131v-96v-49v-33v-66.5z" />
<glyph unicode="&#xf5;" horiz-adv-x="407" d="M-16 1008l4 30q6 37 37 64q14 10 35.5 18t52.5 -2q18 -4 33.5 -15t32.5 -22q8 -4 15 -9t13 -9q27 -12 43 -6t21 33l4 30l61 -8l-4 -31q-4 -29 -19.5 -50t-39.5 -32q-21 -8 -35 -8q-29 0 -57 17q-14 8 -39 24q-31 23 -47.5 28t-26.5 -5q-14 -10 -18 -29l-5 -31zM-1 309.5 q1 32.5 1 67.5v33v49v96q0 41 3 76t13 71q4 16 4 33q4 25 12.5 53.5t41.5 51.5q16 10 37.5 15t38.5 7l6 2q35 4 75 -16q39 -18 65 -58t30 -92q14 -150 15 -276.5t-11 -247.5q-4 -47 -19.5 -95t-68.5 -87q-25 -19 -64 -19q-10 0 -21.5 1t-21.5 3l-4 3q-16 4 -34.5 11 t-35.5 27q-35 45 -45 104.5t-14 119.5q-4 35 -3 67.5zM61 310.5q0 -31.5 2 -66.5q4 -49 12.5 -101.5t35.5 -87.5q6 -6 12 -9t22 -7h7q16 -4 26 -4q18 0 27 8q35 23 47 55.5t16 81.5q10 117 10.5 241t-14.5 271q-4 27 -17.5 55.5t-41.5 45.5q-25 10 -37 10h-4l-4 -2 q-12 -2 -27.5 -5t-23.5 -8q-14 -10 -18.5 -23t-6.5 -38q-2 -10 -3 -20.5t-5 -20.5q-14 -59 -15 -131v-96v-49v-33v-66.5z" />
<glyph unicode="&#xf6;" horiz-adv-x="407" d="M-1 309.5q1 32.5 1 67.5v33v49v96q0 41 3 76t13 71q4 16 4 33q4 25 12.5 53.5t41.5 51.5q16 10 37.5 15t38.5 7l6 2q35 4 75 -16q39 -18 65 -58t30 -92q14 -150 15 -276.5t-11 -247.5q-4 -47 -19.5 -95t-68.5 -87q-25 -19 -64 -19q-10 0 -21.5 1t-21.5 3l-4 3 q-16 4 -34.5 11t-35.5 27q-35 45 -45 104.5t-14 119.5q-4 35 -3 67.5zM23 1042v31v29l29 2h30h13l28 -2v-29q2 -4 1 -16t-1 -15v-30h-30h-9h-14h-18l-27 2zM61 310.5q0 -31.5 2 -66.5q4 -49 12.5 -101.5t35.5 -87.5q6 -6 12 -9t22 -7h7q16 -4 26 -4q18 0 27 8q35 23 47 55.5 t16 81.5q10 117 10.5 241t-14.5 271q-4 27 -17.5 55.5t-41.5 45.5q-25 10 -37 10h-4l-4 -2q-12 -2 -27.5 -5t-23.5 -8q-14 -10 -18.5 -23t-6.5 -38q-2 -10 -3 -20.5t-5 -20.5q-14 -59 -15 -131v-96v-49v-33v-66.5zM205 1042v31l2 31h31h8h15h18l27 -2l2 -29v-31v-28l-31 -2 h-29h-12l-29 2z" />
<glyph unicode="&#xf7;" horiz-adv-x="516" d="M0 565v64h49h82t82 -4q29 -4 54.5 -3t54.5 1q16 2 33.5 2h33.5h31v-62h-31q-16 0 -32.5 -1t-32.5 -1t-31 -1t-31 -1q-14 0 -26.5 1t-28.5 1q-39 4 -78 4h-80h-49zM164 414v41l2 28l27 2h10h22l31 -2v-30v-9v-18t-2 -12v-29l-29 -2h-12h-18h-29zM164 702v31v8v33l2 29 l27 2h12h18l31 -2v-29q2 -6 2 -20.5t-2 -22.5v-26l-29 -3h-10h-20h-31z" />
<glyph unicode="&#xf8;" horiz-adv-x="544" d="M0 4l14 27q18 37 29.5 60.5t18 36.5t8.5 20.5t4 13.5l8 22q-2 14 -3 28.5t-1 29.5q-4 35 -4 67.5t2 67.5v178q0 41 3 76t13 69q4 20 4 35q4 25 11.5 53.5t42.5 51.5q16 10 37.5 15t37.5 7l6 2q35 4 76 -16q55 -29 80 -92q12 23 20.5 42t12.5 31l10 31l59 -20l-10 -29 q-8 -25 -27.5 -65.5t-45.5 -92.5q10 -135 10 -251.5t-10 -227.5q-4 -49 -19.5 -97t-69.5 -85q-29 -18 -63 -19h-21.5t-21.5 4l-4 3q-16 4 -34.5 10t-35.5 28q-10 12 -17 26.5t-14 31.5l-36 -74l-15 -27zM137 293l6 12l37 68q31 55 76 136t86 159q0 6 -1 12t-1 12 q-4 27 -17.5 55.5t-43.5 43.5q-23 12 -35 12h-4l-4 -2q-12 -2 -27.5 -5t-26.5 -8q-20 -14 -22 -61q-2 -10 -3 -20.5t-5 -20.5q-14 -59 -15 -131v-178v-84zM145 174q4 -35 14.5 -65.5t26.5 -53.5q6 -6 12.5 -9t22.5 -7h4q20 -4 29 -4q18 0 27 8q35 23 47 55.5t16 81.5 q14 170 6 369l-114 -207q-14 -23 -23.5 -40t-13.5 -28q-23 -41 -35 -63.5t-19 -36.5z" />
<glyph unicode="&#xf9;" horiz-adv-x="544" d="M0 788v64h51q10 0 21.5 1t23.5 -1l29 -4v-27q0 -47 -1 -94t-1 -92q-2 -72 -2 -143.5v-143.5q2 -16 1 -32.5t-1 -32.5q-2 -45 0 -87t18 -83q8 -20 22.5 -39t31.5 -29q18 -12 55 -4q31 6 51 31q14 16 22.5 27.5t12.5 33.5l2 14v101.5t2 101.5v101v31.5t2 31.5q2 29 3 53.5 t-3 50.5q-4 31 -5 66t1 70v34h-57v64h92l26 -4v-94v-67t4 -60q4 -31 3 -59.5t-3 -57.5q0 -14 -1 -28.5t-1 -30.5v-103v-149.5t4 -149.5h74v-61h-33q-16 0 -24 -2h-27q-16 0 -22 2l-27 2l-2 26q0 2 -1 3t-1 6q-16 -18 -35.5 -29.5t-42.5 -15.5q-10 -2 -20.5 -4.5t-20.5 -2.5 q-31 0 -61 19q-29 18 -48.5 46t-29.5 52q-23 49 -24 98.5t1 96.5v63q-2 72 -1 143.5t1 143.5q2 39 2 77v79h-6q-6 0 -12 -1.5t-12 -1.5h-31zM92 1147l51 35l17 -25q31 -45 50 -89t19 -46l13 -29l-58 -22l-12 28q-10 18 -19 41q-10 18 -20 39t-25 41z" />
<glyph unicode="&#xfa;" horiz-adv-x="544" d="M0 788v64h51q10 0 21.5 1t23.5 -1l29 -4v-27q0 -47 -1 -94t-1 -92q-2 -72 -2 -143.5v-143.5q2 -16 1 -32.5t-1 -32.5q-2 -45 0 -87t18 -83q8 -20 22.5 -39t31.5 -29q18 -12 55 -4q31 6 51 31q14 16 22.5 27.5t12.5 33.5l2 14v101.5t2 101.5v101v31.5t2 31.5q2 29 3 53.5 t-3 50.5q-4 31 -5 66t1 70v34h-57v64h92l26 -4v-94v-67t4 -60q4 -31 3 -59.5t-3 -57.5q0 -14 -1 -28.5t-1 -30.5v-103v-149.5t4 -149.5h74v-61h-33q-16 0 -24 -2h-27q-16 0 -22 2l-27 2l-2 26q0 2 -1 3t-1 6q-16 -18 -35.5 -29.5t-42.5 -15.5q-10 -2 -20.5 -4.5t-20.5 -2.5 q-31 0 -61 19q-29 18 -48.5 46t-29.5 52q-23 49 -24 98.5t1 96.5v63q-2 72 -1 143.5t1 143.5q2 39 2 77v79h-6q-6 0 -12 -1.5t-12 -1.5h-31zM180 999l14 27q8 16 15.5 29.5t15.5 25.5q4 12 18 33q4 8 8.5 17.5t8.5 19.5l8 29l59 -21l-10 -29q-4 -16 -10 -28t-10 -17 q-4 -10 -9.5 -18t-9.5 -16q-8 -12 -14 -24.5t-14 -29.5l-15 -26z" />
<glyph unicode="&#xfb;" horiz-adv-x="544" d="M0 788v64h51q10 0 21.5 1t23.5 -1l29 -4v-27q0 -47 -1 -94t-1 -92q-2 -72 -2 -143.5v-143.5q2 -16 1 -32.5t-1 -32.5q-2 -45 0 -87t18 -83q8 -20 22.5 -39t31.5 -29q18 -12 55 -4q31 6 51 31q14 16 22.5 27.5t12.5 33.5l2 14v101.5t2 101.5v101v31.5t2 31.5q2 29 3 53.5 t-3 50.5q-4 31 -5 66t1 70v34h-57v64h92l26 -4v-94v-67t4 -60q4 -31 3 -59.5t-3 -57.5q0 -14 -1 -28.5t-1 -30.5v-103v-149.5t4 -149.5h74v-61h-33q-16 0 -24 -2h-27q-16 0 -22 2l-27 2l-2 26q0 2 -1 3t-1 6q-16 -18 -35.5 -29.5t-42.5 -15.5q-10 -2 -20.5 -4.5t-20.5 -2.5 q-31 0 -61 19q-29 18 -48.5 46t-29.5 52q-23 49 -24 98.5t1 96.5v63q-2 72 -1 143.5t1 143.5q2 39 2 77v79h-6q-6 0 -12 -1.5t-12 -1.5h-31zM43 1018l20 20q51 51 90.5 89t39.5 40h43l9 -9l21.5 -21.5l24.5 -24.5l18 -18q12 -12 28.5 -34t18.5 -24l19 -24l-49 -39l-19 24 l-5 7q-5 8 -12 17t-14.5 17.5t-13.5 14.5q-4 6 -18.5 20t-28.5 29l-106 -107l-23 -22z" />
<glyph unicode="&#xfc;" horiz-adv-x="544" d="M0 788v64h51q10 0 21.5 1t23.5 -1l29 -4v-27q0 -47 -1 -94t-1 -92q-2 -72 -2 -143.5v-143.5q2 -16 1 -32.5t-1 -32.5q-2 -45 0 -87t18 -83q8 -20 22.5 -39t31.5 -29q18 -12 55 -4q31 6 51 31q14 16 22.5 27.5t12.5 33.5l2 14v101.5t2 101.5v101v31.5t2 31.5q2 29 3 53.5 t-3 50.5q-4 31 -5 66t1 70v34h-57v64h92l26 -4v-94v-67t4 -60q4 -31 3 -59.5t-3 -57.5q0 -14 -1 -28.5t-1 -30.5v-103v-149.5t4 -149.5h74v-61h-33q-16 0 -24 -2h-27q-16 0 -22 2l-27 2l-2 26q0 2 -1 3t-1 6q-16 -18 -35.5 -29.5t-42.5 -15.5q-10 -2 -20.5 -4.5t-20.5 -2.5 q-31 0 -61 19q-29 18 -48.5 46t-29.5 52q-23 49 -24 98.5t1 96.5v63q-2 72 -1 143.5t1 143.5q2 39 2 77v79h-6q-6 0 -12 -1.5t-12 -1.5h-31zM70 1042v31v29l29 2h30h13l28 -2v-29q2 -4 1 -16t-1 -15v-30h-30h-9h-14h-18l-27 2zM252 1042v31l2 31h31h8h15h18l27 -2l2 -29v-31 v-28l-31 -2h-29h-12l-29 2z" />
<glyph unicode="&#xfd;" horiz-adv-x="557" d="M0 788v64h176v-64h-51q8 -35 15 -70.5t14 -70.5q4 -12 5 -24.5t3 -22.5q4 -23 7 -43t7 -41q14 -59 25.5 -116.5t21.5 -112.5q4 -23 8.5 -46.5t8.5 -50.5q2 -14 3 -27t5 -26q0 4 2 8l4 23q4 16 7 33.5t7 36.5q10 43 17.5 85t13.5 76l12 66q10 66 22.5 129t24.5 129l11 63 h-19h-31v64h89q10 0 22 1t35 1h31v-64h-62q-4 -18 -7 -37.5t-7 -39.5q-14 -63 -25.5 -128t-23.5 -128q-2 -16 -4 -32.5t-7 -33.5l-30 -164l-15 -69l-4 -23l-14 -59q-4 -16 -7 -32.5t-7 -33.5l-9 -43q-4 -23 -7 -43t-7 -41l-4 -14q0 -4 -4 -17l-19 -100q-4 -12 -5 -25.5 t-3 -25.5h19h30v-61h-30q-18 0 -30.5 -1.5t-27.5 -1.5q-12 -2 -25.5 -2h-31.5h-33v62h33h31q4 16 6 32.5t6 32.5q4 27 9 52.5t12 52.5l4 14q0 4 1 8t1 9q4 18 7 37.5t7 39.5v9l-2 16q-8 41 -16.5 88t-16.5 94l-16 94q-10 55 -21.5 111.5t-25.5 116.5q-4 23 -7.5 44t-7.5 44 q-2 12 -3 24.5t-5 22.5q-6 39 -13.5 77.5t-17.5 73.5h-61zM223 999l14 27q8 16 15.5 29.5t15.5 25.5q4 12 18 33q4 8 8.5 17.5t8.5 19.5l8 29l59 -21l-10 -29q-4 -16 -10 -28t-10 -17q-4 -10 -9.5 -18t-9.5 -16q-8 -12 -14 -24.5t-14 -29.5l-15 -26z" />
<glyph unicode="&#xff;" horiz-adv-x="557" d="M0 788v64h176v-64h-51q8 -35 15 -70.5t14 -70.5q4 -12 5 -24.5t3 -22.5q4 -23 7 -43t7 -41q14 -59 25.5 -116.5t21.5 -112.5q4 -23 8.5 -46.5t8.5 -50.5q2 -14 3 -27t5 -26q0 4 2 8l4 23q4 16 7 33.5t7 36.5q10 43 17.5 85t13.5 76l12 66q10 66 22.5 129t24.5 129l11 63 h-19h-31v64h89q10 0 22 1t35 1h31v-64h-62q-4 -18 -7 -37.5t-7 -39.5q-14 -63 -25.5 -128t-23.5 -128q-2 -16 -4 -32.5t-7 -33.5l-30 -164l-15 -69l-4 -23l-14 -59q-4 -16 -7 -32.5t-7 -33.5l-9 -43q-4 -23 -7 -43t-7 -41l-4 -14q0 -4 -4 -17l-19 -100q-4 -12 -5 -25.5 t-3 -25.5h19h30v-61h-30q-18 0 -30.5 -1.5t-27.5 -1.5q-12 -2 -25.5 -2h-31.5h-33v62h33h31q4 16 6 32.5t6 32.5q4 27 9 52.5t12 52.5l4 14q0 4 1 8t1 9q4 18 7 37.5t7 39.5v9l-2 16q-8 41 -16.5 88t-16.5 94l-16 94q-10 55 -21.5 111.5t-25.5 116.5q-4 23 -7.5 44t-7.5 44 q-2 12 -3 24.5t-5 22.5q-6 39 -13.5 77.5t-17.5 73.5h-61zM113 1042v31v29l29 2h30h13l28 -2v-29q2 -4 1 -16t-1 -15v-30h-30h-9h-14h-18l-27 2zM295 1042v31l2 31h31h8h15h18l27 -2l2 -29v-31v-28l-31 -2h-29h-12l-29 2z" />
<glyph unicode="&#x152;" horiz-adv-x="919" d="M1 548q1 87 5 173q2 16 3 29.5t1 29.5q0 14 2 21q2 53 8.5 103t30.5 106l8 16q16 35 36 67.5t65 53.5q47 23 97 26t99 3h142h34.5t36.5 2h60q23 0 44 -1t44 -1q12 -2 24.5 -2h22.5l31 -3v-30v-16.5t2 -24.5v-70h-62v31v15t-2 22v14h-20q-20 2 -41 3t-43 1q-14 0 -28.5 -1 t-29.5 -1h-82q0 -18 1.5 -35.5t3.5 -36.5q2 -20 3 -38.5t1 -38.5q0 -53 1 -105.5t1 -105.5q0 -27 1 -52.5t1 -52.5h8q16 2 33.5 3t34.5 1q20 2 38.5 1t34.5 -1q16 -2 29.5 -2h30.5v27v31h61v-31v-32t2 -17q0 -8 1 -19.5t1 -34.5v-32h-63v47q-16 -2 -31.5 -1t-32.5 3h-69 q-16 0 -32 -1t-32 -3q-6 -2 -14 -2q2 -156 5 -287t7 -252q25 0 48.5 1t47.5 3q35 0 72 1t76 1v80h61v-145l-45 2q-41 2 -81 1t-81 -3q-35 0 -67.5 -1t-67.5 -1h-55q-16 -2 -34.5 -2h-37.5q-49 0 -98 6t-86 26q-33 18 -54.5 44t-36 56.5t-22.5 63.5t-14 64q-4 20 -8 30 q-4 14 -5 28.5t-3 29.5l-7 41q-16 88 -15 175zM62.5 549q-1.5 -82 15.5 -166l6 -43q2 -14 3 -26.5t5 -24.5q2 -8 3 -16.5t5 -16.5q10 -55 30 -107.5t67 -78.5q41 -23 103 -24t120 1h33q-6 123 -8.5 254t-4.5 291q0 41 -1 81t-1 81q-2 53 -2 105v106q0 18 -1 35.5t-3 35.5 q-6 37 -6 78h-70q-47 0 -89 -3t-81 -19q-29 -14 -42 -37t-27 -54q-4 -6 -8 -18q-23 -47 -28 -90t-7 -94q0 -14 -2 -23q0 -14 -1 -28.5t-1 -28.5q-6 -88 -7.5 -170z" />
<glyph unicode="&#x153;" horiz-adv-x="681" d="M-2 309.5q0 32.5 2 67.5v178q0 41 3 76t13 69q4 20 4 35q4 25 11.5 53.5t42.5 51.5q16 10 37.5 15t38.5 7l6 2q33 4 75 -16q51 -29 76 -82q10 20 24.5 41.5t37.5 38.5q27 18 55.5 18t50.5 -4l4 -2q16 -4 34.5 -11t35.5 -28q20 -27 29 -55q10 -25 12 -49.5t4 -44.5l4 -29 l6 -37v-28.5t2 -30.5q0 -6 -2 -38t-2 -50l-2 -27l-27 -2q-45 -4 -71.5 -3t-48.5 5q-23 2 -46.5 3t-64.5 -3v-14q0 -14 -1 -27.5t-1 -28.5v-26v-4v-13q0 -45 1 -88t5 -84q4 -29 17.5 -56.5t42.5 -43.5q16 -6 26 -8t14 -2h5q12 4 27.5 6t23.5 8q8 4 14 17.5t8 25.5l6 31l62 -8 l-6 -31q-4 -23 -15.5 -47.5t-33.5 -40.5q-16 -10 -38 -14.5t-38 -8.5h-19q-31 0 -63 17q-47 20 -74 76q-20 -45 -63 -74q-16 -10 -32 -14.5t-32 -4.5q-12 0 -22.5 1t-20.5 3l-4 3q-16 4 -34.5 10t-35.5 28q-35 45 -45 104.5t-14 119.5q-4 35 -4 67.5zM61 310.5 q0 -31.5 2 -66.5q4 -49 12.5 -101.5t35.5 -87.5q6 -6 12 -9t22 -7h5q39 -10 55 4q35 23 47 55.5t16 81.5q4 37 7.5 75t3.5 77q0 23 1 43t1 43v74q2 16 1 30.5t-1 30.5l-2 16q-2 16 -3.5 34t-5.5 34l-6 55q-4 27 -17.5 55.5t-43.5 43.5q-14 8 -24.5 10t-14.5 2l-4 -2 q-12 -2 -27.5 -5t-26.5 -8q-20 -14 -22 -61q-2 -10 -3 -20.5t-5 -20.5q-14 -59 -15 -131v-178v-66.5zM342 557q2 -16 2 -32.5v-32.5q16 2 30.5 3t26.5 1q16 0 29.5 -1t28.5 -3q16 -2 34.5 -3.5t47.5 0.5q2 18 2 34v20v30.5t-2 26.5q0 10 -4 31q-4 20 -5 33q-2 23 -4 43 t-10 36q-6 20 -18 37q-6 8 -12.5 10.5t-22.5 6.5l-6 2q-37 10 -53 -4q-31 -20 -48 -68q-14 -41 -15 -83t-1 -87z" />
<glyph unicode="&#x178;" horiz-adv-x="643" d="M0 1174l31 2q25 2 45 1t43 -1q12 -2 24.5 -2h26.5h31v-64h-31h-35q4 -6 6 -15.5t9 -27.5q4 -10 9 -26.5t9 -34.5q8 -23 14 -43.5t11 -34.5l32 -109l66 -213l51 168q10 31 20 51q4 12 8.5 23.5t8.5 21.5q8 25 14 50.5t15 52.5q10 49 24 96l12 43h-36l-31 2l2 62h33 q29 -2 45 -2h32q10 0 23.5 1t32.5 1h33v-64h-68l-18 -61l-25 -95q-6 -27 -13.5 -52t-15.5 -54l-18 -49q-10 -20 -19 -45l-79 -264q0 -51 1 -100.5t1 -98.5q2 -51 3 -103.5t1 -105.5v-14q-2 -8 -2 -21h32h31v-61h-31q-23 0 -37 -1t-30 -1q-14 -2 -29.5 -2h-38.5h-33v61h33h41 q-2 8 -1 14.5t1 14.5q0 4 1 6t1 4q0 53 -1 105.5t-3 103.5q-2 47 -2 97v102l-94 309l-33 110q-4 14 -10 34t-14 42l-19 64l-14 43l-6 20h-35l-31 -2zM156 1329v31v29l29 2h30h13l28 -2v-29q2 -4 1 -16t-1 -15v-30h-30h-9h-14h-18l-27 2zM338 1329v31l2 31h31h8h15h18l27 -2 l2 -29v-31v-28l-31 -2h-29h-12l-29 2z" />
<glyph unicode="&#x2c6;" horiz-adv-x="415" d="M0 1018l20 20q51 51 90.5 89t39.5 40h43l9 -9l21.5 -21.5l24.5 -24.5l18 -18q12 -12 28.5 -34t18.5 -24l19 -24l-49 -39l-19 24l-5 7q-5 8 -12 17t-14.5 17.5t-13.5 14.5q-4 6 -18.5 20t-28.5 29l-106 -107l-23 -22z" />
<glyph unicode="&#x2dc;" horiz-adv-x="434" d="M0 1008l4 30q6 37 37 64q14 10 35.5 18t52.5 -2q18 -4 33.5 -15t32.5 -22q8 -4 15 -9t13 -9q27 -12 43 -6t21 33l4 30l61 -8l-4 -31q-4 -29 -19.5 -50t-39.5 -32q-21 -8 -35 -8q-29 0 -57 17q-14 8 -39 24q-31 23 -47.5 28t-26.5 -5q-14 -10 -18 -29l-5 -31z" />
<glyph unicode="&#x2000;" horiz-adv-x="759" />
<glyph unicode="&#x2001;" horiz-adv-x="1519" />
<glyph unicode="&#x2002;" horiz-adv-x="759" />
<glyph unicode="&#x2003;" horiz-adv-x="1519" />
<glyph unicode="&#x2004;" horiz-adv-x="506" />
<glyph unicode="&#x2005;" horiz-adv-x="379" />
<glyph unicode="&#x2006;" horiz-adv-x="253" />
<glyph unicode="&#x2007;" horiz-adv-x="253" />
<glyph unicode="&#x2008;" horiz-adv-x="189" />
<glyph unicode="&#x2009;" horiz-adv-x="303" />
<glyph unicode="&#x200a;" horiz-adv-x="84" />
<glyph unicode="&#x2010;" horiz-adv-x="454" d="M0 563v62h31h92q23 0 45 -1t45 -1q14 0 27.5 1t29.5 1q14 0 27.5 1t30.5 1h30v-64h-30h-56q-16 -2 -29.5 -2h-29.5h-92q-23 2 -45.5 2h-44.5h-31z" />
<glyph unicode="&#x2011;" horiz-adv-x="454" d="M0 563v62h31h92q23 0 45 -1t45 -1q14 0 27.5 1t29.5 1q14 0 27.5 1t30.5 1h30v-64h-30h-56q-16 -2 -29.5 -2h-29.5h-92q-23 2 -45.5 2h-44.5h-31z" />
<glyph unicode="&#x2012;" horiz-adv-x="454" d="M0 563v62h31h92q23 0 45 -1t45 -1q14 0 27.5 1t29.5 1q14 0 27.5 1t30.5 1h30v-64h-30h-56q-16 -2 -29.5 -2h-29.5h-92q-23 2 -45.5 2h-44.5h-31z" />
<glyph unicode="&#x2013;" horiz-adv-x="567" d="M0 616l31 2q86 10 154.5 9.5t133.5 -2.5q31 -2 61 -3t60 -1h31v-62h-31q-31 0 -61.5 1t-61.5 1q-63 4 -129.5 4t-150.5 -8l-31 -2z" />
<glyph unicode="&#x2014;" horiz-adv-x="690" d="M0 623l33 2q41 4 83 3t83 -1q23 -2 45 -2h45h131q35 2 71.5 2h71.5h31v-62h-31q-35 0 -70.5 -1t-70.5 -1q-33 0 -65.5 -1t-67.5 -1q-23 0 -46.5 1t-45.5 1q-41 2 -80 3t-80 -3l-31 -2z" />
<glyph unicode="&#x2018;" horiz-adv-x="217" d="M-2 1008v36q0 8 2 41t8 64l8 31l60 -15l-6 -30q-4 -16 -6.5 -34t-2.5 -32h37v-29q2 -6 1 -16t-1 -14v-29l-28 -2h-43l-27 2z" />
<glyph unicode="&#x2019;" horiz-adv-x="219" d="M30 1124.5q1 10.5 1 14.5v28l28 2h43l27 -2l2 -26v-37q0 -8 -2 -41t-8 -64l-8 -30l-60 14l6 31q4 16 6.5 33.5t2.5 31.5h-37v29q-2 6 -1 16.5z" />
<glyph unicode="&#x201a;" horiz-adv-x="241" d="M44 30.5q1 10.5 1 14.5v29l29 2h43l26 -2l2 -27v-37q0 -8 -2 -40.5t-8 -63.5l-8 -31l-59 14l6 31q4 16 6 33.5t2 32.5h-37v28q-2 6 -1 16.5z" />
<glyph unicode="&#x201c;" horiz-adv-x="415" d="M-2 1008v36q0 8 2 41t8 64l8 31l60 -15l-6 -30q-4 -16 -6.5 -34t-2.5 -32h37v-29q2 -6 1 -16t-1 -14v-29l-28 -2h-43l-27 2zM180 1008v36q0 8 2 41t8 64l9 31l59 -15l-6 -30q-4 -16 -6 -34t-2 -32h37v-29q2 -6 1 -16t-1 -14v-29l-29 -2h-43l-27 2z" />
<glyph unicode="&#x201d;" horiz-adv-x="407" d="M38 1124.5q1 10.5 1 14.5v28l29 2h43l26 -2l2 -26v-37q0 -8 -2 -41t-8 -64l-8 -30l-60 14l7 31q4 16 6 33.5t2 31.5h-37v29q-2 6 -1 16.5zM218 1124.5q1 10.5 1 14.5v28l29 2h43l26 -2l2 -26v-37q0 -8 -2 -41t-8 -64l-8 -30l-59 14l6 31q4 16 6 33.5t2 31.5h-37v29 q-2 6 -1 16.5z" />
<glyph unicode="&#x201e;" horiz-adv-x="432" d="M52 30.5q1 10.5 1 14.5v29l29 2h43l27 -2l2 -27v-37q0 -8 -2 -40.5t-9 -63.5l-8 -31l-59 14l6 31q4 16 6 33.5t2 32.5h-37v28q-2 6 -1 16.5zM235 30.5q1 10.5 1 14.5v29l28 2h43l27 -2l2 -27v-37q0 -8 -2 -40.5t-8 -63.5l-9 -31l-59 14l6 31q4 16 6 33.5t2 32.5h-36v28 q-2 6 -1 16.5z" />
<glyph unicode="&#x2022;" horiz-adv-x="268" d="M0 541v27.5v33.5v30v13v29l29 2q8 0 30.5 1t46.5 1h37l27 -2l2 -29v-106v-31h-31h-28h-35h-27.5t-21.5 2h-27z" />
<glyph unicode="&#x2026;" horiz-adv-x="694" d="M53 -14v28v31v31h29h29h14h27l2 -29v-31v-30h-31h-8h-15h-18h-29zM276 14v31v31h31h8h15h18h29v-29v-31v-30h-29h-29h-14h-26zM498 -14v28v31v31h28h29h14h27l2 -29v-31v-30h-31h-8h-14h-19h-28z" />
<glyph unicode="&#x202f;" horiz-adv-x="303" />
<glyph unicode="&#x2039;" horiz-adv-x="327" d="M43 614l8 10q8 11 18.5 23t22.5 25.5t21 23.5q10 10 27.5 28.5t21.5 23.5l22 20l43 -45l-22 -21q-8 -8 -23.5 -23t-21.5 -24q-10 -10 -25.5 -27.5t-25.5 -33.5q10 -10 23 -25.5t26.5 -31t27 -29.5t21.5 -23l20 -20l-43 -45l-22 22q-12 12 -31.5 33t-38 42.5t-33 37.5 t-14.5 18z" />
<glyph unicode="&#x203a;" horiz-adv-x="358" d="M0 463l23 22q12 14 22 25l35 35q6 8 18.5 22.5t22.5 26.5q-14 18 -40 48t-58 60l-23 21l43 45l23 -20q51 -49 84.5 -90.5t35.5 -45.5l-2 -37q0 -2 -7 -11t-16 -20.5t-19.5 -22.5t-16.5 -17t-15.5 -16.5t-18.5 -19.5t-16 -18l-7 -8l-23 -22z" />
<glyph unicode="&#x205f;" horiz-adv-x="379" />
<glyph unicode="&#x20ac;" horiz-adv-x="610" d="M0 524l31 2l57 4v49.5t2 51.5q-10 0 -23.5 1t-35.5 3l-31 2l4 61l31 -2q23 -2 35 -3t22 -1q0 20 -1 41t-1 43q0 18 -1 36.5t-1 37.5q-2 47 6 91t25 91q10 31 34.5 68t59.5 61q33 23 72 24t67 -7h6q23 -6 46.5 -15.5t46.5 -34.5v50h61v-150q-2 -8 -2 -22l-59 -13 q-10 29 -21.5 51.5t-28.5 45.5q-10 12 -22 17t-35 9l-6 2q-16 4 -43 5t-47 -13q-23 -14 -41.5 -42t-28.5 -56q-29 -78 -28 -160q0 -18 1 -36.5t1 -35.5q0 -23 2 -44t2 -44q12 0 27.5 1t31.5 3q23 0 41 1t31 1h32v-61h-32q-10 0 -28.5 -1t-39.5 -3q-20 0 -36.5 -1t-30.5 -1 q0 -27 -1 -51.5t1 -49.5h28.5t34.5 2q23 2 41 2.5t31 0.5h32v-62h-32q-10 0 -28.5 -1t-39.5 -1q-18 -2 -34.5 -3t-30.5 -1q0 -10 1 -20.5t1 -20.5l4 -86v-59q-2 -51 2 -98.5t33 -82.5q25 -33 57 -49q43 -20 65 -16q2 2 9 2q18 4 41.5 7t35.5 13q14 8 24.5 28.5t14.5 41.5 l4 31l62 -11l-4 -30q-4 -29 -21.5 -63t-44.5 -50q-23 -14 -52.5 -19t-51.5 -10l-8 -2h-15q-35 0 -86 23q-39 16 -78 65q-41 49 -46 107.5t-5 114.5q2 14 2 27.5v27.5q-2 23 -3 43t-1 43l-4 43q-10 -2 -22.5 -2t-32.5 -2l-31 -2z" />
<glyph unicode="&#x2122;" horiz-adv-x="933" d="M0 1067v33q0 14 1 23.5t1 15.5v10l2 29h29h39q16 0 30.5 1t20.5 1h133q2 0 13.5 -1t25.5 -1h37h30v-117l-63 2l2 31v22h-82l-4 -123q0 -51 -1 -103t1 -106v-168h43v-61h-59q-4 0 -7.5 -1t-7.5 -1h-75v61h45v23v74t-2 71q-2 53 -1 106.5t3 106.5q2 29 2 59.5v61.5h-93 q0 -4 -1 -9t-1 -9v-33zM446 549v63h43v78t-2 86v25q-2 10 -2 18v19v13t2 13v164q2 23 2 43.5v42.5h-43v64l33 -2h68l6 -19l4 -10t9 -21.5t9.5 -20.5t4.5 -11l16 -39v-2l10 -21q4 -12 8 -16l23 -62l4 -12l10 21l8 24q4 6 5.5 13.5t5.5 15.5q2 6 3 13t5 15l6 13l6 20 q2 14 10 29q2 2 2 4t3 6q4 10 7 20.5t7 20.5l8 19h100v-62h-43q2 -55 4.5 -127t3.5 -143.5t2 -133t1 -96.5h45v-63h-74q-10 0 -19.5 -1t-25.5 -1h-31v63h43l-6 381q-4 -8 -5 -15t-5 -13l-8 -25q-4 -10 -7.5 -18.5t-7.5 -18.5t-6 -17t-6 -14l-6 -12h-68q-6 12 -12 26.5 t-10 26.5t-8 19q-10 35 -21 57l-6 12v-98q0 -10 -1 -21.5t-1 -21.5q0 -6 -1 -12t-1 -12t1 -13.5t1 -17.5q0 -6 1 -13.5t1 -15.5q0 -45 1 -85t1 -77h43v-63h-74q-8 0 -18 -1t-27 -1h-31z" />
<glyph unicode="&#x25fc;" horiz-adv-x="860" d="M0 0v860h860v-860h-860z" />
</font>
</defs>
</svg>
